<?xml version="1.0" encoding="utf-8"?>
<!-- Generator: Adobe Illustrator 24.3.0, SVG Export Plug-In . SVG Version: 6.00 Build 0)  -->
<svg version="1.1" id="Capa_1" xmlns="http://www.w3.org/2000/svg" xmlns:xlink="http://www.w3.org/1999/xlink" x="0px" y="0px"
	 viewBox="0 0 1234 247" style="enable-background:new 0 0 1234 247;" xml:space="preserve">
<style type="text/css">
	.st0{fill:#C4C4C4;filter:url(#Adobe_OpacityMaskFilter);}
	.st1{mask:url(#a_1_);}
	.st2{fill:url(#SVGID_1_);}
	.st3{fill:#F5F5F5;fill-opacity:0.5;}
	.st4{fill:url(#SVGID_2_);}
	.st5{opacity:0.31;fill:#EEEDF3;}
	.st6{fill:#E2E2E1;}
	.st7{fill:#01384F;}
	.st8{fill:#FACBB6;}
	.st9{fill:#003340;}
	.st10{fill:#EEC0AE;}
	.st11{fill:#AD4328;}
	.st12{fill:#F9B751;}
	.st13{fill:#F6B69A;}
	.st14{fill:#004970;}
	.st15{fill:#074559;}
	.st16{fill:#EDBFAE;}
	.st17{fill:#345185;}
	.st18{fill:#FFFFFF;}
	.st19{fill:#59BCAB;}
	.st20{fill:#C1E4EE;}
</style>
<defs>
	<filter id="Adobe_OpacityMaskFilter" filterUnits="userSpaceOnUse" x="-2" y="24" width="1236" height="200">
		<feColorMatrix  type="matrix" values="1 0 0 0 0  0 1 0 0 0  0 0 1 0 0  0 0 0 1 0"/>
	</filter>
</defs>
<mask maskUnits="userSpaceOnUse" x="-2" y="24" width="1236" height="200" id="a_1_">
	<path class="st0" d="M0,0h1234v224H0V0z"/>
</mask>
<g class="st1">
	
		<linearGradient id="SVGID_1_" gradientUnits="userSpaceOnUse" x1="687.1429" y1="356.7211" x2="566.1429" y2="-39.2789" gradientTransform="matrix(1 0 0 -1 0 247.8898)">
		<stop  offset="0" style="stop-color:#AD4328"/>
		<stop  offset="1" style="stop-color:#4A307E;stop-opacity:0.31"/>
	</linearGradient>
	<path class="st2" d="M5,24h1222c3.9,0,7,3.1,7,7v186c0,3.9-3.1,7-7,7H5c-3.9,0-7-3.1-7-7V31C-2,27.1,1.1,24,5,24z"/>
	<path class="st3" d="M870.2,45.7c-4.1,8.9-3.4,19.2,1.4,28.1l86.1,149.6h69.7L945.6,82.1l248.9-41.2c10.1-1.6,18.1-7.8,22.3-15.9
		H914.5l-21.7,3.6C883.2,29.9,874.3,36.8,870.2,45.7L870.2,45.7z"/>
</g>
<linearGradient id="SVGID_2_" gradientUnits="userSpaceOnUse" x1="509.9139" y1="-6.7667" x2="834.1669" y2="333.0003" gradientTransform="matrix(1 0 0 -1 0 247.8898)">
	<stop  offset="0" style="stop-color:#6FC7DA"/>
	<stop  offset="0.369" style="stop-color:#0D71B9"/>
	<stop  offset="0.761" style="stop-color:#9E1460"/>
	<stop  offset="1" style="stop-color:#E7267A"/>
</linearGradient>
<path class="st4" d="M757.4,61.7c-2.7-6.9-13.2-33.4-41.1-48.5c-6-3.2-33.9-18.2-58.9-7.6c-33.2,14.1-25.9,58-57.2,77.9
	c-26.9,17-52.6-19.1-84.5-4c-16.7,7.9-30.8,26.3-32.4,43.5c-4.9,53.6,107.7,151.1,197.9,112.8C746.8,208,779.2,117.2,757.4,61.7
	L757.4,61.7z"/>
<path class="st5" d="M713.1,147l-6.9-11l-60.9-96l-9.7-15.2L690.2,46l9.7,15.3l21.9,34.4l6.9,11L713.1,147L713.1,147z M704.5,168.5
	l-6.9-11L615.7,28.4l-9.6-15.3l19.2,7.5l9.6,15.2h0.1l68,107.5l7,11L704.5,168.5L704.5,168.5z M0,0"/>
<path class="st6" d="M508.4,158.8l-0.9,46c0,1.4,1,2.5,2.3,2.5c1.3,0,2.4-1.1,2.4-2.5l0.9-46c0-1.4-1-2.5-2.3-2.5
	C509.5,156.3,508.5,157.4,508.4,158.8z"/>
<path class="st7" d="M693.6,21.7c1.2,3.8,2.4,7.7,3.6,11.5c0.2,0.5,0.3,1.1,0.3,1.6c-0.1,1.6-1.6,2.9-3.3,3.2
	c-1.7,0.3-3.4-0.2-5-0.6c-0.4,1.7-2.4,2.4-4.2,2.7c-7.7,1.4-15.9,0.4-23-2.8c3.1-4.2,5.6-8.9,7.4-13.8l18.2,0.8
	c1.1,0.1,2.2,0.1,3.2-0.3s1.9-1.2,2-2.2"/>
<path class="st8" d="M652.7,60.4c0,0-6,12.4-7.9,12.5c-12.9,0.7-27.1-3.4-27.1-3.4l-3.5,7c0,0,36.9,11.9,44.6,0.8
	c8.2-11.7,7.8-13.6,7.8-13.6S652.7,60.4,652.7,60.4z"/>
<path class="st9" d="M656.9,158.9c7,31.4,53.6,60.7,53.6,60.7l7.9-9.4c0,0-37.4-32.3-39-46.6c-1.6-14.3,10.8-36.9,10.8-36.9
	l-12.8-5.3L656.9,158.9z"/>
<path class="st8" d="M672.6,44.3c0.2-1.3-0.3-6.7-0.3-6.7s-5.1-0.5-5.4-5.4c-0.3-4.9,0-16.3,0-16.3l9.3-4.4l10.3,7.5l-1.6,24.6
	L672.6,44.3L672.6,44.3z"/>
<path class="st7" d="M685.7,22.8c0,0-8.4-0.8-9.8-8.1l-9.1,8.1c0,0-2.7-5.4,2.3-10.5c5-5.1,8.5-4,10.5-4c1.9,0,11.1,1.9,13.9,12.2
	c0.2,0.7,0.4,2.6,0.5,3.4L685.7,22.8L685.7,22.8z"/>
<path class="st10" d="M672.3,37.6c0,0,3.4,0.1,6.7-2.2c0,0-1.5,3.6-6.6,3.4L672.3,37.6z"/>
<path class="st11" d="M661.8,99.7c0,1.8,0.6,4.2,0.6,4.2l36,10c0,0,2.6-15.7-4-24.5c-3-4-2.3-9.7-1.1-14.5l4.2-16.6l-5.6-15.5
	l-22.7,1.5c0,0-13.2-1.2-17.7,15.5l8.4,12.3l0.1,4.6L661.8,99.7L661.8,99.7z"/>
<path class="st7" d="M696.9,93.6c0.4,0,6.9,14.2,1,22.6c-0.5,0.8-1.9,2.7-3.7,5.4c-8.7,12.9-28.6,43.4-29.3,47.9
	c-0.8,5.4-16.9,62.2-16.9,62.2l-12-1.9l9.8-64.5l16-65.7L696.9,93.6L696.9,93.6z M676.1,14.1c0,0-1.9,3.5-1.1,6.1l-8.1,2
	C666.9,22.2,665,12.2,676.1,14.1L676.1,14.1z M693.9,23.1c0,0,1,11.3-8.9,13.4l0.7-13.7C685.8,22.8,693.9,23.1,693.9,23.1z"/>
<path class="st11" d="M653,56.4l-5.6,13.4l12.7,6.2l1.2-11.8C661.2,64.2,653,56.4,653,56.4z"/>
<path class="st12" d="M688.1,43.1l-2.1-2.5l-9.3,2.2l1.1,2.7C677.9,45.5,688.1,43.1,688.1,43.1z"/>
<path class="st13" d="M677.9,45.5l-3.7,6.8l-0.1-6.8l0.4-2.1h2.5L677.9,45.5z"/>
<path class="st13" d="M0,0"/>
<path class="st12" d="M660,58.4c-0.1,0.1,0.2,0.7,0.6,1.5c0.4,0.8,0.6,1.5,0.7,1.4c0.2,0,0.2-0.8-0.2-1.6
	C660.7,58.8,660.1,58.3,660,58.4z M646.9,69.8c-0.1,0.2,2.8,1.7,6.5,3.3c3.7,1.7,6.8,2.7,6.8,2.6c0.1-0.2-3-1.4-6.6-3.1
	C650,71,647,69.7,646.9,69.8z M647.7,67.9c-0.1,0.2,2.5,1.6,5.8,3.3c3.3,1.7,6,2.9,6.1,2.8s-2.5-1.6-5.8-3.3
	C650.4,69,647.7,67.8,647.7,67.9z M664.7,58.8c0,0.2,0.8,0.3,1.7,0.4c1,0.1,1.8,0,1.8-0.2c0-0.2-0.8-0.3-1.7-0.4
	C665.6,58.6,664.7,58.6,664.7,58.8z M664.4,59.4c-0.1,0.2,0.8,0.5,2,0.8c1.1,0.3,2.1,0.4,2.1,0.2c0.1-0.2-0.8-0.5-2-0.8
	C665.4,59.4,664.4,59.3,664.4,59.4z"/>
<path class="st14" d="M634.9,229.9c0,0-10.5,2.7-7.9,3.5c2.6,0.8,20.9-1.1,20.9-1.1l0.6-2L634.9,229.9L634.9,229.9z"/>
<path class="st14" d="M647.9,232.2l3.7-9.7h-16.2l-0.5,7.4L647.9,232.2z M710.6,220.3c0,0-2.6,10.2-0.7,8.4c2-1.9,9.1-18.2,9.1-18.2
	l-1.5-1.5L710.6,220.3z"/>
<path class="st14" d="M719,210.4l-7-7.9l-7.8,13.7l6.4,4L719,210.4z"/>
<path class="st7" d="M675.4,10.9c0-0.1-1-0.1-2.5,0.3c-1.5,0.4-3.5,1.3-5.2,3.1c-1.7,1.7-2.5,3.8-2.8,5.2c-0.3,1.5-0.2,2.4-0.1,2.4
	c0.1,0,0.1-0.9,0.5-2.3c0.4-1.4,1.2-3.3,2.8-5c1.6-1.7,3.5-2.6,4.9-3.1C674.5,11,675.4,11,675.4,10.9L675.4,10.9z"/>
<path class="st8" d="M687,29c-0.1-0.8-0.1-1.7,0.3-2.4c0.3-0.8,1-1.5,1.8-1.5c1-0.1,1.9,0.7,2.1,1.6c0.2,0.9-0.4,1.9-1.2,2.4
	c-0.8,0.5-1.9,0.5-2.8,0.1"/>
<path class="st15" d="M681.3,100.4c0,0-0.5-45.4,1.2-48.9c0,0,1.7-8.5,8.4-8.7l-3,0.2c0,0-6.1-0.4-7.9,11.2
	c-1.8,11.6-1.7,46.5-1.7,46.5L681.3,100.4L681.3,100.4z M668.2,102c0,0-1.8-52.2-0.4-57.7H666c0,0-1.6,4.5-1.3,17
	c0.2,7.5,0,40.7,0,40.7H668.2z"/>
<path class="st16" d="M655,78c0,0-7.6,3.9-9.2,3.9c-1.7-0.1-6.4-0.2-5.9,0.4c0.5,0.5,5.9,1.3,5.9,1.3S655,78,655,78z"/>
<path class="st16" d="M0,0"/>
<path class="st11" d="M691.9,42.8c0,0,9.5,1.8,9.9,16.3s-5.7,25.6-5.7,25.6L680,76.6L691.9,42.8z"/>
<path class="st11" d="M0,0"/>
<path class="st11" d="M0,0"/>
<path class="st17" d="M481.5,169.2c-12.2-30.6-5.9-66.9,18.9-91.7c12-12,26.6-19.7,42-22.9l9.1,41.4c-19.2,4.2-33.6,21.3-33.6,41.7
	c0,5.6,1.1,10.9,3,15.9L481.5,169.2z"/>
<path class="st18" d="M500.3,197.8c-0.6-0.6-1.3-1.3-1.9-2l30.9-29c7.8,8.3,18.9,13.5,31.2,13.5c23.6,0,42.7-19.1,42.7-42.7
	c0-16.8-9.7-31.4-23.8-38.3l18.8-38c8.1,4,15.8,9.4,22.5,16.1c33.2,33.2,33.2,87.2,0,120.4C587.5,231,533.5,231,500.3,197.8
	L500.3,197.8z"/>
<path class="st19" d="M560.5,95c-3.2,0-6.2,0.4-9.1,1l-9-41.4c18.6-4.1,38.3-1.9,55.8,6.8l-18.8,38C573.7,96.5,567.3,95,560.5,95z"
	/>
<path class="st20" d="M498.4,195.8c-7.4-8-13.1-17-16.9-26.6l39.4-15.7c1.9,5,4.9,9.5,8.5,13.4L498.4,195.8L498.4,195.8z"/>
<path class="st8" d="M683.4,76.7c0,0-6,12.4-7.9,12.5c-12.9,0.7-27.1-3.4-27.1-3.4l-3.5,7c0,0,36.9,11.9,44.6,0.8
	c8.2-11.7,7.8-13.6,7.8-13.6S683.4,76.7,683.4,76.7z"/>
</svg>
