<svg width="872" height="1038" viewBox="0 0 872 1038" fill="none" xmlns="http://www.w3.org/2000/svg">
<path d="M605 4H872V203C872 350.46 752.46 470 605 470V4Z" fill="#C0E1F8"/>
<path d="M605 466L73.9999 466L73.9999 400C74 179.086 253.086 3.02699e-05 474 4.95828e-05L605 6.10352e-05L605 466Z" fill="#E5F3FC"/>
<path d="M867 1038L415 1038L415 957C415 736.086 594.086 557 815 557L867 557L867 1038Z" fill="#3E92DD"/>
<path d="M552.765 148.398H214.104C190.343 148.398 171.08 165.999 171.08 187.71V928.63C171.08 950.341 190.343 967.941 214.104 967.941H552.765C576.526 967.941 595.789 950.341 595.789 928.63V187.71C595.789 165.999 576.526 148.398 552.765 148.398Z" fill="#2F6EB8"/>
<path opacity="0.7" d="M552.765 148.398H214.104C190.343 148.398 171.08 165.999 171.08 187.71V928.63C171.08 950.341 190.343 967.941 214.104 967.941H552.765C576.526 967.941 595.789 950.341 595.789 928.63V187.71C595.789 165.999 576.526 148.398 552.765 148.398Z" fill="white"/>
<path d="M564.124 147H225.464C201.702 147 182.439 164.6 182.439 186.311V927.231C182.439 948.942 201.702 966.543 225.464 966.543H564.124C587.886 966.543 607.148 948.942 607.148 927.231V186.311C607.148 164.6 587.886 147 564.124 147Z" fill="#2F6EB8"/>
<path opacity="0.2" d="M564.124 147H225.464C201.702 147 182.439 164.6 182.439 186.311V927.231C182.439 948.942 201.702 966.543 225.464 966.543H564.124C587.886 966.543 607.148 948.942 607.148 927.231V186.311C607.148 164.6 587.886 147 564.124 147Z" fill="black"/>
<path d="M411.362 930.431C411.368 933.895 410.248 937.283 408.146 940.166C406.043 943.049 403.051 945.296 399.549 946.625C396.047 947.953 392.193 948.302 388.474 947.627C384.755 946.953 381.339 945.285 378.658 942.835C375.977 940.386 374.151 937.264 373.413 933.866C372.675 930.468 373.057 926.946 374.51 923.747C375.964 920.547 378.424 917.813 381.579 915.892C384.734 913.971 388.442 912.948 392.234 912.953C397.307 912.953 402.172 914.795 405.759 918.072C409.347 921.35 411.362 925.795 411.362 930.431Z" fill="#2F6EB8"/>
<path opacity="0.4" d="M411.362 930.431C411.368 933.895 410.248 937.283 408.146 940.166C406.043 943.049 403.051 945.296 399.549 946.625C396.047 947.953 392.193 948.302 388.474 947.627C384.755 946.953 381.339 945.285 378.658 942.835C375.977 940.386 374.151 937.264 373.413 933.866C372.675 930.468 373.057 926.946 374.51 923.747C375.964 920.547 378.424 917.813 381.579 915.892C384.734 913.971 388.442 912.948 392.234 912.953C397.307 912.953 402.172 914.795 405.759 918.072C409.347 921.35 411.362 925.795 411.362 930.431Z" fill="black"/>
<path d="M603.734 904.806H181.145V200.535H606.677L603.734 904.806Z" fill="#2F6EB8"/>
<path opacity="0.8" d="M607.472 904.429L180.909 904.886V200.589L607.089 200.186L607.472 904.429Z" fill="white"/>
<path d="M515.273 229.683H222.138C205.983 229.683 192.886 241.649 192.886 256.41V416.291C192.886 431.052 205.983 443.018 222.138 443.018H515.273C531.428 443.018 544.524 431.052 544.524 416.291V256.41C544.524 241.649 531.428 229.683 515.273 229.683Z" fill="white"/>
<path opacity="0.27" d="M261.771 311.794C281.609 304.215 290.967 283.377 282.673 265.251C274.378 247.124 251.572 238.574 231.734 246.153C211.896 253.731 202.537 274.569 210.832 292.696C219.126 310.822 241.932 319.373 261.771 311.794Z" fill="#2F6EB8"/>
<path d="M278.905 278.97C278.93 283.857 277.593 288.668 275.021 292.952C271.287 299.245 265.166 304.075 257.809 306.534C250.451 308.993 242.364 308.912 235.068 306.305C227.772 303.699 221.769 298.747 218.188 292.381C214.607 286.014 213.694 278.672 215.622 271.734C217.549 264.796 222.184 258.74 228.655 254.705C235.126 250.67 242.987 248.934 250.76 249.823C258.534 250.712 265.684 254.165 270.867 259.532C276.05 264.9 278.908 271.812 278.905 278.97V278.97Z" fill="white"/>
<path opacity="0.27" d="M275.021 292.925C272.263 297.574 268.182 301.456 263.209 304.161C258.237 306.866 252.557 308.294 246.77 308.294C240.982 308.294 235.303 306.866 230.33 304.161C225.358 301.456 221.277 297.574 218.519 292.925C226.882 287.823 236.713 285.101 246.77 285.101C256.826 285.101 266.657 287.823 275.021 292.925V292.925Z" fill="#2F6EB8"/>
<path opacity="0.27" d="M246.769 281.954C254.668 281.954 261.072 276.104 261.072 268.886C261.072 261.669 254.668 255.818 246.769 255.818C238.871 255.818 232.467 261.669 232.467 268.886C232.467 276.104 238.871 281.954 246.769 281.954Z" fill="#2F6EB8"/>
<path d="M522.954 462.728H214.457C202.544 462.728 192.886 471.552 192.886 482.437V517.688C192.886 528.573 202.544 537.398 214.457 537.398H522.954C534.867 537.398 544.524 528.573 544.524 517.688V482.437C544.524 471.552 534.867 462.728 522.954 462.728Z" fill="white"/>
<path opacity="0.6" d="M604.294 544.631L645.876 649.336C646.947 652.075 646.791 655.09 645.441 657.724C644.09 660.358 641.655 662.398 638.666 663.398L420.514 735.702C417.52 736.683 414.223 736.544 411.341 735.315C408.459 734.086 406.224 731.868 405.123 729.141L363.541 624.41C362.462 621.675 362.615 618.66 363.967 616.028C365.319 613.397 367.759 611.363 370.751 610.374L588.903 538.043C591.9 537.064 595.2 537.207 598.083 538.441C600.966 539.674 603.198 541.899 604.294 544.631V544.631Z" fill="#2F6EB8"/>
<path d="M597.701 538.285L535.343 632.046C529.568 640.74 520.715 647.37 510.252 650.837C499.788 654.305 488.342 654.401 477.811 651.111L364.159 615.671C365.528 613.178 367.885 611.255 370.751 610.293L588.902 537.963C591.775 537.054 594.918 537.169 597.701 538.285Z" fill="#2F6EB8"/>
<path opacity="0.5" d="M597.701 538.285L535.343 632.046C529.568 640.74 520.715 647.37 510.252 650.837C499.788 654.305 488.342 654.401 477.811 651.111L364.159 615.671C365.528 613.178 367.885 611.255 370.751 610.293L588.902 537.963C591.775 537.054 594.918 537.169 597.701 538.285Z" fill="white"/>
<path opacity="0.6" d="M535.873 724.598L533.872 818.923C533.81 821.384 532.687 823.723 530.746 825.43C528.806 827.137 526.206 828.075 523.513 828.039L326.962 824.543C325.628 824.519 324.313 824.254 323.092 823.766C321.87 823.277 320.766 822.573 319.842 821.694C318.919 820.815 318.193 819.778 317.708 818.643C317.223 817.508 316.987 816.297 317.015 815.078L318.987 720.753C319.022 719.477 319.34 718.221 319.922 717.061C320.504 715.901 321.337 714.861 322.371 714.004C324.286 712.439 326.777 711.594 329.345 711.637L525.897 715.106C528.595 715.162 531.159 716.193 533.028 717.971C534.897 719.75 535.92 722.132 535.873 724.598V724.598Z" fill="#2F6EB8"/>
<path d="M532.783 717.741L452.267 774.53C444.8 779.791 435.593 782.568 426.165 782.402C416.737 782.236 407.654 779.136 400.415 773.616L322.518 714.004C324.433 712.439 326.924 711.594 329.493 711.637L526.044 715.106C528.57 715.189 530.973 716.129 532.783 717.741V717.741Z" fill="#2F6EB8"/>
<path opacity="0.5" d="M532.783 717.741L452.267 774.53C444.8 779.791 435.593 782.568 426.165 782.402C416.737 782.236 407.654 779.136 400.415 773.616L322.518 714.004C324.433 712.439 326.924 711.594 329.493 711.637L526.044 715.106C528.57 715.189 530.973 716.129 532.783 717.741V717.741Z" fill="white"/>
<path d="M337.615 169.183C337.621 167.961 338.023 166.768 338.77 165.754C339.517 164.741 340.576 163.952 341.813 163.488C343.051 163.025 344.411 162.906 345.722 163.148C347.033 163.389 348.236 163.98 349.18 164.846C350.123 165.712 350.765 166.814 351.024 168.013C351.283 169.212 351.147 170.454 350.634 171.583C350.121 172.711 349.253 173.675 348.141 174.354C347.028 175.032 345.721 175.394 344.383 175.394C343.492 175.394 342.609 175.233 341.786 174.921C340.963 174.608 340.216 174.15 339.587 173.573C338.958 172.996 338.46 172.311 338.122 171.558C337.783 170.804 337.611 169.997 337.615 169.183Z" fill="#2F6EB8"/>
<path d="M367.779 162.999H424.016C425.809 163.006 427.526 163.66 428.794 164.818C430.061 165.976 430.777 167.545 430.785 169.183C430.785 170.826 430.072 172.402 428.804 173.566C427.535 174.73 425.814 175.388 424.016 175.395H367.779C365.981 175.388 364.259 174.73 362.991 173.566C361.722 172.402 361.01 170.826 361.01 169.183C361.018 167.545 361.734 165.976 363.001 164.818C364.269 163.66 365.986 163.006 367.779 162.999Z" fill="#2F6EB8"/>
<path opacity="0.4" d="M337.615 169.183C337.621 167.961 338.023 166.768 338.77 165.754C339.517 164.741 340.576 163.952 341.813 163.488C343.051 163.025 344.411 162.906 345.722 163.148C347.033 163.389 348.236 163.98 349.18 164.846C350.123 165.712 350.765 166.814 351.024 168.013C351.283 169.212 351.147 170.454 350.634 171.583C350.121 172.711 349.253 173.675 348.141 174.354C347.028 175.032 345.721 175.394 344.383 175.394C343.492 175.394 342.609 175.233 341.786 174.921C340.963 174.608 340.216 174.15 339.587 173.573C338.958 172.996 338.46 172.311 338.122 171.558C337.783 170.804 337.611 169.997 337.615 169.183Z" fill="black"/>
<path opacity="0.4" d="M367.779 162.999H424.016C425.809 163.006 427.526 163.66 428.794 164.818C430.061 165.976 430.777 167.545 430.785 169.183C430.785 170.826 430.072 172.402 428.804 173.566C427.535 174.73 425.814 175.388 424.016 175.395H367.779C365.981 175.388 364.259 174.73 362.991 173.566C361.722 172.402 361.01 170.826 361.01 169.183C361.018 167.545 361.734 165.976 363.001 164.818C364.269 163.66 365.986 163.006 367.779 162.999Z" fill="black"/>
<path d="M607.737 287.602H579.691C573.174 287.602 567.891 292.429 567.891 298.384V376.442C567.891 382.397 573.174 387.224 579.691 387.224H607.737C614.254 387.224 619.537 382.397 619.537 376.442V298.384C619.537 292.429 614.254 287.602 607.737 287.602Z" fill="#2F6EB8"/>
<path opacity="0.8" d="M607.737 287.602H579.691C573.174 287.602 567.891 292.429 567.891 298.384V376.442C567.891 382.397 573.174 387.224 579.691 387.224H607.737C614.254 387.224 619.537 382.397 619.537 376.442V298.384C619.537 292.429 614.254 287.602 607.737 287.602Z" fill="white"/>
<path d="M610.679 415.969H576.749C571.856 415.969 567.891 419.592 567.891 424.062V464.073C567.891 468.543 571.856 472.166 576.749 472.166H610.679C615.571 472.166 619.537 468.543 619.537 464.073V424.062C619.537 419.592 615.571 415.969 610.679 415.969Z" fill="#2F6EB8"/>
<path opacity="0.8" d="M610.679 415.969H576.749C571.856 415.969 567.891 419.592 567.891 424.062V464.073C567.891 468.543 571.856 472.166 576.749 472.166H610.679C615.571 472.166 619.537 468.543 619.537 464.073V424.062C619.537 419.592 615.571 415.969 610.679 415.969Z" fill="white"/>
<path d="M234.174 885.124L255.804 887.033L278.317 840.004L256.687 838.068L234.174 885.124Z" fill="#E4897B"/>
<path d="M14.6099 741.08L26.9403 758.155L74.2021 737.531L61.8422 720.43L14.6099 741.08Z" fill="#E4897B"/>
<path d="M278.317 840.004L266.722 864.258H244.15L256.657 838.068L278.317 840.004Z" fill="#CE6F64"/>
<path d="M61.8422 720.457L74.1726 737.531L49.8354 748.152L37.4756 731.078L61.8422 720.457Z" fill="#CE6F64"/>
<path d="M477.399 403.788L478.105 405.24L479.017 406.934C479.606 408.063 480.283 409.22 480.96 410.376C482.343 412.661 483.902 414.974 485.374 417.179C488.473 421.692 491.884 426.021 495.585 430.139C499.353 434.217 503.371 438.095 507.622 441.755C509.829 443.53 511.977 445.358 514.272 447.133L517.715 449.606L518.51 450.198C518.136 450.092 517.752 450.02 517.362 449.983C516.51 449.903 515.649 450.023 514.861 450.332C514.381 450.46 513.952 450.713 513.625 451.058C513.419 451.327 513.949 450.897 514.39 450.198C515.555 448.237 516.473 446.163 517.127 444.014C518.743 438.792 520.011 433.485 520.923 428.122C521.924 422.583 522.748 416.91 523.395 411.236C524.043 405.563 524.719 399.782 525.308 394.135L536.667 393.974C537.374 399.97 537.668 405.805 537.933 411.774C538.198 417.743 538.08 423.659 537.933 429.709C537.673 435.929 536.896 442.122 535.608 448.235C534.862 451.757 533.667 455.186 532.047 458.453C530.873 460.765 529.259 462.868 527.28 464.664C525.747 465.982 523.948 467.014 521.983 467.703C519.692 468.486 517.232 468.762 514.802 468.509C512.831 468.273 510.92 467.727 509.152 466.896C508.445 466.571 507.757 466.212 507.092 465.82L505.974 465.148L501.677 462.459C498.734 460.685 496.145 458.722 493.467 456.759C488.172 452.719 483.205 448.334 478.605 443.637C474.04 438.899 469.842 433.877 466.039 428.606C464.156 425.917 462.42 423.229 460.742 420.54C459.918 419.115 459.124 417.716 458.359 416.238L457.24 413.952C456.858 413.145 456.564 412.5 456.093 411.398L477.399 403.788Z" fill="#E4897B"/>
<path d="M487.346 417.689L467.57 442.615L475.751 449.956L496.792 426.832L487.346 417.689Z" fill="#F5F5F5"/>
<path d="M456.328 384.804C478.606 390.182 493.967 418.738 493.967 418.738L468.247 451.677C468.247 451.677 437.288 416.103 438.083 404.863C438.848 393.086 442.909 381.497 456.328 384.804Z" fill="#2F6EB8"/>
<path opacity="0.7" d="M456.328 384.804C478.606 390.182 493.967 418.738 493.967 418.738L468.247 451.677C468.247 451.677 437.288 416.103 438.083 404.863C438.848 393.086 442.909 381.497 456.328 384.804Z" fill="white"/>
<path d="M475.545 395.318C475.545 395.318 482.873 403.223 398.06 497.011L319.575 455.011C339.586 426.536 351.152 408.547 374.253 340.465C386.591 344.257 398.61 348.868 410.214 354.259C422.527 359.927 434.44 366.294 445.881 373.323C460.36 382.788 475.545 395.318 475.545 395.318Z" fill="#2F6EB8"/>
<path opacity="0.7" d="M475.545 395.318C475.545 395.318 482.873 403.223 398.06 497.011L319.575 455.011C339.586 426.536 351.152 408.547 374.253 340.465C386.591 344.257 398.61 348.868 410.214 354.259C422.527 359.927 434.44 366.294 445.881 373.323C460.36 382.788 475.545 395.318 475.545 395.318Z" fill="white"/>
<path d="M465.363 387.225C459.83 383.03 452.738 377.84 445.881 373.323C434.501 366.205 422.582 359.834 410.214 354.259C403.269 350.952 396.148 348.048 390.085 345.843C389.114 347.322 389.909 351.839 392.881 358.454C404.181 371.764 430.431 391.365 452.326 395.264C462.508 393.92 465.686 390.962 465.363 387.225Z" fill="#F5F5F5"/>
<path d="M392.881 358.453C399.475 371.88 408.256 384.318 418.925 395.345C430.031 396.358 441.22 396.358 452.326 395.345C430.431 391.365 404.181 371.763 392.881 358.453Z" fill="#F5F5F5"/>
<path d="M398.149 497.011C398.149 497.011 399.414 681.253 363.659 734.439C326.462 789.749 277.964 857.213 277.964 857.213L235.97 855.357C235.97 855.357 284.938 755.546 303.419 709.217C328.875 645.356 340.646 466.25 340.646 466.25L398.149 497.011Z" fill="#2F6EB8"/>
<path opacity="0.4" d="M398.149 497.011C398.149 497.011 399.414 681.253 363.659 734.439C326.462 789.749 277.964 857.213 277.964 857.213L235.97 855.357C235.97 855.357 284.938 755.546 303.419 709.217C328.875 645.356 340.646 466.25 340.646 466.25L398.149 497.011Z" fill="black"/>
<path opacity="0.2" d="M353.477 502.146C346.677 507.417 340.828 513.633 336.143 520.565C334.819 534.279 333.201 549.686 331.347 565.819C344.148 549.928 354.271 522.044 353.477 502.146Z" fill="black"/>
<path d="M377.402 486.014C377.402 486.014 288.558 601.259 233.203 663.479C188.472 713.627 58.988 749.523 58.988 749.523L43.1851 725.324C43.1851 725.324 146.184 672.783 176.907 638.849C275.256 530.219 274.02 473.887 319.693 455.307L377.402 486.014Z" fill="#2F6EB8"/>
<path opacity="0.4" d="M377.402 486.014C377.402 486.014 288.558 601.259 233.203 663.479C188.472 713.627 58.988 749.523 58.988 749.523L43.1851 725.324C43.1851 725.324 146.184 672.783 176.907 638.849C275.256 530.219 274.02 473.887 319.693 455.307L377.402 486.014Z" fill="black"/>
<path d="M525.573 396.662L519.688 375.151L542.141 381.121C542.141 381.121 541.523 395.587 533.754 400.292L525.573 396.662Z" fill="#E4897B"/>
<path d="M526.838 357.889L542.612 365.176L542.229 381.228L519.775 375.259L526.838 357.889Z" fill="#E4897B"/>
<path d="M244.769 365.794L224.169 354.232L244.769 344.176C244.769 344.176 255.333 354.931 253.391 363.267L244.769 365.794Z" fill="#E4897B"/>
<path d="M216.017 337.265L232.879 332.425L244.886 344.175L224.198 354.232L216.017 337.265Z" fill="#E4897B"/>
<path d="M32.1199 756.354L24.7922 734.359C24.6632 733.982 24.3899 733.66 24.0223 733.453C23.6547 733.245 23.2176 733.166 22.7911 733.229L2.92703 735.918C2.42962 736.004 1.95759 736.184 1.54192 736.448C1.12625 736.712 0.776339 737.053 0.515124 737.449C0.253909 737.845 0.0873007 738.287 0.0262327 738.746C-0.0348354 739.205 0.0110038 739.671 0.160765 740.113C2.86816 747.722 4.575 751.298 7.81211 760.952C9.7838 766.921 13.2269 780.338 15.9637 788.566C18.7006 796.794 27.735 794.751 27.4113 791.094C25.9105 774.745 28.8533 766.383 31.8844 759.903C32.4011 758.778 32.4841 757.527 32.1199 756.354V756.354Z" fill="#263238"/>
<path d="M258.688 880.929H232.203C231.725 880.932 231.262 881.078 230.884 881.345C230.507 881.613 230.236 881.986 230.113 882.408L224.228 901.633C224.083 902.085 224.058 902.562 224.155 903.025C224.251 903.488 224.466 903.924 224.781 904.296C225.097 904.668 225.505 904.967 225.971 905.168C226.438 905.369 226.949 905.466 227.465 905.451C236.764 905.317 241.296 904.833 252.979 904.833C260.159 904.833 278.758 905.505 288.675 905.505C298.593 905.505 300.447 896.524 296.415 895.718C278.376 892.088 268.017 887.059 262.455 882.273C261.432 881.404 260.085 880.924 258.688 880.929Z" fill="#263238"/>
<path d="M321.135 450.171L313.483 454.715C312.895 455.065 313.218 455.925 314.131 456.409L396.53 500.426C397.236 500.802 398.031 500.802 398.325 500.426L403.151 494.376C403.475 493.946 403.151 493.247 402.327 492.843L322.871 450.332C322.627 450.16 322.335 450.053 322.028 450.024C321.721 449.996 321.412 450.047 321.135 450.171Z" fill="#263238"/>
<path d="M367.808 371.306C362.246 375.367 356.949 378.647 351.328 382.062C345.708 385.477 339.998 388.408 334.113 391.312C322.302 397.217 309.87 402.019 297.004 405.643C295.415 406.154 293.708 406.504 292.089 406.907C290.471 407.31 288.911 407.714 286.969 408.09C282.75 408.955 278.401 409.155 274.109 408.682C269.558 408.187 265.179 406.792 261.278 404.595C257.651 402.5 254.471 399.821 251.89 396.689C247.534 391.141 244.414 384.865 242.709 378.217C241.837 375.152 241.208 372.034 240.825 368.886C240.358 365.75 240.132 362.587 240.148 359.422L251.449 358.534C252.812 363.783 254.652 368.919 256.952 373.888C258.953 378.439 261.856 382.614 265.516 386.203C266.828 387.555 268.429 388.649 270.22 389.416C272.012 390.184 273.956 390.609 275.933 390.666C278.011 390.652 280.074 390.353 282.054 389.779C284.614 389.026 287.616 388.166 290.353 387.251C301.679 383.36 312.635 378.621 323.107 373.081C328.463 370.392 333.583 367.3 338.762 364.315C343.942 361.331 349.033 357.97 353.477 354.904L367.808 371.306Z" fill="#E4897B"/>
<path d="M331.405 364.261L341.587 392.387L351.152 387.143L342.205 359.26L331.405 364.261Z" fill="#F5F5F5"/>
<path d="M34.386 767.889C33.8904 767.883 33.4045 767.762 32.9734 767.539C30.5309 766.195 29.854 761.435 29.648 758.72C29.6466 758.626 29.6733 758.534 29.7251 758.453C29.777 758.373 29.8522 758.307 29.9423 758.262C30.0327 758.218 30.1338 758.194 30.2366 758.194C30.3393 758.194 30.4405 758.218 30.5309 758.262C31.2371 758.8 37.4171 763.64 37.0345 766.168C36.9941 766.459 36.869 766.734 36.6723 766.966C36.4756 767.198 36.2145 767.377 35.9162 767.485C35.449 767.73 34.9241 767.868 34.386 767.889V767.889ZM30.8252 759.822C31.2077 763.452 32.1788 765.98 33.5031 766.706C33.8071 766.852 34.1455 766.928 34.489 766.928C34.8325 766.928 35.1708 766.852 35.4748 766.706C35.8868 766.517 35.9751 766.302 35.9751 766.114C36.1811 764.743 33.2383 761.812 30.8252 759.822Z" fill="#2F6EB8"/>
<path d="M38.0937 762.054C35.0724 761.818 32.1951 760.77 29.8244 759.042C29.7774 758.974 29.7524 758.894 29.7524 758.814C29.7524 758.733 29.7774 758.653 29.8244 758.585C29.8453 758.504 29.8889 758.429 29.9507 758.368C30.0126 758.307 30.0907 758.261 30.1775 758.235C30.4424 758.235 36.6223 756.461 39.3885 758.02C39.7384 758.209 40.0384 758.466 40.2673 758.773C40.4961 759.079 40.6483 759.429 40.7129 759.795C40.8324 760.165 40.81 760.561 40.6495 760.918C40.4889 761.275 40.1998 761.571 39.83 761.758C39.2865 761.985 38.6903 762.086 38.0937 762.054ZM31.3252 758.908C33.5912 760.333 37.7994 761.597 39.1826 760.897C39.3886 760.897 39.6534 760.575 39.5357 759.956C39.493 759.726 39.3941 759.507 39.2463 759.316C39.0986 759.126 38.9059 758.967 38.6823 758.854C36.2833 758.173 33.712 758.192 31.3252 758.908V758.908Z" fill="#2F6EB8"/>
<path d="M270.46 884.936C268.011 884.893 265.575 884.613 263.191 884.102C263.083 884.076 262.986 884.021 262.913 883.945C262.839 883.868 262.793 883.773 262.779 883.672C262.778 883.572 262.808 883.473 262.865 883.388C262.922 883.302 263.005 883.233 263.103 883.188C264.868 882.408 273.932 878.671 276.345 880.149C276.576 880.299 276.759 880.503 276.873 880.74C276.987 880.976 277.028 881.237 276.993 881.494C276.98 881.946 276.854 882.39 276.625 882.791C276.395 883.192 276.068 883.539 275.668 883.806C274.102 884.666 272.282 885.061 270.46 884.936V884.936ZM265.045 883.457C267.988 883.941 272.932 884.479 275.021 883.027C275.304 882.845 275.535 882.603 275.694 882.322C275.852 882.041 275.935 881.729 275.933 881.413C275.95 881.33 275.943 881.243 275.912 881.163C275.881 881.083 275.827 881.011 275.757 880.956C274.432 880.149 268.988 881.87 265.045 883.457Z" fill="#2F6EB8"/>
<path d="M263.308 884.102C263.204 884.139 263.089 884.139 262.985 884.102C262.903 884.049 262.841 883.973 262.809 883.886C262.778 883.799 262.777 883.705 262.808 883.618C262.808 883.241 265.103 874.449 270.401 875.067C271.784 875.202 272.137 875.847 272.225 876.331C272.578 878.643 266.516 883.053 263.397 884.183L263.308 884.102ZM269.93 875.901C266.751 875.901 264.839 880.606 264.044 882.731C266.987 881.198 271.283 877.702 271.077 876.358C271.077 876.143 270.754 875.982 270.195 875.928L269.93 875.901Z" fill="#2F6EB8"/>
<path d="M326.609 464.018L324.49 462.889C324.078 462.647 323.872 462.27 324.048 462.055L330.405 454.231C330.581 454.016 331.082 454.016 331.494 454.231L333.642 455.387C334.054 455.602 334.26 455.978 334.083 456.194L327.727 464.018C327.55 464.233 327.05 464.233 326.609 464.018Z" fill="#2F6EB8"/>
<path d="M390.027 497.925L387.908 496.769C387.496 496.554 387.29 496.178 387.466 495.963L393.823 488.138C393.999 487.923 394.5 487.923 394.912 488.138L397.06 489.267C397.472 489.509 397.678 489.886 397.472 490.101L391.145 497.925C390.968 498.141 390.468 498.141 390.027 497.925Z" fill="#2F6EB8"/>
<path d="M358.332 480.959L356.184 479.829C355.772 479.614 355.566 479.238 355.772 478.996L362.099 471.198C362.305 470.956 362.776 470.956 363.217 471.198L365.336 472.327C365.777 472.543 365.954 472.919 365.777 473.161L359.421 480.959C359.244 481.201 358.744 481.201 358.332 480.959Z" fill="#2F6EB8"/>
<path opacity="0.4" d="M326.609 464.018L324.49 462.889C324.078 462.647 323.872 462.27 324.048 462.055L330.405 454.231C330.581 454.016 331.082 454.016 331.494 454.231L333.642 455.387C334.054 455.602 334.26 455.978 334.083 456.194L327.727 464.018C327.55 464.233 327.05 464.233 326.609 464.018Z" fill="black"/>
<path opacity="0.4" d="M390.027 497.925L387.908 496.769C387.496 496.554 387.29 496.178 387.466 495.963L393.823 488.138C393.999 487.923 394.5 487.923 394.912 488.138L397.06 489.267C397.472 489.509 397.678 489.886 397.472 490.101L391.145 497.925C390.968 498.141 390.468 498.141 390.027 497.925Z" fill="black"/>
<path opacity="0.4" d="M358.332 480.959L356.184 479.829C355.772 479.614 355.566 479.238 355.772 478.996L362.099 471.198C362.305 470.956 362.776 470.956 363.217 471.198L365.336 472.327C365.777 472.543 365.954 472.919 365.777 473.161L359.421 480.959C359.244 481.201 358.744 481.201 358.332 480.959Z" fill="black"/>
<path d="M417.218 359.636C417.218 343.503 411.333 280.019 440.29 274.641C449.442 265.821 494.791 264.907 501.736 287.332C510.918 316.776 497.322 388.622 497.322 388.622L417.218 359.636Z" fill="#263238"/>
<path d="M503.355 388.783C503.258 388.773 503.164 388.746 503.079 388.703C502.993 388.659 502.919 388.601 502.858 388.531C502.798 388.461 502.754 388.38 502.728 388.295C502.702 388.209 502.695 388.119 502.707 388.031C502.707 387.305 512.271 315.431 501.707 286.983C498.764 279.185 490.583 273.726 478.458 271.575C462.685 268.752 445.616 272.274 440.878 277.276C440.741 277.399 440.556 277.468 440.363 277.468C440.171 277.468 439.986 277.399 439.848 277.276C439.712 277.146 439.635 276.972 439.635 276.792C439.635 276.611 439.712 276.438 439.848 276.308C445.381 270.446 463.95 267.515 478.841 270.177C491.495 272.409 500.147 278.244 503.207 286.472C513.86 315.27 504.355 387.385 504.267 388.111C504.265 388.213 504.238 388.314 504.189 388.405C504.14 388.497 504.069 388.578 503.982 388.642C503.895 388.706 503.794 388.752 503.685 388.776C503.577 388.801 503.464 388.803 503.355 388.783V388.783Z" fill="#263238"/>
<path d="M437.288 319.491C432.845 331.161 422.78 351.569 410.273 354.258C410.273 354.258 406.595 366.573 427.93 377.974C451.473 390.504 445.94 373.323 445.94 373.323C434.934 363.696 440.79 355.199 448.235 348.262L437.288 319.491Z" fill="#E4897B"/>
<path d="M441.703 331.215L448.177 348.235C446.425 349.843 444.821 351.578 443.38 353.425C438.907 350.171 434.11 342.239 436.582 337.292C437.877 335.002 439.611 332.944 441.703 331.215V331.215Z" fill="#CE6F64"/>
<path d="M437.465 296.233C431.373 315.781 428.342 323.929 435.14 337.131C445.351 357.029 472.926 359.583 485.168 342.105C496.292 326.375 504.355 297.067 486.816 282.95C482.97 279.824 478.316 277.645 473.293 276.617C468.27 275.59 463.043 275.748 458.106 277.077C453.168 278.406 448.682 280.862 445.071 284.213C441.46 287.565 438.842 291.701 437.465 296.233Z" fill="#E4897B"/>
<path d="M431.197 308.548C446.411 313.737 482.166 296.501 491.907 285.934C493.202 269.64 451.384 276.066 451.384 276.066C451.384 276.066 429.078 269.801 431.197 308.548Z" fill="#263238"/>
<path d="M427.577 312.447C426.586 316.267 427.295 320.29 429.548 323.633C432.491 328.043 437.906 326.322 440.26 321.966C442.379 317.986 443.35 310.861 438.789 307.983C437.774 307.373 436.609 307.003 435.399 306.908C434.189 306.813 432.972 306.996 431.859 307.439C430.745 307.882 429.77 308.572 429.023 309.447C428.275 310.321 427.778 311.353 427.577 312.447Z" fill="#E4897B"/>
<path d="M467.158 311.802C466.54 313.361 466.952 314.921 468.07 315.27C469.188 315.62 470.571 314.652 471.189 313.092C471.807 311.533 471.366 310 470.248 309.624C469.129 309.247 467.746 310.242 467.158 311.802Z" fill="#263238"/>
<path d="M486.404 318.013C485.815 319.573 486.227 321.105 487.346 321.482C488.464 321.858 489.847 320.863 490.435 319.304C491.024 317.744 490.612 316.185 489.523 315.835C488.434 315.485 487.022 316.453 486.404 318.013Z" fill="#263238"/>
<path d="M488.994 315.754L493.496 315.996C493.496 315.996 490.259 318.255 488.994 315.754Z" fill="#263238"/>
<path d="M480.283 319.034C480.439 323.07 481.192 327.068 482.52 330.919C481.433 331.21 480.29 331.279 479.171 331.121C478.052 330.963 476.985 330.582 476.045 330.005L480.283 319.034Z" fill="#DE5753"/>
<path d="M467.864 334.253H467.688C465.378 333.567 463.281 332.387 461.571 330.811C459.861 329.235 458.588 327.308 457.859 325.192C457.832 325.064 457.859 324.931 457.936 324.821C458.013 324.711 458.132 324.632 458.271 324.6C458.339 324.584 458.409 324.582 458.478 324.593C458.547 324.603 458.613 324.627 458.671 324.663C458.729 324.698 458.779 324.744 458.816 324.798C458.854 324.853 458.878 324.913 458.889 324.976C459.602 326.922 460.799 328.691 462.388 330.142C463.976 331.593 465.911 332.687 468.041 333.339C468.159 333.376 468.259 333.451 468.323 333.55C468.387 333.649 468.41 333.765 468.389 333.878C468.368 333.991 468.303 334.093 468.207 334.167C468.111 334.24 467.99 334.28 467.864 334.28V334.253Z" fill="#263238"/>
<path d="M466.304 305.644C466.066 305.647 465.833 305.577 465.643 305.444C465.454 305.311 465.32 305.123 465.262 304.911C465.204 304.699 465.226 304.476 465.324 304.277C465.423 304.078 465.592 303.916 465.804 303.816C467.267 303.061 468.905 302.635 470.584 302.574C472.263 302.513 473.933 302.819 475.457 303.466C475.594 303.518 475.719 303.595 475.821 303.693C475.924 303.791 476.003 303.908 476.053 304.036C476.103 304.164 476.123 304.3 476.112 304.435C476.101 304.571 476.059 304.703 475.988 304.822C475.918 304.942 475.82 305.046 475.702 305.129C475.585 305.212 475.449 305.271 475.305 305.303C475.16 305.335 475.01 305.339 474.864 305.314C474.718 305.29 474.579 305.237 474.456 305.16C473.239 304.667 471.911 304.445 470.581 304.51C469.251 304.575 467.957 304.927 466.805 305.537C466.651 305.611 466.479 305.648 466.304 305.644Z" fill="#263238"/>
<path d="M498.617 312.769C498.385 312.769 498.16 312.697 497.978 312.565C497.797 312.433 497.669 312.25 497.616 312.043C497.32 310.86 496.724 309.756 495.875 308.822C495.027 307.888 493.95 307.149 492.731 306.666C492.465 306.58 492.245 306.403 492.119 306.172C491.993 305.941 491.969 305.675 492.054 305.429C492.097 305.306 492.166 305.193 492.259 305.096C492.351 305 492.464 304.921 492.591 304.866C492.718 304.81 492.856 304.779 492.996 304.774C493.137 304.769 493.277 304.791 493.408 304.837C494.965 305.421 496.344 306.34 497.43 307.515C498.516 308.69 499.276 310.086 499.647 311.586C499.682 311.71 499.69 311.839 499.671 311.965C499.651 312.092 499.605 312.213 499.534 312.323C499.462 312.433 499.368 312.529 499.256 312.606C499.144 312.682 499.017 312.738 498.881 312.769H498.617Z" fill="#263238"/>
<path d="M469.659 309.569L474.162 309.811C474.162 309.811 471.013 312.043 469.659 309.569Z" fill="#263238"/>
<path d="M374.312 340.465C365.042 338.449 336.526 358.292 336.526 358.292L348.621 393.544C348.621 393.544 378.432 378.459 381.198 367.354C383.935 355.846 384.877 342.778 374.312 340.465Z" fill="#2F6EB8"/>
<path opacity="0.7" d="M374.312 340.465C365.042 338.449 336.526 358.292 336.526 358.292L348.621 393.544C348.621 393.544 378.432 378.459 381.198 367.354C383.935 355.846 384.877 342.778 374.312 340.465Z" fill="white"/>
</svg>
