<svg width="1234" height="225" fill="none" xmlns="http://www.w3.org/2000/svg">
  <mask id="a" maskUnits="userSpaceOnUse" x="0" y="1" width="1234" height="224">
    <path fill="#C4C4C4" d="M0 1h1234v224H0z"/>
  </mask>
  <g mask="url(#a)">
    <rect x="-2" y="25" width="1236" height="200" rx="7" fill="url(#Group_63__paint0_linear)"/>
    <path d="M870.2 46.717c-4.114 8.921-3.429 19.214 1.371 28.135L957.707 224.5h69.683L945.629 83.086l248.911-41.172c10.11-1.618 18.07-7.766 22.34-15.914H914.5l-21.671 3.562c-9.6 1.372-18.515 8.235-22.629 17.155z" fill="#F5F5F5" fill-opacity=".5"/>
  </g>
  <path d="M711.636 14.108V181.84c0 2.815-3.006 5.108-6.696 5.108H564.331c-3.689 0-6.695-2.293-6.695-5.108V14.108c0-2.814 3.006-5.16 6.695-5.16h140.541c3.758 0 6.764 2.294 6.764 5.16z" fill="#CB5454"/>
  <path d="M545.663 192.255h141.568a2.398 2.398 0 002.405-2.404 2.399 2.399 0 00-2.405-2.405H545.663a2.398 2.398 0 00-2.405 2.405 2.398 2.398 0 002.405 2.404z" fill="#E2E2E1"/>
  <path d="M675.364 14.04v12.547H557.53V14.04c0-2.823 2.3-5.176 5.123-5.176h107.536c2.875.053 5.175 2.353 5.175 5.176z" fill="#CB5454"/>
  <path d="M571.122 19.581a1.986 1.986 0 111.986-1.986c-.052 1.098-.941 1.986-1.986 1.986zm6.222 0a1.986 1.986 0 11-.002-3.972 1.986 1.986 0 01.002 3.972z" fill="#E6F2EA"/>
  <path d="M705.636 26.948h-146v141h146v-141z" fill="#D2EBF7"/>
  <path d="M579.797 74.055V57.274H542v16.78h37.797zm23.065 42.703V99.977h-37.797v16.781h37.797zm-11.507-21.327v-16.78h-37.796v16.78h37.796z" fill="#A9DAE5"/>
  <path d="M699.636 32.545H565.059v19.081h134.577V32.545z" fill="#EDF6F4"/>
  <path d="M695.564 35.262h-17.875v13.54h17.875v-13.54z" fill="#D2E8F2"/>
  <path d="M612.471 36.098h-38.717v2.614h38.717v-2.614zm0 4.652h-38.717v2.614h38.717V40.75zm-12.629 4.654h-26.088v2.614h26.088v-2.614z" fill="#ACD8C8"/>
  <path opacity=".5" d="M686.238 114.047h-83.383v39.156h83.383v-39.156z" fill="#96CEB8"/>
  <path d="M643.893 127.587h-32.726v3.294h32.726v-3.294zm-7.789 5.856h-24.937v3.294h24.937v-3.294zm-8.103 5.906h-16.834v3.294h16.834v-3.294zm12.128 0h-10.038v3.294h10.038v-3.294zm-6.221 5.857h-22.741v3.293h22.741v-3.293z" fill="#E6F2EA"/>
  <path d="M595.171 123.04h-30.112v30.112h30.112V123.04z" fill="#9FD2BA"/>
  <path d="M586.774 144.849a9.41 9.41 0 000-13.308 9.41 9.41 0 10-13.308 13.308 9.41 9.41 0 0013.308 0z" fill="#7CC39E"/>
  <path d="M587.277 138.2c0 2.353-1.15 4.444-2.927 5.751-.523.366-1.098.732-1.726.941a5.16 5.16 0 01-.836.261c-.157.052-.366.052-.523.105-.366.052-.732.104-1.098.104a7.34 7.34 0 01-2.143-.313c-2.928-.889-5.019-3.608-5.019-6.849 0-1.098.262-2.196.732-3.137.575-1.15 1.412-2.143 2.457-2.823l.784-.47a5.702 5.702 0 011.882-.627c.419-.105.889-.105 1.307-.105 3.033 0 5.646 1.882 6.64 4.548.261.837.47 1.673.47 2.614z" fill="#EFF4F4"/>
  <path d="M580.115 139.036a.826.826 0 01-.836-.836v-4.601c0-.47.366-.836.836-.836.471 0 .837.366.837.836v4.601c0 .47-.366.836-.837.836z" fill="#C1D6CF"/>
  <path d="M580.115 139.039c-.261 0-.523-.157-.68-.366-.261-.366-.104-.889.262-1.15l2.352-1.516c.366-.262.889-.105 1.15.261.262.366.105.889-.261 1.15l-2.352 1.516c-.157.052-.314.105-.471.105z" fill="#C1D6CF"/>
  <path d="M666.989 160.026v-4.861H565.047v4.861h101.942z" fill="#FFE1AB"/>
  <path opacity=".3" d="M625.596 26.585L559.36 92.821V57.22l30.635-30.635h35.601zm24.78 0l-91.016 91.016V99.826l73.241-73.24h17.775z" fill="#F6FBFD"/>
  <path opacity=".5" d="M722 58h-55v75h55V58z" fill="#FFE1AB"/>
  <path d="M807.632 161.022l28.057-16.306-.086 30.503-28.058 16.305.087-30.502z" fill="#777BB4"/>
  <path opacity=".88" d="M781.087 145.696l28.057-16.306 26.545 15.326-28.057 16.306-26.545-15.326z" fill="#FF5855" stroke="#1E223B" stroke-miterlimit="10"/>
  <path d="M807.632 161.021l-.087 30.502L781 176.197l.087-30.502 26.545 15.326z" fill="#0270BB"/>
  <path d="M787.045 118a6 6 0 100-12 6 6 0 000 12zm20.5 0a6 6 0 100-12 6 6 0 000 12zm20.5 0a6 6 0 100-12 6 6 0 000 12zM782 179h-14.095c-6.425 0-12.586-2.835-17.129-7.88-4.543-5.046-7.095-11.889-7.095-19.025v-11.328c0-7.099-2.539-13.907-7.059-18.927-4.519-5.02-10.649-7.84-17.041-7.84H712m189.17-51.98c16.85 0 30.51-13.66 30.51-30.51S918.02 1 901.17 1s-30.51 13.66-30.51 30.51 13.66 30.51 30.51 30.51z" stroke="#1E223B" stroke-width="2" stroke-linecap="round" stroke-linejoin="round"/>
  <path d="M873.387 84.273c19.544 0 35.387-15.843 35.387-35.387s-15.843-35.387-35.387-35.387S838 29.342 838 48.886s15.843 35.387 35.387 35.387z" fill="#fff"/>
  <path d="M836 48H712" stroke="#1E223B" stroke-width="2" stroke-linecap="round" stroke-linejoin="round" stroke-dasharray="6 8"/>
  <path d="M858.27 80.888l15.117-32.001 34.982 5.369" stroke="#1E223B" stroke-width="2" stroke-linecap="round" stroke-linejoin="round"/>
  <defs>
    <linearGradient id="Group_63__paint0_linear" x1="691.5" y1="-106.5" x2="570.5" y2="289.5" gradientUnits="userSpaceOnUse">
      <stop stop-color="#A42C57"/>
      <stop offset="1" stop-color="#B8502F" stop-opacity=".39"/>
    </linearGradient>
  </defs>
</svg>
