<svg width="258" height="50" viewBox="0 0 258 50" fill="none" xmlns="http://www.w3.org/2000/svg">
<path d="M47.13 23.85H40.75C40.75 24.05 40.75 24.24 40.75 24.44C40.7419 28.1037 39.511 31.6599 37.2524 34.5447C34.9938 37.4294 31.8369 39.4776 28.2821 40.3645C24.7273 41.2514 20.9782 40.9262 17.6292 39.4405C14.2803 37.9548 11.5231 35.3936 9.79498 32.163C8.06684 28.9325 7.46663 25.2174 8.08952 21.607C8.7124 17.9966 10.5227 14.6975 13.2335 12.2328C15.9442 9.76801 19.4001 8.27873 23.0533 8.00107C26.7065 7.72341 30.3479 8.67325 33.4 10.7L20.03 20.11L23.91 25.63L43.03 12.16L43.48 11.86C42.3623 10.0655 41.0066 8.43059 39.45 6.99999L39.19 6.62999L39.1 6.68999C35.058 3.13621 29.9207 1.07414 24.5434 0.847127C19.166 0.62011 13.8732 2.24184 9.54604 5.4423C5.2189 8.64277 2.11857 13.2288 0.761232 18.437C-0.596106 23.6451 -0.128546 29.1611 2.08607 34.0664C4.30068 38.9718 8.12871 42.9706 12.9328 45.3971C17.7369 47.8235 23.2272 48.5312 28.4896 47.4023C33.752 46.2734 38.4689 43.376 41.8551 39.1926C45.2412 35.0092 47.0923 29.7921 47.1 24.41C47.15 24.22 47.14 24 47.13 23.85Z" fill="#FF671D"/>
<path d="M79.18 2.36V10C82.8354 11.3043 85.9127 13.8576 87.8692 17.2095C89.8257 20.5613 90.5356 24.4965 89.8737 28.3207C89.2119 32.145 87.2208 35.6126 84.2517 38.1121C81.2825 40.6115 77.5261 41.9821 73.645 41.9821C69.7639 41.9821 66.0075 40.6115 63.0383 38.1121C60.0692 35.6126 58.0781 32.145 57.4162 28.3207C56.7544 24.4965 57.4643 20.5613 59.4208 17.2095C61.3773 13.8576 64.4546 11.3043 68.11 10V2.36C62.5055 3.71459 57.5923 7.07735 54.3009 11.8115C51.0095 16.5456 49.5683 22.3223 50.2504 28.0477C50.9325 33.773 53.6904 39.0495 58.0019 42.8779C62.3134 46.7062 67.8791 48.8206 73.645 48.8206C79.4108 48.8206 84.9765 46.7062 89.288 42.8779C93.5995 39.0495 96.3575 33.773 97.0396 28.0477C97.7216 22.3223 96.2805 16.5456 92.9891 11.8115C89.6977 7.07735 84.7845 3.71459 79.18 2.36Z" fill="#FF671D"/>
<path d="M76.76 0H70.52V24.69H76.76V0Z" fill="#FF671D"/>
<path d="M100.14 48.7C101.29 48.62 107.37 48.7 107.37 48.7V22.85C107.348 19.6098 108.287 16.4358 110.07 13.73C111.18 11.9488 112.733 10.485 114.576 9.48099C116.42 8.47696 118.491 7.96678 120.59 8C122.591 7.95317 124.574 8.39279 126.368 9.28111C128.162 10.1694 129.714 11.4799 130.89 13.1C132.87 15.7785 133.923 19.0293 133.89 22.36V48.66H141.14V23.5C141.19 18.5632 139.758 13.7249 137.03 9.61C135.287 6.8738 132.86 4.64012 129.989 3.12999C127.118 1.61987 123.902 0.885648 120.66 0.999998C117.515 0.985176 114.414 1.73797 111.626 3.19305C108.837 4.64814 106.446 6.76158 104.66 9.35C101.691 13.5098 100.11 18.4996 100.14 23.61V48.7Z" fill="#FF671D"/>
<path d="M152.55 4.99999C152.8 4.96599 153.055 4.99166 153.293 5.07492C153.532 5.15818 153.747 5.29666 153.921 5.47904C154.096 5.66141 154.225 5.88251 154.298 6.12426C154.37 6.36602 154.385 6.62155 154.34 6.86999V7.99999H150.61V4.99999H152.55ZM152.55 9.33999C152.797 9.30543 153.048 9.3293 153.284 9.40969C153.52 9.49008 153.733 9.62473 153.907 9.8028C154.081 9.98087 154.211 10.1974 154.287 10.4348C154.362 10.6723 154.38 10.9241 154.34 11.17V24.55H150.61V9.36999L152.55 9.33999Z" fill="black" stroke="black" stroke-miterlimit="10"/>
<path d="M156.22 17C156.22 12 158.52 9.43001 163.13 9.34001C167.74 9.25001 170.13 11.55 170.13 16.11V25.11C170.13 28.93 167.77 30.85 163.03 30.94C159.66 30.94 157.52 29.33 156.65 26.11H160.78C161.03 27.2 161.9 27.72 163.45 27.72C165.45 27.72 166.45 26.54 166.45 24.19V22.6C166.008 23.3181 165.381 23.9046 164.636 24.2986C163.89 24.6925 163.052 24.8795 162.21 24.84C158.19 24.84 156.22 22.2 156.22 17ZM166.38 17.12C166.38 14.05 165.38 12.53 163.24 12.53C161.1 12.53 160.03 14 160.03 17.09C160.03 20.18 161.12 21.48 163.14 21.48C165.16 21.48 166.27 20 166.38 17.09V17.12Z" fill="black" stroke="black" stroke-miterlimit="10"/>
<path d="M182.57 24.55C182.318 24.5722 182.064 24.5383 181.827 24.4505C181.59 24.3628 181.375 24.2236 181.198 24.0428C181.021 23.862 180.886 23.6442 180.804 23.4051C180.721 23.1659 180.692 22.9115 180.72 22.66V14.85C180.74 14.5158 180.686 14.1813 180.56 13.8711C180.434 13.5609 180.24 13.2828 179.993 13.0574C179.745 12.8319 179.45 12.6648 179.13 12.5684C178.809 12.4719 178.471 12.4486 178.14 12.5C176.48 12.5 175.64 13.27 175.61 14.85V24.55H171.83V15.62C171.83 11.29 173.96 9.14 178.2 9.14C182.44 9.14 184.51 11.29 184.48 15.62V24.55H182.57Z" fill="black" stroke="black" stroke-miterlimit="10"/>
<path d="M188.1 5C188.351 4.96424 188.607 4.9886 188.846 5.07108C189.086 5.15356 189.303 5.29179 189.479 5.4744C189.654 5.65701 189.784 5.87877 189.857 6.12141C189.931 6.36405 189.945 6.62062 189.9 6.87V8H186.17V5H188.1ZM188.1 9.34C188.347 9.30589 188.599 9.32999 188.835 9.41037C189.071 9.49076 189.285 9.6252 189.46 9.80298C189.634 9.98076 189.765 10.1969 189.842 10.4343C189.918 10.6716 189.938 10.9236 189.9 11.17V24.55H186.17V9.37L188.1 9.34Z" fill="black" stroke="black" stroke-miterlimit="10"/>
<path d="M196.13 12.09H195.74V20.5C195.74 21.14 196.1 21.5 196.83 21.5H198.03V24.4C196.723 24.5244 195.407 24.5244 194.1 24.4C192.7 24.26 192.03 23.4 192.05 21.67V5H193.99C194.484 5.04091 194.943 5.27249 195.27 5.64575C195.596 6.019 195.765 6.50466 195.74 7V9.37H198.03V10.2C198.038 10.4513 197.995 10.7017 197.902 10.9355C197.81 11.1693 197.67 11.3814 197.492 11.5588C197.313 11.7361 197.1 11.8748 196.866 11.9662C196.632 12.0576 196.381 12.0998 196.13 12.09Z" fill="black" stroke="black" stroke-miterlimit="10"/>
<path d="M202.03 5C202.281 4.96424 202.537 4.9886 202.776 5.07108C203.016 5.15356 203.233 5.29179 203.409 5.4744C203.584 5.65701 203.714 5.87877 203.787 6.12141C203.861 6.36405 203.875 6.62062 203.83 6.87V8H200.09V5H202.03ZM202.03 9.34C202.277 9.30589 202.529 9.32999 202.765 9.41037C203.001 9.49076 203.215 9.6252 203.39 9.80298C203.564 9.98076 203.695 10.1969 203.772 10.4343C203.848 10.6716 203.868 10.9236 203.83 11.17V24.55H200.09V9.37L202.03 9.34Z" fill="black" stroke="black" stroke-miterlimit="10"/>
<path d="M216.7 24.55C216.448 24.5722 216.194 24.5383 215.957 24.4505C215.72 24.3628 215.505 24.2236 215.328 24.0428C215.151 23.862 215.016 23.6442 214.934 23.4051C214.851 23.1659 214.822 22.9115 214.85 22.66V14.85C214.869 14.5163 214.813 14.1827 214.686 13.8734C214.559 13.564 214.366 13.2868 214.119 13.0617C213.872 12.8367 213.577 12.6695 213.258 12.5724C212.938 12.4752 212.601 12.4505 212.27 12.5C210.61 12.5 209.77 13.27 209.74 14.85V24.55H205.95V15.62C205.95 11.29 208.08 9.14 212.32 9.14C216.56 9.14 218.64 11.29 218.61 15.62V24.55H216.7Z" fill="black" stroke="black" stroke-miterlimit="10"/>
<path d="M220.03 17C220.03 12 222.33 9.43001 226.93 9.34001C231.53 9.25001 233.93 11.55 233.93 16.11V25.11C233.93 28.93 231.57 30.85 226.83 30.94C225.36 31.0583 223.898 30.6313 222.723 29.7404C221.549 28.8495 220.743 27.5571 220.46 26.11H224.59C224.84 27.2 225.71 27.72 227.25 27.72C229.25 27.72 230.25 26.54 230.25 24.19V22.6C229.807 23.3129 229.183 23.8957 228.442 24.2892C227.701 24.6827 226.869 24.8727 226.03 24.84C222.03 24.84 220.03 22.2 220.03 17ZM230.19 17.12C230.19 14.05 229.19 12.53 227.04 12.53C224.89 12.53 223.87 14.05 223.87 17.12C223.87 20.19 224.97 21.51 226.99 21.51C229.01 21.51 230.11 20 230.23 17.09L230.19 17.12Z" fill="black" stroke="black" stroke-miterlimit="10"/>
<path d="M154.34 35.33C154.759 34.5916 155.374 33.9833 156.117 33.5721C156.86 33.161 157.702 32.963 158.55 33C162.55 33.14 164.47 35.78 164.47 41C164.47 46.22 162.17 48.61 157.57 48.69C152.97 48.77 150.57 46.45 150.57 41.89V28.87H152.45C152.707 28.8407 152.968 28.8711 153.211 28.959C153.454 29.0469 153.674 29.1898 153.853 29.3766C154.032 29.5635 154.166 29.7891 154.243 30.036C154.321 30.2829 154.34 30.5444 154.3 30.8L154.34 35.33ZM154.34 40.76C154.34 43.83 155.34 45.38 157.46 45.38C159.58 45.38 160.66 43.83 160.66 40.76C160.66 37.69 159.53 36.4 157.51 36.4C155.49 36.4 154.45 37.83 154.34 40.76Z" fill="black" stroke="black" stroke-miterlimit="10"/>
<path d="M178.65 42.34C178.65 44.95 178 46.67 176.65 47.5C175.325 48.2847 173.81 48.6927 172.27 48.68C170.768 48.6884 169.299 48.2384 168.06 47.39C166.77 46.56 166.13 44.89 166.13 42.39V33.21H169.86V43.11C169.804 43.4708 169.827 43.8394 169.926 44.1906C170.026 44.5417 170.201 44.8671 170.439 45.1444C170.676 45.4216 170.971 45.6442 171.302 45.7968C171.634 45.9494 171.995 46.0285 172.36 46.0285C172.725 46.0285 173.086 45.9494 173.418 45.7968C173.749 45.6442 174.044 45.4216 174.281 45.1444C174.519 44.8671 174.694 44.5417 174.794 44.1906C174.893 43.8394 174.916 43.4708 174.86 43.11V35.11C174.86 33.85 175.42 33.22 176.66 33.22H178.57L178.65 42.34Z" fill="black" stroke="black" stroke-miterlimit="10"/>
<path d="M186.76 45.64C188.33 45.64 189.11 45.18 189.11 44.2C189.11 43.43 187.82 42.8 185.27 42.34C181.98 41.73 180.27 40.24 180.27 37.86C180.27 34.59 182.8 33.04 186.19 32.98C187.808 32.8932 189.409 33.347 190.74 34.27C191.286 34.7213 191.727 35.2861 192.033 35.925C192.338 36.564 192.501 37.2618 192.51 37.97H190.15C189.811 38.01 189.467 37.9404 189.17 37.7712C188.874 37.6021 188.639 37.3423 188.5 37.03C188.24 36.37 187.5 36.03 186.25 36.03C184.79 36.03 184.06 36.44 184.06 37.21C184.06 37.98 185.06 38.59 186.95 38.96C189.48 39.48 191.13 40.14 191.95 40.91C192.621 41.6462 192.979 42.6144 192.95 43.61C192.95 47.34 190.08 48.72 186.15 48.72C184.488 48.8447 182.837 48.3653 181.5 47.37C180.923 46.8991 180.468 46.296 180.174 45.6119C179.88 44.9277 179.755 44.1827 179.81 43.44H183.63C183.75 45.06 184.93 45.64 186.76 45.64Z" fill="black" stroke="black" stroke-miterlimit="10"/>
<path d="M196.55 28.87C196.8 28.8365 197.055 28.8624 197.294 28.9457C197.533 29.0289 197.748 29.1672 197.923 29.3492C198.099 29.5313 198.229 29.7521 198.303 29.9937C198.377 30.2353 198.393 30.491 198.35 30.74V31.86H194.61V28.86L196.55 28.87ZM196.55 33.21C196.798 33.1755 197.051 33.1997 197.288 33.2806C197.524 33.3615 197.739 33.4969 197.914 33.6759C198.089 33.8548 198.22 34.0724 198.296 34.3111C198.371 34.5497 198.39 34.8028 198.35 35.05V48.39H194.61V33.21H196.55Z" fill="black" stroke="black" stroke-miterlimit="10"/>
<path d="M211.2 48.39C210.948 48.4141 210.693 48.3814 210.455 48.2943C210.217 48.2073 210.001 48.0681 209.824 47.8868C209.646 47.7056 209.512 47.487 209.43 47.2471C209.348 47.0071 209.321 46.7518 209.35 46.5V38.69C209.369 38.3563 209.313 38.0227 209.186 37.7134C209.059 37.404 208.866 37.1268 208.619 36.9017C208.372 36.6767 208.077 36.5095 207.758 36.4123C207.438 36.3152 207.101 36.2905 206.77 36.34C205.11 36.34 204.27 37.11 204.24 38.69V48.39H200.45V39.47C200.45 35.13 202.58 32.98 206.82 32.98C211.06 32.98 213.14 35.13 213.11 39.47V48.39H211.2Z" fill="black" stroke="black" stroke-miterlimit="10"/>
<path d="M221.42 48.74C216.92 48.6 214.68 45.93 214.68 40.74C214.68 35.55 216.95 33 221.47 33C226.19 33 228.407 35.9667 228.12 41.9H218.52C218.66 44.22 219.65 45.4 221.47 45.4C221.924 45.3897 222.372 45.2878 222.786 45.1005C223.2 44.9132 223.572 44.6444 223.88 44.31C224.039 44.1313 224.235 43.9895 224.454 43.8945C224.674 43.7995 224.911 43.7536 225.15 43.76H227.9C227.08 47 225.03 48.74 221.42 48.74ZM218.58 39.15H224.17C223.94 37.15 223.01 36.15 221.42 36.15C219.83 36.15 218.86 37.14 218.58 39.15Z" fill="black" stroke="black" stroke-miterlimit="10"/>
<path d="M236.35 45.64C237.92 45.64 238.7 45.18 238.7 44.2C238.7 43.43 237.41 42.8 234.86 42.34C231.57 41.73 229.86 40.24 229.86 37.86C229.86 34.59 232.39 33.04 235.78 32.98C237.398 32.8932 238.999 33.347 240.33 34.27C240.876 34.7213 241.317 35.2861 241.623 35.925C241.928 36.564 242.091 37.2618 242.1 37.97H239.74C239.401 38.01 239.057 37.9404 238.76 37.7712C238.464 37.6021 238.229 37.3423 238.09 37.03C237.83 36.37 237.09 36.03 235.84 36.03C234.38 36.03 233.65 36.44 233.65 37.21C233.65 37.98 234.65 38.59 236.54 38.96C239.07 39.48 240.72 40.14 241.54 40.91C242.211 41.6462 242.569 42.6144 242.54 43.61C242.54 47.34 239.67 48.72 235.74 48.72C234.078 48.8447 232.427 48.3653 231.09 47.37C230.513 46.8991 230.058 46.296 229.764 45.6119C229.47 44.9277 229.345 44.1827 229.4 43.44H233.22C233.34 45.06 234.52 45.64 236.35 45.64Z" fill="black" stroke="black" stroke-miterlimit="10"/>
<path d="M250.69 45.64C252.26 45.64 253.04 45.18 253.04 44.2C253.04 43.43 251.75 42.8 249.2 42.34C245.92 41.73 244.2 40.24 244.2 37.86C244.2 34.59 246.73 33.04 250.12 32.98C251.738 32.8932 253.338 33.347 254.67 34.27C255.218 34.7195 255.66 35.2839 255.966 35.9232C256.272 36.5626 256.434 37.2613 256.44 37.97H254.08C253.737 38.0078 253.391 37.9337 253.094 37.7589C252.797 37.5841 252.564 37.3179 252.43 37C252.17 36.34 251.43 36 250.18 36C248.72 36 247.99 36.41 247.99 37.18C247.99 37.95 248.99 38.56 250.88 38.93C253.41 39.45 255.06 40.11 255.88 40.88C256.551 41.6162 256.909 42.5844 256.88 43.58C256.88 47.31 254.01 48.69 250.08 48.69C248.418 48.8147 246.767 48.3353 245.43 47.34C244.853 46.8691 244.398 46.266 244.104 45.5819C243.81 44.8977 243.685 44.1527 243.74 43.41H247.56C247.68 45.06 248.86 45.64 250.69 45.64Z" fill="black" stroke="black" stroke-miterlimit="10"/>
</svg>
