<svg width="142" height="49" viewBox="0 0 142 49" fill="none" xmlns="http://www.w3.org/2000/svg">
<path d="M47.13 23.85H40.75C40.75 24.05 40.75 24.24 40.75 24.44C40.7419 28.1037 39.511 31.6599 37.2524 34.5447C34.9938 37.4294 31.8369 39.4776 28.2821 40.3645C24.7273 41.2514 20.9782 40.9262 17.6292 39.4405C14.2803 37.9548 11.5231 35.3936 9.79498 32.163C8.06684 28.9325 7.46663 25.2174 8.08952 21.607C8.7124 17.9966 10.5227 14.6975 13.2335 12.2328C15.9442 9.76801 19.4001 8.27873 23.0533 8.00107C26.7065 7.72341 30.3479 8.67325 33.4 10.7L20.03 20.11L23.91 25.63L43.03 12.16L43.48 11.86C42.3623 10.0655 41.0066 8.43059 39.45 6.99999L39.19 6.62999L39.1 6.68999C35.058 3.13621 29.9207 1.07414 24.5434 0.847127C19.166 0.62011 13.8732 2.24184 9.54604 5.4423C5.2189 8.64277 2.11857 13.2288 0.761232 18.437C-0.596106 23.6451 -0.128546 29.1611 2.08607 34.0664C4.30068 38.9718 8.12871 42.9706 12.9328 45.3971C17.7369 47.8235 23.2272 48.5312 28.4896 47.4023C33.752 46.2734 38.4689 43.376 41.8551 39.1926C45.2412 35.0092 47.0923 29.7921 47.1 24.41C47.15 24.22 47.14 24 47.13 23.85Z" fill="#FF671D"/>
<path d="M79.18 2.36V10C82.8354 11.3043 85.9127 13.8576 87.8692 17.2095C89.8257 20.5613 90.5356 24.4965 89.8737 28.3207C89.2119 32.145 87.2208 35.6126 84.2517 38.1121C81.2825 40.6115 77.5261 41.9821 73.645 41.9821C69.7639 41.9821 66.0075 40.6115 63.0383 38.1121C60.0692 35.6126 58.0781 32.145 57.4162 28.3207C56.7544 24.4965 57.4643 20.5613 59.4208 17.2095C61.3773 13.8576 64.4546 11.3043 68.11 10V2.36C62.5055 3.71459 57.5923 7.07735 54.3009 11.8115C51.0095 16.5456 49.5683 22.3223 50.2504 28.0477C50.9325 33.773 53.6904 39.0495 58.0019 42.8779C62.3134 46.7062 67.8791 48.8206 73.645 48.8206C79.4108 48.8206 84.9765 46.7062 89.288 42.8779C93.5995 39.0495 96.3575 33.773 97.0396 28.0477C97.7216 22.3223 96.2805 16.5456 92.9891 11.8115C89.6977 7.07735 84.7845 3.71459 79.18 2.36Z" fill="#FF671D"/>
<path d="M76.76 0H70.52V24.69H76.76V0Z" fill="#FF671D"/>
<path d="M100.14 48.7C101.29 48.62 107.37 48.7 107.37 48.7V22.85C107.348 19.6098 108.287 16.4358 110.07 13.73C111.18 11.9488 112.733 10.485 114.576 9.48099C116.419 8.47696 118.491 7.96678 120.59 8C122.591 7.95317 124.574 8.39279 126.368 9.28111C128.162 10.1694 129.714 11.4799 130.89 13.1C132.87 15.7785 133.923 19.0293 133.89 22.36V48.66H141.14V23.5C141.19 18.5632 139.758 13.7249 137.03 9.61C135.287 6.8738 132.86 4.64012 129.989 3.12999C127.118 1.61987 123.902 0.885648 120.66 0.999998C117.515 0.985176 114.414 1.73797 111.626 3.19305C108.837 4.64814 106.446 6.76158 104.66 9.35C101.691 13.5098 100.11 18.4996 100.14 23.61V48.7Z" fill="#FF671D"/>
</svg>
