<svg id="Capa_1" data-name="Capa 1" xmlns="http://www.w3.org/2000/svg" xmlns:xlink="http://www.w3.org/1999/xlink" viewBox="0 0 1233 224"><defs><style>.cls-1{fill:#c4c4c4;}.cls-2{fill:none;}.cls-3{clip-path:url(#clip-path);}.cls-4{mask:url(#mask);}.cls-5{fill:url(#Degradado_sin_nombre_34);}.cls-6{fill:#fff;}.cls-7{fill:#1a1a1a;}.cls-8{fill:#f5f5f5;fill-opacity:0.5;}.cls-9{fill:#68c1c1;}.cls-10{fill:#e1e1e1;}.cls-11{fill:#1a2e35;}.cls-12{fill:#174c77;}.cls-13{fill:#ffbf9d;}.cls-14{fill:#ff9a6c;}.cls-15{fill:#fafafa;}</style><clipPath id="clip-path"><rect class="cls-2" width="1233" height="224"/></clipPath><mask id="mask" x="-2" y="0" width="1236" height="224" maskUnits="userSpaceOnUse"><g id="a"><path class="cls-1" d="M0,0H1234V224H0Z"/></g></mask><linearGradient id="Degradado_sin_nombre_34" x1="687.14" y1="334.83" x2="566.14" y2="-61.17" gradientTransform="matrix(1, 0, 0, -1, 0, 226)" gradientUnits="userSpaceOnUse"><stop offset="0" stop-color="#4a84c5"/><stop offset="1" stop-color="#263686" stop-opacity="0.44"/></linearGradient></defs><g class="cls-3"><g class="cls-4"><rect class="cls-5" x="-2" y="24" width="1236" height="200" rx="7"/></g><path class="cls-6" d="M820,141.61s3.39-3.74.29-13,.3-19.2,12.08-20.47,17.62,9.94,16,17.37-2.16,9.59,0,16.73.94,27.26-19.49,26.67C810.57,168.33,812.83,149.39,820,141.61Z"/><path class="cls-7" d="M823.29,187.48C807.23,187,805,184,805,184v1.53c-3.14-.3-16.49-.59-16.83,14.91C787.79,218,805,218.82,805,218.82V221s2.95,2.61,18.91,2.61,17.72-2.91,17.72-2.91V184s-2.26,3.89-18.31,3.45Zm-29.51,11.36c.79-8.41,11-7.57,11-7.57l.24-1.48V213C800.46,211.79,793,207.31,793.78,198.84Z"/><path class="cls-6" d="M841.6,183.74c0,2.06-8.2,3.74-18.31,3.74S805,185.8,805,183.74s8.19-3.74,18.31-3.74S841.6,181.67,841.6,183.74Z"/><path class="cls-7" d="M804.58,219.51c-.24,0-18.36-2-17.13-19.09.39-5.32,2.21-9.35,5.45-12,5.05-4.18,11.68-3.44,12-3.44a.71.71,0,0,1,.63.78.78.78,0,0,1-.78.64c-.05,0-6.33-.68-10.9,3.1-2.9,2.41-4.56,6.11-4.91,11C787.79,216.22,804,218,804.73,218a.71.71,0,0,1,.64.78.83.83,0,0,1-.79.69Zm18.8,4.83c-2,0-19.09-.1-19.09-3.6a.74.74,0,0,1,1.47,0c.54.84,7.17,2.17,17.67,2.17,11.3,0,17-1.53,17.53-2.26a.67.67,0,0,1,.69-.69.71.71,0,0,1,.68.74c0,3.54-17,3.64-19,3.64Zm1.38-58h-.93c-8.69-.25-12.28-4.48-13.75-8-2.85-6.79-.05-15.75,4.27-20.47,0,0,3-3.59.15-12.3-1.82-5.51-1.42-11,1.18-15,2.35-3.64,6.33-5.91,11.48-6.45.64,0,1.23-.1,1.87-.1a14.81,14.81,0,0,1,11.59,5.46,16.08,16.08,0,0,1,3.43,12.85l-.19.93c-1.38,6.6-1.82,8.81.19,15.46,1.33,4.33,1.52,13.68-3.43,20.42C837.08,163.9,831.73,166.32,824.76,166.32ZM829,105.49c-.54,0-1.13.05-1.72.1-4.71.49-8.34,2.51-10.46,5.75-2.35,3.65-2.7,8.67-1,13.74,3.19,9.59-.29,13.58-.44,13.73-3.93,4.28-6.58,12.74-4,18.94,1.86,4.48,6.18,6.94,12.47,7.14,7,.24,12.17-2,15.56-6.6,4.42-5.95,4.52-14.81,3.24-19.14-2.11-7-1.62-9.5-.2-16.14l.2-.94a14.68,14.68,0,0,0-3.14-11.66A13,13,0,0,0,829,105.49ZM0,224m0,0"/><path class="cls-8" d="M868.09,45.72c-4.11,8.92-3.42,19.21,1.37,28.13L955.38,223.5h69.52L943.33,82.09l248.31-41.18A30.35,30.35,0,0,0,1213.93,25H912.28l-21.62,3.56C881.08,29.93,872.19,36.8,868.09,45.72Z"/><path class="cls-9" d="M748.33,185.76c-10.26-8.39-11.59-22.51-10.14-35,.25-2.08.19-4.31,1.35-6.05s3.61-2.81,5.43-1.77c1.51.85,2,2.71,2.8,4.28a12.35,12.35,0,0,0,4.58,5.08,4.77,4.77,0,0,0,4.31.75c1.91-.84,2.33-3.31,2.48-5.39q.45-5.81.88-11.62a19.06,19.06,0,0,1,1.14-6.11,6.5,6.5,0,0,1,4.46-4c2-.39,4.43,1,4.68,3a18.75,18.75,0,0,1-.15,2.59,2.21,2.21,0,0,0,1.13,2.17,2.57,2.57,0,0,0,2.39-.77,27.52,27.52,0,0,0,5.63-7.07,38.24,38.24,0,0,1,5.32-7.33,11.4,11.4,0,0,1,8-3.63c3,.08,6.09,2.18,6.61,5.16s-1.45,5.82-3.52,8a46.64,46.64,0,0,1-10.53,8.39,3.92,3.92,0,0,0-1.78,1.6c-.57,1.35.65,2.84,2,3.41,1.53.64,3.24.62,4.87.95s3.34,1.18,3.84,2.76c.69,2.2-1.29,4.27-3.18,5.58a40.53,40.53,0,0,1-12.46,5.81,13.55,13.55,0,0,0-4.6,1.75c-1.34,1-2.24,2.78-1.61,4.3s2.53,2.16,4.18,2a28,28,0,0,0,4.76-1.36c3-.83,6.69-.33,8.34,2.29a6.52,6.52,0,0,1,.24,5.87,15.34,15.34,0,0,1-3.61,4.87A40.56,40.56,0,0,1,768,186.86c-6.9,1.75-13.17,1.86-19.63-1.1"/><path class="cls-10" d="M747.43,195a90.35,90.35,0,0,1,4.84-16.82,185.61,185.61,0,0,1,9.12-19.41c.9-1.68,1.79-3.33,2.66-5s1.74-3.24,2.69-4.77a94.08,94.08,0,0,1,6-8.46c2-2.6,4-5,6-7.23s3.73-4.26,5.46-6.05a75.4,75.4,0,0,1,8.84-7.84c1.11-.84,2-1.46,2.6-1.88l.69-.47.24-.15-.22.18-.68.49c-.59.44-1.46,1.08-2.56,1.93a79.27,79.27,0,0,0-8.75,7.89c-1.72,1.8-3.53,3.84-5.43,6.07s-3.9,4.63-5.92,7.24a93.75,93.75,0,0,0-5.92,8.45c-.94,1.52-1.8,3.12-2.67,4.75s-1.76,3.29-2.66,5a187.39,187.39,0,0,0-9.13,19.37,91.86,91.86,0,0,0-4.89,16.75"/><path class="cls-10" d="M766.82,149a5.73,5.73,0,0,1-.12-.9c-.06-.59-.12-1.43-.18-2.48-.12-2.09-.19-5-.26-8.18s-.2-6.08-.37-8.16c-.08-1.05-.15-1.89-.21-2.47a5.13,5.13,0,0,1-.06-.91,6.17,6.17,0,0,1,.18.89c.1.58.21,1.42.31,2.47.23,2.08.39,5,.46,8.17s.13,6,.18,8.18c0,1,0,1.84.07,2.48A5.34,5.34,0,0,1,766.82,149Z"/><path class="cls-10" d="M794.28,146.27a.9.9,0,0,1-.28,0h-.81c-.7,0-1.71,0-3,0-2.5,0-6,.25-9.75.63s-7.21.9-9.67,1.34c-1.24.21-2.23.41-2.92.55l-.79.15a1,1,0,0,1-.28,0,1.1,1.1,0,0,1,.27-.09l.78-.21c.68-.17,1.66-.41,2.89-.65,2.46-.49,5.89-1,9.69-1.43s7.27-.55,9.78-.55c1.25,0,2.26,0,3,.07l.81.06A1.33,1.33,0,0,1,794.28,146.27Z"/><path class="cls-10" d="M752.61,177.73a2.19,2.19,0,0,1-.15-.35c-.1-.26-.22-.59-.38-1-.32-.88-.76-2.16-1.28-3.74-1-3.17-2.37-7.59-3.75-12.48s-2.67-9.32-3.66-12.5c-.5-1.56-.9-2.84-1.19-3.77-.14-.42-.24-.75-.33-1a1.76,1.76,0,0,1-.09-.36,1.45,1.45,0,0,1,.15.34c.1.26.23.59.38,1,.33.88.77,2.16,1.29,3.74,1,3.17,2.36,7.59,3.75,12.48s2.66,9.32,3.66,12.5c.49,1.56.9,2.84,1.19,3.77.13.42.24.75.32,1A1.6,1.6,0,0,1,752.61,177.73Z"/><path class="cls-10" d="M789.49,169.25a1.62,1.62,0,0,1-.37.11l-1.07.26-4,.9c-3.33.76-7.93,1.88-13,3.12s-9.68,2.33-13,3c-1.68.36-3,.63-4,.8l-1.09.2a2.07,2.07,0,0,1-.38,0,1.3,1.3,0,0,1,.37-.11l1.08-.26,4-.9c3.33-.76,7.93-1.88,13-3.12s9.68-2.33,13-3c1.67-.35,3-.63,4-.8l1.09-.2Z"/><path class="cls-9" d="M495,118.21s3.47-3.44,10.25,5.16A126.29,126.29,0,0,1,515,137.11s1.69,1.75,2.81.17,2.26-5.68,4.73-5.48,3.91,2.76,4.24,6.84,1.38,13,1.48,13.77.77,1.85,1.7.89,5.77-9.12,9.51-6.59,2.79,14,2.72,15.28.25,1.72.88,1.91,2-2.72,3.47-5,3.57-4.64,5.6-3,4.19,9.7-.94,24.5l-2.82,6.71-7.24,1c-15.61,1.25-22.88-2.85-24-5.22s1.74-3.83,4.3-4.69,5.71-1.45,5.69-2.11-.39-1.09-1.62-1.33-12.61-2.2-14.12-6.45,7.6-6.89,8.76-7.56.31-1.58-.43-1.87-9.11-3.54-13-4.88-6-3.27-5.56-5.81,4.68-2.53,6.49-3.21.54-2.76.54-2.76a125.94,125.94,0,0,1-10.87-12.86c-6.63-8.72-2.31-11.26-2.31-11.26"/><path class="cls-10" d="M501.06,125.9s0,.07.11.19.23.31.38.53l1.49,2c1.29,1.74,3.18,4.25,5.54,7.33,4.71,6.18,11.29,14.64,18.6,23.95l18.7,23.88,5.64,7.26,1.54,2,.41.51c.09.11.15.17.15.16s0-.06-.12-.18l-.38-.53-1.48-2c-1.29-1.75-3.19-4.25-5.54-7.34-4.71-6.17-11.3-14.63-18.61-24l-18.7-23.87c-2.36-3.05-4.29-5.52-5.63-7.26l-1.55-2-.4-.5Z"/><path class="cls-10" d="M521.12,137.59a9.59,9.59,0,0,0-.27,1.95c-.11,1.2-.21,2.87-.28,4.71s-.09,3.38-.13,4.72a11.82,11.82,0,0,0,0,2,8.79,8.79,0,0,0,.27-2c.1-1.2.17-2.87.24-4.71s.11-3.38.16-4.72A10.18,10.18,0,0,0,521.12,137.59Z"/><path class="cls-10" d="M519.82,151.18c0-.1-3.42-.48-7.66-.83s-7.68-.55-7.69-.45a76.44,76.44,0,0,0,7.66.84A75.38,75.38,0,0,0,519.82,151.18Z"/><path class="cls-10" d="M532.12,165.48a12.47,12.47,0,0,0-2,.32c-1.21.23-2.88.55-4.73.84s-3.54.52-4.76.68a11.1,11.1,0,0,0-2,.32,9.75,9.75,0,0,0,2,0c1.23-.09,2.93-.27,4.79-.57s3.53-.66,4.73-1A10,10,0,0,0,532.12,165.48Z"/><path class="cls-10" d="M536,153.45a7.67,7.67,0,0,0-.72,1.71c-.4,1.06-.92,2.55-1.48,4.2s-1,3.14-1.37,4.23a9,9,0,0,0-.46,1.8,9.43,9.43,0,0,0,.72-1.71c.4-1.07.92-2.55,1.48-4.2s1-3.15,1.36-4.24A8.57,8.57,0,0,0,536,153.45Z"/><path class="cls-10" d="M548.47,164.7a15,15,0,0,0-.91,2.18c-.51,1.37-1.19,3.27-1.92,5.37s-1.38,4-1.83,5.41a14.9,14.9,0,0,0-.64,2.28,14.31,14.31,0,0,0,.9-2.19c.51-1.36,1.2-3.26,1.93-5.37s1.37-4,1.82-5.41A14.48,14.48,0,0,0,548.47,164.7Z"/><path class="cls-10" d="M543.19,179.54a19.13,19.13,0,0,0-2.51.33c-1.55.24-3.68.58-6,.89s-4.51.55-6.07.72a20.3,20.3,0,0,0-2.51.33,15,15,0,0,0,2.54-.06c1.56-.1,3.72-.29,6.09-.61s4.5-.69,6-1A15,15,0,0,0,543.19,179.54Z"/><path class="cls-11" d="M478.41,193.89c0,.11,70.91.2,158.37.2s158.38-.09,158.38-.2-70.9-.21-158.38-.21S478.41,193.78,478.41,193.89Z"/><path class="cls-12" d="M716.76,146.79l22.39-22.49-11.26-20.67c-11.25-14.41-35.08-13.48-35.08-13.48a136.68,136.68,0,0,0-35.14,2.12c-18.92,3.68-17.4,16.21-17.4,16.21l-2.53,46.39L635,192.64l69.8,1.41,11.94-47.26"/><path class="cls-12" d="M679.16,191.88l62.52.76a20.32,20.32,0,0,0,18.62-29l-26.73-49.58-24.35,16.46L725.83,165l-50.61.9Z"/><path class="cls-12" d="M642.51,101l-50.17,77.46,29.27,1.91s17.48-27.54,17.08-27C638,154.38,642.51,101,642.51,101Z"/><path class="cls-11" d="M710.47,135s0-.14-.07-.4l-.26-1.12c-.23-1-.57-2.38-.92-4.14s-.73-3.85-1-6.19a33,33,0,0,1,0-7.64,20,20,0,0,1,2.59-7.13,28.32,28.32,0,0,1,3.72-5,34.28,34.28,0,0,1,3-2.93,14.63,14.63,0,0,0,1.17-1,2.06,2.06,0,0,0-.34.22c-.21.16-.54.37-.93.69a29.75,29.75,0,0,0-3.14,2.87,27.47,27.47,0,0,0-3.83,5,20,20,0,0,0-2.67,7.25,32.13,32.13,0,0,0,.06,7.74,62.18,62.18,0,0,0,1.07,6.21c.39,1.75.77,3.15,1,4.12.14.48.26.85.34,1.1A2,2,0,0,0,710.47,135Z"/><path class="cls-11" d="M712.48,137.63a7.73,7.73,0,0,0,.43,1.12c.3.71.75,1.74,1.32,3,1.13,2.52,2.74,6,4.6,9.75s3.6,7.17,4.9,9.61c.65,1.22,1.18,2.2,1.56,2.87a7.14,7.14,0,0,0,.62,1,7.39,7.39,0,0,0-.49-1.09L724,161c-1.26-2.52-2.94-5.91-4.79-9.65s-3.47-7.15-4.7-9.69l-1.43-2.94A6.4,6.4,0,0,0,712.48,137.63Z"/><path class="cls-11" d="M679.16,191.88s0,0,0-.14l0-.38q-.06-.54-.15-1.47c-.14-1.32-.35-3.2-.61-5.57-.55-4.79-1.33-11.54-2.25-19.49l-.18.19,18.47,0,32.31-.06,9.79-.06,2.66,0,.69,0,.24,0a.64.64,0,0,0-.24,0l-.69,0-2.66,0-9.79-.06-32.31-.06-18.47,0h-.2l0,.2c1,7.95,1.8,14.69,2.39,19.48.3,2.36.54,4.24.71,5.55.08.62.15,1.11.2,1.47l.06.38Z"/><path class="cls-11" d="M725.39,165.51a17.39,17.39,0,0,0,1.24-1.56,24.66,24.66,0,0,1,7.28-6.15,16,16,0,0,0,1.75-1,7.74,7.74,0,0,0-1.87.73,20,20,0,0,0-4.07,2.66,20.22,20.22,0,0,0-3.3,3.56A7.09,7.09,0,0,0,725.39,165.51Z"/><path class="cls-11" d="M636.7,170.42a3.08,3.08,0,0,0,.1-.65c.05-.45.12-1.07.21-1.84.17-1.6.4-3.93.65-6.8.51-5.74,1.09-13.69,1.61-22.47s.88-16.74,1.09-22.5c.11-2.88.18-5.21.21-6.82l0-1.86a4.72,4.72,0,0,0,0-.65,5.48,5.48,0,0,0-.06.65c0,.46-.06,1.07-.11,1.85-.08,1.65-.19,4-.33,6.82-.28,5.76-.68,13.71-1.2,22.49s-1.07,16.72-1.5,22.47c-.22,2.85-.4,5.16-.53,6.81-.06.77-.1,1.39-.14,1.85A6.3,6.3,0,0,0,636.7,170.42Z"/><path class="cls-10" d="M692.51,128.27a6.91,6.91,0,0,0-.08-1c-.09-.7-.2-1.64-.34-2.8-.32-2.45-.77-5.8-1.29-9.68l-.28.17,4.79,3.36,4.88,3.4.36.24-.07-.42c-.59-3.85-1.1-7.17-1.47-9.6q-.28-1.71-.45-2.76a7,7,0,0,0-.21-1,6.67,6.67,0,0,0,.08,1q.14,1.06.36,2.79c.33,2.43.79,5.76,1.33,9.61l.28-.17L695.53,118l-4.8-3.35-.35-.24.06.42,1.42,9.66c.19,1.15.34,2.09.45,2.79A6.8,6.8,0,0,0,692.51,128.27Z"/><path class="cls-10" d="M664.61,131.28a7.15,7.15,0,0,0,.73-.71l1.94-2.06,6.62-7.18-.32-.1c.15,1.81.31,3.79.48,5.83s.35,4.08.51,5.92l0,.43.28-.32,6.44-7.26,1.84-2.12a8.51,8.51,0,0,0,.63-.79,4.82,4.82,0,0,0-.72.71l-1.92,2.05-6.54,7.17.32.1c-.15-1.84-.32-3.84-.49-5.92s-.35-4-.5-5.83l0-.43-.28.32c-2.62,2.91-4.87,5.43-6.52,7.27l-1.86,2.12A5.24,5.24,0,0,0,664.61,131.28Z"/><path class="cls-10" d="M650.56,130.28a7.41,7.41,0,0,0,.51.88l1.5,2.4,5.29,8.21.18-.28-5.77-1-5.86-1-.42-.07.24.35,5.41,8.06,1.59,2.31a6.3,6.3,0,0,0,.61.8,6,6,0,0,0-.5-.87l-1.51-2.37-5.3-8.13-.18.28,5.86,1,5.77,1,.42.07-.24-.35-5.4-8.14-1.59-2.33A6.79,6.79,0,0,0,650.56,130.28Z"/><path class="cls-10" d="M669.24,144.65a6.33,6.33,0,0,0,.5.88l1.5,2.39,5.29,8.21.19-.28-5.77-1-5.87-1-.42-.07.24.36,5.42,8c.65,1,1.19,1.73,1.59,2.31a5.15,5.15,0,0,0,.61.81,7,7,0,0,0-.51-.87l-1.5-2.37c-1.34-2.06-3.18-4.87-5.3-8.14l-.19.29,5.86,1,5.77,1,.42.07-.23-.36-5.4-8.13-1.6-2.34A5.64,5.64,0,0,0,669.24,144.65Z"/><path class="cls-10" d="M628.89,130.08a6.33,6.33,0,0,0,.5.88l1.5,2.39,5.29,8.22.19-.29-5.77-1-5.86-1-.43-.08.24.36,5.42,8c.65,1,1.19,1.73,1.59,2.31a6.07,6.07,0,0,0,.61.81,7,7,0,0,0-.51-.87l-1.5-2.37-5.3-8.13-.19.28,5.86,1,5.78,1,.42.07-.24-.36-5.4-8.13c-.66-1-1.19-1.75-1.59-2.34A6.07,6.07,0,0,0,628.89,130.08Z"/><path class="cls-10" d="M723.38,118.21a6.33,6.33,0,0,0,.5.88l1.51,2.4,5.28,8.21.19-.28-5.77-1-5.86-1-.43-.07.24.35,5.42,8.06,1.59,2.31a6.3,6.3,0,0,0,.61.8,5.63,5.63,0,0,0-.51-.87l-1.5-2.37-5.3-8.13-.19.28,5.86,1,5.78,1,.42.07-.24-.35c-2.16-3.27-4-6.08-5.4-8.14L724,119A6.79,6.79,0,0,0,723.38,118.21Z"/><path class="cls-10" d="M752.69,173.65a5.72,5.72,0,0,0-.68.75l-1.81,2.17L744,184.15l.32.09c-.26-1.81-.55-3.77-.84-5.8s-.61-4.05-.88-5.88l-.06-.42-.27.34-6,7.65-1.7,2.23a5.33,5.33,0,0,0-.58.83,7.73,7.73,0,0,0,.68-.76l1.78-2.16,6.08-7.57-.32-.08c.26,1.83.55,3.81.86,5.88s.59,4,.86,5.79l.06.42.27-.33,6-7.67,1.72-2.23A6.4,6.4,0,0,0,752.69,173.65Z"/><path class="cls-10" d="M685.75,137.75a5.94,5.94,0,0,0,1,.13l2.81.25,9.74.72-.11-.32-4.27,4-4.33,4.08-.31.3.43,0,9.69.53,2.8.12a6.53,6.53,0,0,0,1,0,6.87,6.87,0,0,0-1-.12l-2.8-.23-9.68-.67.11.32,4.34-4.07,4.26-4,.31-.29-.43,0-9.74-.59-2.83-.14A6,6,0,0,0,685.75,137.75Z"/><path class="cls-10" d="M702.18,175.12a6.93,6.93,0,0,0-.7.74c-.47.54-1.09,1.25-1.85,2.14l-6.31,7.45.32.1c-.22-1.81-.47-3.78-.73-5.81s-.52-4.06-.76-5.9l-.06-.42-.27.33-6.12,7.53-1.74,2.2a8.19,8.19,0,0,0-.6.81,4.92,4.92,0,0,0,.69-.73c.46-.54,1.07-1.26,1.83-2.13,1.57-1.89,3.73-4.46,6.23-7.45l-.33-.09c.24,1.83.49,3.83.75,5.9s.52,4,.75,5.8l.05.42.27-.32,6.21-7.55,1.76-2.2A7,7,0,0,0,702.18,175.12Z"/><path class="cls-10" d="M731.54,147.72a7.62,7.62,0,0,0,1,.13l2.81.24,9.74.73-.11-.32-4.28,4c-1.51,1.44-3,2.81-4.32,4.08l-.31.3.43,0,9.69.53,2.8.12a5.23,5.23,0,0,0,1,0,6.87,6.87,0,0,0-1-.12l-2.8-.23-9.68-.67.11.32,4.34-4.06,4.26-4,.31-.3-.43,0-9.75-.59-2.82-.14A5.23,5.23,0,0,0,731.54,147.72Z"/><path class="cls-10" d="M706.31,174.28a6.17,6.17,0,0,0,1,.13l2.81.24,9.74.73-.11-.32-4.27,4-4.32,4.08-.31.29.42,0L721,184l2.81.12a6.59,6.59,0,0,0,1,0,6.17,6.17,0,0,0-1-.13l-2.79-.22-9.69-.67.12.31,4.33-4.06,4.26-4,.31-.29-.42,0-9.75-.59-2.82-.13A6.1,6.1,0,0,0,706.31,174.28Z"/><path class="cls-10" d="M649.37,106.7a7.25,7.25,0,0,0,1,.13l2.82.24,9.74.72-.12-.31-4.27,4c-1.51,1.44-3,2.81-4.32,4.08l-.31.3.42,0,9.7.53,2.8.12a6.53,6.53,0,0,0,1,0,6.87,6.87,0,0,0-1-.12l-2.8-.23-9.68-.67.11.32,4.34-4.07,4.26-4,.31-.3-.43,0-9.75-.59-2.82-.14A5.18,5.18,0,0,0,649.37,106.7Z"/><path class="cls-13" d="M677.07,174.28s-12.48-3.59-16.61-4.65c-1.61-.41-8.5,3.23-13.25,6.25,0,0-6.56,3.88-6,5.08s3,1,6.86-.76c0,0-1.35,3.9,1.29,3.82,0,0-1.31,4.22,1.16,4.66s3.06-5,5.24-5.24,6.7-.59,6.7-.59,3.75,6.23,6.66,6.66,9.66-.35,9.66-.35Z"/><path class="cls-14" d="M655.77,175.14a21.22,21.22,0,0,0-3.48,2A21.61,21.61,0,0,0,649,179.4a39.52,39.52,0,0,0,6.76-4.26Z"/><path class="cls-14" d="M656.51,177.54a25.46,25.46,0,0,0-4.13,1.7,27.26,27.26,0,0,0-4,2,25.39,25.39,0,0,0,4.14-1.69A25.65,25.65,0,0,0,656.51,177.54Z"/><path class="cls-14" d="M655.18,183.35a10.54,10.54,0,0,0-2.82.2,10.16,10.16,0,0,0-2.76.57,20.34,20.34,0,0,0,5.58-.77Z"/><path class="cls-11" d="M693.29,45.61a2.56,2.56,0,0,0,3.61,3c1.69-.86,1.91-3.19,1.57-5.06s-1-3.85-.18-5.58c.6-1.32,1.9-2.16,2.91-3.19a8.18,8.18,0,0,0,2.27-6.94,6.89,6.89,0,0,0-4.73-5.41c-2.48-.69-5.54.07-7.39-1.73-1.34-1.3-1.42-3.44-2.46-5-1.61-2.42-5-2.8-7.89-2.41s-5.8,1.32-8.61.62c-2.36-.59-4.29-2.23-6.49-3.24a13.06,13.06,0,0,0-14.5,2.81,13.07,13.07,0,0,0-2,14.63,8.2,8.2,0,0,0,3.94,3.9"/><path class="cls-13" d="M679,106.85h0a14.3,14.3,0,0,1-14.28-14.49l.19-13.63s-11.45-1.15-12.21-12.49-.21-37.52-.21-37.52h0a39.48,39.48,0,0,1,39.91,2.82l1.75,1.2-.85,60A14.29,14.29,0,0,1,679,106.85Z"/><path class="cls-11" d="M655.49,49.26a1.7,1.7,0,0,0,0-3.37.66.66,0,0,0-.28,0,1.7,1.7,0,0,0,0,3.38A.88.88,0,0,0,655.49,49.26Z"/><path class="cls-11" d="M653.26,45.64c.19.19,1.26-.73,2.82-.82s2.74.65,2.9.44-.11-.44-.63-.79a3.89,3.89,0,0,0-4.57.31C653.32,45.19,653.17,45.56,653.26,45.64Z"/><path class="cls-11" d="M671.35,46a1.65,1.65,0,1,0,2.29.42A1.65,1.65,0,0,0,671.35,46Z"/><path class="cls-11" d="M670.32,46.09c.19.19,1.25-.73,2.82-.82s2.74.65,2.9.44-.12-.44-.63-.78a3.86,3.86,0,0,0-4.57.3C670.37,45.64,670.23,46,670.32,46.09Z"/><path class="cls-11" d="M664.75,59.33a7.78,7.78,0,0,0-2.56-.39c-.41,0-.73-.1-.78-.32a2.33,2.33,0,0,1,.23-1.19l1.07-3.24c1.46-4.62,2.45-8.42,2.22-8.5s-1.61,3.61-3.07,8.23c-.35,1.13-.67,2.2-1,3.27a2.62,2.62,0,0,0-.13,1.71,1.06,1.06,0,0,0,.74.61,2.64,2.64,0,0,0,.7.06A7.26,7.26,0,0,0,664.75,59.33Z"/><path class="cls-6" d="M669.92,60.78a29.05,29.05,0,0,1-7.54,2.65,4.32,4.32,0,0,0,5.19,1.44C670.9,63.44,669.92,60.78,669.92,60.78Z"/><path class="cls-14" d="M664.87,78.56a26.36,26.36,0,0,0,14.57-5s-3.05,8.36-14.44,8Z"/><path class="cls-11" d="M652.4,31.59s6.85,3.48,15.94-.84c6-2.83,12.88-4.14,14.37-2.92s1.7,7.31,7.51,9.2c0,0-.62,11.6,4,11.28s2.1-18.37,2.1-18.37l-11.22-5.75-12.32-2.57L661.12,23l-9.06,2.29Z"/><path class="cls-13" d="M693.39,44.58c.19-.1,7.67-2.73,7.85,5s-7.67,6.35-7.69,6.12S693.39,44.58,693.39,44.58Z"/><path class="cls-14" d="M695.86,52.75s.14.09.37.19a1.38,1.38,0,0,0,1,0c.82-.32,1.48-1.64,1.48-3A4.48,4.48,0,0,0,698.3,48a1.56,1.56,0,0,0-1-1,.69.69,0,0,0-.79.39c-.1.22-.05.37-.09.38s-.17-.12-.11-.44a.85.85,0,0,1,.29-.5,1,1,0,0,1,.75-.21,1.87,1.87,0,0,1,1.44,1.17,4.69,4.69,0,0,1,.52,2.16c0,1.56-.79,3.05-1.9,3.4a1.47,1.47,0,0,1-1.25-.18C695.88,52.93,695.83,52.76,695.86,52.75Z"/><path class="cls-11" d="M697.34,20.24a3.49,3.49,0,0,0-2.69.1A3.57,3.57,0,0,0,692.54,22a12.5,12.5,0,0,1,2.24-1.33A12.93,12.93,0,0,1,697.34,20.24Z"/><path class="cls-11" d="M692.67,15.58c-.14,0,.08,1.64-.2,3.59a16,16,0,0,1-1.08,3.39,2.53,2.53,0,0,0,.65-.86,7.58,7.58,0,0,0,.82-2.47A8.19,8.19,0,0,0,692.67,15.58Z"/><path class="cls-11" d="M660.72,41.91c0-.09-.29-.36-.92-.62a7.08,7.08,0,0,0-5.2.05c-.63.27-1,.55-.91.64s1.59-.38,3.51-.38S660.63,42.12,660.72,41.91Z"/><path class="cls-11" d="M678.06,40.27c0-.09-.29-.35-.92-.61a6.88,6.88,0,0,0-2.61-.47,7,7,0,0,0-2.6.52c-.62.27-.95.54-.91.63s1.6-.38,3.52-.38S678,40.48,678.06,40.27Z"/><polygon class="cls-11" points="614.81 130.28 639.42 191.14 683.8 191.14 683.8 193.89 551.63 193.89 524.59 130.28 614.81 130.28"/><path class="cls-15" d="M577.19,166.21c.9,3.07,3.49,5,5.8,4.33s3.47-3.7,2.57-6.76-3.48-5-5.8-4.33S576.3,163.15,577.19,166.21Z"/></g></svg>