<svg width="103" height="14" viewBox="0 0 103 14" fill="none" xmlns="http://www.w3.org/2000/svg">
<path d="M5.23222 5.563C5.23222 6.085 5.05222 6.52 4.69221 6.868C4.33822 7.21 3.79522 7.381 3.06321 7.381H1.85721V10H1.03821V3.727H3.06321C3.77121 3.727 4.30822 3.898 4.67422 4.24C5.04622 4.582 5.23222 5.023 5.23222 5.563ZM3.06321 6.706C3.51922 6.706 3.85522 6.607 4.07122 6.409C4.28722 6.211 4.39522 5.929 4.39522 5.563C4.39522 4.789 3.95121 4.402 3.06321 4.402H1.85721V6.706H3.06321ZM10.5941 10.063C10.0121 10.063 9.48113 9.928 9.00113 9.658C8.52113 9.382 8.14013 9.001 7.85813 8.515C7.58213 8.023 7.44413 7.471 7.44413 6.859C7.44413 6.247 7.58213 5.698 7.85813 5.212C8.14013 4.72 8.52113 4.339 9.00113 4.069C9.48113 3.793 10.0121 3.655 10.5941 3.655C11.1821 3.655 11.7161 3.793 12.1961 4.069C12.6761 4.339 13.0541 4.717 13.3301 5.203C13.6061 5.689 13.7441 6.241 13.7441 6.859C13.7441 7.477 13.6061 8.029 13.3301 8.515C13.0541 9.001 12.6761 9.382 12.1961 9.658C11.7161 9.928 11.1821 10.063 10.5941 10.063ZM10.5941 9.352C11.0321 9.352 11.4251 9.25 11.7731 9.046C12.1271 8.842 12.4031 8.551 12.6011 8.173C12.8051 7.795 12.9071 7.357 12.9071 6.859C12.9071 6.355 12.8051 5.917 12.6011 5.545C12.4031 5.167 12.1301 4.876 11.7821 4.672C11.4341 4.468 11.0381 4.366 10.5941 4.366C10.1501 4.366 9.75413 4.468 9.40613 4.672C9.05813 4.876 8.78213 5.167 8.57813 5.545C8.38013 5.917 8.28113 6.355 8.28113 6.859C8.28113 7.357 8.38013 7.795 8.57813 8.173C8.78213 8.551 9.05813 8.842 9.40613 9.046C9.76013 9.25 10.1561 9.352 10.5941 9.352ZM24.2093 3.727L22.3913 10H21.4733L20.0153 4.951L18.5033 10L17.5943 10.009L15.8393 3.727H16.7123L18.0803 9.046L19.5923 3.727H20.5103L21.9503 9.028L23.3273 3.727H24.2093ZM27.4246 4.393V6.49H29.7106V7.165H27.4246V9.325H29.9806V10H26.6056V3.718H29.9806V4.393H27.4246ZM36.0229 10L34.5289 7.435H33.5389V10H32.7199V3.727H34.7449C35.2189 3.727 35.6179 3.808 35.9419 3.97C36.2719 4.132 36.5179 4.351 36.6799 4.627C36.8419 4.903 36.9229 5.218 36.9229 5.572C36.9229 6.004 36.7969 6.385 36.5449 6.715C36.2989 7.045 35.9269 7.264 35.4289 7.372L37.0039 10H36.0229ZM33.5389 6.778H34.7449C35.1889 6.778 35.5219 6.67 35.7439 6.454C35.9659 6.232 36.0769 5.938 36.0769 5.572C36.0769 5.2 35.9659 4.912 35.7439 4.708C35.5279 4.504 35.1949 4.402 34.7449 4.402H33.5389V6.778ZM40.5144 4.393V6.49H42.8004V7.165H40.5144V9.325H43.0704V10H39.6954V3.718H43.0704V4.393H40.5144ZM47.7627 3.727C48.4467 3.727 49.0377 3.856 49.5357 4.114C50.0397 4.366 50.4237 4.729 50.6877 5.203C50.9577 5.677 51.0927 6.235 51.0927 6.877C51.0927 7.519 50.9577 8.077 50.6877 8.551C50.4237 9.019 50.0397 9.379 49.5357 9.631C49.0377 9.877 48.4467 10 47.7627 10H45.8097V3.727H47.7627ZM47.7627 9.325C48.5727 9.325 49.1907 9.112 49.6167 8.686C50.0427 8.254 50.2557 7.651 50.2557 6.877C50.2557 6.097 50.0397 5.488 49.6077 5.05C49.1817 4.612 48.5667 4.393 47.7627 4.393H46.6287V9.325H47.7627ZM60.7134 6.769C60.9414 6.805 61.1484 6.898 61.3344 7.048C61.5264 7.198 61.6764 7.384 61.7844 7.606C61.8984 7.828 61.9554 8.065 61.9554 8.317C61.9554 8.635 61.8744 8.923 61.7124 9.181C61.5504 9.433 61.3134 9.634 61.0014 9.784C60.6954 9.928 60.3324 10 59.9124 10H57.5724V3.727H59.8224C60.2484 3.727 60.6114 3.799 60.9114 3.943C61.2114 4.081 61.4364 4.27 61.5864 4.51C61.7364 4.75 61.8114 5.02 61.8114 5.32C61.8114 5.692 61.7094 6.001 61.5054 6.247C61.3074 6.487 61.0434 6.661 60.7134 6.769ZM58.3914 6.436H59.7684C60.1524 6.436 60.4494 6.346 60.6594 6.166C60.8694 5.986 60.9744 5.737 60.9744 5.419C60.9744 5.101 60.8694 4.852 60.6594 4.672C60.4494 4.492 60.1464 4.402 59.7504 4.402H58.3914V6.436ZM59.8404 9.325C60.2484 9.325 60.5664 9.229 60.7944 9.037C61.0224 8.845 61.1364 8.578 61.1364 8.236C61.1364 7.888 61.0164 7.615 60.7764 7.417C60.5364 7.213 60.2154 7.111 59.8134 7.111H58.3914V9.325H59.8404ZM68.9839 3.727L66.9409 7.633V10H66.1219V7.633L64.0699 3.727H64.9789L66.5269 6.904L68.0749 3.727H68.9839Z" fill="#1D1D1D"/>
<path d="M82.314 12C81.7036 12 81.1346 11.9175 80.607 11.7524C80.0897 11.577 79.6346 11.3191 79.2414 10.9787C78.8587 10.6383 78.5535 10.2102 78.3259 9.69439C78.1086 9.1786 78 8.57511 78 7.88395C78 7.20309 78.1086 6.62024 78.3259 6.1354C78.5535 5.64023 78.8483 5.23791 79.2104 4.92843C79.5725 4.60864 79.9863 4.37653 80.4518 4.23211C80.9174 4.07737 81.3932 4 81.8795 4C82.4278 4 82.9243 4.08253 83.3692 4.24758C83.8244 4.41264 84.2123 4.63959 84.533 4.92843C84.8641 5.21728 85.1175 5.56286 85.2934 5.96518C85.4796 6.36751 85.5727 6.80593 85.5727 7.28046C85.5727 7.63121 85.4744 7.89942 85.2779 8.08511C85.0813 8.27079 84.8072 8.38943 84.4554 8.44101L80.6225 9.01354C80.7363 9.35397 80.9691 9.61186 81.3208 9.78723C81.6726 9.95229 82.076 10.0348 82.5312 10.0348C82.9554 10.0348 83.3537 9.98324 83.7261 9.88008C84.1089 9.7666 84.4192 9.63765 84.6572 9.49323C84.8227 9.59639 84.9624 9.74081 85.0762 9.9265C85.19 10.1122 85.2469 10.3082 85.2469 10.5145C85.2469 10.9787 85.0296 11.3243 84.5951 11.5513C84.2641 11.7266 83.8916 11.8453 83.4778 11.9072C83.064 11.9691 82.6761 12 82.314 12ZM81.8795 5.91876C81.6312 5.91876 81.4139 5.96003 81.2277 6.04255C81.0519 6.12508 80.907 6.2334 80.7932 6.36751C80.6794 6.4913 80.5915 6.63572 80.5294 6.80077C80.4777 6.95551 80.4467 7.11541 80.4363 7.28046L83.0899 6.8472C83.0588 6.64088 82.945 6.43456 82.7485 6.22824C82.5519 6.02192 82.2622 5.91876 81.8795 5.91876Z" fill="#3D3D3D"/>
<path d="M91.8414 11.5513C91.6966 11.6647 91.4845 11.7576 91.2052 11.8298C90.9258 11.902 90.6103 11.9381 90.2586 11.9381C89.8551 11.9381 89.5034 11.8865 89.2033 11.7834C88.9137 11.6802 88.7119 11.5152 88.5982 11.2882C88.505 11.1128 88.3912 10.8704 88.2568 10.5609C88.1326 10.2411 87.9981 9.89039 87.8533 9.5087C87.7085 9.1167 87.5585 8.6989 87.4033 8.25532C87.2481 7.81173 87.0981 7.37331 86.9533 6.94004C86.8188 6.50677 86.6946 6.08897 86.5808 5.68665C86.467 5.28433 86.3739 4.92843 86.3015 4.61896C86.4463 4.47453 86.6377 4.35074 86.8757 4.24758C87.124 4.13411 87.3929 4.07737 87.6826 4.07737C88.0447 4.07737 88.3395 4.15474 88.5671 4.30948C88.8051 4.4539 88.9809 4.73243 89.0947 5.14507L89.6999 7.51257C89.8137 7.97679 89.9223 8.39974 90.0258 8.78143C90.1292 9.1528 90.2068 9.44165 90.2586 9.64797H90.3362C90.5327 8.88459 90.7396 8.03868 90.9569 7.11025C91.1741 6.18182 91.3707 5.26886 91.5465 4.37137C91.7224 4.27853 91.919 4.20632 92.1362 4.15474C92.3638 4.10316 92.5811 4.07737 92.788 4.07737C93.1501 4.07737 93.4552 4.15474 93.7035 4.30948C93.9518 4.46422 94.076 4.73243 94.076 5.11412C94.076 5.27918 94.0346 5.5216 93.9518 5.84139C93.8794 6.15087 93.7811 6.50677 93.657 6.90909C93.5432 7.3011 93.4035 7.71889 93.238 8.16248C93.0828 8.60606 92.9225 9.03933 92.7569 9.46228C92.5914 9.88524 92.4259 10.2824 92.2604 10.6538C92.1052 11.0148 91.9655 11.314 91.8414 11.5513Z" fill="#3D3D3D"/>
<path d="M103 7.99226C103 8.63185 102.902 9.20438 102.705 9.70987C102.509 10.205 102.229 10.6228 101.867 10.9633C101.515 11.3037 101.091 11.5616 100.595 11.7369C100.098 11.9123 99.5447 12 98.9343 12C98.3239 12 97.7705 11.9072 97.2739 11.7215C96.7773 11.5358 96.348 11.2727 95.9859 10.9323C95.6342 10.5816 95.36 10.1586 95.1635 9.66344C94.9669 9.16828 94.8686 8.61122 94.8686 7.99226C94.8686 7.38362 94.9669 6.83172 95.1635 6.33656C95.36 5.84139 95.6342 5.4236 95.9859 5.08317C96.348 4.73243 96.7773 4.46422 97.2739 4.27853C97.7705 4.09284 98.3239 4 98.9343 4C99.5447 4 100.098 4.098 100.595 4.294C101.091 4.47969 101.515 4.74791 101.867 5.09865C102.229 5.43907 102.509 5.85687 102.705 6.35203C102.902 6.84719 103 7.39394 103 7.99226ZM97.5687 7.99226C97.5687 8.62153 97.6877 9.10638 97.9257 9.44681C98.1739 9.77692 98.5153 9.94197 98.9498 9.94197C99.3843 9.94197 99.7154 9.77176 99.943 9.43133C100.181 9.09091 100.3 8.61122 100.3 7.99226C100.3 7.37331 100.181 6.89878 99.943 6.56867C99.705 6.22824 99.3688 6.05803 98.9343 6.05803C98.4998 6.05803 98.1636 6.22824 97.9257 6.56867C97.6877 6.89878 97.5687 7.37331 97.5687 7.99226Z" fill="#3D3D3D"/>
<ellipse cx="99.0138" cy="7.9762" rx="1.56071" ry="1.55628" fill="#65A8EC"/>
<ellipse cx="99.0138" cy="7.9763" rx="2.15526" ry="2.14915" fill="white"/>
<ellipse cx="98.5532" cy="7.51694" rx="0.431246" ry="0.430027" fill="white"/>
<ellipse cx="99.0139" cy="7.97619" rx="1.83197" ry="1.82678" fill="#2F6EB8"/>
<ellipse cx="98.4733" cy="7.43738" rx="0.506207" ry="0.504767" fill="white"/>
</svg>
