<?xml version="1.0" encoding="utf-8"?>
<!-- Generator: Adobe Illustrator 24.3.0, SVG Export Plug-In . SVG Version: 6.00 Build 0)  -->
<svg version="1.1" id="Capa_1" xmlns="http://www.w3.org/2000/svg" xmlns:xlink="http://www.w3.org/1999/xlink" x="0px" y="0px"
	 viewBox="0 0 1234 304" style="enable-background:new 0 0 1234 304;" xml:space="preserve">
<style type="text/css">
	.st0{fill:#C4C4C4;filter:url(#Adobe_OpacityMaskFilter);}
	.st1{mask:url(#a_1_);}
	.st2{fill:url(#SVGID_1_);}
	.st3{fill:#F5F5F5;fill-opacity:0.5;}
	.st4{fill:url(#SVGID_2_);}
	.st5{opacity:0.2;fill:#EEEDF3;enable-background:new    ;}
	.st6{fill:#7E412D;}
	.st7{fill:#BC7153;}
	.st8{fill:#17161C;}
	.st9{fill:#C6C6C6;}
	.st10{fill:#E2E2E2;}
	.st11{fill:#EFEEED;}
	.st12{fill:#060324;}
	.st13{fill:#1D1C21;}
	.st14{fill:#F9BFA1;}
	.st15{fill:#FC5B5B;}
	.st16{fill:none;stroke:#E54141;stroke-width:0.75;stroke-miterlimit:10;}
	.st17{fill:#F5BFA1;}
	.st18{fill:#E39780;}
	.st19{fill:#171E21;}
	.st20{fill:none;stroke:#E39780;stroke-width:0.612;stroke-linecap:round;stroke-linejoin:round;stroke-miterlimit:10;}
	.st21{fill:#FFFFFF;}
	.st22{opacity:0.67;fill:#FFFFFF;enable-background:new    ;}
	.st23{clip-path:url(#SVGID_4_);}
	.st24{fill:#F5F5F5;}
	.st25{fill:#FACEA7;}
	.st26{fill:#F8BE91;}
	.st27{fill:#AD4328;}
	.st28{fill:#ECECEC;}
	.st29{fill:#FCDBBF;}
	.st30{fill:#2A94F4;}
	.st31{fill:#CDEAFB;}
	.st32{fill:#FACBB6;}
	.st33{fill:#F6B7A0;}
	.st34{fill:#01384F;}
	.st35{fill:url(#SVGID_5_);filter:url(#Adobe_OpacityMaskFilter_1_);}
	.st36{mask:url(#b_1_);}
	.st37{fill:#0E538C;}
	.st38{fill:#F4B99F;}
	.st39{opacity:0.1;enable-background:new    ;}
	.st40{opacity:0.11;enable-background:new    ;}
	.st41{fill:#0D5686;}
	.st42{fill:#EFB68F;}
	.st43{opacity:6.000000e-02;fill:#191919;enable-background:new    ;}
	.st44{fill:#F7C6A4;}
	.st45{opacity:0.18;fill:#F9F9F9;enable-background:new    ;}
	.st46{opacity:0.1;fill:#141414;enable-background:new    ;}
	.st47{opacity:0.11;fill:#FFFFFF;enable-background:new    ;}
</style>
<defs>
	<filter id="Adobe_OpacityMaskFilter" filterUnits="userSpaceOnUse" x="-2" y="43" width="1236" height="200">
		<feColorMatrix  type="matrix" values="1 0 0 0 0  0 1 0 0 0  0 0 1 0 0  0 0 0 1 0"/>
	</filter>
</defs>
<mask maskUnits="userSpaceOnUse" x="-2" y="43" width="1236" height="200" id="a_1_">
	<path class="st0" d="M0,19h1234v224H0V19z"/>
</mask>
<g class="st1">
	
		<linearGradient id="SVGID_1_" gradientUnits="userSpaceOnUse" x1="687.1429" y1="393.7211" x2="566.1429" y2="-2.2789" gradientTransform="matrix(1 0 0 -1 0 303.8898)">
		<stop  offset="0" style="stop-color:#BEED5B"/>
		<stop  offset="1" style="stop-color:#16A4BE;stop-opacity:0.33"/>
	</linearGradient>
	<path class="st2" d="M5,43h1222c3.9,0,7,3.1,7,7v186c0,3.9-3.1,7-7,7H5c-3.9,0-7-3.1-7-7V50C-2,46.1,1.1,43,5,43z"/>
	<path class="st3" d="M870.2,64.7c-4.1,8.9-3.4,19.2,1.4,28.1l86.1,149.6h69.7l-81.8-141.4l248.9-41.2c10.1-1.6,18.1-7.8,22.3-15.9
		H914.5l-21.7,3.6C883.2,48.9,874.3,55.8,870.2,64.7z"/>
</g>
<linearGradient id="SVGID_2_" gradientUnits="userSpaceOnUse" x1="554.5486" y1="29.9791" x2="866.6836" y2="429.834" gradientTransform="matrix(1 0 0 -1 0 303.8898)">
	<stop  offset="0" style="stop-color:#6FC0DA"/>
	<stop  offset="0.369" style="stop-color:#11939B"/>
	<stop  offset="0.698" style="stop-color:#18AACA"/>
	<stop  offset="1" style="stop-color:#036382"/>
</linearGradient>
<path class="st4" d="M829.3,63.1c-3.4-6.9-16.3-33.4-50.4-48.5c-7.3-3.2-41.4-18.4-71.8-7.9c-40.3,13.9-31.1,57.7-69.1,77.3
	c-32.7,16.8-64.2-19.3-103.1-4.4c-20.3,7.8-37.4,26.1-39.2,43.2C490.1,176,628,273.9,737.8,236.2
	C817.5,208.8,856.3,118.5,829.3,63.1z"/>
<path class="st5" d="M751.7,179.6l-11.2-11l-98.3-96.4l-15.6-15.3l86.8,21.8L729,94l35.3,34.6l11.2,11L751.7,179.6L751.7,179.6z
	 M738.9,201.1l-11.2-11L595.5,60.3L580,45l30.6,7.7L626.1,68l0.1,0L736.1,176l11.3,11L738.9,201.1z"/>
<path class="st6" d="M835,180.9v1.1l-0.8,1.1v-2L835,180.9z M758.2,181.8v1.4l1.1,0.7l0.4-1.6L758.2,181.8z"/>
<path class="st6" d="M774.5,185.8l-13.2-4c0,0-2.6-0.6-3.1,0.9c-0.2,0.7,0.2,1.4,0.8,1.7c2.4,1.4,10,5.3,15.6,5.5l45.8,0.2
	c0.2,0,0.4,0,0.5-0.1c1.9-0.6,14-4.6,14-7.9c0-2.2-14.4,3.9-14.4,3.9L774.5,185.8L774.5,185.8z"/>
<path class="st7" d="M774.5,184.7l-13.2-4c0,0-2.5-0.6-3.1,0.9c-0.3,0.7,0.1,1.4,0.7,1.7c2.4,1.4,10,5.3,15.6,5.5l46.1,0.2
	c0,0,14.3-4.4,14.3-8c0-2.2-14.4,3.9-14.4,3.9L774.5,184.7L774.5,184.7z"/>
<path class="st8" d="M779.5,193.2c0,1.9-1.5,3.4-3.5,3.4s-3.6-1.5-3.6-3.3c0-1.9,1.5-3.4,3.5-3.4
	C777.9,189.9,779.5,191.3,779.5,193.2z"/>
<path class="st9" d="M777.2,193.2c0,0.6-0.5,1.1-1.2,1.2c-0.6,0-1.2-0.5-1.3-1.1c0-0.6,0.5-1.1,1.2-1.2
	C776.6,192.1,777.2,192.6,777.2,193.2z"/>
<path class="st8" d="M820.1,193.2c0,1.9-1.5,3.4-3.5,3.4c-2,0-3.6-1.5-3.6-3.3c0-1.9,1.5-3.4,3.5-3.4
	C818.3,189.9,820,191.3,820.1,193.2z"/>
<path class="st9" d="M817.6,193.2c0,0.6-0.5,1.1-1.2,1.2c-0.6,0-1.2-0.5-1.3-1.1c0-0.6,0.5-1.1,1.2-1.2
	C817,192,817.6,192.6,817.6,193.2z"/>
<path class="st10" d="M749,170.3l8.6-9.1l3,5l-8.7,7.9L749,170.3L749,170.3z"/>
<path class="st10" d="M0,0"/>
<path class="st11" d="M753.5,188.1l-10.1-18.8l-1.3,0.6l10.1,18.8L753.5,188.1z"/>
<path class="st12" d="M774.7,108.5l7.1,40.7c0.6,4.3-3.2,7.9-7.7,7.3c-2.8-0.3-5.1-2.2-5.8-4.9l-9.4-33.3c-0.5-1.6-0.5-3.3-0.1-5
	l1.6-7.6L774.7,108.5L774.7,108.5z"/>
<path class="st12" d="M768.4,145.7l-15.7,17.8l7.5,7.8l18.9-15.5c3.2-2.6,3.5-7.2,0.7-10.2C776.9,142.3,771.4,142.3,768.4,145.7z"/>
<path class="st10" d="M789.1,181.7l1.7-12.6l6.1-0.6l-3.1,12L789.1,181.7z"/>
<path class="st13" d="M789.6,180.2c-0.2-0.3-0.5-0.3-0.8-0.1c-0.5,0.3-1.1,1-1.6,2.3c-0.9,2.1-0.5,3.1-0.5,3.1l22.4,0.1
	c0-1.1-0.8-2.1-2-2.5l-10.8-2.6l-1.2-1.6c-0.2-0.2-0.5-0.2-0.5,0.1l-0.8,1.5C793.6,180.4,791,182.1,789.6,180.2L789.6,180.2z"/>
<path class="st11" d="M808.9,185.6l-22.4-0.1l0,1.4l22.4,0.1L808.9,185.6z"/>
<path class="st12" d="M762.2,122.9l27.2-4.8l-8.4-15.6l-19.8,1.8L762.2,122.9z M789.4,141.6l-1.6,29.3l11,1.7l4.6-23.2
	c0.8-3.9-2-7.7-6.2-8.4C792.7,140.1,789.6,137.2,789.4,141.6L789.4,141.6z"/>
<path class="st12" d="M789.4,118.1l13.2,25.7c1.6,3.5-0.5,7.4-4.3,8.4c-2.7,0.6-5.6-0.5-7.1-2.7l-21-31.3
	C770.2,118.1,789.4,118.1,789.4,118.1z"/>
<g>
	<path class="st14" d="M810.5,123.6l8.4,0.9c0.5,0.1,0.7,0.3,0.8,0.8c0.1,0.4-0.3,0.9-0.7,0.9l-2.4,0.3l3.5,3.7
		c0.5,0.5,0.3,1.2-0.4,1.5l-3.6,1.4c-0.3,0.1-0.6,0.1-0.9-0.1c-1.8-1.1-6.8-4.5-8.9-7.4L810.5,123.6z"/>
	<path class="st15" d="M786.8,82.4l1.2,24.8c0.2,3.1,3.6,5,6.5,3.7c1.6-0.7,3.4-3.2,3.4-4.8L797,82.2c0-2.6-2.3-4.8-5.1-4.8
		C789,77.3,786.7,79.6,786.8,82.4L786.8,82.4z"/>
	<path class="st15" d="M796.4,103.8l17,19.6l-5.5,4.5l-18.6-17.8c-2.3-2.1-1.2-5.8,1.9-6.6C792.8,103.1,795.3,102.7,796.4,103.8z"/>
	<g>
		<path class="st15" d="M788.9,74.6c0,0-10.5-2.8-15.8,0.9c-5.3,3.7-16.7,33.2-16.7,33.2s7.5,10.1,29,3.4c0.1-0.4,1.3-15.3,1.3-15.3
			c3.7-3.8,15.6-14.9,7.8-20L788.9,74.6L788.9,74.6z"/>
		<path class="st16" d="M787.5,96.1c0,0,2.9-3.4,6.3-8.1"/>
	</g>
	<g>
		<path class="st16" d="M0,0"/>
		<path class="st15" d="M775.2,74.5l-24.3,9.4c-3,1.2-3.8,4.9-1.4,7c1.3,1.2,3.9,2.5,5.6,1.9l21.2-8.2c2.6-0.9,4-3.6,3.1-6.1
			C778.3,75.8,777.9,73.4,775.2,74.5L775.2,74.5z"/>
		<path class="st15" d="M758.1,89.9l-9.9,23.8l-7.2-2.4l7.2-24.8c0.8-2.9,4.7-3.8,7-1.7C756.4,85.9,758.6,88.5,758.1,89.9z"/>
		<path class="st16" d="M764.8,89l10.1-3.9"/>
	</g>
</g>
<g>
	<path class="st17" d="M783.1,73.7l-2.4-0.2c0,0-1.5,5.3,4.7,6.8c0.8,0.2,1.6,0.3,2.4,0.2c1.5-0.2,4-1,4.7-4.4l-1.3-0.5L783.1,73.7
		L783.1,73.7z"/>
	<path class="st17" d="M782.9,74.4l3.3-7.5l8.3,3.2l-3.3,7.5c-1,2.1-3.6,3.2-5.9,2.3C783,79.1,782,76.5,782.9,74.4L782.9,74.4z"/>
	<path class="st18" d="M786.8,64.8c0,0-3.3,9.7,4.7,12.2l2.1-4.7L786.8,64.8L786.8,64.8z M805.3,68.1c-0.4,1.5-1.9,2.4-3.4,2.1
		c-1.5-0.3-2.5-1.8-2.2-3.2c0.4-1.5,1.9-2.4,3.4-2.1C804.8,65.1,805.7,66.5,805.3,68.1z"/>
	<path class="st19" d="M805.9,59.4c0,0,2.5,5.3-3.9,6.5l-1.1-0.8c0,0-1.2-5.4,2.2-7.6L805.9,59.4L805.9,59.4z"/>
	<path class="st17" d="M792.9,75.1l-0.3-0.1c-4.6-1-7.4-5.3-6.3-9.7l2.2-8.8c0.3-1.1,1.4-1.8,2.6-1.5l11,2.4
		c2.1,0.4,3.4,2.5,2.9,4.4l-1.8,7.3C802.1,73.4,797.5,76.1,792.9,75.1L792.9,75.1z"/>
	<path class="st19" d="M796.1,66.1c-0.1,0.3-0.5,0.5-0.9,0.4c-0.4-0.1-0.5-0.5-0.5-0.9c0.1-0.3,0.5-0.5,0.9-0.4
		C796,65.4,796.2,65.8,796.1,66.1z M801.9,67.4c-0.1,0.3-0.5,0.5-0.9,0.4s-0.5-0.5-0.5-0.9c0.1-0.3,0.5-0.5,0.9-0.4
		C801.8,66.6,802,67,801.9,67.4z"/>
	<path class="st20" d="M799,67.5l-0.3,1.9c0,0-0.4,0.9-1.7,0.3"/>
	<path class="st19" d="M794,63.6L794,63.6l3.2,0.6c0.4,0.1,0.6-0.2,0.7-0.5c0.1-0.3-0.2-0.6-0.5-0.7l-2.9-0.5
		c-0.4-0.1-0.6,0.2-0.7,0.5C793.6,63.3,793.7,63.5,794,63.6z M801.1,65.1L801.1,65.1l2,0.3c0.4,0.1,0.7-0.2,0.7-0.5
		c0.1-0.3-0.2-0.7-0.5-0.7l-1.9-0.3c-0.4-0.1-0.7,0.2-0.7,0.5C800.6,64.6,800.8,64.9,801.1,65.1z"/>
	<path class="st20" d="M794.3,69.6c0,0-0.1,1.7,3.1,2.1"/>
	<path class="st19" d="M786.9,64.1c0,0,4.9,0.8,6.2-7.7l-4.5-3.4l-0.3,1.2L786.9,64.1z"/>
	<path class="st19" d="M0,0"/>
	<path class="st17" d="M788.8,64c-0.4,1.5-1.9,2.4-3.4,2.1c-1.5-0.3-2.5-1.8-2.2-3.2s1.9-2.4,3.4-2S789.2,62.6,788.8,64z"/>
	<path class="st19" d="M805.9,59.4c0,0-1.5-10.4-13.8-9.8l-4.2,5.2l1.8,0L805.9,59.4z"/>
</g>
<path class="st21" d="M572.2,102.7l1.8-2.7l1.8,2.7l3.2,0.8l-3.2,0.8L574,107l-1.8-2.7l-3.2-0.8L572.2,102.7z M588.9,80.7l1.6-2.7
	l1.6,2.7l2.9,0.8l-2.9,0.8l-1.6,2.7l-1.6-2.7l-2.9-0.8L588.9,80.7z M614.3,80.6L615,79l0.7,1.6L617,81l-1.3,0.4L615,83l-0.7-1.6
	L613,81L614.3,80.6z M634.3,71.2L635,70l0.7,1.2l1.3,0.3l-1.3,0.3L635,73l-0.7-1.2l-1.3-0.3L634.3,71.2z M667.6,88.2l0.9-1.2
	l0.9,1.2l1.6,0.3l-1.6,0.3l-0.9,1.2l-0.9-1.2l-1.6-0.3L667.6,88.2z M698.3,117.2l0.7-1.2l0.7,1.2l1.3,0.3l-1.3,0.3L699,119l-0.7-1.2
	l-1.3-0.3L698.3,117.2z M541,148.4l0.5-0.4l0.5,0.4l1,0.1l-1,0.1l-0.5,0.4l-0.5-0.4l-1-0.1L541,148.4z M538.6,113.2l0.9-1.2l0.9,1.2
	l1.6,0.3l-1.6,0.3l-0.9,1.2l-0.9-1.2l-1.6-0.3L538.6,113.2z M614.6,103.2l0.9-1.2l0.9,1.2l1.6,0.3l-1.6,0.3l-0.9,1.2l-0.9-1.2
	l-1.6-0.3L614.6,103.2z M591.6,128.2l0.9-1.2l0.9,1.2l1.6,0.3l-1.6,0.3l-0.9,1.2l-0.9-1.2l-1.6-0.3L591.6,128.2z M697.6,81.7L699,79
	l1.4,2.7l2.6,0.8l-2.6,0.8L699,86l-1.4-2.7l-2.6-0.8L697.6,81.7z M654.9,91.3l1.6-2.3l1.6,2.3L661,92l-2.9,0.7l-1.6,2.3l-1.6-2.3
	L652,92L654.9,91.3z M707.3,100.8l0.7-0.8l0.7,0.8l1.3,0.2l-1.3,0.2L708,102l-0.7-0.8L706,101L707.3,100.8z M0,0 M0,0"/>
<path class="st21" d="M729.6,189.3l0.6,4.3l3.1,0.3l-3.1,0.3l-0.6,4.3l-0.5-4.3L726,194l3.1-0.3L729.6,189.3z M758.3,172.8l-1,4.3
	l2.8,1.3l-3.1-0.7l-2.1,3.9l1-4.3l-2.8-1.3l3.1,0.7L758.3,172.8z"/>
<path class="st22" d="M660.6,129.8l0.7,3.6l2.6,0.1l-2.6,0.5l-0.2,3.7l-0.7-3.6l-2.6-0.1l2.6-0.5L660.6,129.8z"/>
<g>
	<defs>
		<rect id="SVGID_3_" x="690" y="130" width="85" height="78"/>
	</defs>
	<clipPath id="SVGID_4_">
		<use xlink:href="#SVGID_3_"  style="overflow:visible;"/>
	</clipPath>
	<g class="st23">
		<path class="st24" d="M732.7,203.4c19.2,0,34.7-14.6,34.7-32.5c0-18-15.5-32.5-34.7-32.5c-19.2,0-34.7,14.6-34.7,32.5
			C698,188.9,713.5,203.4,732.7,203.4z"/>
		<path class="st25" d="M756.7,158.4l-6.5,4c-1.6,1-3.8,0.6-4.8-0.9c-1.1-1.5-0.6-3.5,1-4.5l6.5-4c1.6-1,3.8-0.6,4.8,0.9
			C758.7,155.3,758.3,157.4,756.7,158.4z M746.3,185.3c1.4,13.4-7.6,16.6-15.8,16.8c-12.4,0.3-20-20.7-16.7-23.8
			c0.7-0.7,1.9-0.4,5-1.7c2.4-1,3.9-2.2,4.5-2.7c2.5-1.8,12.3-7.6,18.1-5C746.5,171.3,745.7,179.8,746.3,185.3L746.3,185.3z"/>
		<path class="st26" d="M741.8,183.9c-1.2,6.4-6.5,14.2-13.5,14.4c-10.6,0.3-17.1-17.8-14.3-20.3c0.6-0.6,1.6-0.3,4.2-1.5
			c2-0.9,3.3-1.9,3.8-2.3c2.1-1.5,10.5-6.5,15.4-4.3C741.9,171.8,742.6,179.2,741.8,183.9z"/>
		<path class="st25" d="M717,198.7c-2.3,0-6.3-1.3-6.3-5.5v-22c0-2.2,1.9-3.9,4.2-3.9s4.2,1.8,4.2,3.9v22
			C719.1,195.4,717,198.7,717,198.7L717,198.7z"/>
		<path class="st25" d="M719.1,201c3.3,0,6-3.2,6-7.2s-2.7-7.2-6-7.2c-3.3,0-6,3.2-6,7.2S715.8,201,719.1,201z"/>
		<path class="st27" d="M743.7,198.7h-29.2v8.8h29.2V198.7z"/>
		<path class="st28" d="M743.7,206.2h-29.2v0.5h29.2V206.2z"/>
		<path class="st28" d="M0,78"/>
		<path class="st28" d="M743.7,199.8h-29.2v0.5h29.2V199.8z"/>
		<path class="st29" d="M711.3,175.3h-0.6v-0.3h0.6c1.7,0,3.2-1.3,3.2-3v-2h-3.8v-0.3h4.1v2.3C714.8,173.9,713.2,175.3,711.3,175.3z
			"/>
		<path class="st30" d="M748.3,197l-28.3,0c-0.9,0-1.6-0.7-1.6-1.5l0-51.1c0-0.8,0.7-1.5,1.6-1.5l28.3,0c0.9,0,1.6,0.7,1.6,1.5
			l0,51.1C749.9,196.3,749.2,197,748.3,197L748.3,197z"/>
		<path class="st21" d="M747.6,190.2l-26.8,0c-0.1,0-0.2-0.1-0.2-0.2l0-43.2c0-0.1,0.1-0.2,0.2-0.2l26.8,0c0.1,0,0.2,0.1,0.2,0.2
			l0,43.2C747.8,190.1,747.7,190.2,747.6,190.2z"/>
		<path class="st31" d="M738.3,145.3h-9.1c-0.3,0-0.5-0.2-0.5-0.5c0-0.3,0.2-0.5,0.5-0.5h9.1c0.3,0,0.5,0.2,0.5,0.5
			C738.9,145.1,738.6,145.3,738.3,145.3z M739.8,145.3c-0.3,0-0.5-0.2-0.5-0.5s0.2-0.5,0.5-0.5c0.3,0,0.5,0.2,0.5,0.5
			C740.4,145.1,740.1,145.3,739.8,145.3z"/>
		<path class="st25" d="M752.4,177.6l-2,1.3c-1.6,1-3.8,0.6-4.8-0.9s-0.6-3.5,1-4.5l2-1.3c1.6-1,3.8-0.6,4.8,0.9
			C754.5,174.5,754,176.6,752.4,177.6z"/>
		<path class="st26" d="M753.4,173c0,0-0.1-0.1-0.1-0.1c0.8,1.2,0.4,2.9-0.9,3.7l-3,1.9c-1.3,0.8-3,0.5-3.9-0.7c0,0,0,0.1,0.1,0.1
			c1.1,1.5,3.2,1.9,4.8,0.9l2-1.3C754,176.6,754.5,174.5,753.4,173L753.4,173z"/>
		<path class="st26" d="M0,78"/>
		<path class="st25" d="M753.1,183.8l-2,0.9c-1.6,0.7-3.5,0.1-4.2-1.4c-0.8-1.5-0.1-3.2,1.4-4l2-0.9c1.6-0.7,3.5-0.1,4.2,1.4
			C755.4,181.3,754.7,183.1,753.1,183.8z"/>
		<path class="st26" d="M754.6,179.8c0,0,0-0.1-0.1-0.1c0.5,1.2,0,2.6-1.3,3.2l-2.9,1.3c-1.3,0.6-2.8,0.1-3.4-1c0,0,0,0.1,0,0.1
			c0.8,1.5,2.7,2.1,4.2,1.4l2-0.9C754.7,183.1,755.4,181.3,754.6,179.8z"/>
		<path class="st26" d="M0,78"/>
		<path class="st27" d="M744.4,190.2h-20.8v-8.1c0-3.7,3.2-6.7,7.1-6.7h6.5c3.9,0,7.1,3,7.1,6.7V190.2z"/>
		<path class="st25" d="M751.6,170.8l-2.3,1.2c-1.8,1-4.3,0.6-5.4-0.9c-1.2-1.5-0.7-3.5,1.1-4.5l2.3-1.2c1.8-1,4.3-0.6,5.4,0.9
			C753.9,167.8,753.4,169.9,751.6,170.8L751.6,170.8z"/>
		<path class="st25" d="M0,78"/>
		<path class="st25" d="M0,78"/>
		<path class="st31" d="M734,196c1.4,0,2.6-1.1,2.6-2.5c0-1.4-1.2-2.4-2.6-2.4c-1.4,0-2.6,1.1-2.6,2.4
			C731.4,194.9,732.6,196,734,196z"/>
		<g>
			<path class="st32" d="M737.6,176.1l-0.3-7.3l-6.1-0.2l-0.4,8.6c0,0.9,0.8,0.8,1.8,0.7l3.4-0.2
				C736.9,177.7,737.6,176.9,737.6,176.1z"/>
			<path class="st33" d="M731.4,170.3l6.1,3.4l-0.2-4.9L731.4,170.3z"/>
			<path class="st32" d="M744.6,163.5c0,1.2-1,2.2-2.3,2.2s-2.3-1-2.3-2.2s1-2.2,2.3-2.2S744.6,162.3,744.6,163.5z M726.4,165.7
				c1.3,0,2.3-1,2.3-2.2c0-1.2-1-2.2-2.3-2.2c-1.3,0-2.3,1-2.3,2.2S725.2,165.7,726.4,165.7z M0,78"/>
			<path class="st34" d="M727.6,162.5c0,0,1.6-4.9,0.4-8.1C728.1,154.4,723.5,155.6,727.6,162.5z M741.2,162.5c0,0-2.1-4.9-0.9-8.1
				C740.3,154.4,744.6,155.4,741.2,162.5z"/>
			<path class="st34" d="M728.4,156.6c0,0,1.3-2.2,3.6-1c2.3,1.2,4.7,2.4,8.8,1.4l-0.6-2.7c0,0-5.8-5.8-12.3,0L728.4,156.6
				L728.4,156.6z"/>
			<path class="st34" d="M728,154.4c0,0,0.4-4,6.4-4.4c6.1-0.3,7.8,2.7,7.8,2.7l-1.1,0.2c0,0,2.1,0.9,2.7,1.7l-1.2,0.4l1.6,1.3
				c0,0-4.9,1.8-7.7,0.8l-2.3-3.2L728,154.4L728,154.4z"/>
			<path class="st32" d="M731.8,175.3l-2.6,0c0,0-0.3,3,4.7,3.2s5.1-3,5.1-3l-2.7-0.2H731.8L731.8,175.3z"/>
		</g>
		<g>
			<path class="st30" d="M743.1,171.6h-18.4v-17.3h18.4V171.6L743.1,171.6z M724.9,171.4h18v-16.9h-18V171.4z"/>
		</g>
		<defs>
			<filter id="Adobe_OpacityMaskFilter_1_" filterUnits="userSpaceOnUse" x="724.7" y="159.8" width="18.3" height="7.4">
				<feColorMatrix  type="matrix" values="1 0 0 0 0  0 1 0 0 0  0 0 1 0 0  0 0 0 1 0"/>
			</filter>
		</defs>
		<mask maskUnits="userSpaceOnUse" x="724.7" y="159.8" width="18.3" height="7.4" id="b_1_">
			
				<linearGradient id="SVGID_5_" gradientUnits="userSpaceOnUse" x1="733.8705" y1="144.6528" x2="733.8705" y2="136.9838" gradientTransform="matrix(1 0 0 -1 0 303.8898)">
				<stop  offset="0" style="stop-color:#FFFFFF"/>
				<stop  offset="1" style="stop-color:#000000"/>
			</linearGradient>
			<path class="st35" d="M743,159.8h-18.3v7.4H743V159.8z"/>
		</mask>
		<g class="st36">
			<path class="st30" d="M743,159.8h-18.3v7.4H743V159.8z"/>
		</g>
	</g>
</g>
<g>
	<path class="st37" d="M575.6,235.2c0.1,0.4,0.1,1-0.2,1.5c-0.4,0.6-1,0.7-2.6,1.3c-2.4,0.7-3,0.9-4,0.9c-0.6,0-1.6,0-1.8-0.5
		c-0.1-0.4,0.3-0.9,1.1-1.4c1.3-0.6,3-1.2,4.3-1.8"/>
	<path class="st38" d="M575.5,235.2h-2.9l-1.6-35.1h6.1c0.1,4.6,0.1,9.4-0.1,14.6C576.7,220.7,576.1,230,575.5,235.2L575.5,235.2z
		 M583.8,235.2h-2.9l-1.6-35.1h6.1c0.1,4.6,0.1,9.4-0.1,14.6C585,220.7,584.5,230,583.8,235.2z"/>
	<path class="st37" d="M568.4,137.5c-0.2,0.2-2,2.2-1.9,4.9c0,2.3,1.3,5.4,1,7.1c-0.2,1.1-0.5,1.3-1.1,2.7c-0.7,1.6-2.4,5.9-1.5,9
		c1.1,3.9,6.3,6.4,10.5,6.9c6.7,0.8,14.2-3.1,14.7-7.2c0.4-3.5-4.7-4.6-5.2-10.4c-0.2-2.5,0.7-3.4,0.1-6.6c-0.2-1.3-0.6-3.8-2.4-5.8
		c-2.4-2.8-6.1-3.2-7.5-3.3c-0.1,0-0.2,0-0.4,0C572.3,134.7,569.9,135.8,568.4,137.5L568.4,137.5z"/>
	<path class="st38" d="M567,173.8l-12.3,10.2l1.1,1.4l13.1-9.2c0.5-0.3,0.4-1.1-0.1-1.8C568.3,173.6,567.5,173.4,567,173.8z
		 M573.2,150l0.5,5.1h5.7l0.5-11.1L573.2,150L573.2,150z"/>
	<path class="st38" d="M579.5,154.5c5.8,1.5,8.3,3.5,8.3,3.5c-10.2,5.3-20.3,0-20.3,0c1.4-1.2,6.2-3.5,6.2-3.5H579.5z"/>
	<path class="st38" d="M0,0"/>
	<path class="st37" d="M571.7,173.5c0,0-4.5,25.1-10.6,36c0,0,4.8,2.1,10.6,0c0,0,9.7,3.5,16.1-0.2c0,0,7.2,0.2,9.7-1.6
		c0,0-4.5-15.5-12.8-34.2H571.7z"/>
	<path class="st38" d="M554.8,183.9c0,0-2.1,0.4-2.9,2.2s1,1.3,1.8,0c0.7-1.3,2.2,0.2,2.6-1.1C556.3,185,556.4,184.1,554.8,183.9
		L554.8,183.9z"/>
	<path class="st27" d="M537.5,238.5c1.2,0,2.2-0.9,2.2-2s-1-2-2.2-2c-1.2,0-2.2,0.9-2.2,2S536.3,238.5,537.5,238.5z"/>
	<path class="st27" d="M537.5,238.5c1.2,0,2.2-0.9,2.2-2s-1-2-2.2-2c-1.2,0-2.2,0.9-2.2,2S536.3,238.5,537.5,238.5z"/>
	<path class="st39" d="M537.5,237.9c0.8,0,1.5-0.6,1.5-1.4s-0.7-1.4-1.5-1.4c-0.8,0-1.5,0.6-1.5,1.4S536.6,237.9,537.5,237.9z"/>
	<path class="st40" d="M537.5,238.5c1.2,0,2.2-0.9,2.2-2s-1-2-2.2-2c-1.2,0-2.2,0.9-2.2,2S536.3,238.5,537.5,238.5z"/>
	<path class="st27" d="M518.5,238.5c1.2,0,2.2-0.9,2.2-2s-1-2-2.2-2c-1.2,0-2.2,0.9-2.2,2S517.3,238.5,518.5,238.5z"/>
	<path class="st27" d="M518.5,238.5c1.2,0,2.2-0.9,2.2-2s-1-2-2.2-2c-1.2,0-2.2,0.9-2.2,2S517.3,238.5,518.5,238.5z"/>
	<path class="st39" d="M518.5,237.9c0.8,0,1.5-0.6,1.5-1.4s-0.7-1.4-1.5-1.4s-1.5,0.6-1.5,1.4S517.7,237.9,518.5,237.9z"/>
	<path class="st40" d="M518.5,238.5c1.2,0,2.2-0.9,2.2-2s-1-2-2.2-2c-1.2,0-2.2,0.9-2.2,2S517.3,238.5,518.5,238.5z"/>
	<path d="M0,0"/>
	<path class="st27" d="M556.9,234h-19.4l0.5,0.5v-15.1l-0.5,0.5h19.4l-0.5-0.5v15.1c0,0.6,1,0.6,1,0v-15.1c0-0.2-0.2-0.5-0.5-0.5
		h-19.4c-0.3,0-0.5,0.2-0.5,0.5v15.1c0,0.2,0.2,0.5,0.5,0.5h19.4C557.5,234.9,557.5,234,556.9,234L556.9,234z"/>
	<path class="st27" d="M556.9,234.2h-42.6c-0.6,0-0.6,0.9,0,0.9h42.6C557.5,235.1,557.5,234.2,556.9,234.2z M547.5,196.8h-43
		c-0.4,0-0.6,0.4-0.4,0.7l11,19.2l1.6,2.7c0.1,0.1,0.3,0.2,0.4,0.2h39.6c0.2,0,0.4-0.1,0.5-0.3l8-19.2l1.1-2.7
		c0.1-0.3-0.2-0.6-0.5-0.6L547.5,196.8c-0.6,0-0.6,0.9,0,0.9h18.3l-0.5-0.6l-8,19.2l-1.1,2.7l0.5-0.3H517l0.4,0.2l-11-19.2l-1.6-2.7
		l-0.4,0.7h43C548.1,197.7,548.1,196.8,547.5,196.8L547.5,196.8z M0,0"/>
	<path class="st27" d="M538.4,197.1l-11,19.2l-1.6,2.7c-0.2,0.4,0.4,0.7,0.6,0.4l11-19.2l1.6-2.7C539.3,197,538.6,196.7,538.4,197.1
		L538.4,197.1z M540.2,197.2v21.9c0,0.4,0.7,0.4,0.7,0v-19.2v-2.7C540.9,196.8,540.2,196.8,540.2,197.2z"/>
	<path class="st27" d="M511.9,210.2h20.9c2.6,0,5.3-0.1,7.9,0c2.8,0.1,5.6,0.3,8.3,0.4l11,0.6c0.3,0,0.3-0.4,0-0.5
		c-6.4-0.3-12.9-0.8-19.3-1c-6.7-0.2-13.4,0-20,0h-8.8C511.6,209.8,511.6,210.2,511.9,210.2L511.9,210.2z M508.9,205.1h23
		c2.9,0,5.9-0.1,8.8,0c3.1,0.1,6.1,0.3,9.2,0.5l12.1,0.6c0.3,0,0.3-0.4,0-0.5c-7.1-0.4-14.2-0.9-21.2-1.1c-2.4-0.1-4.9,0-7.3,0
		h-24.6C508.6,204.7,508.6,205.1,508.9,205.1L508.9,205.1z M555.7,238.5c1.2,0,2.2-0.9,2.2-2s-1-2-2.2-2c-1.2,0-2.2,0.9-2.2,2
		S554.5,238.5,555.7,238.5z"/>
	<path class="st39" d="M555.7,237.9c0.8,0,1.5-0.6,1.5-1.4s-0.7-1.4-1.5-1.4c-0.8,0-1.5,0.6-1.5,1.4S554.9,237.9,555.7,237.9z"/>
	<path class="st27" d="M526.7,238.5c1.2,0,2.2-0.9,2.2-2s-1-2-2.2-2c-1.2,0-2.2,0.9-2.2,2S525.5,238.5,526.7,238.5z"/>
	<path class="st27" d="M526.7,238.5c1.2,0,2.2-0.9,2.2-2s-1-2-2.2-2c-1.2,0-2.2,0.9-2.2,2S525.5,238.5,526.7,238.5z"/>
	<path class="st39" d="M526.7,237.9c0.8,0,1.5-0.6,1.5-1.4s-0.7-1.4-1.5-1.4c-0.8,0-1.5,0.6-1.5,1.4S525.9,237.9,526.7,237.9z"/>
	<path d="M0,0"/>
	<path class="st37" d="M584.1,235.2c0.1,0.4,0.1,1-0.2,1.5c-0.4,0.6-1,0.7-2.6,1.3c-2.4,0.7-3,0.9-4,0.9c-0.6,0-1.6,0-1.8-0.5
		c-0.1-0.4,0.3-0.9,1.1-1.4c1.3-0.6,3-1.2,4.3-1.8"/>
	<path class="st37" d="M0,0"/>
	<path class="st38" d="M583.2,174.8L570,185.6l1.2,1.5l14-9.8c0.5-0.3,0.5-1.2-0.1-1.9C584.5,174.7,583.6,174.4,583.2,174.8
		L583.2,174.8z"/>
	<path class="st38" d="M570.1,185.3c0,0-2.4-0.1-4,1.6c-1.5,1.8,0.8,1.7,2,0.5c1.2-1.2,2.4,0.8,3.3-0.5
		C571.4,187,571.8,186,570.1,185.3z"/>
	<path class="st38" d="M0,0"/>
	<path class="st38" d="M0,0"/>
	<path class="st38" d="M580.7,142.7c0.6-0.2,1.6,0.4,1.8,1.3c0.2,1.3-1.4,2.5-2,2.2C579.8,145.9,579.8,143.1,580.7,142.7z"/>
	<path class="st37" d="M572,140.4c0,0,2.6,3.5,8.2,4c0,0-0.3-1.5,1.1-1.8c0,0,1.2-6.8-6.5-7c0,0-7.7-0.4-6.8,7
		C568,142.7,569.7,142.4,572,140.4z"/>
	<path class="st37" d="M579,144.3c0,0,2.5,3.8,1.1,7.4c0,0,1.4-4.1,0.4-7.2C579.5,141.5,579,144.3,579,144.3z"/>
</g>
<polygon class="st41" points="643.6,297.1 629.6,291.3 619.1,295.1 639.4,302 "/>
<polygon class="st27" points="704.2,204.7 655.5,204.7 649.8,160.3 685.6,151.2 "/>
<g>
	<path class="st41" d="M655.7,120.9c3.2,0,5.9-2.5,5.9-5.5s-2.6-5.5-5.9-5.5c-3.2,0-5.9,2.5-5.9,5.5S652.5,120.9,655.7,120.9z"/>
	<path class="st41" d="M661.6,119c3.2,0,5.9-2.5,5.9-5.5c0-3.1-2.6-5.5-5.9-5.5c-3.2,0-5.9,2.5-5.9,5.5
		C655.7,116.5,658.3,119,661.6,119z"/>
	<path class="st41" d="M667.5,122.2c3.2,0,5.9-2.5,5.9-5.5c0-3.1-2.6-5.5-5.9-5.5c-3.2,0-5.9,2.5-5.9,5.5
		C661.6,119.7,664.2,122.2,667.5,122.2z"/>
	<path class="st41" d="M673.3,126.4c3.2,0,5.9-2.5,5.9-5.5s-2.6-5.5-5.9-5.5c-3.2,0-5.9,2.5-5.9,5.5S670.1,126.4,673.3,126.4z"/>
	<path class="st41" d="M677.6,133.2c3.2,0,5.9-2.5,5.9-5.5c0-3.1-2.6-5.5-5.9-5.5c-3.2,0-5.9,2.5-5.9,5.5
		C671.7,130.8,674.4,133.2,677.6,133.2z"/>
	<path class="st41" d="M676,137.5c3.2,0,5.9-2.5,5.9-5.5c0-3.1-2.6-5.5-5.9-5.5c-3.2,0-5.9,2.5-5.9,5.5
		C670.2,135,672.8,137.5,676,137.5z"/>
	<path class="st41" d="M673.3,143c3.2,0,5.9-2.5,5.9-5.5s-2.6-5.5-5.9-5.5c-3.2,0-5.9,2.5-5.9,5.5S670.1,143,673.3,143z"/>
	<path class="st41" d="M667.5,147.1c3.2,0,5.9-2.5,5.9-5.5s-2.6-5.5-5.9-5.5c-3.2,0-5.9,2.5-5.9,5.5S664.2,147.1,667.5,147.1z"/>
	<path class="st41" d="M663.2,148.6c3.2,0,5.9-2.5,5.9-5.5c0-3.1-2.6-5.5-5.9-5.5c-3.2,0-5.9,2.5-5.9,5.5
		C657.3,146.1,659.9,148.6,663.2,148.6z"/>
	<path class="st41" d="M660.2,148.6c3.2,0,5.9-2.5,5.9-5.5c0-3.1-2.6-5.5-5.9-5.5c-3.2,0-5.9,2.5-5.9,5.5
		C654.4,146.1,657,148.6,660.2,148.6z"/>
	<path class="st41" d="M662.3,143c7.6,0,13.8-5.8,13.8-13c0-7.2-6.2-13-13.8-13c-7.6,0-13.8,5.8-13.8,13
		C648.5,137.2,654.7,143,662.3,143z"/>
	<path class="st41" d="M649.8,126.4c3.2,0,5.9-2.5,5.9-5.5s-2.6-5.5-5.9-5.5c-3.2,0-5.9,2.5-5.9,5.5S646.6,126.4,649.8,126.4z"/>
	<path class="st41" d="M647.1,132c3.2,0,5.9-2.5,5.9-5.5c0-3.1-2.6-5.5-5.9-5.5c-3.2,0-5.9,2.5-5.9,5.5
		C641.3,129.5,643.9,132,647.1,132z"/>
	<path class="st41" d="M646.2,137.5c3.2,0,5.9-2.5,5.9-5.5c0-3.1-2.6-5.5-5.9-5.5c-3.2,0-5.9,2.5-5.9,5.5
		C640.4,135,643,137.5,646.2,137.5z"/>
	<path class="st41" d="M647.1,144.7c3.2,0,5.9-2.5,5.9-5.5s-2.6-5.5-5.9-5.5c-3.2,0-5.9,2.5-5.9,5.5S643.9,144.7,647.1,144.7z"/>
	<path class="st41" d="M652.1,148.6c3.2,0,5.9-2.5,5.9-5.5c0-3.1-2.6-5.5-5.9-5.5c-3.2,0-5.9,2.5-5.9,5.5
		C646.2,146.1,648.9,148.6,652.1,148.6z"/>
	<path class="st42" d="M657.5,140.6c3.3,6.3,12.9,4.9,12.9,4.9L657.5,140.6z M659.5,151.1c0,0-10.9,5.9-13,7.8c0,0,19.2,13,39.1-7.7
		c-2.1-0.7-2.4-0.7-5.1-1.3c-3.5-0.8-8.5-1.7-11.2-1.8L659.5,151.1z"/>
	<path class="st42" d="M669.8,145.6l0.2,4.7l-10.2,1.5l-4-11.6l2.4-0.4L669.8,145.6L669.8,145.6z"/>
	<path class="st42" d="M652.6,137.9c0.6,1.1,1.8,1.9,3.1,2.3c3.9,1,3.8-3.4,1.9-5C655.3,133.2,650.9,134.9,652.6,137.9L652.6,137.9z
		"/>
	<path class="st42" d="M0,0"/>
	<path class="st42" d="M0,0"/>
	<path class="st27" d="M701.6,294.9l4.7-16l-6.7-1.9l-4.7,15.9L701.6,294.9z"/>
	<path class="st41" d="M694,293.2l-1.2,5.1h21.6v-0.1c0-1.2-0.7-2.3-1.9-2.8l-10-3.8c-0.4-0.2-0.8-0.2-1.1,0.1
		c-1.3,1.3-2.7,3.4-6.7,1.1C694.5,292.7,694.1,292.9,694,293.2L694,293.2z"/>
	<path class="st27" d="M714.4,298.3h-21.6v1.3h21.6V298.3z"/>
	<path class="st27" d="M0,0"/>
	<path class="st41" d="M688,298.3l18.3-5.3l8.3-58.3c-0.5-4-4.4-6.8-8.6-6.3c-4.3,0.5-7.2,4.3-6.5,8.3L688,298.3z"/>
	<path class="st27" d="M630.7,293.4l8.6-14.4l6.2,3.1l-8.6,14.4L630.7,293.4z"/>
	<path class="st27" d="M0,0"/>
	<path class="st41" d="M646.2,302l-18.3-10.5l28.1-58.9c1.6-3.7,6-5.5,10-4c4,1.5,5.8,5.9,4.1,9.6L646.2,302L646.2,302z"/>
	<path class="st41" d="M0,0"/>
	<path class="st27" d="M618.6,296.4l20.4,6.9l0.5-1.3l-20.4-6.9L618.6,296.4z"/>
	<path class="st27" d="M0,0"/>
	<path class="st42" d="M652.8,125.3c2.9-5.1,11.2-7.4,16.1-4.7c2.2,1.2,3.2,3.2,4.5,6c0.4,0.9,3.4,7.4,1.1,14.4
		c-0.9,2.7-2,3.6-2.8,4c-1.6,0.9-3.3,0.6-4.9,0.4c-3.3-0.4-5.5-1.9-6.3-2.5C656.6,140.2,649,132,652.8,125.3L652.8,125.3z"/>
	<g>
		<path class="st41" d="M652.5,135.9c0.8,0,1.4-0.6,1.4-1.3c0-0.7-0.6-1.3-1.4-1.3s-1.4,0.6-1.4,1.3S651.8,135.9,652.5,135.9z"/>
		<path class="st41" d="M654,136.3c0.6,0,1.1-0.4,1.1-1s-0.5-1-1.1-1s-1.1,0.4-1.1,1S653.4,136.3,654,136.3z"/>
		<path class="st41" d="M655.1,137c0.4,0,0.7-0.3,0.7-0.7s-0.3-0.7-0.7-0.7s-0.7,0.3-0.7,0.7S654.7,137,655.1,137z M652.1,134
			c0.9,0,1.6-0.7,1.6-1.5s-0.7-1.5-1.6-1.5c-0.9,0-1.6,0.7-1.6,1.5S651.2,134,652.1,134z"/>
		<path class="st41" d="M651.8,131.5c0.9,0,1.6-0.7,1.6-1.5s-0.7-1.5-1.6-1.5c-0.9,0-1.6,0.7-1.6,1.5S650.9,131.5,651.8,131.5z"/>
		<path class="st41" d="M652.2,129.2c0.9,0,1.6-0.7,1.6-1.5c0-0.8-0.7-1.5-1.6-1.5c-0.9,0-1.6,0.7-1.6,1.5
			C650.6,128.5,651.3,129.2,652.2,129.2z"/>
		<path class="st41" d="M653,127.2c0.9,0,1.6-0.7,1.6-1.5s-0.7-1.5-1.6-1.5c-0.9,0-1.6,0.7-1.6,1.5S652.1,127.2,653,127.2z"/>
		<path class="st41" d="M654.4,125.2c0.9,0,1.6-0.7,1.6-1.5s-0.7-1.5-1.6-1.5c-0.9,0-1.6,0.7-1.6,1.5S653.5,125.2,654.4,125.2z"/>
		<path class="st41" d="M655.9,123.7c0.9,0,1.6-0.7,1.6-1.5s-0.7-1.5-1.6-1.5c-0.9,0-1.6,0.7-1.6,1.5S655.1,123.7,655.9,123.7z"/>
		<path class="st41" d="M657.7,122.4c0.9,0,1.6-0.7,1.6-1.5s-0.7-1.5-1.6-1.5c-0.9,0-1.6,0.7-1.6,1.5S656.9,122.4,657.7,122.4z"/>
		<path class="st41" d="M659.3,120.9c0.9,0,1.6-0.7,1.6-1.5s-0.7-1.5-1.6-1.5c-0.9,0-1.6,0.7-1.6,1.5S658.4,120.9,659.3,120.9z"/>
		<path class="st41" d="M662.3,120.5c0.9,0,1.6-0.7,1.6-1.5s-0.7-1.5-1.6-1.5c-0.9,0-1.6,0.7-1.6,1.5S661.4,120.5,662.3,120.5z"/>
		<path class="st41" d="M664.7,120.9c0.9,0,1.6-0.7,1.6-1.5s-0.7-1.5-1.6-1.5c-0.9,0-1.6,0.7-1.6,1.5S663.9,120.9,664.7,120.9z"/>
		<path class="st41" d="M667,121.4c0.9,0,1.6-0.7,1.6-1.5s-0.7-1.5-1.6-1.5c-0.9,0-1.6,0.7-1.6,1.5S666.1,121.4,667,121.4z"/>
		<path class="st41" d="M669.4,121.4c0.9,0,1.6-0.7,1.6-1.5s-0.7-1.5-1.6-1.5c-0.9,0-1.6,0.7-1.6,1.5S668.5,121.4,669.4,121.4z"/>
		<path class="st41" d="M671.5,122.9c0.9,0,1.6-0.7,1.6-1.5s-0.7-1.5-1.6-1.5c-0.9,0-1.6,0.7-1.6,1.5S670.7,122.9,671.5,122.9z"/>
	</g>
	<path class="st27" d="M674.9,127.2l-17.4,7h0l-0.7-0.6l18-7.2L674.9,127.2z"/>
	<path class="st43" d="M674.9,127.2l-17.4,7h0l-0.7-0.6l18-7.2L674.9,127.2z"/>
	<path class="st27" d="M675.5,132.3l-4.9,2.2l-1.9-0.9l-1.1,2.3l-5.4,1.7l-4.5-3.5l17.4-7L675.5,132.3z"/>
	<path class="st21" d="M662.1,132.4l0,5.3l4-1.2v-5.7L662.1,132.4z M670.5,129v5.6l3.6-1.6v-5.4L670.5,129L670.5,129z M0,0 M0,0
		 M0,0"/>
	<g>
		<path class="st44" d="M700,167.9l-23.4,12.5c-2,1.1-2.4,3.4-0.8,5c1.4,1.4,3.9,1.6,5.6,0.4l21-15.5L700,167.9L700,167.9z"/>
	</g>
	<path class="st44" d="M0,0"/>
	<path class="st27" d="M677.7,179.7c-4.7-3.5-8.1-6.7-10.3-9c-2.5-2.5-5-5.5-9.5-9.5c-4.9-4.3-7-5.3-8.6-4.8c-1.1,0.4-3,1.8-3.9,3.9
		c-0.1,0.2-0.1,0.3-0.2,0.4c-1.6,4.1,3.6,8.5,4.9,9.9c5.2,5.6,24.3,16,26.6,16.7c0,0,2.2,0.7,5.4-1.3c3.2-2,21.4-9.4,21.4-9.4
		s-0.9-6.5-4.4-8.3L677.7,179.7z M659.2,150.2l-4.2,3.3l11.1,4.7l0.9-2.8L659.2,150.2L659.2,150.2z M666.9,155.5l2.9-7.4l3.2,0.4
		l-2.3,8.4L666.9,155.5L666.9,155.5z"/>
	<path class="st45" d="M677.7,179.7c-4.7-3.5-8.1-6.7-10.3-9c-2.5-2.5-5-5.5-9.5-9.5c-4.9-4.3-7-5.3-8.6-4.8c-1.1,0.4-3,1.8-3.9,3.9
		c-0.1,0.2-0.1,0.3-0.2,0.4c-1.6,4.1,3.6,8.5,4.9,9.9c5.2,5.6,24.3,16,26.6,16.7c0,0,2.2,0.7,5.4-1.3c3.2-2,21.4-9.4,21.4-9.4
		s-0.9-6.5-4.4-8.3L677.7,179.7z"/>
	<path class="st46" d="M659.2,150.2l-4.2,3.3l11.1,4.7l0.9-2.8L659.2,150.2L659.2,150.2z M666.9,155.5l2.9-7.4l3.2,0.4l-2.3,8.4
		L666.9,155.5L666.9,155.5z"/>
	<path class="st47" d="M717.9,192.8c0,0,7.5,4.5,13.6-1.1c6.2-5.6,16-16.9,16-16.9l11-1c-6.1,3.6-10.5,7.2-13.4,9.9
		c-1,1-7.6,7-15,11.1c-1,0.5-2.8,1.5-5.2,1.4C721.3,196.1,718.9,193.9,717.9,192.8L717.9,192.8z"/>
</g>
<polygon class="st41" points="714.6,234.7 655.5,235.4 655.5,204.7 704.2,204.7 "/>
<polygon class="st41" points="584.7,173.5 571.7,173.5 567.9,157.6 587.7,157.6 "/>
<path class="st38" d="M569.7,157c-1.5-0.2-2.8,0.9-2.8,2.3l-0.4,15.7c0,0.6,0.6,1.1,1.4,1.2c0.8,0.1,1.6-0.3,1.7-0.9l2.5-15.6
	C572.1,158.4,571.1,157.1,569.7,157L569.7,157z"/>
<path class="st38" d="M585.6,157.6c-1.5-0.2-2.8,0.9-2.8,2.3l-0.4,15.7c0,0.6,0.6,1.1,1.4,1.2c0.8,0.1,1.6-0.3,1.7-0.9l2.5-15.6
	C588.1,159,587.1,157.8,585.6,157.6L585.6,157.6z"/>
<path class="st38" d="M575.3,151.7l-0.2,0c-3-0.1-5.2-2.5-5-5.3l0.4-5.7c0-0.7,0.7-1.3,1.5-1.2l7,0.3c1.3,0,2.4,1.2,2.3,2.4
	l-0.3,4.7C580.9,149.7,578.3,151.9,575.3,151.7L575.3,151.7z"/>
</svg>
