<svg width="1148" height="368" viewBox="0 0 1148 368" fill="none" xmlns="http://www.w3.org/2000/svg">
<path d="M198.098 368C170.069 368 143.941 364.204 119.714 356.611C95.9609 348.544 75.0586 336.681 57.0065 321.021C39.4295 305.362 25.4154 285.669 14.9642 261.942C4.98807 238.215 0 210.455 0 178.662C0 147.342 4.98807 120.531 14.9642 98.2282C25.4154 75.4507 38.9544 56.9439 55.5813 42.7079C72.2082 27.9974 91.2104 17.3205 112.588 10.677C133.965 3.559 155.818 0 178.145 0C203.323 0 226.126 3.79625 246.553 11.3888C267.456 18.9813 285.27 29.421 299.997 42.7079C315.198 55.9948 326.837 71.8917 334.913 90.3985C343.464 108.905 347.74 129.073 347.74 150.901C347.74 167.035 343.227 179.373 334.201 187.915C325.175 196.456 312.586 201.914 296.434 204.286L120.426 230.623C125.652 246.282 136.341 258.146 152.492 266.213C168.644 273.805 187.171 277.602 208.074 277.602C227.551 277.602 245.841 275.229 262.943 270.484C280.52 265.264 294.771 259.332 305.697 252.689C313.298 257.434 319.712 264.077 324.937 272.619C330.163 281.161 332.776 290.177 332.776 299.667C332.776 321.021 322.799 336.918 302.847 347.358C287.645 355.425 270.543 360.882 251.541 363.729C232.539 366.576 214.725 368 198.098 368ZM178.145 88.2631C166.744 88.2631 156.768 90.1612 148.217 93.9575C140.141 97.7537 133.49 102.736 128.265 108.905C123.039 114.6 119.001 121.243 116.151 128.836C113.775 135.954 112.35 143.309 111.875 150.901L233.727 130.971C232.301 121.48 227.076 111.99 218.05 102.499C209.024 93.0084 195.722 88.2631 178.145 88.2631Z" fill="#3D3D3D"/>
<path d="M635.596 347.358C628.946 352.578 619.207 356.848 606.381 360.17C593.554 363.492 579.065 365.153 562.913 365.153C544.386 365.153 528.234 362.78 514.458 358.035C501.156 353.289 491.893 345.697 486.667 335.257C482.392 327.19 477.166 316.039 470.99 301.803C465.29 287.092 459.114 270.958 452.463 253.4C445.812 235.368 438.924 216.15 431.798 195.745C424.673 175.34 417.784 155.172 411.133 135.242C404.958 115.311 399.257 96.0928 394.031 77.5861C388.806 59.0793 384.53 42.7079 381.205 28.472C387.856 21.8285 396.644 16.1341 407.571 11.3888C418.972 6.16892 431.323 3.559 444.625 3.559C461.252 3.559 474.791 7.11798 485.242 14.236C496.168 20.8794 504.244 33.6918 509.47 52.6731L537.26 161.578C542.486 182.932 547.474 202.388 552.225 219.946C556.975 237.029 560.538 250.316 562.913 259.807H566.476C575.502 224.691 585.003 185.779 594.979 143.072C604.956 100.364 613.982 58.3675 622.057 17.0832C630.133 12.8124 639.159 9.49066 649.136 7.118C659.587 4.74534 669.563 3.559 679.064 3.559C695.691 3.559 709.705 7.11798 721.106 14.236C732.508 21.354 738.208 33.6918 738.208 51.2495C738.208 58.8421 736.308 69.9936 732.508 84.7041C729.182 98.94 724.669 115.311 718.969 133.818C713.743 151.85 707.33 171.069 699.729 191.474C692.603 211.879 685.24 231.809 677.639 251.265C670.038 270.721 662.437 288.99 654.836 306.074C647.71 322.682 641.297 336.444 635.596 347.358Z" fill="#3D3D3D"/>
<path d="M1148 183.644C1148 213.065 1143.49 239.402 1134.46 262.654C1125.43 285.431 1112.61 304.65 1095.98 320.31C1079.83 335.969 1060.35 347.832 1037.55 355.899C1014.75 363.966 989.332 368 961.304 368C933.276 368 907.86 363.729 885.057 355.188C862.255 346.646 842.54 334.545 825.913 318.886C809.761 302.752 797.172 283.296 788.146 260.518C779.12 237.741 774.607 212.116 774.607 183.644C774.607 155.647 779.12 130.259 788.146 107.482C797.172 84.7041 809.761 65.4855 825.913 49.8259C842.54 33.6918 862.255 21.354 885.057 12.8124C907.86 4.27079 933.276 0 961.304 0C989.332 0 1014.75 4.50805 1037.55 13.5242C1060.35 22.0658 1079.83 34.4036 1095.98 50.5377C1112.61 66.1973 1125.43 85.4159 1134.46 108.193C1143.49 130.971 1148 156.121 1148 183.644ZM898.597 183.644C898.597 212.591 904.06 234.894 914.986 250.553C926.387 265.738 942.064 273.331 962.016 273.331C981.969 273.331 997.17 265.501 1007.62 249.841C1018.55 234.182 1024.01 212.116 1024.01 183.644C1024.01 155.172 1018.55 133.344 1007.62 118.159C996.695 102.499 981.256 94.6692 961.304 94.6692C941.351 94.6692 925.912 102.499 914.986 118.159C904.06 133.344 898.597 155.172 898.597 183.644Z" fill="#3D3D3D"/>
<ellipse cx="964.954" cy="182.893" rx="71.6676" ry="71.589" fill="#65A8EC"/>
<ellipse cx="964.954" cy="182.893" rx="98.9696" ry="98.8609" fill="white"/>
<ellipse cx="943.804" cy="161.766" rx="19.8029" ry="19.7812" fill="white"/>
<ellipse cx="964.954" cy="182.893" rx="84.1241" ry="84.0318" fill="#2F6EB8"/>
<ellipse cx="940.128" cy="158.095" rx="23.2448" ry="23.2193" fill="white"/>
</svg>
