<svg width="232" height="75" viewBox="0 0 232 75" fill="none" xmlns="http://www.w3.org/2000/svg">
<path d="M40.032 74.448C34.368 74.448 29.088 73.68 24.192 72.144C19.392 70.512 15.168 68.112 11.52 64.944C7.968 61.776 5.136 57.792 3.024 52.992C1.008 48.192 0 42.576 0 36.144C0 29.808 1.008 24.384 3.024 19.872C5.136 15.264 7.872 11.52 11.232 8.64C14.592 5.664 18.432 3.504 22.752 2.16C27.072 0.720002 31.488 0 36 0C41.088 0 45.696 0.767998 49.824 2.304C54.048 3.84 57.648 5.952 60.624 8.64C63.696 11.328 66.048 14.544 67.68 18.288C69.408 22.032 70.272 26.112 70.272 30.528C70.272 33.792 69.36 36.288 67.536 38.016C65.712 39.744 63.168 40.848 59.904 41.328L24.336 46.656C25.392 49.824 27.552 52.224 30.816 53.856C34.08 55.392 37.824 56.16 42.048 56.16C45.984 56.16 49.68 55.68 53.136 54.72C56.688 53.664 59.568 52.464 61.776 51.12C63.312 52.08 64.608 53.424 65.664 55.152C66.72 56.88 67.248 58.704 67.248 60.624C67.248 64.944 65.232 68.16 61.2 70.272C58.128 71.904 54.672 73.008 50.832 73.584C46.992 74.16 43.392 74.448 40.032 74.448ZM36 17.856C33.696 17.856 31.68 18.24 29.952 19.008C28.32 19.776 26.976 20.784 25.92 22.032C24.864 23.184 24.048 24.528 23.472 26.064C22.992 27.504 22.704 28.992 22.608 30.528L47.232 26.496C46.944 24.576 45.888 22.656 44.064 20.736C42.24 18.816 39.552 17.856 36 17.856Z" fill="#3D3D3D"/>
<path d="M128.443 70.272C127.099 71.328 125.131 72.192 122.539 72.864C119.947 73.536 117.019 73.872 113.755 73.872C110.011 73.872 106.747 73.392 103.963 72.432C101.275 71.472 99.4028 69.936 98.3468 67.824C97.4828 66.192 96.4268 63.936 95.1788 61.056C94.0268 58.08 92.7788 54.816 91.4348 51.264C90.0908 47.616 88.6988 43.728 87.2588 39.6C85.8188 35.472 84.4268 31.392 83.0828 27.36C81.8348 23.328 80.6828 19.44 79.6268 15.696C78.5708 11.952 77.7067 8.64 77.0348 5.76C78.3788 4.416 80.1548 3.264 82.3628 2.304C84.6668 1.248 87.1628 0.720001 89.8508 0.720001C93.2108 0.720001 95.9468 1.44 98.0588 2.88C100.267 4.224 101.899 6.81601 102.955 10.656L108.571 32.688C109.627 37.008 110.635 40.944 111.595 44.496C112.555 47.952 113.275 50.64 113.755 52.56H114.475C116.299 45.456 118.219 37.584 120.235 28.944C122.251 20.304 124.075 11.808 125.707 3.456C127.339 2.592 129.163 1.92 131.179 1.44C133.291 0.960003 135.307 0.720001 137.227 0.720001C140.587 0.720001 143.419 1.44 145.723 2.88C148.027 4.32 149.179 6.816 149.179 10.368C149.179 11.904 148.795 14.16 148.027 17.136C147.355 20.016 146.443 23.328 145.291 27.072C144.235 30.72 142.939 34.608 141.403 38.736C139.963 42.864 138.475 46.896 136.939 50.832C135.403 54.768 133.867 58.464 132.331 61.92C130.891 65.28 129.595 68.064 128.443 70.272Z" fill="#3D3D3D"/>
<path d="M231.99 37.152C231.99 43.104 231.078 48.432 229.254 53.136C227.43 57.744 224.838 61.632 221.478 64.8C218.214 67.968 214.278 70.368 209.67 72C205.062 73.632 199.926 74.448 194.262 74.448C188.598 74.448 183.462 73.584 178.854 71.856C174.246 70.128 170.262 67.68 166.902 64.512C163.638 61.248 161.094 57.312 159.27 52.704C157.446 48.096 156.534 42.912 156.534 37.152C156.534 31.488 157.446 26.352 159.27 21.744C161.094 17.136 163.638 13.248 166.902 10.08C170.262 6.816 174.246 4.32 178.854 2.592C183.462 0.863999 188.598 0 194.262 0C199.926 0 205.062 0.911998 209.67 2.736C214.278 4.464 218.214 6.96001 221.478 10.224C224.838 13.392 227.43 17.28 229.254 21.888C231.078 26.496 231.99 31.584 231.99 37.152ZM181.59 37.152C181.59 43.008 182.694 47.52 184.902 50.688C187.206 53.76 190.374 55.296 194.406 55.296C198.438 55.296 201.51 53.712 203.622 50.544C205.83 47.376 206.934 42.912 206.934 37.152C206.934 31.392 205.83 26.976 203.622 23.904C201.414 20.736 198.294 19.152 194.262 19.152C190.23 19.152 187.11 20.736 184.902 23.904C182.694 26.976 181.59 31.392 181.59 37.152Z" fill="#3D3D3D"/>
<circle cx="195" cy="37.0003" r="14.4828" fill="#65A8EC"/>
<circle cx="195" cy="37" r="20" fill="white"/>
<circle cx="190.726" cy="32.7254" r="4.00181" fill="white"/>
<circle cx="195" cy="37" r="17" fill="#2F6EB8"/>
<circle cx="189.983" cy="31.9835" r="4.69737" fill="white"/>
</svg>
