<svg width="347" height="241" viewBox="0 0 347 241" fill="none" xmlns="http://www.w3.org/2000/svg">
<g filter="url(#filter0_d)">
<rect x="4" y="10" width="339" height="223" rx="20" fill="#E5F3FC"/>
</g>
<path d="M27.524 129.18C26.252 129.18 25.1 128.904 24.068 128.352C23.048 127.788 22.244 127.014 21.656 126.03C21.08 125.046 20.792 123.936 20.792 122.7C20.792 121.464 21.086 120.354 21.674 119.37C22.262 118.386 23.066 117.618 24.086 117.066C25.118 116.502 26.27 116.22 27.542 116.22C28.574 116.22 29.516 116.4 30.368 116.76C31.22 117.12 31.94 117.642 32.528 118.326L31.016 119.748C30.104 118.764 28.982 118.272 27.65 118.272C26.786 118.272 26.012 118.464 25.328 118.848C24.644 119.22 24.11 119.742 23.726 120.414C23.342 121.086 23.15 121.848 23.15 122.7C23.15 123.552 23.342 124.314 23.726 124.986C24.11 125.658 24.644 126.186 25.328 126.57C26.012 126.942 26.786 127.128 27.65 127.128C28.982 127.128 30.104 126.63 31.016 125.634L32.528 127.074C31.94 127.758 31.214 128.28 30.35 128.64C29.498 129 28.556 129.18 27.524 129.18ZM34.5541 115.644H36.8041V129H34.5541V115.644ZM39.7573 119.388H42.0073V129H39.7573V119.388ZM40.8913 117.804C40.4833 117.804 40.1413 117.678 39.8653 117.426C39.5893 117.162 39.4513 116.838 39.4513 116.454C39.4513 116.07 39.5893 115.752 39.8653 115.5C40.1413 115.236 40.4833 115.104 40.8913 115.104C41.2993 115.104 41.6413 115.23 41.9173 115.482C42.1933 115.722 42.3313 116.028 42.3313 116.4C42.3313 116.796 42.1933 117.132 41.9173 117.408C41.6533 117.672 41.3113 117.804 40.8913 117.804ZM53.9964 124.248C53.9964 124.404 53.9844 124.626 53.9604 124.914H46.4184C46.5504 125.622 46.8924 126.186 47.4444 126.606C48.0084 127.014 48.7044 127.218 49.5324 127.218C50.5884 127.218 51.4584 126.87 52.1424 126.174L53.3484 127.56C52.9164 128.076 52.3704 128.466 51.7104 128.73C51.0504 128.994 50.3064 129.126 49.4784 129.126C48.4224 129.126 47.4924 128.916 46.6884 128.496C45.8844 128.076 45.2604 127.494 44.8164 126.75C44.3844 125.994 44.1684 125.142 44.1684 124.194C44.1684 123.258 44.3784 122.418 44.7984 121.674C45.2304 120.918 45.8244 120.33 46.5804 119.91C47.3364 119.49 48.1884 119.28 49.1364 119.28C50.0724 119.28 50.9064 119.49 51.6384 119.91C52.3824 120.318 52.9584 120.9 53.3664 121.656C53.7864 122.4 53.9964 123.264 53.9964 124.248ZM49.1364 121.08C48.4164 121.08 47.8044 121.296 47.3004 121.728C46.8084 122.148 46.5084 122.712 46.4004 123.42H51.8544C51.7584 122.724 51.4644 122.16 50.9724 121.728C50.4804 121.296 49.8684 121.08 49.1364 121.08ZM61.6116 119.28C62.8236 119.28 63.7956 119.634 64.5276 120.342C65.2596 121.05 65.6256 122.1 65.6256 123.492V129H63.3756V123.78C63.3756 122.94 63.1776 122.31 62.7816 121.89C62.3856 121.458 61.8216 121.242 61.0896 121.242C60.2616 121.242 59.6076 121.494 59.1276 121.998C58.6476 122.49 58.4076 123.204 58.4076 124.14V129H56.1576V119.388H58.2996V120.63C58.6716 120.186 59.1396 119.85 59.7036 119.622C60.2676 119.394 60.9036 119.28 61.6116 119.28ZM74.2579 128.478C73.9939 128.694 73.6699 128.856 73.2859 128.964C72.9139 129.072 72.5179 129.126 72.0979 129.126C71.0419 129.126 70.2259 128.85 69.6499 128.298C69.0739 127.746 68.7859 126.942 68.7859 125.886V121.26H67.2019V119.46H68.7859V117.264H71.0359V119.46H73.6099V121.26H71.0359V125.832C71.0359 126.3 71.1499 126.66 71.3779 126.912C71.6059 127.152 71.9359 127.272 72.3679 127.272C72.8719 127.272 73.2919 127.14 73.6279 126.876L74.2579 128.478ZM84.8284 124.248C84.8284 124.404 84.8164 124.626 84.7924 124.914H77.2504C77.3824 125.622 77.7244 126.186 78.2764 126.606C78.8404 127.014 79.5364 127.218 80.3644 127.218C81.4204 127.218 82.2904 126.87 82.9744 126.174L84.1804 127.56C83.7484 128.076 83.2024 128.466 82.5424 128.73C81.8824 128.994 81.1384 129.126 80.3104 129.126C79.2544 129.126 78.3244 128.916 77.5204 128.496C76.7164 128.076 76.0924 127.494 75.6484 126.75C75.2164 125.994 75.0004 125.142 75.0004 124.194C75.0004 123.258 75.2104 122.418 75.6304 121.674C76.0624 120.918 76.6564 120.33 77.4124 119.91C78.1684 119.49 79.0204 119.28 79.9684 119.28C80.9044 119.28 81.7384 119.49 82.4704 119.91C83.2144 120.318 83.7904 120.9 84.1984 121.656C84.6184 122.4 84.8284 123.264 84.8284 124.248ZM79.9684 121.08C79.2484 121.08 78.6364 121.296 78.1324 121.728C77.6404 122.148 77.3404 122.712 77.2324 123.42H82.6864C82.5904 122.724 82.2964 122.16 81.8044 121.728C81.3124 121.296 80.7004 121.08 79.9684 121.08ZM89.9597 129.126C89.1797 129.126 88.4177 129.024 87.6737 128.82C86.9297 128.616 86.3357 128.358 85.8917 128.046L86.7557 126.336C87.1877 126.624 87.7037 126.858 88.3037 127.038C88.9157 127.206 89.5157 127.29 90.1037 127.29C91.4477 127.29 92.1197 126.936 92.1197 126.228C92.1197 125.892 91.9457 125.658 91.5977 125.526C91.2617 125.394 90.7157 125.268 89.9597 125.148C89.1677 125.028 88.5197 124.89 88.0157 124.734C87.5237 124.578 87.0917 124.308 86.7197 123.924C86.3597 123.528 86.1797 122.982 86.1797 122.286C86.1797 121.374 86.5577 120.648 87.3137 120.108C88.0817 119.556 89.1137 119.28 90.4097 119.28C91.0697 119.28 91.7297 119.358 92.3897 119.514C93.0497 119.658 93.5897 119.856 94.0097 120.108L93.1457 121.818C92.3297 121.338 91.4117 121.098 90.3917 121.098C89.7317 121.098 89.2277 121.2 88.8797 121.404C88.5437 121.596 88.3757 121.854 88.3757 122.178C88.3757 122.538 88.5557 122.796 88.9157 122.952C89.2877 123.096 89.8577 123.234 90.6257 123.366C91.3937 123.486 92.0237 123.624 92.5157 123.78C93.0077 123.936 93.4277 124.2 93.7757 124.572C94.1357 124.944 94.3157 125.472 94.3157 126.156C94.3157 127.056 93.9257 127.776 93.1457 128.316C92.3657 128.856 91.3037 129.126 89.9597 129.126Z" fill="#3E3E3E"/>
<rect x="209.554" y="51.3487" width="84.837" height="84.837" rx="20" transform="rotate(-15 209.554 51.3487)" fill="#E1E4F4"/>
<path d="M24.368 151.6H25.256V160H24.368V151.6ZM33.5691 151.096V160H32.7531V158.752C32.4971 159.176 32.1571 159.5 31.7331 159.724C31.3171 159.948 30.8451 160.06 30.3171 160.06C29.7251 160.06 29.1891 159.924 28.7091 159.652C28.2291 159.38 27.8531 159 27.5811 158.512C27.3091 158.024 27.1731 157.468 27.1731 156.844C27.1731 156.22 27.3091 155.664 27.5811 155.176C27.8531 154.688 28.2291 154.312 28.7091 154.048C29.1891 153.776 29.7251 153.64 30.3171 153.64C30.8291 153.64 31.2891 153.748 31.6971 153.964C32.1131 154.172 32.4531 154.48 32.7171 154.888V151.096H33.5691ZM30.3891 159.304C30.8291 159.304 31.2251 159.204 31.5771 159.004C31.9371 158.796 32.2171 158.504 32.4171 158.128C32.6251 157.752 32.7291 157.324 32.7291 156.844C32.7291 156.364 32.6251 155.936 32.4171 155.56C32.2171 155.184 31.9371 154.896 31.5771 154.696C31.2251 154.488 30.8291 154.384 30.3891 154.384C29.9411 154.384 29.5371 154.488 29.1771 154.696C28.8251 154.896 28.5451 155.184 28.3371 155.56C28.1371 155.936 28.0371 156.364 28.0371 156.844C28.0371 157.324 28.1371 157.752 28.3371 158.128C28.5451 158.504 28.8251 158.796 29.1771 159.004C29.5371 159.204 29.9411 159.304 30.3891 159.304ZM41.4379 157.108H36.1579C36.2059 157.764 36.4579 158.296 36.9139 158.704C37.3699 159.104 37.9459 159.304 38.6419 159.304C39.0339 159.304 39.3939 159.236 39.7219 159.1C40.0499 158.956 40.3339 158.748 40.5739 158.476L41.0539 159.028C40.7739 159.364 40.4219 159.62 39.9979 159.796C39.5819 159.972 39.1219 160.06 38.6179 160.06C37.9699 160.06 37.3939 159.924 36.8899 159.652C36.3939 159.372 36.0059 158.988 35.7259 158.5C35.4459 158.012 35.3059 157.46 35.3059 156.844C35.3059 156.228 35.4379 155.676 35.7019 155.188C35.9739 154.7 36.3419 154.32 36.8059 154.048C37.2779 153.776 37.8059 153.64 38.3899 153.64C38.9739 153.64 39.4979 153.776 39.9619 154.048C40.4259 154.32 40.7899 154.7 41.0539 155.188C41.3179 155.668 41.4499 156.22 41.4499 156.844L41.4379 157.108ZM38.3899 154.372C37.7819 154.372 37.2699 154.568 36.8539 154.96C36.4459 155.344 36.2139 155.848 36.1579 156.472H40.6339C40.5779 155.848 40.3419 155.344 39.9259 154.96C39.5179 154.568 39.0059 154.372 38.3899 154.372ZM46.4001 153.64C47.1921 153.64 47.8201 153.872 48.2841 154.336C48.7561 154.792 48.9921 155.46 48.9921 156.34V160H48.1401V156.424C48.1401 155.768 47.9761 155.268 47.6481 154.924C47.3201 154.58 46.8521 154.408 46.2441 154.408C45.5641 154.408 45.0241 154.612 44.6241 155.02C44.2321 155.42 44.0361 155.976 44.0361 156.688V160H43.1841V153.688H44.0001V154.852C44.2321 154.468 44.5521 154.172 44.9601 153.964C45.3761 153.748 45.8561 153.64 46.4001 153.64ZM54.6292 159.616C54.4692 159.76 54.2692 159.872 54.0292 159.952C53.7972 160.024 53.5532 160.06 53.2972 160.06C52.7052 160.06 52.2492 159.9 51.9292 159.58C51.6092 159.26 51.4492 158.808 51.4492 158.224V154.408H50.3212V153.688H51.4492V152.308H52.3012V153.688H54.2212V154.408H52.3012V158.176C52.3012 158.552 52.3932 158.84 52.5772 159.04C52.7692 159.232 53.0412 159.328 53.3932 159.328C53.5692 159.328 53.7372 159.3 53.8972 159.244C54.0652 159.188 54.2092 159.108 54.3292 159.004L54.6292 159.616ZM56.1802 153.688H57.0322V160H56.1802V153.688ZM56.6122 152.308C56.4362 152.308 56.2882 152.248 56.1682 152.128C56.0482 152.008 55.9882 151.864 55.9882 151.696C55.9882 151.536 56.0482 151.396 56.1682 151.276C56.2882 151.156 56.4362 151.096 56.6122 151.096C56.7882 151.096 56.9362 151.156 57.0562 151.276C57.1762 151.388 57.2362 151.524 57.2362 151.684C57.2362 151.86 57.1762 152.008 57.0562 152.128C56.9362 152.248 56.7882 152.308 56.6122 152.308ZM61.4908 151.756C61.1228 151.756 60.8428 151.856 60.6508 152.056C60.4668 152.256 60.3748 152.552 60.3748 152.944V153.688H62.3188V154.408H60.3988V160H59.5468V154.408H58.4188V153.688H59.5468V152.908C59.5468 152.332 59.7108 151.876 60.0388 151.54C60.3748 151.204 60.8468 151.036 61.4548 151.036C61.6948 151.036 61.9268 151.072 62.1508 151.144C62.3748 151.208 62.5628 151.304 62.7148 151.432L62.4268 152.068C62.1788 151.86 61.8668 151.756 61.4908 151.756ZM64.4308 153.688H65.2828V160H64.4308V153.688ZM64.8628 152.308C64.6868 152.308 64.5388 152.248 64.4188 152.128C64.2988 152.008 64.2388 151.864 64.2388 151.696C64.2388 151.536 64.2988 151.396 64.4188 151.276C64.5388 151.156 64.6868 151.096 64.8628 151.096C65.0388 151.096 65.1868 151.156 65.3068 151.276C65.4268 151.388 65.4868 151.524 65.4868 151.684C65.4868 151.86 65.4268 152.008 65.3068 152.128C65.1868 152.248 65.0388 152.308 64.8628 152.308ZM70.2806 160.06C69.6566 160.06 69.0966 159.924 68.6006 159.652C68.1126 159.38 67.7286 159 67.4486 158.512C67.1686 158.016 67.0286 157.46 67.0286 156.844C67.0286 156.228 67.1686 155.676 67.4486 155.188C67.7286 154.7 68.1126 154.32 68.6006 154.048C69.0966 153.776 69.6566 153.64 70.2806 153.64C70.8246 153.64 71.3086 153.748 71.7326 153.964C72.1646 154.172 72.5046 154.48 72.7526 154.888L72.1166 155.32C71.9086 155.008 71.6446 154.776 71.3246 154.624C71.0046 154.464 70.6566 154.384 70.2806 154.384C69.8246 154.384 69.4126 154.488 69.0446 154.696C68.6846 154.896 68.4006 155.184 68.1926 155.56C67.9926 155.936 67.8926 156.364 67.8926 156.844C67.8926 157.332 67.9926 157.764 68.1926 158.14C68.4006 158.508 68.6846 158.796 69.0446 159.004C69.4126 159.204 69.8246 159.304 70.2806 159.304C70.6566 159.304 71.0046 159.228 71.3246 159.076C71.6446 158.924 71.9086 158.692 72.1166 158.38L72.7526 158.812C72.5046 159.22 72.1646 159.532 71.7326 159.748C71.3006 159.956 70.8166 160.06 70.2806 160.06ZM76.6343 153.64C77.4583 153.64 78.0903 153.848 78.5303 154.264C78.9703 154.672 79.1903 155.28 79.1903 156.088V160H78.3743V159.016C78.1823 159.344 77.8983 159.6 77.5223 159.784C77.1543 159.968 76.7143 160.06 76.2023 160.06C75.4983 160.06 74.9383 159.892 74.5223 159.556C74.1063 159.22 73.8983 158.776 73.8983 158.224C73.8983 157.688 74.0903 157.256 74.4743 156.928C74.8663 156.6 75.4863 156.436 76.3343 156.436H78.3383V156.052C78.3383 155.508 78.1863 155.096 77.8823 154.816C77.5783 154.528 77.1343 154.384 76.5503 154.384C76.1503 154.384 75.7663 154.452 75.3983 154.588C75.0303 154.716 74.7143 154.896 74.4503 155.128L74.0663 154.492C74.3863 154.22 74.7703 154.012 75.2183 153.868C75.6663 153.716 76.1383 153.64 76.6343 153.64ZM76.3343 159.388C76.8143 159.388 77.2263 159.28 77.5703 159.064C77.9143 158.84 78.1703 158.52 78.3383 158.104V157.072H76.3583C75.2783 157.072 74.7383 157.448 74.7383 158.2C74.7383 158.568 74.8783 158.86 75.1583 159.076C75.4383 159.284 75.8303 159.388 76.3343 159.388ZM87.897 153.64C88.489 153.64 89.025 153.776 89.505 154.048C89.985 154.312 90.361 154.688 90.633 155.176C90.905 155.664 91.041 156.22 91.041 156.844C91.041 157.476 90.905 158.036 90.633 158.524C90.361 159.012 89.985 159.392 89.505 159.664C89.033 159.928 88.497 160.06 87.897 160.06C87.385 160.06 86.921 159.956 86.505 159.748C86.097 159.532 85.761 159.22 85.497 158.812V162.328H84.645V153.688H85.461V154.936C85.717 154.52 86.053 154.2 86.469 153.976C86.893 153.752 87.369 153.64 87.897 153.64ZM87.837 159.304C88.277 159.304 88.677 159.204 89.037 159.004C89.397 158.796 89.677 158.504 89.877 158.128C90.085 157.752 90.189 157.324 90.189 156.844C90.189 156.364 90.085 155.94 89.877 155.572C89.677 155.196 89.397 154.904 89.037 154.696C88.677 154.488 88.277 154.384 87.837 154.384C87.389 154.384 86.985 154.488 86.625 154.696C86.273 154.904 85.993 155.196 85.785 155.572C85.585 155.94 85.485 156.364 85.485 156.844C85.485 157.324 85.585 157.752 85.785 158.128C85.993 158.504 86.273 158.796 86.625 159.004C86.985 159.204 87.389 159.304 87.837 159.304ZM98.2738 157.108H92.9938C93.0418 157.764 93.2938 158.296 93.7498 158.704C94.2058 159.104 94.7818 159.304 95.4778 159.304C95.8698 159.304 96.2298 159.236 96.5578 159.1C96.8858 158.956 97.1698 158.748 97.4098 158.476L97.8898 159.028C97.6098 159.364 97.2578 159.62 96.8338 159.796C96.4178 159.972 95.9578 160.06 95.4538 160.06C94.8058 160.06 94.2298 159.924 93.7258 159.652C93.2298 159.372 92.8418 158.988 92.5618 158.5C92.2818 158.012 92.1418 157.46 92.1418 156.844C92.1418 156.228 92.2738 155.676 92.5378 155.188C92.8098 154.7 93.1778 154.32 93.6418 154.048C94.1138 153.776 94.6418 153.64 95.2258 153.64C95.8098 153.64 96.3338 153.776 96.7978 154.048C97.2618 154.32 97.6258 154.7 97.8898 155.188C98.1538 155.668 98.2858 156.22 98.2858 156.844L98.2738 157.108ZM95.2258 154.372C94.6178 154.372 94.1058 154.568 93.6898 154.96C93.2818 155.344 93.0498 155.848 92.9938 156.472H97.4698C97.4138 155.848 97.1778 155.344 96.7618 154.96C96.3538 154.568 95.8418 154.372 95.2258 154.372ZM100.836 154.924C101.036 154.5 101.332 154.18 101.724 153.964C102.124 153.748 102.616 153.64 103.2 153.64V154.468L102.996 154.456C102.332 154.456 101.812 154.66 101.436 155.068C101.06 155.476 100.872 156.048 100.872 156.784V160H100.02V153.688H100.836V154.924ZM106.482 160.06C105.97 160.06 105.478 159.988 105.006 159.844C104.542 159.692 104.178 159.504 103.914 159.28L104.298 158.608C104.562 158.816 104.894 158.988 105.294 159.124C105.694 159.252 106.11 159.316 106.542 159.316C107.118 159.316 107.542 159.228 107.814 159.052C108.094 158.868 108.234 158.612 108.234 158.284C108.234 158.052 108.158 157.872 108.006 157.744C107.854 157.608 107.662 157.508 107.43 157.444C107.198 157.372 106.89 157.304 106.506 157.24C105.994 157.144 105.582 157.048 105.27 156.952C104.958 156.848 104.69 156.676 104.466 156.436C104.25 156.196 104.142 155.864 104.142 155.44C104.142 154.912 104.362 154.48 104.802 154.144C105.242 153.808 105.854 153.64 106.638 153.64C107.046 153.64 107.454 153.696 107.862 153.808C108.27 153.912 108.606 154.052 108.87 154.228L108.498 154.912C107.978 154.552 107.358 154.372 106.638 154.372C106.094 154.372 105.682 154.468 105.402 154.66C105.13 154.852 104.994 155.104 104.994 155.416C104.994 155.656 105.07 155.848 105.222 155.992C105.382 156.136 105.578 156.244 105.81 156.316C106.042 156.38 106.362 156.448 106.77 156.52C107.274 156.616 107.678 156.712 107.982 156.808C108.286 156.904 108.546 157.068 108.762 157.3C108.978 157.532 109.086 157.852 109.086 158.26C109.086 158.812 108.854 159.252 108.39 159.58C107.934 159.9 107.298 160.06 106.482 160.06ZM113.241 160.06C112.633 160.06 112.085 159.924 111.597 159.652C111.109 159.372 110.725 158.988 110.445 158.5C110.165 158.012 110.025 157.46 110.025 156.844C110.025 156.228 110.165 155.676 110.445 155.188C110.725 154.7 111.109 154.32 111.597 154.048C112.085 153.776 112.633 153.64 113.241 153.64C113.849 153.64 114.397 153.776 114.885 154.048C115.373 154.32 115.753 154.7 116.025 155.188C116.305 155.676 116.445 156.228 116.445 156.844C116.445 157.46 116.305 158.012 116.025 158.5C115.753 158.988 115.373 159.372 114.885 159.652C114.397 159.924 113.849 160.06 113.241 160.06ZM113.241 159.304C113.689 159.304 114.089 159.204 114.441 159.004C114.801 158.796 115.081 158.504 115.281 158.128C115.481 157.752 115.581 157.324 115.581 156.844C115.581 156.364 115.481 155.936 115.281 155.56C115.081 155.184 114.801 154.896 114.441 154.696C114.089 154.488 113.689 154.384 113.241 154.384C112.793 154.384 112.389 154.488 112.029 154.696C111.677 154.896 111.397 155.184 111.189 155.56C110.989 155.936 110.889 156.364 110.889 156.844C110.889 157.324 110.989 157.752 111.189 158.128C111.397 158.504 111.677 158.796 112.029 159.004C112.389 159.204 112.793 159.304 113.241 159.304ZM121.4 153.64C122.192 153.64 122.82 153.872 123.284 154.336C123.756 154.792 123.992 155.46 123.992 156.34V160H123.14V156.424C123.14 155.768 122.976 155.268 122.648 154.924C122.32 154.58 121.852 154.408 121.244 154.408C120.564 154.408 120.024 154.612 119.624 155.02C119.232 155.42 119.036 155.976 119.036 156.688V160H118.184V153.688H119V154.852C119.232 154.468 119.552 154.172 119.96 153.964C120.376 153.748 120.856 153.64 121.4 153.64ZM128.513 153.64C129.337 153.64 129.969 153.848 130.409 154.264C130.849 154.672 131.069 155.28 131.069 156.088V160H130.253V159.016C130.061 159.344 129.777 159.6 129.401 159.784C129.033 159.968 128.593 160.06 128.081 160.06C127.377 160.06 126.817 159.892 126.401 159.556C125.985 159.22 125.777 158.776 125.777 158.224C125.777 157.688 125.969 157.256 126.353 156.928C126.745 156.6 127.365 156.436 128.213 156.436H130.217V156.052C130.217 155.508 130.065 155.096 129.761 154.816C129.457 154.528 129.013 154.384 128.429 154.384C128.029 154.384 127.645 154.452 127.277 154.588C126.909 154.716 126.593 154.896 126.329 155.128L125.945 154.492C126.265 154.22 126.649 154.012 127.097 153.868C127.545 153.716 128.017 153.64 128.513 153.64ZM128.213 159.388C128.693 159.388 129.105 159.28 129.449 159.064C129.793 158.84 130.049 158.52 130.217 158.104V157.072H128.237C127.157 157.072 126.617 157.448 126.617 158.2C126.617 158.568 126.757 158.86 127.037 159.076C127.317 159.284 127.709 159.388 128.213 159.388ZM135.075 160.06C134.563 160.06 134.071 159.988 133.599 159.844C133.135 159.692 132.771 159.504 132.507 159.28L132.891 158.608C133.155 158.816 133.487 158.988 133.887 159.124C134.287 159.252 134.703 159.316 135.135 159.316C135.711 159.316 136.135 159.228 136.407 159.052C136.687 158.868 136.827 158.612 136.827 158.284C136.827 158.052 136.751 157.872 136.599 157.744C136.447 157.608 136.255 157.508 136.023 157.444C135.791 157.372 135.483 157.304 135.099 157.24C134.587 157.144 134.175 157.048 133.863 156.952C133.551 156.848 133.283 156.676 133.059 156.436C132.843 156.196 132.735 155.864 132.735 155.44C132.735 154.912 132.955 154.48 133.395 154.144C133.835 153.808 134.447 153.64 135.231 153.64C135.639 153.64 136.047 153.696 136.455 153.808C136.863 153.912 137.199 154.052 137.463 154.228L137.091 154.912C136.571 154.552 135.951 154.372 135.231 154.372C134.687 154.372 134.275 154.468 133.995 154.66C133.723 154.852 133.587 155.104 133.587 155.416C133.587 155.656 133.663 155.848 133.815 155.992C133.975 156.136 134.171 156.244 134.403 156.316C134.635 156.38 134.955 156.448 135.363 156.52C135.867 156.616 136.271 156.712 136.575 156.808C136.879 156.904 137.139 157.068 137.355 157.3C137.571 157.532 137.679 157.852 137.679 158.26C137.679 158.812 137.447 159.252 136.983 159.58C136.527 159.9 135.891 160.06 135.075 160.06ZM147.699 153.688L144.543 160.756C144.287 161.348 143.991 161.768 143.655 162.016C143.319 162.264 142.915 162.388 142.443 162.388C142.139 162.388 141.855 162.34 141.591 162.244C141.327 162.148 141.099 162.004 140.907 161.812L141.303 161.176C141.623 161.496 142.007 161.656 142.455 161.656C142.743 161.656 142.987 161.576 143.187 161.416C143.395 161.256 143.587 160.984 143.763 160.6L144.039 159.988L141.219 153.688H142.107L144.483 159.052L146.859 153.688H147.699ZM153.732 160.06C153.22 160.06 152.728 159.988 152.256 159.844C151.792 159.692 151.428 159.504 151.164 159.28L151.548 158.608C151.812 158.816 152.144 158.988 152.544 159.124C152.944 159.252 153.36 159.316 153.792 159.316C154.368 159.316 154.792 159.228 155.064 159.052C155.344 158.868 155.484 158.612 155.484 158.284C155.484 158.052 155.408 157.872 155.256 157.744C155.104 157.608 154.912 157.508 154.68 157.444C154.448 157.372 154.14 157.304 153.756 157.24C153.244 157.144 152.832 157.048 152.52 156.952C152.208 156.848 151.94 156.676 151.716 156.436C151.5 156.196 151.392 155.864 151.392 155.44C151.392 154.912 151.612 154.48 152.052 154.144C152.492 153.808 153.104 153.64 153.888 153.64C154.296 153.64 154.704 153.696 155.112 153.808C155.52 153.912 155.856 154.052 156.12 154.228L155.748 154.912C155.228 154.552 154.608 154.372 153.888 154.372C153.344 154.372 152.932 154.468 152.652 154.66C152.38 154.852 152.244 155.104 152.244 155.416C152.244 155.656 152.32 155.848 152.472 155.992C152.632 156.136 152.828 156.244 153.06 156.316C153.292 156.38 153.612 156.448 154.02 156.52C154.524 156.616 154.928 156.712 155.232 156.808C155.536 156.904 155.796 157.068 156.012 157.3C156.228 157.532 156.336 157.852 156.336 158.26C156.336 158.812 156.104 159.252 155.64 159.58C155.184 159.9 154.548 160.06 153.732 160.06ZM163.599 153.688V160H162.783V158.848C162.559 159.232 162.251 159.532 161.859 159.748C161.467 159.956 161.019 160.06 160.515 160.06C159.691 160.06 159.039 159.832 158.559 159.376C158.087 158.912 157.851 158.236 157.851 157.348V153.688H158.703V157.264C158.703 157.928 158.867 158.432 159.195 158.776C159.523 159.12 159.991 159.292 160.599 159.292C161.263 159.292 161.787 159.092 162.171 158.692C162.555 158.284 162.747 157.72 162.747 157V153.688H163.599ZM167.677 160.06C167.165 160.06 166.673 159.988 166.201 159.844C165.737 159.692 165.373 159.504 165.109 159.28L165.493 158.608C165.757 158.816 166.089 158.988 166.489 159.124C166.889 159.252 167.305 159.316 167.737 159.316C168.313 159.316 168.737 159.228 169.009 159.052C169.289 158.868 169.429 158.612 169.429 158.284C169.429 158.052 169.353 157.872 169.201 157.744C169.049 157.608 168.857 157.508 168.625 157.444C168.393 157.372 168.085 157.304 167.701 157.24C167.189 157.144 166.777 157.048 166.465 156.952C166.153 156.848 165.885 156.676 165.661 156.436C165.445 156.196 165.337 155.864 165.337 155.44C165.337 154.912 165.557 154.48 165.997 154.144C166.437 153.808 167.049 153.64 167.833 153.64C168.241 153.64 168.649 153.696 169.057 153.808C169.465 153.912 169.801 154.052 170.065 154.228L169.693 154.912C169.173 154.552 168.553 154.372 167.833 154.372C167.289 154.372 166.877 154.468 166.597 154.66C166.325 154.852 166.189 155.104 166.189 155.416C166.189 155.656 166.265 155.848 166.417 155.992C166.577 156.136 166.773 156.244 167.005 156.316C167.237 156.38 167.557 156.448 167.965 156.52C168.469 156.616 168.873 156.712 169.177 156.808C169.481 156.904 169.741 157.068 169.957 157.3C170.173 157.532 170.281 157.852 170.281 158.26C170.281 158.812 170.049 159.252 169.585 159.58C169.129 159.9 168.493 160.06 167.677 160.06ZM180.301 153.688L177.493 160H176.617L173.821 153.688H174.709L177.073 159.064L179.461 153.688H180.301ZM181.501 153.688H182.353V160H181.501V153.688ZM181.933 152.308C181.757 152.308 181.609 152.248 181.489 152.128C181.369 152.008 181.309 151.864 181.309 151.696C181.309 151.536 181.369 151.396 181.489 151.276C181.609 151.156 181.757 151.096 181.933 151.096C182.109 151.096 182.257 151.156 182.377 151.276C182.497 151.388 182.557 151.524 182.557 151.684C182.557 151.86 182.497 152.008 182.377 152.128C182.257 152.248 182.109 152.308 181.933 152.308ZM186.415 160.06C185.903 160.06 185.411 159.988 184.939 159.844C184.475 159.692 184.111 159.504 183.847 159.28L184.231 158.608C184.495 158.816 184.827 158.988 185.227 159.124C185.627 159.252 186.043 159.316 186.475 159.316C187.051 159.316 187.475 159.228 187.747 159.052C188.027 158.868 188.167 158.612 188.167 158.284C188.167 158.052 188.091 157.872 187.939 157.744C187.787 157.608 187.595 157.508 187.363 157.444C187.131 157.372 186.823 157.304 186.439 157.24C185.927 157.144 185.515 157.048 185.203 156.952C184.891 156.848 184.623 156.676 184.399 156.436C184.183 156.196 184.075 155.864 184.075 155.44C184.075 154.912 184.295 154.48 184.735 154.144C185.175 153.808 185.787 153.64 186.571 153.64C186.979 153.64 187.387 153.696 187.795 153.808C188.203 153.912 188.539 154.052 188.803 154.228L188.431 154.912C187.911 154.552 187.291 154.372 186.571 154.372C186.027 154.372 185.615 154.468 185.335 154.66C185.063 154.852 184.927 155.104 184.927 155.416C184.927 155.656 185.003 155.848 185.155 155.992C185.315 156.136 185.511 156.244 185.743 156.316C185.975 156.38 186.295 156.448 186.703 156.52C187.207 156.616 187.611 156.712 187.915 156.808C188.219 156.904 188.479 157.068 188.695 157.3C188.911 157.532 189.019 157.852 189.019 158.26C189.019 158.812 188.787 159.252 188.323 159.58C187.867 159.9 187.231 160.06 186.415 160.06ZM190.594 153.688H191.446V160H190.594V153.688ZM191.026 152.308C190.85 152.308 190.702 152.248 190.582 152.128C190.462 152.008 190.402 151.864 190.402 151.696C190.402 151.536 190.462 151.396 190.582 151.276C190.702 151.156 190.85 151.096 191.026 151.096C191.202 151.096 191.35 151.156 191.47 151.276C191.59 151.388 191.65 151.524 191.65 151.684C191.65 151.86 191.59 152.008 191.47 152.128C191.35 152.248 191.202 152.308 191.026 152.308ZM197.141 159.616C196.981 159.76 196.781 159.872 196.541 159.952C196.309 160.024 196.065 160.06 195.809 160.06C195.217 160.06 194.761 159.9 194.441 159.58C194.121 159.26 193.961 158.808 193.961 158.224V154.408H192.833V153.688H193.961V152.308H194.813V153.688H196.733V154.408H194.813V158.176C194.813 158.552 194.905 158.84 195.089 159.04C195.281 159.232 195.553 159.328 195.905 159.328C196.081 159.328 196.249 159.3 196.409 159.244C196.577 159.188 196.721 159.108 196.841 159.004L197.141 159.616ZM200.9 153.64C201.724 153.64 202.356 153.848 202.796 154.264C203.236 154.672 203.456 155.28 203.456 156.088V160H202.64V159.016C202.448 159.344 202.164 159.6 201.788 159.784C201.42 159.968 200.98 160.06 200.468 160.06C199.764 160.06 199.204 159.892 198.788 159.556C198.372 159.22 198.164 158.776 198.164 158.224C198.164 157.688 198.356 157.256 198.74 156.928C199.132 156.6 199.752 156.436 200.6 156.436H202.604V156.052C202.604 155.508 202.452 155.096 202.148 154.816C201.844 154.528 201.4 154.384 200.816 154.384C200.416 154.384 200.032 154.452 199.664 154.588C199.296 154.716 198.98 154.896 198.716 155.128L198.332 154.492C198.652 154.22 199.036 154.012 199.484 153.868C199.932 153.716 200.404 153.64 200.9 153.64ZM200.6 159.388C201.08 159.388 201.492 159.28 201.836 159.064C202.18 158.84 202.436 158.52 202.604 158.104V157.072H200.624C199.544 157.072 199.004 157.448 199.004 158.2C199.004 158.568 199.144 158.86 199.424 159.076C199.704 159.284 200.096 159.388 200.6 159.388ZM207.462 160.06C206.95 160.06 206.458 159.988 205.986 159.844C205.522 159.692 205.158 159.504 204.894 159.28L205.278 158.608C205.542 158.816 205.874 158.988 206.274 159.124C206.674 159.252 207.09 159.316 207.522 159.316C208.098 159.316 208.522 159.228 208.794 159.052C209.074 158.868 209.214 158.612 209.214 158.284C209.214 158.052 209.138 157.872 208.986 157.744C208.834 157.608 208.642 157.508 208.41 157.444C208.178 157.372 207.87 157.304 207.486 157.24C206.974 157.144 206.562 157.048 206.25 156.952C205.938 156.848 205.67 156.676 205.446 156.436C205.23 156.196 205.122 155.864 205.122 155.44C205.122 154.912 205.342 154.48 205.782 154.144C206.222 153.808 206.834 153.64 207.618 153.64C208.026 153.64 208.434 153.696 208.842 153.808C209.25 153.912 209.586 154.052 209.85 154.228L209.478 154.912C208.958 154.552 208.338 154.372 207.618 154.372C207.074 154.372 206.662 154.468 206.382 154.66C206.11 154.852 205.974 155.104 205.974 155.416C205.974 155.656 206.05 155.848 206.202 155.992C206.362 156.136 206.558 156.244 206.79 156.316C207.022 156.38 207.342 156.448 207.75 156.52C208.254 156.616 208.658 156.712 208.962 156.808C209.266 156.904 209.526 157.068 209.742 157.3C209.958 157.532 210.066 157.852 210.066 158.26C210.066 158.812 209.834 159.252 209.37 159.58C208.914 159.9 208.278 160.06 207.462 160.06ZM220.542 151.096V160H219.726V158.752C219.47 159.176 219.13 159.5 218.706 159.724C218.29 159.948 217.818 160.06 217.29 160.06C216.698 160.06 216.162 159.924 215.682 159.652C215.202 159.38 214.826 159 214.554 158.512C214.282 158.024 214.146 157.468 214.146 156.844C214.146 156.22 214.282 155.664 214.554 155.176C214.826 154.688 215.202 154.312 215.682 154.048C216.162 153.776 216.698 153.64 217.29 153.64C217.802 153.64 218.262 153.748 218.67 153.964C219.086 154.172 219.426 154.48 219.69 154.888V151.096H220.542ZM217.362 159.304C217.802 159.304 218.198 159.204 218.55 159.004C218.91 158.796 219.19 158.504 219.39 158.128C219.598 157.752 219.702 157.324 219.702 156.844C219.702 156.364 219.598 155.936 219.39 155.56C219.19 155.184 218.91 154.896 218.55 154.696C218.198 154.488 217.802 154.384 217.362 154.384C216.914 154.384 216.51 154.488 216.15 154.696C215.798 154.896 215.518 155.184 215.31 155.56C215.11 155.936 215.01 156.364 215.01 156.844C215.01 157.324 215.11 157.752 215.31 158.128C215.518 158.504 215.798 158.796 216.15 159.004C216.51 159.204 216.914 159.304 217.362 159.304ZM228.411 157.108H223.131C223.179 157.764 223.431 158.296 223.887 158.704C224.343 159.104 224.919 159.304 225.615 159.304C226.007 159.304 226.367 159.236 226.695 159.1C227.023 158.956 227.307 158.748 227.547 158.476L228.027 159.028C227.747 159.364 227.395 159.62 226.971 159.796C226.555 159.972 226.095 160.06 225.591 160.06C224.943 160.06 224.367 159.924 223.863 159.652C223.367 159.372 222.979 158.988 222.699 158.5C222.419 158.012 222.279 157.46 222.279 156.844C222.279 156.228 222.411 155.676 222.675 155.188C222.947 154.7 223.315 154.32 223.779 154.048C224.251 153.776 224.779 153.64 225.363 153.64C225.947 153.64 226.471 153.776 226.935 154.048C227.399 154.32 227.763 154.7 228.027 155.188C228.291 155.668 228.423 156.22 228.423 156.844L228.411 157.108ZM225.363 154.372C224.755 154.372 224.243 154.568 223.827 154.96C223.419 155.344 223.187 155.848 223.131 156.472H227.607C227.551 155.848 227.315 155.344 226.899 154.96C226.491 154.568 225.979 154.372 225.363 154.372ZM233.373 153.64C234.165 153.64 234.793 153.872 235.257 154.336C235.729 154.792 235.965 155.46 235.965 156.34V160H235.113V156.424C235.113 155.768 234.949 155.268 234.621 154.924C234.293 154.58 233.825 154.408 233.217 154.408C232.537 154.408 231.997 154.612 231.597 155.02C231.205 155.42 231.009 155.976 231.009 156.688V160H230.157V153.688H230.973V154.852C231.205 154.468 231.525 154.172 231.933 153.964C232.349 153.748 232.829 153.64 233.373 153.64ZM241.602 159.616C241.442 159.76 241.242 159.872 241.002 159.952C240.77 160.024 240.526 160.06 240.27 160.06C239.678 160.06 239.222 159.9 238.902 159.58C238.582 159.26 238.422 158.808 238.422 158.224V154.408H237.294V153.688H238.422V152.308H239.274V153.688H241.194V154.408H239.274V158.176C239.274 158.552 239.366 158.84 239.55 159.04C239.742 159.232 240.014 159.328 240.366 159.328C240.542 159.328 240.71 159.3 240.87 159.244C241.038 159.188 241.182 159.108 241.302 159.004L241.602 159.616ZM243.969 154.924C244.169 154.5 244.465 154.18 244.857 153.964C245.257 153.748 245.749 153.64 246.333 153.64V154.468L246.129 154.456C245.465 154.456 244.945 154.66 244.569 155.068C244.193 155.476 244.005 156.048 244.005 156.784V160H243.153V153.688H243.969V154.924ZM250.397 160.06C249.789 160.06 249.241 159.924 248.753 159.652C248.265 159.372 247.881 158.988 247.601 158.5C247.321 158.012 247.181 157.46 247.181 156.844C247.181 156.228 247.321 155.676 247.601 155.188C247.881 154.7 248.265 154.32 248.753 154.048C249.241 153.776 249.789 153.64 250.397 153.64C251.005 153.64 251.553 153.776 252.041 154.048C252.529 154.32 252.909 154.7 253.181 155.188C253.461 155.676 253.601 156.228 253.601 156.844C253.601 157.46 253.461 158.012 253.181 158.5C252.909 158.988 252.529 159.372 252.041 159.652C251.553 159.924 251.005 160.06 250.397 160.06ZM250.397 159.304C250.845 159.304 251.245 159.204 251.597 159.004C251.957 158.796 252.237 158.504 252.437 158.128C252.637 157.752 252.737 157.324 252.737 156.844C252.737 156.364 252.637 155.936 252.437 155.56C252.237 155.184 251.957 154.896 251.597 154.696C251.245 154.488 250.845 154.384 250.397 154.384C249.949 154.384 249.545 154.488 249.185 154.696C248.833 154.896 248.553 155.184 248.345 155.56C248.145 155.936 248.045 156.364 248.045 156.844C248.045 157.324 248.145 157.752 248.345 158.128C248.553 158.504 248.833 158.796 249.185 159.004C249.545 159.204 249.949 159.304 250.397 159.304ZM264.241 151.096V160H263.425V158.752C263.169 159.176 262.829 159.5 262.405 159.724C261.989 159.948 261.517 160.06 260.989 160.06C260.397 160.06 259.861 159.924 259.381 159.652C258.901 159.38 258.525 159 258.253 158.512C257.981 158.024 257.845 157.468 257.845 156.844C257.845 156.22 257.981 155.664 258.253 155.176C258.525 154.688 258.901 154.312 259.381 154.048C259.861 153.776 260.397 153.64 260.989 153.64C261.501 153.64 261.961 153.748 262.369 153.964C262.785 154.172 263.125 154.48 263.389 154.888V151.096H264.241ZM261.061 159.304C261.501 159.304 261.897 159.204 262.249 159.004C262.609 158.796 262.889 158.504 263.089 158.128C263.297 157.752 263.401 157.324 263.401 156.844C263.401 156.364 263.297 155.936 263.089 155.56C262.889 155.184 262.609 154.896 262.249 154.696C261.897 154.488 261.501 154.384 261.061 154.384C260.613 154.384 260.209 154.488 259.849 154.696C259.497 154.896 259.217 155.184 259.009 155.56C258.809 155.936 258.709 156.364 258.709 156.844C258.709 157.324 258.809 157.752 259.009 158.128C259.217 158.504 259.497 158.796 259.849 159.004C260.209 159.204 260.613 159.304 261.061 159.304ZM272.11 157.108H266.83C266.878 157.764 267.13 158.296 267.586 158.704C268.042 159.104 268.618 159.304 269.314 159.304C269.706 159.304 270.066 159.236 270.394 159.1C270.722 158.956 271.006 158.748 271.246 158.476L271.726 159.028C271.446 159.364 271.094 159.62 270.67 159.796C270.254 159.972 269.794 160.06 269.29 160.06C268.642 160.06 268.066 159.924 267.562 159.652C267.066 159.372 266.678 158.988 266.398 158.5C266.118 158.012 265.978 157.46 265.978 156.844C265.978 156.228 266.11 155.676 266.374 155.188C266.646 154.7 267.014 154.32 267.478 154.048C267.95 153.776 268.478 153.64 269.062 153.64C269.646 153.64 270.17 153.776 270.634 154.048C271.098 154.32 271.462 154.7 271.726 155.188C271.99 155.668 272.122 156.22 272.122 156.844L272.11 157.108ZM269.062 154.372C268.454 154.372 267.942 154.568 267.526 154.96C267.118 155.344 266.886 155.848 266.83 156.472H271.306C271.25 155.848 271.014 155.344 270.598 154.96C270.19 154.568 269.678 154.372 269.062 154.372ZM280.321 159.616C280.161 159.76 279.961 159.872 279.721 159.952C279.489 160.024 279.245 160.06 278.989 160.06C278.397 160.06 277.941 159.9 277.621 159.58C277.301 159.26 277.141 158.808 277.141 158.224V154.408H276.013V153.688H277.141V152.308H277.993V153.688H279.913V154.408H277.993V158.176C277.993 158.552 278.085 158.84 278.269 159.04C278.461 159.232 278.733 159.328 279.085 159.328C279.261 159.328 279.429 159.3 279.589 159.244C279.757 159.188 279.901 159.108 280.021 159.004L280.321 159.616ZM287.56 153.688V160H286.744V158.848C286.52 159.232 286.212 159.532 285.82 159.748C285.428 159.956 284.98 160.06 284.476 160.06C283.652 160.06 283 159.832 282.52 159.376C282.048 158.912 281.812 158.236 281.812 157.348V153.688H282.664V157.264C282.664 157.928 282.828 158.432 283.156 158.776C283.484 159.12 283.952 159.292 284.56 159.292C285.224 159.292 285.748 159.092 286.132 158.692C286.516 158.284 286.708 157.72 286.708 157V153.688H287.56ZM291.638 160.06C291.126 160.06 290.634 159.988 290.162 159.844C289.698 159.692 289.334 159.504 289.07 159.28L289.454 158.608C289.718 158.816 290.05 158.988 290.45 159.124C290.85 159.252 291.266 159.316 291.698 159.316C292.274 159.316 292.698 159.228 292.97 159.052C293.25 158.868 293.39 158.612 293.39 158.284C293.39 158.052 293.314 157.872 293.162 157.744C293.01 157.608 292.818 157.508 292.586 157.444C292.354 157.372 292.046 157.304 291.662 157.24C291.15 157.144 290.738 157.048 290.426 156.952C290.114 156.848 289.846 156.676 289.622 156.436C289.406 156.196 289.298 155.864 289.298 155.44C289.298 154.912 289.518 154.48 289.958 154.144C290.398 153.808 291.01 153.64 291.794 153.64C292.202 153.64 292.61 153.696 293.018 153.808C293.426 153.912 293.762 154.052 294.026 154.228L293.654 154.912C293.134 154.552 292.514 154.372 291.794 154.372C291.25 154.372 290.838 154.468 290.558 154.66C290.286 154.852 290.15 155.104 290.15 155.416C290.15 155.656 290.226 155.848 290.378 155.992C290.538 156.136 290.734 156.244 290.966 156.316C291.198 156.38 291.518 156.448 291.926 156.52C292.43 156.616 292.834 156.712 293.138 156.808C293.442 156.904 293.702 157.068 293.918 157.3C294.134 157.532 294.242 157.852 294.242 158.26C294.242 158.812 294.01 159.252 293.546 159.58C293.09 159.9 292.454 160.06 291.638 160.06ZM29.492 173.688L26.684 180H25.808L23.012 173.688H23.9L26.264 179.064L28.652 173.688H29.492ZM36.0121 177.108H30.7321C30.7801 177.764 31.0321 178.296 31.4881 178.704C31.9441 179.104 32.5201 179.304 33.2161 179.304C33.6081 179.304 33.9681 179.236 34.2961 179.1C34.6241 178.956 34.9081 178.748 35.1481 178.476L35.6281 179.028C35.3481 179.364 34.9961 179.62 34.5721 179.796C34.1561 179.972 33.6961 180.06 33.1921 180.06C32.5441 180.06 31.9681 179.924 31.4641 179.652C30.9681 179.372 30.5801 178.988 30.3001 178.5C30.0201 178.012 29.8801 177.46 29.8801 176.844C29.8801 176.228 30.0121 175.676 30.2761 175.188C30.5481 174.7 30.9161 174.32 31.3801 174.048C31.8521 173.776 32.3801 173.64 32.9641 173.64C33.5481 173.64 34.0721 173.776 34.5361 174.048C35.0001 174.32 35.3641 174.7 35.6281 175.188C35.8921 175.668 36.0241 176.22 36.0241 176.844L36.0121 177.108ZM32.9641 174.372C32.3561 174.372 31.8441 174.568 31.4281 174.96C31.0201 175.344 30.7881 175.848 30.7321 176.472H35.2081C35.1521 175.848 34.9161 175.344 34.5001 174.96C34.0921 174.568 33.5801 174.372 32.9641 174.372ZM40.9743 173.64C41.7663 173.64 42.3943 173.872 42.8583 174.336C43.3303 174.792 43.5663 175.46 43.5663 176.34V180H42.7143V176.424C42.7143 175.768 42.5503 175.268 42.2223 174.924C41.8943 174.58 41.4263 174.408 40.8183 174.408C40.1383 174.408 39.5983 174.612 39.1983 175.02C38.8063 175.42 38.6103 175.976 38.6103 176.688V180H37.7583V173.688H38.5743V174.852C38.8063 174.468 39.1263 174.172 39.5343 173.964C39.9503 173.748 40.4303 173.64 40.9743 173.64ZM51.5674 173.688V180H50.7514V178.848C50.5274 179.232 50.2194 179.532 49.8274 179.748C49.4354 179.956 48.9874 180.06 48.4834 180.06C47.6594 180.06 47.0074 179.832 46.5274 179.376C46.0554 178.912 45.8194 178.236 45.8194 177.348V173.688H46.6714V177.264C46.6714 177.928 46.8354 178.432 47.1634 178.776C47.4914 179.12 47.9594 179.292 48.5674 179.292C49.2314 179.292 49.7554 179.092 50.1394 178.692C50.5234 178.284 50.7154 177.72 50.7154 177V173.688H51.5674ZM59.4496 177.108H54.1696C54.2176 177.764 54.4696 178.296 54.9256 178.704C55.3816 179.104 55.9576 179.304 56.6536 179.304C57.0456 179.304 57.4056 179.236 57.7336 179.1C58.0616 178.956 58.3456 178.748 58.5856 178.476L59.0656 179.028C58.7856 179.364 58.4336 179.62 58.0096 179.796C57.5936 179.972 57.1336 180.06 56.6296 180.06C55.9816 180.06 55.4056 179.924 54.9016 179.652C54.4056 179.372 54.0176 178.988 53.7376 178.5C53.4576 178.012 53.3176 177.46 53.3176 176.844C53.3176 176.228 53.4496 175.676 53.7136 175.188C53.9856 174.7 54.3536 174.32 54.8176 174.048C55.2896 173.776 55.8176 173.64 56.4016 173.64C56.9856 173.64 57.5096 173.776 57.9736 174.048C58.4376 174.32 58.8016 174.7 59.0656 175.188C59.3296 175.668 59.4616 176.22 59.4616 176.844L59.4496 177.108ZM56.4016 174.372C55.7936 174.372 55.2816 174.568 54.8656 174.96C54.4576 175.344 54.2256 175.848 54.1696 176.472H58.6456C58.5896 175.848 58.3536 175.344 57.9376 174.96C57.5296 174.568 57.0176 174.372 56.4016 174.372ZM62.8878 180.06C62.3758 180.06 61.8838 179.988 61.4118 179.844C60.9478 179.692 60.5838 179.504 60.3198 179.28L60.7038 178.608C60.9678 178.816 61.2998 178.988 61.6998 179.124C62.0998 179.252 62.5158 179.316 62.9478 179.316C63.5238 179.316 63.9478 179.228 64.2198 179.052C64.4998 178.868 64.6398 178.612 64.6398 178.284C64.6398 178.052 64.5638 177.872 64.4118 177.744C64.2598 177.608 64.0678 177.508 63.8358 177.444C63.6038 177.372 63.2958 177.304 62.9118 177.24C62.3998 177.144 61.9878 177.048 61.6758 176.952C61.3638 176.848 61.0958 176.676 60.8718 176.436C60.6558 176.196 60.5478 175.864 60.5478 175.44C60.5478 174.912 60.7678 174.48 61.2078 174.144C61.6478 173.808 62.2598 173.64 63.0438 173.64C63.4518 173.64 63.8598 173.696 64.2678 173.808C64.6758 173.912 65.0118 174.052 65.2758 174.228L64.9038 174.912C64.3838 174.552 63.7638 174.372 63.0438 174.372C62.4998 174.372 62.0878 174.468 61.8078 174.66C61.5358 174.852 61.3998 175.104 61.3998 175.416C61.3998 175.656 61.4758 175.848 61.6278 175.992C61.7878 176.136 61.9838 176.244 62.2158 176.316C62.4478 176.38 62.7678 176.448 63.1758 176.52C63.6798 176.616 64.0838 176.712 64.3878 176.808C64.6918 176.904 64.9518 177.068 65.1678 177.3C65.3838 177.532 65.4918 177.852 65.4918 178.26C65.4918 178.812 65.2598 179.252 64.7958 179.58C64.3398 179.9 63.7038 180.06 62.8878 180.06ZM75.5115 173.688L72.3555 180.756C72.0995 181.348 71.8035 181.768 71.4675 182.016C71.1315 182.264 70.7275 182.388 70.2555 182.388C69.9515 182.388 69.6675 182.34 69.4035 182.244C69.1395 182.148 68.9115 182.004 68.7195 181.812L69.1155 181.176C69.4355 181.496 69.8195 181.656 70.2675 181.656C70.5555 181.656 70.7995 181.576 70.9995 181.416C71.2075 181.256 71.3995 180.984 71.5755 180.6L71.8515 179.988L69.0315 173.688H69.9195L72.2955 179.052L74.6715 173.688H75.5115ZM82.0601 173.64C82.8841 173.64 83.5161 173.848 83.9561 174.264C84.3961 174.672 84.6161 175.28 84.6161 176.088V180H83.8001V179.016C83.6081 179.344 83.3241 179.6 82.9481 179.784C82.5801 179.968 82.1401 180.06 81.6281 180.06C80.9241 180.06 80.3641 179.892 79.9481 179.556C79.5321 179.22 79.3241 178.776 79.3241 178.224C79.3241 177.688 79.5161 177.256 79.9001 176.928C80.2921 176.6 80.9121 176.436 81.7601 176.436H83.7641V176.052C83.7641 175.508 83.6121 175.096 83.3081 174.816C83.0041 174.528 82.5601 174.384 81.9761 174.384C81.5761 174.384 81.1921 174.452 80.8241 174.588C80.4561 174.716 80.1401 174.896 79.8761 175.128L79.4921 174.492C79.8121 174.22 80.1961 174.012 80.6441 173.868C81.0921 173.716 81.5641 173.64 82.0601 173.64ZM81.7601 179.388C82.2401 179.388 82.6521 179.28 82.9961 179.064C83.3401 178.84 83.5961 178.52 83.7641 178.104V177.072H81.7841C80.7041 177.072 80.1641 177.448 80.1641 178.2C80.1641 178.568 80.3041 178.86 80.5841 179.076C80.8641 179.284 81.2561 179.388 81.7601 179.388ZM82.9481 171.216H84.0881L82.1441 172.704H81.3041L82.9481 171.216ZM87.7462 174.924C87.9462 174.5 88.2422 174.18 88.6342 173.964C89.0342 173.748 89.5262 173.64 90.1102 173.64V174.468L89.9062 174.456C89.2422 174.456 88.7222 174.66 88.3462 175.068C87.9702 175.476 87.7822 176.048 87.7822 176.784V180H86.9302V173.688H87.7462V174.924ZM97.0903 177.108H91.8103C91.8583 177.764 92.1103 178.296 92.5663 178.704C93.0223 179.104 93.5983 179.304 94.2943 179.304C94.6863 179.304 95.0463 179.236 95.3743 179.1C95.7023 178.956 95.9863 178.748 96.2263 178.476L96.7063 179.028C96.4263 179.364 96.0743 179.62 95.6503 179.796C95.2343 179.972 94.7743 180.06 94.2703 180.06C93.6223 180.06 93.0463 179.924 92.5423 179.652C92.0463 179.372 91.6583 178.988 91.3783 178.5C91.0983 178.012 90.9583 177.46 90.9583 176.844C90.9583 176.228 91.0903 175.676 91.3543 175.188C91.6263 174.7 91.9943 174.32 92.4583 174.048C92.9303 173.776 93.4583 173.64 94.0423 173.64C94.6263 173.64 95.1503 173.776 95.6143 174.048C96.0783 174.32 96.4423 174.7 96.7063 175.188C96.9703 175.668 97.1023 176.22 97.1023 176.844L97.0903 177.108ZM94.0423 174.372C93.4343 174.372 92.9223 174.568 92.5063 174.96C92.0983 175.344 91.8663 175.848 91.8103 176.472H96.2863C96.2303 175.848 95.9943 175.344 95.5783 174.96C95.1703 174.568 94.6583 174.372 94.0423 174.372ZM100.869 173.64C101.693 173.64 102.325 173.848 102.765 174.264C103.205 174.672 103.425 175.28 103.425 176.088V180H102.609V179.016C102.417 179.344 102.133 179.6 101.757 179.784C101.389 179.968 100.949 180.06 100.437 180.06C99.7327 180.06 99.1727 179.892 98.7567 179.556C98.3407 179.22 98.1327 178.776 98.1327 178.224C98.1327 177.688 98.3247 177.256 98.7087 176.928C99.1007 176.6 99.7207 176.436 100.569 176.436H102.573V176.052C102.573 175.508 102.421 175.096 102.117 174.816C101.813 174.528 101.369 174.384 100.785 174.384C100.385 174.384 100.001 174.452 99.6327 174.588C99.2647 174.716 98.9487 174.896 98.6847 175.128L98.3007 174.492C98.6207 174.22 99.0047 174.012 99.4527 173.868C99.9007 173.716 100.373 173.64 100.869 173.64ZM100.569 179.388C101.049 179.388 101.461 179.28 101.805 179.064C102.149 178.84 102.405 178.52 102.573 178.104V177.072H100.593C99.5127 177.072 98.9727 177.448 98.9727 178.2C98.9727 178.568 99.1127 178.86 99.3927 179.076C99.6727 179.284 100.065 179.388 100.569 179.388ZM107.431 180.06C106.919 180.06 106.427 179.988 105.955 179.844C105.491 179.692 105.127 179.504 104.863 179.28L105.247 178.608C105.511 178.816 105.843 178.988 106.243 179.124C106.643 179.252 107.059 179.316 107.491 179.316C108.067 179.316 108.491 179.228 108.763 179.052C109.043 178.868 109.183 178.612 109.183 178.284C109.183 178.052 109.107 177.872 108.955 177.744C108.803 177.608 108.611 177.508 108.379 177.444C108.147 177.372 107.839 177.304 107.455 177.24C106.943 177.144 106.531 177.048 106.219 176.952C105.907 176.848 105.639 176.676 105.415 176.436C105.199 176.196 105.091 175.864 105.091 175.44C105.091 174.912 105.311 174.48 105.751 174.144C106.191 173.808 106.803 173.64 107.587 173.64C107.995 173.64 108.403 173.696 108.811 173.808C109.219 173.912 109.555 174.052 109.819 174.228L109.447 174.912C108.927 174.552 108.307 174.372 107.587 174.372C107.043 174.372 106.631 174.468 106.351 174.66C106.079 174.852 105.943 175.104 105.943 175.416C105.943 175.656 106.019 175.848 106.171 175.992C106.331 176.136 106.527 176.244 106.759 176.316C106.991 176.38 107.311 176.448 107.719 176.52C108.223 176.616 108.627 176.712 108.931 176.808C109.235 176.904 109.495 177.068 109.711 177.3C109.927 177.532 110.035 177.852 110.035 178.26C110.035 178.812 109.803 179.252 109.339 179.58C108.883 179.9 108.247 180.06 107.431 180.06Z" fill="#3E3E3E"/>
<g clip-path="url(#clip0)">
<path d="M304.473 47.1696C302.365 48.4716 307.3 62.6448 309.582 62.3224C311.008 62.124 312.607 56.0852 309.855 51.4476C308.416 49.0048 305.515 46.5248 304.473 47.1696Z" fill="#65BDFF"/>
<path d="M268.823 35.5508C265.227 37.076 261.197 38.8244 259.536 42.7428C256.857 49.042 263.02 53.9896 260.094 60.2144C258.395 63.8104 256.027 62.806 252.666 67.0096C248.673 72.0192 246.342 80.5752 249.827 87.296C252.48 92.4296 257.465 94.4508 261.706 96.1744C263.169 96.7696 272.853 100.564 282.067 97.3896C284.274 96.6332 285.167 95.542 287.051 95.728C291.615 96.1992 292.297 102.288 296.463 103.28C299.96 104.11 304.027 100.899 306.594 97.6748C307.102 97.03 307.561 96.3852 307.945 95.7652C310.177 91.4624 311.975 86.49 312.447 81.5052C312.558 80.2528 312.595 79.0128 312.533 77.7728C312.298 74.5984 311.653 71.5108 309.706 68.696C306.209 63.302 300.89 59.0736 300.865 52.3528C300.716 51.336 300.617 50.282 300.518 49.2156C300.009 43.8588 299.575 38.1176 294.281 34.6952C287.275 30.2064 279.103 32.0044 272.047 34.3852C270.882 34.7448 269.815 35.1292 268.823 35.5508Z" fill="#65BDFF"/>
<path d="M240.44 56.7672L239.857 56.8416C239.324 56.916 238.84 56.544 238.766 56.0108L237.984 50.2324C237.91 49.6992 238.282 49.2156 238.815 49.1412L239.398 49.0668C239.931 48.9924 240.415 49.3644 240.489 49.8976L241.27 55.676C241.345 56.2092 240.973 56.6928 240.44 56.7672Z" fill="white"/>
<path d="M237.774 55.8868C237.24 55.9612 236.757 55.5892 236.682 55.056L236.236 51.708C236.162 51.1748 236.534 50.6912 237.067 50.6168C237.6 50.5424 238.084 50.9144 238.158 51.4476L238.604 54.7832C238.679 55.3164 238.307 55.8124 237.774 55.8868Z" fill="white"/>
<path d="M249.554 55.5396L250.137 55.4652C250.67 55.3908 251.042 54.9072 250.968 54.374L250.186 48.5956C250.112 48.0624 249.628 47.6904 249.095 47.7648L248.512 47.8392C247.979 47.9136 247.607 48.3972 247.682 48.9304L248.463 54.7088C248.537 55.242 249.021 55.614 249.554 55.5396Z" fill="white"/>
<path d="M251.897 53.9772C252.431 53.9028 252.803 53.4192 252.728 52.886L252.282 49.5504C252.207 49.0172 251.724 48.6452 251.191 48.7196C250.657 48.794 250.285 49.2776 250.36 49.8108L250.806 53.1464C250.868 53.6796 251.364 54.0516 251.897 53.9772Z" fill="white"/>
<path d="M241.024 53.7747L248.213 52.8078L247.945 50.8168L240.756 51.7838L241.024 53.7747Z" fill="white"/>
<path d="M240.44 56.7672L239.857 56.8416C239.324 56.916 238.84 56.544 238.766 56.0108L237.984 50.2324C237.91 49.6992 238.282 49.2156 238.815 49.1412L239.398 49.0668C239.931 48.9924 240.415 49.3644 240.489 49.8976L241.27 55.676C241.345 56.2092 240.973 56.6928 240.44 56.7672Z" stroke="#4E5A7D" stroke-miterlimit="10" stroke-linecap="round" stroke-linejoin="round"/>
<path d="M237.774 55.8868C237.24 55.9612 236.757 55.5892 236.682 55.056L236.236 51.708C236.162 51.1748 236.534 50.6912 237.067 50.6168C237.6 50.5424 238.084 50.9144 238.158 51.4476L238.604 54.7832C238.679 55.3164 238.307 55.8124 237.774 55.8868Z" stroke="#4E5A7D" stroke-miterlimit="10" stroke-linecap="round" stroke-linejoin="round"/>
<path d="M249.554 55.5396L250.137 55.4652C250.67 55.3908 251.042 54.9072 250.968 54.374L250.186 48.5956C250.112 48.0624 249.628 47.6904 249.095 47.7648L248.512 47.8392C247.979 47.9136 247.607 48.3972 247.682 48.9304L248.463 54.7088C248.537 55.242 249.021 55.614 249.554 55.5396Z" stroke="#4E5A7D" stroke-miterlimit="10" stroke-linecap="round" stroke-linejoin="round"/>
<path d="M251.897 53.9772C252.431 53.9028 252.803 53.4192 252.728 52.886L252.282 49.5504C252.207 49.0172 251.724 48.6452 251.191 48.7196C250.657 48.794 250.285 49.2776 250.36 49.8108L250.806 53.1464C250.868 53.6796 251.364 54.0516 251.897 53.9772Z" stroke="#4E5A7D" stroke-miterlimit="10" stroke-linecap="round" stroke-linejoin="round"/>
<path d="M241.024 53.7747L248.213 52.8078L247.945 50.8168L240.756 51.7838L241.024 53.7747Z" stroke="#4E5A7D" stroke-miterlimit="10" stroke-linecap="round" stroke-linejoin="round"/>
<path d="M296.413 92.1568H269.554L270.559 87.854C271.08 85.622 273.832 83.9976 277.056 83.9976H288.911C292.135 83.9976 294.888 85.6344 295.408 87.854L296.413 92.1568Z" fill="#E08484"/>
<path d="M296.413 92.1568H269.554L270.559 87.854C271.08 85.622 273.832 83.9976 277.056 83.9976H288.911C292.135 83.9976 294.888 85.6344 295.408 87.854L296.413 92.1568Z" stroke="#4E5A7D" stroke-miterlimit="10" stroke-linecap="round" stroke-linejoin="round"/>
<path d="M292.656 88.8832H289.283C287.993 88.8832 286.952 87.8416 286.952 86.552V81.2076H279.016V86.552C279.016 87.8416 277.974 88.8832 276.685 88.8832H273.312C268.377 88.8832 264.384 92.876 264.384 97.8112V105.09H301.584V97.8112C301.584 92.876 297.579 88.8832 292.656 88.8832Z" fill="#FBE3D5"/>
<path d="M282.835 83.6628C285.109 83.6628 286.952 82.5802 286.952 81.2448C286.952 79.9094 285.109 78.8268 282.835 78.8268C280.561 78.8268 278.718 79.9094 278.718 81.2448C278.718 82.5802 280.561 83.6628 282.835 83.6628Z" fill="#D5B6A5"/>
<path d="M301.584 97.8112V105.09H264.384V97.8112C264.384 92.876 268.377 88.8832 273.312 88.8832H276.685C276.771 88.8832 276.858 88.8832 276.945 88.8708C277.863 91.3632 280.268 93.1488 283.083 93.1488C285.898 93.1488 288.291 91.3756 289.209 88.8832C289.233 88.8832 289.258 88.8832 289.295 88.8832H292.656C297.579 88.8832 301.584 92.876 301.584 97.8112Z" fill="#E08484"/>
<path d="M279.512 98.2576C276.027 98.2576 273.188 95.418 273.188 91.9336V88.8584H293.015V91.9336C293.015 95.418 290.176 98.2576 286.691 98.2576H279.512Z" fill="#D87171"/>
<path d="M292.656 88.8832H289.283C287.993 88.8832 286.952 87.8416 286.952 86.552V81.2076H279.016V86.552C279.016 87.8416 277.974 88.8832 276.685 88.8832H273.312C268.377 88.8832 264.384 92.876 264.384 97.8112V105.09H301.584V97.8112C301.584 92.876 297.579 88.8832 292.656 88.8832Z" stroke="#4E5A7D" stroke-miterlimit="10" stroke-linecap="round" stroke-linejoin="round"/>
<path d="M291.602 51.3608C291.466 49.476 291.962 48.05 292.842 47.74C293.71 47.43 294.727 48.2856 295.074 48.5832C298.36 51.336 296.339 60.5492 295.781 62.9176L291.602 51.3608Z" fill="#BCAFAA"/>
<path d="M291.354 51.3608C291.218 49.476 291.714 48.05 292.594 47.74C292.768 47.678 292.941 47.6656 293.115 47.678" stroke="#4E5A7D" stroke-miterlimit="10" stroke-linecap="round" stroke-linejoin="round"/>
<path d="M293.363 47.678C294.082 47.74 294.789 48.3352 295.074 48.5832C298.36 51.336 296.339 60.5492 295.781 62.9176L291.602 51.3732" stroke="#4E5A7D" stroke-miterlimit="10" stroke-linecap="round" stroke-linejoin="round"/>
<path d="M270.026 63.7608V59.582C270.026 54.8328 274.229 56.0604 278.966 56.0604L287.733 56.3952C290.486 56.3952 292.147 52.2908 293.71 54.2996C293.66 52.8364 293.387 50.9764 292.532 49.0296C292.06 47.9384 290.089 43.8092 285.55 41.912C284.013 41.2672 282.736 41.1184 281.954 41.0316C278.966 40.6968 277.738 40.1636 272.605 41.5896C269.356 42.4824 267.025 44.1068 266.988 44.8136C266.95 45.4584 268.525 45.2972 269.815 46.2644C271.91 47.8268 268.984 51.3484 268.575 55.8124C268.401 57.722 268.562 60.4004 270.026 63.7608Z" fill="#BCAFAA"/>
<path d="M293.115 50.6168C292.954 49.972 292.631 49.2652 292.532 49.0296C292.061 47.9384 290.089 43.8092 285.551 41.912C284.013 41.2672 282.736 41.1184 281.955 41.0316C278.966 40.6968 276.945 40.3744 271.812 41.8004C268.563 42.6932 266.728 43.4496 266.988 44.8136C267.149 45.6692 269.071 45.4336 270.187 47.0456C271.675 49.2032 268.984 51.3484 268.575 55.8248C268.402 57.7344 268.563 60.4128 270.026 63.7732V59.5944C270.026 54.8452 274.23 56.0728 278.966 56.0728L287.733 56.4076C290.486 56.4076 292.148 52.3032 293.71 54.312" stroke="#4E5A7D" stroke-miterlimit="10" stroke-linecap="round" stroke-linejoin="round"/>
<path d="M293.276 53.7664C292.656 53.0968 291.726 52.8116 290.833 52.9976C288.613 53.4688 285.91 53.7416 282.984 53.7416C279.933 53.7416 277.119 53.444 274.837 52.9356C273.944 52.7372 273.002 53.01 272.382 53.6796C270.931 55.2172 270.038 57.288 270.038 59.5696V70.1592C270.038 76.9544 275.556 82.4724 282.351 82.4724H283.244C290.039 82.4724 295.557 76.9544 295.557 70.1592V59.5696C295.545 57.3376 294.677 55.304 293.276 53.7664Z" fill="#FBE3D5"/>
<path d="M283.232 80.9596H282.339C275.544 80.9596 270.026 75.4416 270.026 68.6464V69.9236C270.026 76.7188 275.544 82.2368 282.339 82.2368H283.232C290.027 82.2368 295.545 76.7188 295.545 69.9236V68.6464C295.545 75.4416 290.027 80.9596 283.232 80.9596Z" fill="#D5B6A5"/>
<path d="M283.654 70.804C283.654 70.804 284.906 70.4196 285.489 70.6056C285.91 68.7828 284.621 67.1212 284.621 67.1212" stroke="#4E5A7D" stroke-miterlimit="10" stroke-linecap="round" stroke-linejoin="round"/>
<path d="M286.158 76.0616C285.439 76.5328 284.521 76.818 283.504 76.818C281.248 76.818 279.412 75.4044 279.412 73.6684" stroke="#4E5A7D" stroke-miterlimit="10" stroke-linecap="round" stroke-linejoin="round"/>
<path d="M278.966 64.5172C279.664 64.5172 280.231 63.8066 280.231 62.93C280.231 62.0534 279.664 61.3428 278.966 61.3428C278.267 61.3428 277.701 62.0534 277.701 62.93C277.701 63.8066 278.267 64.5172 278.966 64.5172Z" fill="#4E5A7D"/>
<path d="M288.341 64.4552C289.039 64.4552 289.606 63.7446 289.606 62.868C289.606 61.9914 289.039 61.2808 288.341 61.2808C287.642 61.2808 287.076 61.9914 287.076 62.868C287.076 63.7446 287.642 64.4552 288.341 64.4552Z" fill="#4E5A7D"/>
<path d="M290.833 53.01C288.613 53.4812 285.91 53.754 282.984 53.754C279.933 53.754 277.119 53.4564 274.837 52.948C273.944 52.7496 273.002 53.0224 272.382 53.692C270.931 55.2296 270.038 57.3004 270.038 59.582V60.2764C274.217 60.574 278.458 60.7352 282.649 60.7352C286.939 60.7352 291.267 60.574 295.557 60.2516V59.582C295.557 57.3376 294.702 55.304 293.288 53.7664C292.656 53.0968 291.726 52.8116 290.833 53.01Z" fill="#D5B6A5"/>
<path d="M293.276 53.7664C292.656 53.0968 291.726 52.8116 290.833 52.9976C288.613 53.4688 285.91 53.7416 282.984 53.7416C279.933 53.7416 277.119 53.444 274.837 52.9356C273.944 52.7372 273.002 53.01 272.382 53.6796C270.931 55.2172 270.038 57.288 270.038 59.5696V70.1592C270.038 76.9544 275.556 82.4724 282.351 82.4724H283.244C290.039 82.4724 295.557 76.9544 295.557 70.1592V59.5696C295.545 57.3376 294.677 55.304 293.276 53.7664Z" stroke="#4E5A7D" stroke-miterlimit="10" stroke-linecap="round" stroke-linejoin="round"/>
<path d="M295.967 59.3464C287.088 59.8672 278.173 59.8672 269.294 59.3464C268.674 59.3092 268.191 58.838 268.191 58.2552V55.428C268.191 54.7956 268.773 54.2996 269.455 54.3368C278.235 54.8576 287.039 54.8576 295.818 54.3368C296.5 54.2996 297.083 54.7956 297.083 55.428V58.2552C297.083 58.838 296.599 59.3092 295.967 59.3464Z" fill="#84BDE1"/>
<path opacity="0.3" d="M295.818 54.3492C287.039 54.87 278.235 54.87 269.455 54.3492C268.773 54.312 268.191 54.808 268.191 55.4404V56.3828C268.191 55.7504 268.773 55.2544 269.455 55.2916C278.235 55.8124 287.039 55.8124 295.818 55.2916C296.5 55.2544 297.083 55.7504 297.083 56.3828V55.428C297.083 54.808 296.5 54.312 295.818 54.3492Z" fill="#84BDE1"/>
<path d="M295.967 59.3464C287.088 59.8672 278.173 59.8672 269.294 59.3464C268.674 59.3092 268.191 58.838 268.191 58.2552V55.428C268.191 54.7956 268.773 54.2996 269.455 54.3368C278.235 54.8576 287.039 54.8576 295.818 54.3368C296.5 54.2996 297.083 54.7956 297.083 55.428V58.2552C297.083 58.838 296.599 59.3092 295.967 59.3464Z" stroke="#4E5A7D" stroke-miterlimit="10" stroke-linecap="round" stroke-linejoin="round"/>
<path d="M292.532 48.8188C292.532 48.8188 295.086 48.8188 295.533 53.6672" stroke="#4E5A7D" stroke-miterlimit="10" stroke-linecap="round" stroke-linejoin="round"/>
<path d="M278.234 42.8172C283.504 43.09 288.427 45.7188 289.022 50.2944" stroke="#4E5A7D" stroke-miterlimit="10" stroke-linecap="round" stroke-linejoin="round"/>
<path d="M274.639 43.214C275.321 43.0032 276.189 42.8048 277.081 42.8172" stroke="#4E5A7D" stroke-miterlimit="10" stroke-linecap="round" stroke-linejoin="round"/>
<path d="M278.668 45.6444C281.52 46.1032 285.216 46.5496 286.592 51.2492" stroke="#4E5A7D" stroke-miterlimit="10" stroke-linecap="round" stroke-linejoin="round"/>
<path d="M282.636 78.2812C282.636 78.2812 283.343 78.7028 284.62 78.2812" stroke="#4E5A7D" stroke-miterlimit="10" stroke-linecap="round" stroke-linejoin="round"/>
<path d="M276.92 71.7712C278.208 71.7712 279.251 70.7275 279.251 69.44C279.251 68.1525 278.208 67.1088 276.92 67.1088C275.633 67.1088 274.589 68.1525 274.589 69.44C274.589 70.7275 275.633 71.7712 276.92 71.7712Z" fill="#F5CFC4"/>
<path d="M289.221 71.7712C290.508 71.7712 291.552 70.7275 291.552 69.44C291.552 68.1525 290.508 67.1088 289.221 67.1088C287.933 67.1088 286.89 68.1525 286.89 69.44C286.89 70.7275 287.933 71.7712 289.221 71.7712Z" fill="#F5CFC4"/>
<path d="M269.679 66.8732H269.927V60.3508H269.679C268.86 60.3508 268.191 61.0204 268.191 61.8388V65.3852C268.191 66.2036 268.86 66.8732 269.679 66.8732Z" fill="#FEF0E3"/>
<path d="M269.679 66.8732H269.927V60.3508H269.679C268.86 60.3508 268.191 61.0204 268.191 61.8388V65.3852C268.191 66.2036 268.86 66.8732 269.679 66.8732Z" stroke="#4E5A7D" stroke-miterlimit="10" stroke-linecap="round" stroke-linejoin="round"/>
<path d="M295.793 66.8732H295.545V60.3508H295.793C296.612 60.3508 297.281 61.0204 297.281 61.8388V65.3852C297.281 66.2036 296.612 66.8732 295.793 66.8732Z" fill="#FEF0E3"/>
<path d="M295.793 66.8732H295.545V60.3508H295.793C296.612 60.3508 297.281 61.0204 297.281 61.8388V65.3852C297.281 66.2036 296.612 66.8732 295.793 66.8732Z" stroke="#4E5A7D" stroke-miterlimit="10" stroke-linecap="round" stroke-linejoin="round"/>
<path d="M286.692 97.2656H279.512C276.573 97.2656 274.18 94.8724 274.18 91.9336V86.9736H292.024V91.9336C292.024 94.8848 289.643 97.2656 286.692 97.2656Z" fill="#E08484"/>
<path d="M292.024 86.9736V91.9336C292.024 94.8724 289.63 97.2656 286.692 97.2656H279.512C276.573 97.2656 274.18 94.8724 274.18 91.9336V86.9736" stroke="#4E5A7D" stroke-miterlimit="10" stroke-linecap="round" stroke-linejoin="round"/>
<path d="M289.196 88.8832C288.278 91.3756 285.873 93.1488 283.07 93.1488C280.256 93.1488 277.85 91.3632 276.932 88.8708C278.098 88.7468 279.016 87.7548 279.016 86.552V86.118H286.952V86.552C286.952 87.8044 287.944 88.8336 289.196 88.8832Z" fill="#FBE3D5"/>
<path d="M288.353 88.6848C287.522 90.8424 285.451 92.2808 283.07 92.2808C280.665 92.2808 278.582 90.8052 277.763 88.6104C277.515 88.7468 277.23 88.8336 276.932 88.8708C277.85 91.3632 280.256 93.1488 283.07 93.1488C285.885 93.1488 288.278 91.3756 289.196 88.8832C288.898 88.8708 288.613 88.7964 288.353 88.6848Z" fill="#EDD4C6"/>
<path d="M286.952 86.1056V86.5396C286.952 87.6184 287.683 88.536 288.688 88.7964C288.948 88.8708 289.097 89.156 288.985 89.404C287.931 91.6112 285.687 93.1364 283.083 93.1364C280.454 93.1364 278.197 91.5864 277.156 89.3544C277.044 89.1188 277.168 88.8336 277.429 88.7592C278.359 88.4492 279.028 87.5812 279.028 86.5396V86.1056" stroke="#4E5A7D" stroke-miterlimit="10" stroke-linecap="round" stroke-linejoin="round"/>
<path d="M276.697 88.0772C277.367 90.9788 279.958 93.1488 283.071 93.1488C286.183 93.1488 288.775 90.9788 289.444 88.0772" stroke="#4E5A7D" stroke-miterlimit="10" stroke-linecap="round" stroke-linejoin="round"/>
<path d="M278.482 95.0956C279.03 95.0956 279.474 94.8402 279.474 94.5252C279.474 94.2102 279.03 93.9548 278.482 93.9548C277.934 93.9548 277.49 94.2102 277.49 94.5252C277.49 94.8402 277.934 95.0956 278.482 95.0956Z" fill="#4E5A7D"/>
<path d="M278.483 94.5252V100.986" stroke="#4E5A7D" stroke-miterlimit="10" stroke-linecap="round" stroke-linejoin="round"/>
<path d="M287.473 95.0956C288.02 95.0956 288.465 94.8402 288.465 94.5252C288.465 94.2102 288.02 93.9548 287.473 93.9548C286.925 93.9548 286.481 94.2102 286.481 94.5252C286.481 94.8402 286.925 95.0956 287.473 95.0956Z" fill="#4E5A7D"/>
<path d="M287.472 94.5252V99.2496" stroke="#4E5A7D" stroke-miterlimit="10" stroke-linecap="round" stroke-linejoin="round"/>
<path d="M278.842 102.697H278.098C277.627 102.697 277.28 102.263 277.392 101.804L277.714 100.366H279.227L279.549 101.804C279.661 102.263 279.314 102.697 278.842 102.697Z" fill="#FEF0E3"/>
<path d="M278.842 102.697H278.098C277.627 102.697 277.28 102.263 277.392 101.804L277.714 100.366H279.227L279.549 101.804C279.661 102.263 279.314 102.697 278.842 102.697Z" stroke="#4E5A7D" stroke-miterlimit="10" stroke-linecap="round" stroke-linejoin="round"/>
<path d="M287.844 101.531H287.1C286.629 101.531 286.282 101.097 286.394 100.638L286.716 99.2H288.229L288.551 100.638C288.663 101.097 288.316 101.531 287.844 101.531Z" fill="#FEF0E3"/>
<path d="M287.844 101.531H287.1C286.629 101.531 286.282 101.097 286.394 100.638L286.716 99.2H288.229L288.551 100.638C288.663 101.097 288.316 101.531 287.844 101.531Z" stroke="#4E5A7D" stroke-miterlimit="10" stroke-linecap="round" stroke-linejoin="round"/>
<path opacity="0.58" d="M281.992 88.3748C281.992 88.3748 282.388 88.412 282.835 88.8708C282.835 88.8708 283.356 88.3748 283.802 88.3748" stroke="#D5B6A5" stroke-miterlimit="10" stroke-linecap="round" stroke-linejoin="round"/>
<path d="M283.505 50.7284C283.505 50.7284 283.232 49.166 280.479 48.3104" stroke="#4E5A7D" stroke-miterlimit="10" stroke-linecap="round" stroke-linejoin="round"/>
<path d="M271.96 100.366V105.09" stroke="#4E5A7D" stroke-miterlimit="10" stroke-linecap="round" stroke-linejoin="round"/>
<path d="M293.722 100.366V105.09" stroke="#4E5A7D" stroke-miterlimit="10" stroke-linecap="round" stroke-linejoin="round"/>
<path d="M286.754 26.5732H280.256C279.574 26.5732 279.016 26.0152 279.016 25.3332V17.236C279.016 16.554 279.574 15.996 280.256 15.996H286.754C287.436 15.996 287.994 16.554 287.994 17.236V25.3332C287.994 26.0152 287.436 26.5732 286.754 26.5732Z" fill="white"/>
<path d="M286.754 26.5732H280.256C279.574 26.5732 279.016 26.0152 279.016 25.3332V17.236C279.016 16.554 279.574 15.996 280.256 15.996H286.754C287.436 15.996 287.994 16.554 287.994 17.236V25.3332C287.994 26.0152 287.436 26.5732 286.754 26.5732Z" stroke="#4E5A7D" stroke-miterlimit="10" stroke-linecap="round" stroke-linejoin="round"/>
<path d="M287.386 28.8176C288.763 28.8176 289.879 27.7017 289.879 26.3252C289.879 24.9487 288.763 23.8328 287.386 23.8328C286.01 23.8328 284.894 24.9487 284.894 26.3252C284.894 27.7017 286.01 28.8176 287.386 28.8176Z" fill="white"/>
<path d="M287.386 28.8176C288.763 28.8176 289.879 27.7017 289.879 26.3252C289.879 24.9487 288.763 23.8328 287.386 23.8328C286.01 23.8328 284.894 24.9487 284.894 26.3252C284.894 27.7017 286.01 28.8176 287.386 28.8176Z" stroke="#4E5A7D" stroke-miterlimit="10" stroke-linecap="round" stroke-linejoin="round"/>
<path d="M286.245 26.3004L287.026 27.0816L288.527 25.5688" stroke="#4E5A7D" stroke-miterlimit="10" stroke-linecap="round" stroke-linejoin="round"/>
<path d="M284.298 15.3388V14.3096C284.298 13.8632 283.939 13.5036 283.492 13.5036C283.046 13.5036 282.686 13.8632 282.686 14.3096V15.3388H281.806V15.6612V16.74H285.179V15.6612V15.3388H284.298Z" fill="white"/>
<path d="M284.298 15.438V14.4832C284.298 14.074 283.939 13.7392 283.492 13.7392C283.046 13.7392 282.686 14.074 282.686 14.4832V15.438H281.806V15.7356V16.74H285.179V15.7356V15.438H284.298Z" stroke="#4E5A7D" stroke-miterlimit="10" stroke-linecap="round" stroke-linejoin="round"/>
<path d="M281.41 19.7408H286.022" stroke="#4E5A7D" stroke-miterlimit="10" stroke-linecap="round" stroke-linejoin="round"/>
<path d="M281.41 21.2784H286.022" stroke="#4E5A7D" stroke-miterlimit="10" stroke-linecap="round" stroke-linejoin="round"/>
<path d="M282.252 22.7664H285.179" stroke="#4E5A7D" stroke-miterlimit="10" stroke-linecap="round" stroke-linejoin="round"/>
<path d="M310.425 25.42L309.21 24.1552C308.032 22.9276 306.073 22.9028 304.919 24.1552C303.803 25.3704 303.444 27.59 304.957 30.0576C306.482 32.5252 310.413 34.1992 310.413 34.1992C310.413 34.1992 314.356 32.5252 315.869 30.0576C317.394 27.59 317.034 25.3704 315.906 24.1552C314.753 22.9028 312.793 22.9276 311.615 24.1552L310.425 25.42Z" fill="white"/>
<path d="M310.425 25.42L309.21 24.1552C308.032 22.9276 306.073 22.9028 304.919 24.1552C303.803 25.3704 303.444 27.59 304.957 30.0576C306.482 32.5252 310.413 34.1992 310.413 34.1992C310.413 34.1992 314.356 32.5252 315.869 30.0576C317.394 27.59 317.034 25.3704 315.906 24.1552C314.753 22.9028 312.793 22.9276 311.615 24.1552L310.425 25.42Z" stroke="#4E5A7D" stroke-miterlimit="10" stroke-linecap="round" stroke-linejoin="round"/>
<path d="M249.417 29.1152C249.417 29.1152 252.703 22.7044 257.415 21.4396C258.184 21.2288 259.796 20.9932 261.036 21.9356C262.375 22.9648 262.871 25.1224 262.028 26.6848C260.788 28.9664 257.13 29.0532 256.076 27.8628C255.691 27.4288 255.704 26.8832 255.716 26.7468C255.741 25.482 257.217 24.242 258.506 24.428C259.25 24.5396 259.721 25.0976 259.771 25.1472C260.713 26.3004 260.329 28.5448 258.866 30.7892" stroke="#4E5A7D" stroke-miterlimit="10" stroke-linecap="round" stroke-linejoin="round"/>
<path d="M250.198 29.4004L248.599 28.6564C248.301 28.52 247.904 28.7556 247.706 29.1772C247.508 29.5988 247.594 30.0576 247.88 30.194L247.979 30.2436L246.602 32.7236C246.193 33.4552 246.305 34.2984 246.838 34.5464C247.371 34.7944 248.09 34.3232 248.376 33.542L249.38 30.8884L249.479 30.938C249.777 31.0744 250.174 30.8388 250.372 30.4172C250.583 29.9956 250.496 29.5492 250.198 29.4004Z" fill="white"/>
<path d="M250.198 29.4004L248.599 28.6564C248.301 28.52 247.904 28.7556 247.706 29.1772C247.508 29.5988 247.594 30.0576 247.88 30.194L247.979 30.2436L246.602 32.7236C246.193 33.4552 246.305 34.2984 246.838 34.5464C247.371 34.7944 248.09 34.3232 248.376 33.542L249.38 30.8884L249.479 30.938C249.777 31.0744 250.174 30.8388 250.372 30.4172C250.583 29.9956 250.496 29.5492 250.198 29.4004Z" stroke="#4E5A7D" stroke-miterlimit="10" stroke-linecap="round" stroke-linejoin="round"/>
<path d="M259.783 30.566L258.097 30.0452C257.787 29.946 257.427 30.2312 257.291 30.6776C257.154 31.124 257.291 31.5704 257.613 31.6572L257.712 31.6944L256.696 34.3356C256.398 35.1168 256.621 35.9352 257.179 36.1088C257.737 36.2824 258.382 35.7244 258.568 34.906L259.2 32.1408L259.3 32.178C259.61 32.2772 259.969 31.992 260.106 31.5456C260.242 31.0992 260.093 30.6652 259.783 30.566Z" fill="white"/>
<path d="M259.783 30.566L258.097 30.0452C257.787 29.946 257.427 30.2312 257.291 30.6776C257.154 31.124 257.291 31.5704 257.613 31.6572L257.712 31.6944L256.696 34.3356C256.398 35.1168 256.621 35.9352 257.179 36.1088C257.737 36.2824 258.382 35.7244 258.568 34.906L259.2 32.1408L259.3 32.178C259.61 32.2772 259.969 31.992 260.106 31.5456C260.242 31.0992 260.093 30.6652 259.783 30.566Z" stroke="#4E5A7D" stroke-miterlimit="10" stroke-linecap="round" stroke-linejoin="round"/>
<path d="M288.626 16.1076H289.531" stroke="white" stroke-miterlimit="10" stroke-linecap="round" stroke-linejoin="round"/>
<path d="M288.006 15.1776L288.626 14.3344" stroke="white" stroke-miterlimit="10" stroke-linecap="round" stroke-linejoin="round"/>
<path d="M288.44 15.562L289.37 14.9792" stroke="white" stroke-miterlimit="10" stroke-linecap="round" stroke-linejoin="round"/>
<path d="M260.962 31.31H261.718" stroke="white" stroke-miterlimit="10" stroke-linecap="round" stroke-linejoin="round"/>
<path d="M260.453 30.5412L260.962 29.8468" stroke="white" stroke-miterlimit="10" stroke-linecap="round" stroke-linejoin="round"/>
<path d="M260.813 30.8636L261.582 30.38" stroke="white" stroke-miterlimit="10" stroke-linecap="round" stroke-linejoin="round"/>
<path d="M252.79 48.3228L253.633 48.0872" stroke="white" stroke-miterlimit="10" stroke-linecap="round" stroke-linejoin="round"/>
<path d="M251.971 47.6284L252.331 46.686" stroke="white" stroke-miterlimit="10" stroke-linecap="round" stroke-linejoin="round"/>
<path d="M252.468 47.8764L253.187 47.0952" stroke="white" stroke-miterlimit="10" stroke-linecap="round" stroke-linejoin="round"/>
<path d="M236.645 56.978L236.435 57.8212" stroke="white" stroke-miterlimit="10" stroke-linecap="round" stroke-linejoin="round"/>
<path d="M235.926 56.1844L234.996 56.5688" stroke="white" stroke-miterlimit="10" stroke-linecap="round" stroke-linejoin="round"/>
<path d="M236.186 56.668L235.43 57.412" stroke="white" stroke-miterlimit="10" stroke-linecap="round" stroke-linejoin="round"/>
<path d="M251.277 29.8468H252.158" stroke="white" stroke-miterlimit="10" stroke-linecap="round" stroke-linejoin="round"/>
<path d="M250.682 28.954L251.277 28.1356" stroke="white" stroke-miterlimit="10" stroke-linecap="round" stroke-linejoin="round"/>
<path d="M251.091 29.326L251.996 28.7556" stroke="white" stroke-miterlimit="10" stroke-linecap="round" stroke-linejoin="round"/>
<path d="M310.946 23.4112L311.368 22.5804" stroke="white" stroke-miterlimit="10" stroke-linecap="round" stroke-linejoin="round"/>
<path d="M310.004 23.5352L309.557 22.5804" stroke="white" stroke-miterlimit="10" stroke-linecap="round" stroke-linejoin="round"/>
<path d="M310.425 23.4112V22.0844" stroke="white" stroke-miterlimit="10" stroke-linecap="round" stroke-linejoin="round"/>
<path d="M258.345 22.1092C258.345 22.1092 259.437 21.576 260.441 22.5928" stroke="white" stroke-miterlimit="10" stroke-linecap="round" stroke-linejoin="round"/>
<path d="M247.222 105.09H306.743" stroke="#4E5A7D" stroke-miterlimit="10" stroke-linecap="round" stroke-linejoin="round"/>
<path d="M310.152 105.09H314.43" stroke="#4E5A7D" stroke-miterlimit="10" stroke-linecap="round" stroke-linejoin="round"/>
<path d="M330.117 58.8008C332.383 58.8008 334.221 56.9632 334.221 54.6964C334.221 52.4296 332.383 50.592 330.117 50.592C327.85 50.592 326.012 52.4296 326.012 54.6964C326.012 56.9632 327.85 58.8008 330.117 58.8008Z" fill="white"/>
<path d="M328.604 55.366C325.367 55.5148 322.119 55.5148 318.87 55.366C317.741 55.3164 316.836 54.3864 316.836 53.258V45.9916C316.836 44.8508 317.729 43.9332 318.87 43.8836C322.106 43.7348 325.355 43.7348 328.604 43.8836C329.732 43.9332 330.637 44.8632 330.637 45.9916V53.258C330.637 54.3864 329.732 55.3164 328.604 55.366Z" fill="white"/>
<path d="M328.604 55.366C325.367 55.5148 322.119 55.5148 318.87 55.366C317.741 55.3164 316.836 54.3864 316.836 53.258V45.9916C316.836 44.8508 317.729 43.9332 318.87 43.8836C322.106 43.7348 325.355 43.7348 328.604 43.8836C329.732 43.9332 330.637 44.8632 330.637 45.9916V53.258C330.637 54.3864 329.732 55.3164 328.604 55.366Z" stroke="#4E5A7D" stroke-miterlimit="10" stroke-linecap="round" stroke-linejoin="round"/>
<path d="M318.721 51.8569L321.672 48.0501L325.169 50.5673L328.678 47.2317" stroke="#4E5A7D" stroke-miterlimit="10" stroke-linecap="round" stroke-linejoin="round"/>
<path d="M318.721 52.6752C319.125 52.6752 319.452 52.3476 319.452 51.9436C319.452 51.5395 319.125 51.212 318.721 51.212C318.317 51.212 317.989 51.5395 317.989 51.9436C317.989 52.3476 318.317 52.6752 318.721 52.6752Z" fill="white"/>
<path d="M318.721 52.6752C319.125 52.6752 319.452 52.3476 319.452 51.9436C319.452 51.5395 319.125 51.212 318.721 51.212C318.317 51.212 317.989 51.5395 317.989 51.9436C317.989 52.3476 318.317 52.6752 318.721 52.6752Z" stroke="#4E5A7D" stroke-miterlimit="10" stroke-linecap="round" stroke-linejoin="round"/>
<path d="M321.734 48.8933C322.193 48.8933 322.565 48.5213 322.565 48.0625C322.565 47.6036 322.193 47.2317 321.734 47.2317C321.275 47.2317 320.903 47.6036 320.903 48.0625C320.903 48.5213 321.275 48.8933 321.734 48.8933Z" fill="white"/>
<path d="M321.734 48.8933C322.193 48.8933 322.565 48.5213 322.565 48.0625C322.565 47.6036 322.193 47.2317 321.734 47.2317C321.275 47.2317 320.903 47.6036 320.903 48.0625C320.903 48.5213 321.275 48.8933 321.734 48.8933Z" stroke="#4E5A7D" stroke-miterlimit="10" stroke-linecap="round" stroke-linejoin="round"/>
<path d="M325.157 51.2121C325.656 51.2121 326.062 50.8068 326.062 50.3069C326.062 49.8069 325.656 49.4017 325.157 49.4017C324.657 49.4017 324.251 49.8069 324.251 50.3069C324.251 50.8068 324.657 51.2121 325.157 51.2121Z" fill="white"/>
<path d="M325.157 51.2121C325.656 51.2121 326.062 50.8068 326.062 50.3069C326.062 49.8069 325.656 49.4017 325.157 49.4017C324.657 49.4017 324.251 49.8069 324.251 50.3069C324.251 50.8068 324.657 51.2121 325.157 51.2121Z" stroke="#4E5A7D" stroke-miterlimit="10" stroke-linecap="round" stroke-linejoin="round"/>
<path d="M328.827 47.9384C329.327 47.9384 329.732 47.5331 329.732 47.0332C329.732 46.5333 329.327 46.128 328.827 46.128C328.327 46.128 327.922 46.5333 327.922 47.0332C327.922 47.5331 328.327 47.9384 328.827 47.9384Z" fill="white"/>
<path d="M328.827 47.9384C329.327 47.9384 329.732 47.5331 329.732 47.0332C329.732 46.5333 329.327 46.128 328.827 46.128C328.327 46.128 327.922 46.5333 327.922 47.0332C327.922 47.5331 328.327 47.9384 328.827 47.9384Z" stroke="#4E5A7D" stroke-miterlimit="10" stroke-linecap="round" stroke-linejoin="round"/>
<path d="M330.29 58.5156C332.557 58.5156 334.395 56.678 334.395 54.4112C334.395 52.1444 332.557 50.3068 330.29 50.3068C328.023 50.3068 326.186 52.1444 326.186 54.4112C326.186 56.678 328.023 58.5156 330.29 58.5156Z" fill="white"/>
<path d="M330.29 58.5156C332.557 58.5156 334.395 56.678 334.395 54.4112C334.395 52.1444 332.557 50.3068 330.29 50.3068C328.023 50.3068 326.186 52.1444 326.186 54.4112C326.186 56.678 328.023 58.5156 330.29 58.5156Z" stroke="#4E5A7D" stroke-miterlimit="10" stroke-linecap="round" stroke-linejoin="round"/>
<path d="M331.989 52.08C332.708 52.6008 333.167 53.444 333.167 54.3988C333.167 55.986 331.877 57.2756 330.29 57.2756C328.703 57.2756 327.413 55.9984 327.413 54.4112C327.413 54.1632 327.45 53.9152 327.512 53.6796" stroke="#4E5A7D" stroke-miterlimit="10" stroke-linecap="round" stroke-linejoin="round"/>
<path d="M331.481 53.196C331.592 53.3076 331.691 53.4316 331.766 53.5804C332.225 54.3988 331.927 55.4404 331.109 55.8868C330.699 56.11 330.228 56.1596 329.819 56.0356" stroke="#4E5A7D" stroke-miterlimit="10" stroke-linecap="round" stroke-linejoin="round"/>
</g>
<path d="M27.632 194.6H23.996V203H25.94V200.684H27.632C29.876 200.684 31.28 199.52 31.28 197.648C31.28 195.764 29.876 194.6 27.632 194.6ZM27.524 199.1H25.94V196.184H27.524C28.712 196.184 29.312 196.724 29.312 197.648C29.312 198.56 28.712 199.1 27.524 199.1ZM34.3239 197.396V196.544H32.5359V203H34.4079V199.952C34.4079 198.716 35.0919 198.152 36.1239 198.152C36.2679 198.152 36.3879 198.164 36.5439 198.176V196.448C35.5479 196.448 34.7799 196.772 34.3239 197.396ZM39.5544 195.716H41.0184L43.1904 193.988H41.1744L39.5544 195.716ZM40.6704 203.096C42.7224 203.096 44.2104 201.716 44.2104 199.772C44.2104 197.828 42.7224 196.448 40.6704 196.448C38.6184 196.448 37.1184 197.828 37.1184 199.772C37.1184 201.716 38.6184 203.096 40.6704 203.096ZM40.6704 201.56C39.7344 201.56 39.0144 200.888 39.0144 199.772C39.0144 198.656 39.7344 197.984 40.6704 197.984C41.6064 197.984 42.3144 198.656 42.3144 199.772C42.3144 200.888 41.6064 201.56 40.6704 201.56ZM51.4904 203L48.9944 199.7L51.3944 196.544H49.4024L47.9984 198.428L46.6304 196.544H44.5304L46.9304 199.748L44.4464 203H46.4864L47.9504 201.02L49.3664 203H51.4904ZM53.3352 195.644C54.0312 195.644 54.4992 195.188 54.4992 194.564C54.4992 193.988 54.0312 193.556 53.3352 193.556C52.6392 193.556 52.1712 194.012 52.1712 194.6C52.1712 195.188 52.6392 195.644 53.3352 195.644ZM52.3992 203H54.2712V196.544H52.3992V203ZM64.2765 196.448C63.3045 196.448 62.4645 196.844 61.9485 197.504C61.4925 196.796 60.7245 196.448 59.8245 196.448C58.9965 196.448 58.2765 196.736 57.7965 197.288V196.544H56.0085V203H57.8805V199.76C57.8805 198.608 58.4685 198.068 59.2965 198.068C60.0765 198.068 60.5205 198.548 60.5205 199.592V203H62.3925V199.76C62.3925 198.608 62.9805 198.068 63.8205 198.068C64.5765 198.068 65.0445 198.548 65.0445 199.592V203H66.9165V199.304C66.9165 197.336 65.8125 196.448 64.2765 196.448ZM71.1985 196.448C70.1665 196.448 69.1225 196.724 68.4145 197.228L69.0865 198.536C69.5545 198.164 70.2625 197.936 70.9465 197.936C71.9545 197.936 72.4345 198.404 72.4345 199.208H70.9465C68.9785 199.208 68.1745 200 68.1745 201.14C68.1745 202.256 69.0745 203.096 70.5865 203.096C71.5345 203.096 72.2065 202.784 72.5545 202.196V203H74.3065V199.316C74.3065 197.36 73.1665 196.448 71.1985 196.448ZM71.0545 201.836C70.3945 201.836 69.9985 201.524 69.9985 201.056C69.9985 200.624 70.2745 200.3 71.1505 200.3H72.4345V200.96C72.2185 201.548 71.6785 201.836 71.0545 201.836ZM84.2687 196.448C83.2967 196.448 82.4567 196.844 81.9407 197.504C81.4847 196.796 80.7167 196.448 79.8167 196.448C78.9887 196.448 78.2687 196.736 77.7887 197.288V196.544H76.0007V203H77.8727V199.76C77.8727 198.608 78.4607 198.068 79.2887 198.068C80.0687 198.068 80.5127 198.548 80.5127 199.592V203H82.3847V199.76C82.3847 198.608 82.9727 198.068 83.8127 198.068C84.5687 198.068 85.0367 198.548 85.0367 199.592V203H86.9087V199.304C86.9087 197.336 85.8047 196.448 84.2687 196.448ZM94.981 199.796C94.981 197.72 93.517 196.448 91.621 196.448C89.653 196.448 88.177 197.84 88.177 199.772C88.177 201.692 89.629 203.096 91.861 203.096C93.025 203.096 93.925 202.736 94.525 202.052L93.529 200.972C93.085 201.392 92.593 201.596 91.909 201.596C90.925 201.596 90.241 201.104 90.061 200.3H94.945C94.957 200.144 94.981 199.94 94.981 199.796ZM91.633 197.864C92.473 197.864 93.085 198.392 93.217 199.208H90.037C90.169 198.38 90.781 197.864 91.633 197.864ZM100.151 196.448C99.2753 196.448 98.5193 196.748 98.0153 197.3V196.544H96.2273V203H98.0993V199.808C98.0993 198.62 98.7473 198.068 99.6473 198.068C100.475 198.068 100.955 198.548 100.955 199.592V203H102.827V199.304C102.827 197.336 101.675 196.448 100.151 196.448ZM108.184 201.368C107.98 201.524 107.704 201.608 107.428 201.608C106.924 201.608 106.624 201.308 106.624 200.756V198.128H108.232V196.688H106.624V195.116H104.752V196.688H103.756V198.128H104.752V200.78C104.752 202.316 105.64 203.096 107.164 203.096C107.74 203.096 108.304 202.964 108.688 202.688L108.184 201.368ZM115.864 199.796C115.864 197.72 114.4 196.448 112.504 196.448C110.536 196.448 109.06 197.84 109.06 199.772C109.06 201.692 110.512 203.096 112.744 203.096C113.908 203.096 114.808 202.736 115.408 202.052L114.412 200.972C113.968 201.392 113.476 201.596 112.792 201.596C111.808 201.596 111.124 201.104 110.944 200.3H115.828C115.84 200.144 115.864 199.94 115.864 199.796ZM112.516 197.864C113.356 197.864 113.968 198.392 114.1 199.208H110.92C111.052 198.38 111.664 197.864 112.516 197.864ZM117.242 200.084H118.73L119.102 194.6H116.87L117.242 200.084ZM117.986 203.096C118.658 203.096 119.138 202.604 119.138 202.004C119.138 201.392 118.658 200.936 117.986 200.936C117.314 200.936 116.834 201.392 116.834 202.004C116.834 202.604 117.314 203.096 117.986 203.096ZM120.711 200.084H122.199L122.571 194.6H120.339L120.711 200.084ZM121.455 203.096C122.127 203.096 122.607 202.604 122.607 202.004C122.607 201.392 122.127 200.936 121.455 200.936C120.783 200.936 120.303 201.392 120.303 202.004C120.303 202.604 120.783 203.096 121.455 203.096Z" fill="#2F6EB8"/>
<defs>
<filter id="filter0_d" x="0" y="10" width="347" height="231" filterUnits="userSpaceOnUse" color-interpolation-filters="sRGB">
<feFlood flood-opacity="0" result="BackgroundImageFix"/>
<feColorMatrix in="SourceAlpha" type="matrix" values="0 0 0 0 0 0 0 0 0 0 0 0 0 0 0 0 0 0 127 0"/>
<feOffset dy="4"/>
<feGaussianBlur stdDeviation="2"/>
<feColorMatrix type="matrix" values="0 0 0 0 0 0 0 0 0 0 0 0 0 0 0 0 0 0 0.08 0"/>
<feBlend mode="normal" in2="BackgroundImageFix" result="effect1_dropShadow"/>
<feBlend mode="normal" in="SourceGraphic" in2="effect1_dropShadow" result="shape"/>
</filter>
<clipPath id="clip0">
<rect width="124" height="124" fill="white" transform="translate(219)"/>
</clipPath>
</defs>
</svg>
