<svg width="348" height="231" viewBox="0 0 348 231" fill="none" xmlns="http://www.w3.org/2000/svg">
<g filter="url(#filter0_d)">
<rect x="4" width="340" height="223" rx="20" fill="#E5F3FC"/>
</g>
<path d="M37.212 106.4L31.722 119H29.418L23.91 106.4H26.448L30.642 116.12L34.872 106.4H37.212ZM46.6409 114.248C46.6409 114.404 46.6289 114.626 46.6049 114.914H39.0629C39.1949 115.622 39.5369 116.186 40.0889 116.606C40.6529 117.014 41.3489 117.218 42.1769 117.218C43.2329 117.218 44.1029 116.87 44.7869 116.174L45.9929 117.56C45.5609 118.076 45.0149 118.466 44.3549 118.73C43.6949 118.994 42.9509 119.126 42.1229 119.126C41.0669 119.126 40.1369 118.916 39.3329 118.496C38.5289 118.076 37.9049 117.494 37.4609 116.75C37.0289 115.994 36.8129 115.142 36.8129 114.194C36.8129 113.258 37.0229 112.418 37.4429 111.674C37.8749 110.918 38.4689 110.33 39.2249 109.91C39.9809 109.49 40.8329 109.28 41.7809 109.28C42.7169 109.28 43.5509 109.49 44.2829 109.91C45.0269 110.318 45.6029 110.9 46.0109 111.656C46.4309 112.4 46.6409 113.264 46.6409 114.248ZM41.7809 111.08C41.0609 111.08 40.4489 111.296 39.9449 111.728C39.4529 112.148 39.1529 112.712 39.0449 113.42H44.4989C44.4029 112.724 44.1089 112.16 43.6169 111.728C43.1249 111.296 42.5129 111.08 41.7809 111.08ZM54.2562 109.28C55.4682 109.28 56.4402 109.634 57.1722 110.342C57.9042 111.05 58.2702 112.1 58.2702 113.492V119H56.0202V113.78C56.0202 112.94 55.8222 112.31 55.4262 111.89C55.0302 111.458 54.4662 111.242 53.7342 111.242C52.9062 111.242 52.2522 111.494 51.7722 111.998C51.2922 112.49 51.0522 113.204 51.0522 114.14V119H48.8022V109.388H50.9442V110.63C51.3162 110.186 51.7842 109.85 52.3482 109.622C52.9122 109.394 53.5482 109.28 54.2562 109.28ZM70.4304 109.388V119H68.2884V117.776C67.9284 118.208 67.4784 118.544 66.9384 118.784C66.3984 119.012 65.8164 119.126 65.1924 119.126C63.9084 119.126 62.8944 118.772 62.1504 118.064C61.4184 117.344 61.0524 116.282 61.0524 114.878V109.388H63.3024V114.572C63.3024 115.436 63.4944 116.084 63.8784 116.516C64.2744 116.936 64.8324 117.146 65.5524 117.146C66.3564 117.146 66.9924 116.9 67.4604 116.408C67.9404 115.904 68.1804 115.184 68.1804 114.248V109.388H70.4304ZM82.4124 114.248C82.4124 114.404 82.4004 114.626 82.3764 114.914H74.8344C74.9664 115.622 75.3084 116.186 75.8604 116.606C76.4244 117.014 77.1204 117.218 77.9484 117.218C79.0044 117.218 79.8744 116.87 80.5584 116.174L81.7644 117.56C81.3324 118.076 80.7864 118.466 80.1264 118.73C79.4664 118.994 78.7224 119.126 77.8944 119.126C76.8384 119.126 75.9084 118.916 75.1044 118.496C74.3004 118.076 73.6764 117.494 73.2324 116.75C72.8004 115.994 72.5844 115.142 72.5844 114.194C72.5844 113.258 72.7944 112.418 73.2144 111.674C73.6464 110.918 74.2404 110.33 74.9964 109.91C75.7524 109.49 76.6044 109.28 77.5524 109.28C78.4884 109.28 79.3224 109.49 80.0544 109.91C80.7984 110.318 81.3744 110.9 81.7824 111.656C82.2024 112.4 82.4124 113.264 82.4124 114.248ZM77.5524 111.08C76.8324 111.08 76.2204 111.296 75.7164 111.728C75.2244 112.148 74.9244 112.712 74.8164 113.42H80.2704C80.1744 112.724 79.8804 112.16 79.3884 111.728C78.8964 111.296 78.2844 111.08 77.5524 111.08ZM87.5437 119.126C86.7637 119.126 86.0017 119.024 85.2577 118.82C84.5137 118.616 83.9197 118.358 83.4757 118.046L84.3397 116.336C84.7717 116.624 85.2877 116.858 85.8877 117.038C86.4997 117.206 87.0997 117.29 87.6877 117.29C89.0317 117.29 89.7037 116.936 89.7037 116.228C89.7037 115.892 89.5297 115.658 89.1817 115.526C88.8457 115.394 88.2997 115.268 87.5437 115.148C86.7517 115.028 86.1037 114.89 85.5997 114.734C85.1077 114.578 84.6757 114.308 84.3037 113.924C83.9437 113.528 83.7637 112.982 83.7637 112.286C83.7637 111.374 84.1417 110.648 84.8977 110.108C85.6657 109.556 86.6977 109.28 87.9937 109.28C88.6537 109.28 89.3137 109.358 89.9737 109.514C90.6337 109.658 91.1737 109.856 91.5937 110.108L90.7297 111.818C89.9137 111.338 88.9957 111.098 87.9757 111.098C87.3157 111.098 86.8117 111.2 86.4637 111.404C86.1277 111.596 85.9597 111.854 85.9597 112.178C85.9597 112.538 86.1397 112.796 86.4997 112.952C86.8717 113.096 87.4417 113.234 88.2097 113.366C88.9777 113.486 89.6077 113.624 90.0997 113.78C90.5917 113.936 91.0117 114.2 91.3597 114.572C91.7197 114.944 91.8997 115.472 91.8997 116.156C91.8997 117.056 91.5097 117.776 90.7297 118.316C89.9497 118.856 88.8877 119.126 87.5437 119.126Z" fill="#3E3E3E"/>
<rect x="210.424" y="41.3487" width="84.837" height="84.837" rx="20" transform="rotate(-15 210.424 41.3487)" fill="#E1E4F4"/>
<path d="M29.016 150.072C28.184 150.072 27.432 149.888 26.76 149.52C26.096 149.152 25.572 148.644 25.188 147.996C24.812 147.34 24.624 146.608 24.624 145.8C24.624 144.992 24.812 144.264 25.188 143.616C25.572 142.96 26.1 142.448 26.772 142.08C27.444 141.712 28.196 141.528 29.028 141.528C29.652 141.528 30.228 141.632 30.756 141.84C31.284 142.048 31.732 142.352 32.1 142.752L31.536 143.316C30.88 142.652 30.052 142.32 29.052 142.32C28.388 142.32 27.784 142.472 27.24 142.776C26.696 143.08 26.268 143.496 25.956 144.024C25.652 144.552 25.5 145.144 25.5 145.8C25.5 146.456 25.652 147.048 25.956 147.576C26.268 148.104 26.696 148.52 27.24 148.824C27.784 149.128 28.388 149.28 29.052 149.28C30.06 149.28 30.888 148.944 31.536 148.272L32.1 148.836C31.732 149.236 31.28 149.544 30.744 149.76C30.216 149.968 29.64 150.072 29.016 150.072ZM36.1118 150.06C35.5038 150.06 34.9558 149.924 34.4678 149.652C33.9798 149.372 33.5958 148.988 33.3158 148.5C33.0358 148.012 32.8958 147.46 32.8958 146.844C32.8958 146.228 33.0358 145.676 33.3158 145.188C33.5958 144.7 33.9798 144.32 34.4678 144.048C34.9558 143.776 35.5038 143.64 36.1118 143.64C36.7198 143.64 37.2678 143.776 37.7558 144.048C38.2438 144.32 38.6238 144.7 38.8958 145.188C39.1758 145.676 39.3158 146.228 39.3158 146.844C39.3158 147.46 39.1758 148.012 38.8958 148.5C38.6238 148.988 38.2438 149.372 37.7558 149.652C37.2678 149.924 36.7198 150.06 36.1118 150.06ZM36.1118 149.304C36.5598 149.304 36.9598 149.204 37.3118 149.004C37.6718 148.796 37.9518 148.504 38.1518 148.128C38.3518 147.752 38.4518 147.324 38.4518 146.844C38.4518 146.364 38.3518 145.936 38.1518 145.56C37.9518 145.184 37.6718 144.896 37.3118 144.696C36.9598 144.488 36.5598 144.384 36.1118 144.384C35.6638 144.384 35.2598 144.488 34.8998 144.696C34.5478 144.896 34.2678 145.184 34.0598 145.56C33.8598 145.936 33.7598 146.364 33.7598 146.844C33.7598 147.324 33.8598 147.752 34.0598 148.128C34.2678 148.504 34.5478 148.796 34.8998 149.004C35.2598 149.204 35.6638 149.304 36.1118 149.304ZM44.2712 143.64C45.0632 143.64 45.6912 143.872 46.1552 144.336C46.6272 144.792 46.8632 145.46 46.8632 146.34V150H46.0112V146.424C46.0112 145.768 45.8472 145.268 45.5192 144.924C45.1912 144.58 44.7232 144.408 44.1152 144.408C43.4352 144.408 42.8952 144.612 42.4952 145.02C42.1032 145.42 41.9072 145.976 41.9072 146.688V150H41.0552V143.688H41.8712V144.852C42.1032 144.468 42.4232 144.172 42.8312 143.964C43.2472 143.748 43.7272 143.64 44.2712 143.64ZM51.7797 150.06C51.1717 150.06 50.6237 149.924 50.1357 149.652C49.6477 149.372 49.2637 148.988 48.9837 148.5C48.7037 148.012 48.5637 147.46 48.5637 146.844C48.5637 146.228 48.7037 145.676 48.9837 145.188C49.2637 144.7 49.6477 144.32 50.1357 144.048C50.6237 143.776 51.1717 143.64 51.7797 143.64C52.3877 143.64 52.9357 143.776 53.4237 144.048C53.9117 144.32 54.2917 144.7 54.5637 145.188C54.8437 145.676 54.9837 146.228 54.9837 146.844C54.9837 147.46 54.8437 148.012 54.5637 148.5C54.2917 148.988 53.9117 149.372 53.4237 149.652C52.9357 149.924 52.3877 150.06 51.7797 150.06ZM51.7797 149.304C52.2277 149.304 52.6277 149.204 52.9797 149.004C53.3397 148.796 53.6197 148.504 53.8197 148.128C54.0197 147.752 54.1197 147.324 54.1197 146.844C54.1197 146.364 54.0197 145.936 53.8197 145.56C53.6197 145.184 53.3397 144.896 52.9797 144.696C52.6277 144.488 52.2277 144.384 51.7797 144.384C51.3317 144.384 50.9277 144.488 50.5677 144.696C50.2157 144.896 49.9357 145.184 49.7277 145.56C49.5277 145.936 49.4277 146.364 49.4277 146.844C49.4277 147.324 49.5277 147.752 49.7277 148.128C49.9357 148.504 50.2157 148.796 50.5677 149.004C50.9277 149.204 51.3317 149.304 51.7797 149.304ZM59.3392 150.06C58.7152 150.06 58.1552 149.924 57.6592 149.652C57.1712 149.38 56.7872 149 56.5072 148.512C56.2272 148.016 56.0872 147.46 56.0872 146.844C56.0872 146.228 56.2272 145.676 56.5072 145.188C56.7872 144.7 57.1712 144.32 57.6592 144.048C58.1552 143.776 58.7152 143.64 59.3392 143.64C59.8832 143.64 60.3672 143.748 60.7912 143.964C61.2232 144.172 61.5632 144.48 61.8112 144.888L61.1752 145.32C60.9672 145.008 60.7032 144.776 60.3832 144.624C60.0632 144.464 59.7152 144.384 59.3392 144.384C58.8832 144.384 58.4712 144.488 58.1032 144.696C57.7432 144.896 57.4592 145.184 57.2512 145.56C57.0512 145.936 56.9512 146.364 56.9512 146.844C56.9512 147.332 57.0512 147.764 57.2512 148.14C57.4592 148.508 57.7432 148.796 58.1032 149.004C58.4712 149.204 58.8832 149.304 59.3392 149.304C59.7152 149.304 60.0632 149.228 60.3832 149.076C60.7032 148.924 60.9672 148.692 61.1752 148.38L61.8112 148.812C61.5632 149.22 61.2232 149.532 60.7912 149.748C60.3592 149.956 59.8752 150.06 59.3392 150.06ZM68.8754 147.108H63.5954C63.6434 147.764 63.8954 148.296 64.3514 148.704C64.8074 149.104 65.3834 149.304 66.0794 149.304C66.4714 149.304 66.8314 149.236 67.1594 149.1C67.4874 148.956 67.7714 148.748 68.0114 148.476L68.4914 149.028C68.2114 149.364 67.8594 149.62 67.4354 149.796C67.0194 149.972 66.5594 150.06 66.0554 150.06C65.4074 150.06 64.8314 149.924 64.3274 149.652C63.8314 149.372 63.4434 148.988 63.1634 148.5C62.8834 148.012 62.7434 147.46 62.7434 146.844C62.7434 146.228 62.8754 145.676 63.1394 145.188C63.4114 144.7 63.7794 144.32 64.2434 144.048C64.7154 143.776 65.2434 143.64 65.8274 143.64C66.4114 143.64 66.9354 143.776 67.3994 144.048C67.8634 144.32 68.2274 144.7 68.4914 145.188C68.7554 145.668 68.8874 146.22 68.8874 146.844L68.8754 147.108ZM65.8274 144.372C65.2194 144.372 64.7074 144.568 64.2914 144.96C63.8834 145.344 63.6514 145.848 63.5954 146.472H68.0714C68.0154 145.848 67.7794 145.344 67.3634 144.96C66.9554 144.568 66.4434 144.372 65.8274 144.372ZM79.2582 147.108H73.9782C74.0262 147.764 74.2782 148.296 74.7342 148.704C75.1902 149.104 75.7662 149.304 76.4622 149.304C76.8542 149.304 77.2142 149.236 77.5422 149.1C77.8702 148.956 78.1542 148.748 78.3942 148.476L78.8742 149.028C78.5942 149.364 78.2422 149.62 77.8182 149.796C77.4022 149.972 76.9422 150.06 76.4382 150.06C75.7902 150.06 75.2142 149.924 74.7102 149.652C74.2142 149.372 73.8262 148.988 73.5462 148.5C73.2662 148.012 73.1262 147.46 73.1262 146.844C73.1262 146.228 73.2582 145.676 73.5222 145.188C73.7942 144.7 74.1622 144.32 74.6262 144.048C75.0982 143.776 75.6262 143.64 76.2102 143.64C76.7942 143.64 77.3182 143.776 77.7822 144.048C78.2462 144.32 78.6102 144.7 78.8742 145.188C79.1382 145.668 79.2702 146.22 79.2702 146.844L79.2582 147.108ZM76.2102 144.372C75.6022 144.372 75.0902 144.568 74.6742 144.96C74.2662 145.344 74.0342 145.848 73.9782 146.472H78.4542C78.3982 145.848 78.1622 145.344 77.7462 144.96C77.3382 144.568 76.8262 144.372 76.2102 144.372ZM81.0044 141.096H81.8564V150H81.0044V141.096ZM89.4557 141.756C89.0877 141.756 88.8077 141.856 88.6157 142.056C88.4317 142.256 88.3397 142.552 88.3397 142.944V143.688H90.2837V144.408H88.3637V150H87.5117V144.408H86.3837V143.688H87.5117V142.908C87.5117 142.332 87.6757 141.876 88.0037 141.54C88.3397 141.204 88.8117 141.036 89.4197 141.036C89.6597 141.036 89.8917 141.072 90.1157 141.144C90.3397 141.208 90.5277 141.304 90.6797 141.432L90.3917 142.068C90.1437 141.86 89.8317 141.756 89.4557 141.756ZM91.4357 141.096H92.2877V150H91.4357V141.096ZM100.356 143.688V150H99.5405V148.848C99.3165 149.232 99.0085 149.532 98.6165 149.748C98.2245 149.956 97.7765 150.06 97.2725 150.06C96.4485 150.06 95.7965 149.832 95.3165 149.376C94.8445 148.912 94.6085 148.236 94.6085 147.348V143.688H95.4605V147.264C95.4605 147.928 95.6245 148.432 95.9525 148.776C96.2805 149.12 96.7485 149.292 97.3565 149.292C98.0205 149.292 98.5445 149.092 98.9285 148.692C99.3125 148.284 99.5045 147.72 99.5045 147V143.688H100.356ZM101.807 152.388C101.543 152.388 101.295 152.352 101.063 152.28C100.823 152.216 100.627 152.116 100.475 151.98L100.775 151.332C101.023 151.548 101.351 151.656 101.759 151.656C102.095 151.656 102.351 151.556 102.527 151.356C102.711 151.156 102.803 150.86 102.803 150.468V143.688H103.655V150.468C103.655 151.06 103.495 151.528 103.175 151.872C102.855 152.216 102.399 152.388 101.807 152.388ZM103.235 142.296C103.059 142.296 102.911 142.236 102.791 142.116C102.671 141.996 102.611 141.852 102.611 141.684C102.611 141.524 102.671 141.384 102.791 141.264C102.911 141.144 103.059 141.084 103.235 141.084C103.411 141.084 103.559 141.144 103.679 141.264C103.799 141.376 103.859 141.512 103.859 141.672C103.859 141.848 103.799 141.996 103.679 142.116C103.559 142.236 103.411 142.296 103.235 142.296ZM108.616 150.06C108.008 150.06 107.46 149.924 106.972 149.652C106.484 149.372 106.1 148.988 105.82 148.5C105.54 148.012 105.4 147.46 105.4 146.844C105.4 146.228 105.54 145.676 105.82 145.188C106.1 144.7 106.484 144.32 106.972 144.048C107.46 143.776 108.008 143.64 108.616 143.64C109.224 143.64 109.772 143.776 110.26 144.048C110.748 144.32 111.128 144.7 111.4 145.188C111.68 145.676 111.82 146.228 111.82 146.844C111.82 147.46 111.68 148.012 111.4 148.5C111.128 148.988 110.748 149.372 110.26 149.652C109.772 149.924 109.224 150.06 108.616 150.06ZM108.616 149.304C109.064 149.304 109.464 149.204 109.816 149.004C110.176 148.796 110.456 148.504 110.656 148.128C110.856 147.752 110.956 147.324 110.956 146.844C110.956 146.364 110.856 145.936 110.656 145.56C110.456 145.184 110.176 144.896 109.816 144.696C109.464 144.488 109.064 144.384 108.616 144.384C108.168 144.384 107.764 144.488 107.404 144.696C107.052 144.896 106.772 145.184 106.564 145.56C106.364 145.936 106.264 146.364 106.264 146.844C106.264 147.324 106.364 147.752 106.564 148.128C106.772 148.504 107.052 148.796 107.404 149.004C107.764 149.204 108.168 149.304 108.616 149.304ZM122.46 141.096V150H121.644V148.752C121.388 149.176 121.048 149.5 120.624 149.724C120.208 149.948 119.736 150.06 119.208 150.06C118.616 150.06 118.08 149.924 117.6 149.652C117.12 149.38 116.744 149 116.472 148.512C116.2 148.024 116.064 147.468 116.064 146.844C116.064 146.22 116.2 145.664 116.472 145.176C116.744 144.688 117.12 144.312 117.6 144.048C118.08 143.776 118.616 143.64 119.208 143.64C119.72 143.64 120.18 143.748 120.588 143.964C121.004 144.172 121.344 144.48 121.608 144.888V141.096H122.46ZM119.28 149.304C119.72 149.304 120.116 149.204 120.468 149.004C120.828 148.796 121.108 148.504 121.308 148.128C121.516 147.752 121.62 147.324 121.62 146.844C121.62 146.364 121.516 145.936 121.308 145.56C121.108 145.184 120.828 144.896 120.468 144.696C120.116 144.488 119.72 144.384 119.28 144.384C118.832 144.384 118.428 144.488 118.068 144.696C117.716 144.896 117.436 145.184 117.228 145.56C117.028 145.936 116.928 146.364 116.928 146.844C116.928 147.324 117.028 147.752 117.228 148.128C117.436 148.504 117.716 148.796 118.068 149.004C118.428 149.204 118.832 149.304 119.28 149.304ZM130.329 147.108H125.049C125.097 147.764 125.349 148.296 125.805 148.704C126.261 149.104 126.837 149.304 127.533 149.304C127.925 149.304 128.285 149.236 128.613 149.1C128.941 148.956 129.225 148.748 129.465 148.476L129.945 149.028C129.665 149.364 129.313 149.62 128.889 149.796C128.473 149.972 128.013 150.06 127.509 150.06C126.861 150.06 126.285 149.924 125.781 149.652C125.285 149.372 124.897 148.988 124.617 148.5C124.337 148.012 124.197 147.46 124.197 146.844C124.197 146.228 124.329 145.676 124.593 145.188C124.865 144.7 125.233 144.32 125.697 144.048C126.169 143.776 126.697 143.64 127.281 143.64C127.865 143.64 128.389 143.776 128.853 144.048C129.317 144.32 129.681 144.7 129.945 145.188C130.209 145.668 130.341 146.22 130.341 146.844L130.329 147.108ZM127.281 144.372C126.673 144.372 126.161 144.568 125.745 144.96C125.337 145.344 125.105 145.848 125.049 146.472H129.525C129.469 145.848 129.233 145.344 128.817 144.96C128.409 144.568 127.897 144.372 127.281 144.372ZM138.467 143.64C139.059 143.64 139.595 143.776 140.075 144.048C140.555 144.312 140.931 144.688 141.203 145.176C141.475 145.664 141.611 146.22 141.611 146.844C141.611 147.476 141.475 148.036 141.203 148.524C140.931 149.012 140.555 149.392 140.075 149.664C139.603 149.928 139.067 150.06 138.467 150.06C137.955 150.06 137.491 149.956 137.075 149.748C136.667 149.532 136.331 149.22 136.067 148.812V152.328H135.215V143.688H136.031V144.936C136.287 144.52 136.623 144.2 137.039 143.976C137.463 143.752 137.939 143.64 138.467 143.64ZM138.407 149.304C138.847 149.304 139.247 149.204 139.607 149.004C139.967 148.796 140.247 148.504 140.447 148.128C140.655 147.752 140.759 147.324 140.759 146.844C140.759 146.364 140.655 145.94 140.447 145.572C140.247 145.196 139.967 144.904 139.607 144.696C139.247 144.488 138.847 144.384 138.407 144.384C137.959 144.384 137.555 144.488 137.195 144.696C136.843 144.904 136.563 145.196 136.355 145.572C136.155 145.94 136.055 146.364 136.055 146.844C136.055 147.324 136.155 147.752 136.355 148.128C136.563 148.504 136.843 148.796 137.195 149.004C137.555 149.204 137.959 149.304 138.407 149.304ZM148.844 147.108H143.564C143.612 147.764 143.864 148.296 144.32 148.704C144.776 149.104 145.352 149.304 146.048 149.304C146.44 149.304 146.8 149.236 147.128 149.1C147.456 148.956 147.74 148.748 147.98 148.476L148.46 149.028C148.18 149.364 147.828 149.62 147.404 149.796C146.988 149.972 146.528 150.06 146.024 150.06C145.376 150.06 144.8 149.924 144.296 149.652C143.8 149.372 143.412 148.988 143.132 148.5C142.852 148.012 142.712 147.46 142.712 146.844C142.712 146.228 142.844 145.676 143.108 145.188C143.38 144.7 143.748 144.32 144.212 144.048C144.684 143.776 145.212 143.64 145.796 143.64C146.38 143.64 146.904 143.776 147.368 144.048C147.832 144.32 148.196 144.7 148.46 145.188C148.724 145.668 148.856 146.22 148.856 146.844L148.844 147.108ZM145.796 144.372C145.188 144.372 144.676 144.568 144.26 144.96C143.852 145.344 143.62 145.848 143.564 146.472H148.04C147.984 145.848 147.748 145.344 147.332 144.96C146.924 144.568 146.412 144.372 145.796 144.372ZM151.406 144.924C151.606 144.5 151.902 144.18 152.294 143.964C152.694 143.748 153.186 143.64 153.77 143.64V144.468L153.566 144.456C152.902 144.456 152.382 144.66 152.006 145.068C151.63 145.476 151.442 146.048 151.442 146.784V150H150.59V143.688H151.406V144.924ZM157.052 150.06C156.54 150.06 156.048 149.988 155.576 149.844C155.112 149.692 154.748 149.504 154.484 149.28L154.868 148.608C155.132 148.816 155.464 148.988 155.864 149.124C156.264 149.252 156.68 149.316 157.112 149.316C157.688 149.316 158.112 149.228 158.384 149.052C158.664 148.868 158.804 148.612 158.804 148.284C158.804 148.052 158.728 147.872 158.576 147.744C158.424 147.608 158.232 147.508 158 147.444C157.768 147.372 157.46 147.304 157.076 147.24C156.564 147.144 156.152 147.048 155.84 146.952C155.528 146.848 155.26 146.676 155.036 146.436C154.82 146.196 154.712 145.864 154.712 145.44C154.712 144.912 154.932 144.48 155.372 144.144C155.812 143.808 156.424 143.64 157.208 143.64C157.616 143.64 158.024 143.696 158.432 143.808C158.84 143.912 159.176 144.052 159.44 144.228L159.068 144.912C158.548 144.552 157.928 144.372 157.208 144.372C156.664 144.372 156.252 144.468 155.972 144.66C155.7 144.852 155.564 145.104 155.564 145.416C155.564 145.656 155.64 145.848 155.792 145.992C155.952 146.136 156.148 146.244 156.38 146.316C156.612 146.38 156.932 146.448 157.34 146.52C157.844 146.616 158.248 146.712 158.552 146.808C158.856 146.904 159.116 147.068 159.332 147.3C159.548 147.532 159.656 147.852 159.656 148.26C159.656 148.812 159.424 149.252 158.96 149.58C158.504 149.9 157.868 150.06 157.052 150.06ZM163.811 150.06C163.203 150.06 162.655 149.924 162.167 149.652C161.679 149.372 161.295 148.988 161.015 148.5C160.735 148.012 160.595 147.46 160.595 146.844C160.595 146.228 160.735 145.676 161.015 145.188C161.295 144.7 161.679 144.32 162.167 144.048C162.655 143.776 163.203 143.64 163.811 143.64C164.419 143.64 164.967 143.776 165.455 144.048C165.943 144.32 166.323 144.7 166.595 145.188C166.875 145.676 167.015 146.228 167.015 146.844C167.015 147.46 166.875 148.012 166.595 148.5C166.323 148.988 165.943 149.372 165.455 149.652C164.967 149.924 164.419 150.06 163.811 150.06ZM163.811 149.304C164.259 149.304 164.659 149.204 165.011 149.004C165.371 148.796 165.651 148.504 165.851 148.128C166.051 147.752 166.151 147.324 166.151 146.844C166.151 146.364 166.051 145.936 165.851 145.56C165.651 145.184 165.371 144.896 165.011 144.696C164.659 144.488 164.259 144.384 163.811 144.384C163.363 144.384 162.959 144.488 162.599 144.696C162.247 144.896 161.967 145.184 161.759 145.56C161.559 145.936 161.459 146.364 161.459 146.844C161.459 147.324 161.559 147.752 161.759 148.128C161.967 148.504 162.247 148.796 162.599 149.004C162.959 149.204 163.363 149.304 163.811 149.304ZM171.97 143.64C172.762 143.64 173.39 143.872 173.854 144.336C174.326 144.792 174.562 145.46 174.562 146.34V150H173.71V146.424C173.71 145.768 173.546 145.268 173.218 144.924C172.89 144.58 172.422 144.408 171.814 144.408C171.134 144.408 170.594 144.612 170.194 145.02C169.802 145.42 169.606 145.976 169.606 146.688V150H168.754V143.688H169.57V144.852C169.802 144.468 170.122 144.172 170.53 143.964C170.946 143.748 171.426 143.64 171.97 143.64ZM179.084 143.64C179.908 143.64 180.54 143.848 180.98 144.264C181.42 144.672 181.64 145.28 181.64 146.088V150H180.824V149.016C180.632 149.344 180.348 149.6 179.972 149.784C179.604 149.968 179.164 150.06 178.652 150.06C177.948 150.06 177.388 149.892 176.972 149.556C176.556 149.22 176.348 148.776 176.348 148.224C176.348 147.688 176.54 147.256 176.924 146.928C177.316 146.6 177.936 146.436 178.784 146.436H180.788V146.052C180.788 145.508 180.636 145.096 180.332 144.816C180.028 144.528 179.584 144.384 179 144.384C178.6 144.384 178.216 144.452 177.848 144.588C177.48 144.716 177.164 144.896 176.9 145.128L176.516 144.492C176.836 144.22 177.22 144.012 177.668 143.868C178.116 143.716 178.588 143.64 179.084 143.64ZM178.784 149.388C179.264 149.388 179.676 149.28 180.02 149.064C180.364 148.84 180.62 148.52 180.788 148.104V147.072H178.808C177.728 147.072 177.188 147.448 177.188 148.2C177.188 148.568 177.328 148.86 177.608 149.076C177.888 149.284 178.28 149.388 178.784 149.388ZM185.646 150.06C185.134 150.06 184.642 149.988 184.17 149.844C183.706 149.692 183.342 149.504 183.078 149.28L183.462 148.608C183.726 148.816 184.058 148.988 184.458 149.124C184.858 149.252 185.274 149.316 185.706 149.316C186.282 149.316 186.706 149.228 186.978 149.052C187.258 148.868 187.398 148.612 187.398 148.284C187.398 148.052 187.322 147.872 187.17 147.744C187.018 147.608 186.826 147.508 186.594 147.444C186.362 147.372 186.054 147.304 185.67 147.24C185.158 147.144 184.746 147.048 184.434 146.952C184.122 146.848 183.854 146.676 183.63 146.436C183.414 146.196 183.306 145.864 183.306 145.44C183.306 144.912 183.526 144.48 183.966 144.144C184.406 143.808 185.018 143.64 185.802 143.64C186.21 143.64 186.618 143.696 187.026 143.808C187.434 143.912 187.77 144.052 188.034 144.228L187.662 144.912C187.142 144.552 186.522 144.372 185.802 144.372C185.258 144.372 184.846 144.468 184.566 144.66C184.294 144.852 184.158 145.104 184.158 145.416C184.158 145.656 184.234 145.848 184.386 145.992C184.546 146.136 184.742 146.244 184.974 146.316C185.206 146.38 185.526 146.448 185.934 146.52C186.438 146.616 186.842 146.712 187.146 146.808C187.45 146.904 187.71 147.068 187.926 147.3C188.142 147.532 188.25 147.852 188.25 148.26C188.25 148.812 188.018 149.252 187.554 149.58C187.098 149.9 186.462 150.06 185.646 150.06ZM198.725 141.096V150H197.909V148.752C197.653 149.176 197.313 149.5 196.889 149.724C196.473 149.948 196.001 150.06 195.473 150.06C194.881 150.06 194.345 149.924 193.865 149.652C193.385 149.38 193.009 149 192.737 148.512C192.465 148.024 192.329 147.468 192.329 146.844C192.329 146.22 192.465 145.664 192.737 145.176C193.009 144.688 193.385 144.312 193.865 144.048C194.345 143.776 194.881 143.64 195.473 143.64C195.985 143.64 196.445 143.748 196.853 143.964C197.269 144.172 197.609 144.48 197.873 144.888V141.096H198.725ZM195.545 149.304C195.985 149.304 196.381 149.204 196.733 149.004C197.093 148.796 197.373 148.504 197.573 148.128C197.781 147.752 197.885 147.324 197.885 146.844C197.885 146.364 197.781 145.936 197.573 145.56C197.373 145.184 197.093 144.896 196.733 144.696C196.381 144.488 195.985 144.384 195.545 144.384C195.097 144.384 194.693 144.488 194.333 144.696C193.981 144.896 193.701 145.184 193.493 145.56C193.293 145.936 193.193 146.364 193.193 146.844C193.193 147.324 193.293 147.752 193.493 148.128C193.701 148.504 193.981 148.796 194.333 149.004C194.693 149.204 195.097 149.304 195.545 149.304ZM206.594 147.108H201.314C201.362 147.764 201.614 148.296 202.07 148.704C202.526 149.104 203.102 149.304 203.798 149.304C204.19 149.304 204.55 149.236 204.878 149.1C205.206 148.956 205.49 148.748 205.73 148.476L206.21 149.028C205.93 149.364 205.578 149.62 205.154 149.796C204.738 149.972 204.278 150.06 203.774 150.06C203.126 150.06 202.55 149.924 202.046 149.652C201.55 149.372 201.162 148.988 200.882 148.5C200.602 148.012 200.462 147.46 200.462 146.844C200.462 146.228 200.594 145.676 200.858 145.188C201.13 144.7 201.498 144.32 201.962 144.048C202.434 143.776 202.962 143.64 203.546 143.64C204.13 143.64 204.654 143.776 205.118 144.048C205.582 144.32 205.946 144.7 206.21 145.188C206.474 145.668 206.606 146.22 206.606 146.844L206.594 147.108ZM203.546 144.372C202.938 144.372 202.426 144.568 202.01 144.96C201.602 145.344 201.37 145.848 201.314 146.472H205.79C205.734 145.848 205.498 145.344 205.082 144.96C204.674 144.568 204.162 144.372 203.546 144.372ZM211.556 143.64C212.348 143.64 212.976 143.872 213.44 144.336C213.912 144.792 214.148 145.46 214.148 146.34V150H213.296V146.424C213.296 145.768 213.132 145.268 212.804 144.924C212.476 144.58 212.008 144.408 211.4 144.408C210.72 144.408 210.18 144.612 209.78 145.02C209.388 145.42 209.192 145.976 209.192 146.688V150H208.34V143.688H209.156V144.852C209.388 144.468 209.708 144.172 210.116 143.964C210.532 143.748 211.012 143.64 211.556 143.64ZM219.785 149.616C219.625 149.76 219.425 149.872 219.185 149.952C218.953 150.024 218.709 150.06 218.453 150.06C217.861 150.06 217.405 149.9 217.085 149.58C216.765 149.26 216.605 148.808 216.605 148.224V144.408H215.477V143.688H216.605V142.308H217.457V143.688H219.377V144.408H217.457V148.176C217.457 148.552 217.549 148.84 217.733 149.04C217.925 149.232 218.197 149.328 218.549 149.328C218.725 149.328 218.893 149.3 219.053 149.244C219.221 149.188 219.365 149.108 219.485 149.004L219.785 149.616ZM222.152 144.924C222.352 144.5 222.648 144.18 223.04 143.964C223.44 143.748 223.932 143.64 224.516 143.64V144.468L224.312 144.456C223.648 144.456 223.128 144.66 222.752 145.068C222.376 145.476 222.188 146.048 222.188 146.784V150H221.336V143.688H222.152V144.924ZM228.581 150.06C227.973 150.06 227.425 149.924 226.937 149.652C226.449 149.372 226.065 148.988 225.785 148.5C225.505 148.012 225.365 147.46 225.365 146.844C225.365 146.228 225.505 145.676 225.785 145.188C226.065 144.7 226.449 144.32 226.937 144.048C227.425 143.776 227.973 143.64 228.581 143.64C229.189 143.64 229.737 143.776 230.225 144.048C230.713 144.32 231.093 144.7 231.365 145.188C231.645 145.676 231.785 146.228 231.785 146.844C231.785 147.46 231.645 148.012 231.365 148.5C231.093 148.988 230.713 149.372 230.225 149.652C229.737 149.924 229.189 150.06 228.581 150.06ZM228.581 149.304C229.029 149.304 229.429 149.204 229.781 149.004C230.141 148.796 230.421 148.504 230.621 148.128C230.821 147.752 230.921 147.324 230.921 146.844C230.921 146.364 230.821 145.936 230.621 145.56C230.421 145.184 230.141 144.896 229.781 144.696C229.429 144.488 229.029 144.384 228.581 144.384C228.133 144.384 227.729 144.488 227.369 144.696C227.017 144.896 226.737 145.184 226.529 145.56C226.329 145.936 226.229 146.364 226.229 146.844C226.229 147.324 226.329 147.752 226.529 148.128C226.737 148.504 227.017 148.796 227.369 149.004C227.729 149.204 228.133 149.304 228.581 149.304ZM242.425 141.096V150H241.609V148.752C241.353 149.176 241.013 149.5 240.589 149.724C240.173 149.948 239.701 150.06 239.173 150.06C238.581 150.06 238.045 149.924 237.565 149.652C237.085 149.38 236.709 149 236.437 148.512C236.165 148.024 236.029 147.468 236.029 146.844C236.029 146.22 236.165 145.664 236.437 145.176C236.709 144.688 237.085 144.312 237.565 144.048C238.045 143.776 238.581 143.64 239.173 143.64C239.685 143.64 240.145 143.748 240.553 143.964C240.969 144.172 241.309 144.48 241.573 144.888V141.096H242.425ZM239.245 149.304C239.685 149.304 240.081 149.204 240.433 149.004C240.793 148.796 241.073 148.504 241.273 148.128C241.481 147.752 241.585 147.324 241.585 146.844C241.585 146.364 241.481 145.936 241.273 145.56C241.073 145.184 240.793 144.896 240.433 144.696C240.081 144.488 239.685 144.384 239.245 144.384C238.797 144.384 238.393 144.488 238.033 144.696C237.681 144.896 237.401 145.184 237.193 145.56C236.993 145.936 236.893 146.364 236.893 146.844C236.893 147.324 236.993 147.752 237.193 148.128C237.401 148.504 237.681 148.796 238.033 149.004C238.393 149.204 238.797 149.304 239.245 149.304ZM250.293 147.108H245.013C245.061 147.764 245.313 148.296 245.769 148.704C246.225 149.104 246.801 149.304 247.497 149.304C247.889 149.304 248.249 149.236 248.577 149.1C248.905 148.956 249.189 148.748 249.429 148.476L249.909 149.028C249.629 149.364 249.277 149.62 248.853 149.796C248.437 149.972 247.977 150.06 247.473 150.06C246.825 150.06 246.249 149.924 245.745 149.652C245.249 149.372 244.861 148.988 244.581 148.5C244.301 148.012 244.161 147.46 244.161 146.844C244.161 146.228 244.293 145.676 244.557 145.188C244.829 144.7 245.197 144.32 245.661 144.048C246.133 143.776 246.661 143.64 247.245 143.64C247.829 143.64 248.353 143.776 248.817 144.048C249.281 144.32 249.645 144.7 249.909 145.188C250.173 145.668 250.305 146.22 250.305 146.844L250.293 147.108ZM247.245 144.372C246.637 144.372 246.125 144.568 245.709 144.96C245.301 145.344 245.069 145.848 245.013 146.472H249.489C249.433 145.848 249.197 145.344 248.781 144.96C248.373 144.568 247.861 144.372 247.245 144.372ZM255.18 141.096H256.032V150H255.18V141.096ZM260.983 150.06C260.375 150.06 259.827 149.924 259.339 149.652C258.851 149.372 258.467 148.988 258.187 148.5C257.907 148.012 257.767 147.46 257.767 146.844C257.767 146.228 257.907 145.676 258.187 145.188C258.467 144.7 258.851 144.32 259.339 144.048C259.827 143.776 260.375 143.64 260.983 143.64C261.591 143.64 262.139 143.776 262.627 144.048C263.115 144.32 263.495 144.7 263.767 145.188C264.047 145.676 264.187 146.228 264.187 146.844C264.187 147.46 264.047 148.012 263.767 148.5C263.495 148.988 263.115 149.372 262.627 149.652C262.139 149.924 261.591 150.06 260.983 150.06ZM260.983 149.304C261.431 149.304 261.831 149.204 262.183 149.004C262.543 148.796 262.823 148.504 263.023 148.128C263.223 147.752 263.323 147.324 263.323 146.844C263.323 146.364 263.223 145.936 263.023 145.56C262.823 145.184 262.543 144.896 262.183 144.696C261.831 144.488 261.431 144.384 260.983 144.384C260.535 144.384 260.131 144.488 259.771 144.696C259.419 144.896 259.139 145.184 258.931 145.56C258.731 145.936 258.631 146.364 258.631 146.844C258.631 147.324 258.731 147.752 258.931 148.128C259.139 148.504 259.419 148.796 259.771 149.004C260.131 149.204 260.535 149.304 260.983 149.304ZM267.618 150.06C267.106 150.06 266.614 149.988 266.142 149.844C265.678 149.692 265.314 149.504 265.05 149.28L265.434 148.608C265.698 148.816 266.03 148.988 266.43 149.124C266.83 149.252 267.246 149.316 267.678 149.316C268.254 149.316 268.678 149.228 268.95 149.052C269.23 148.868 269.37 148.612 269.37 148.284C269.37 148.052 269.294 147.872 269.142 147.744C268.99 147.608 268.798 147.508 268.566 147.444C268.334 147.372 268.026 147.304 267.642 147.24C267.13 147.144 266.718 147.048 266.406 146.952C266.094 146.848 265.826 146.676 265.602 146.436C265.386 146.196 265.278 145.864 265.278 145.44C265.278 144.912 265.498 144.48 265.938 144.144C266.378 143.808 266.99 143.64 267.774 143.64C268.182 143.64 268.59 143.696 268.998 143.808C269.406 143.912 269.742 144.052 270.006 144.228L269.634 144.912C269.114 144.552 268.494 144.372 267.774 144.372C267.23 144.372 266.818 144.468 266.538 144.66C266.266 144.852 266.13 145.104 266.13 145.416C266.13 145.656 266.206 145.848 266.358 145.992C266.518 146.136 266.714 146.244 266.946 146.316C267.178 146.38 267.498 146.448 267.906 146.52C268.41 146.616 268.814 146.712 269.118 146.808C269.422 146.904 269.682 147.068 269.898 147.3C270.114 147.532 270.222 147.852 270.222 148.26C270.222 148.812 269.99 149.252 269.526 149.58C269.07 149.9 268.434 150.06 267.618 150.06ZM30.492 163.688L27.684 170H26.808L24.012 163.688H24.9L27.264 169.064L29.652 163.688H30.492ZM37.0121 167.108H31.7321C31.7801 167.764 32.0321 168.296 32.4881 168.704C32.9441 169.104 33.5201 169.304 34.2161 169.304C34.6081 169.304 34.9681 169.236 35.2961 169.1C35.6241 168.956 35.9081 168.748 36.1481 168.476L36.6281 169.028C36.3481 169.364 35.9961 169.62 35.5721 169.796C35.1561 169.972 34.6961 170.06 34.1921 170.06C33.5441 170.06 32.9681 169.924 32.4641 169.652C31.9681 169.372 31.5801 168.988 31.3001 168.5C31.0201 168.012 30.8801 167.46 30.8801 166.844C30.8801 166.228 31.0121 165.676 31.2761 165.188C31.5481 164.7 31.9161 164.32 32.3801 164.048C32.8521 163.776 33.3801 163.64 33.9641 163.64C34.5481 163.64 35.0721 163.776 35.5361 164.048C36.0001 164.32 36.3641 164.7 36.6281 165.188C36.8921 165.668 37.0241 166.22 37.0241 166.844L37.0121 167.108ZM33.9641 164.372C33.3561 164.372 32.8441 164.568 32.4281 164.96C32.0201 165.344 31.7881 165.848 31.7321 166.472H36.2081C36.1521 165.848 35.9161 165.344 35.5001 164.96C35.0921 164.568 34.5801 164.372 33.9641 164.372ZM41.9743 163.64C42.7663 163.64 43.3943 163.872 43.8583 164.336C44.3303 164.792 44.5663 165.46 44.5663 166.34V170H43.7143V166.424C43.7143 165.768 43.5503 165.268 43.2223 164.924C42.8943 164.58 42.4263 164.408 41.8183 164.408C41.1383 164.408 40.5983 164.612 40.1983 165.02C39.8063 165.42 39.6103 165.976 39.6103 166.688V170H38.7583V163.688H39.5743V164.852C39.8063 164.468 40.1263 164.172 40.5343 163.964C40.9503 163.748 41.4303 163.64 41.9743 163.64ZM52.5674 163.688V170H51.7514V168.848C51.5274 169.232 51.2194 169.532 50.8274 169.748C50.4354 169.956 49.9874 170.06 49.4834 170.06C48.6594 170.06 48.0074 169.832 47.5274 169.376C47.0554 168.912 46.8194 168.236 46.8194 167.348V163.688H47.6714V167.264C47.6714 167.928 47.8354 168.432 48.1634 168.776C48.4914 169.12 48.9594 169.292 49.5674 169.292C50.2314 169.292 50.7554 169.092 51.1394 168.692C51.5234 168.284 51.7154 167.72 51.7154 167V163.688H52.5674ZM60.4496 167.108H55.1696C55.2176 167.764 55.4696 168.296 55.9256 168.704C56.3816 169.104 56.9576 169.304 57.6536 169.304C58.0456 169.304 58.4056 169.236 58.7336 169.1C59.0616 168.956 59.3456 168.748 59.5856 168.476L60.0656 169.028C59.7856 169.364 59.4336 169.62 59.0096 169.796C58.5936 169.972 58.1336 170.06 57.6296 170.06C56.9816 170.06 56.4056 169.924 55.9016 169.652C55.4056 169.372 55.0176 168.988 54.7376 168.5C54.4576 168.012 54.3176 167.46 54.3176 166.844C54.3176 166.228 54.4496 165.676 54.7136 165.188C54.9856 164.7 55.3536 164.32 55.8176 164.048C56.2896 163.776 56.8176 163.64 57.4016 163.64C57.9856 163.64 58.5096 163.776 58.9736 164.048C59.4376 164.32 59.8016 164.7 60.0656 165.188C60.3296 165.668 60.4616 166.22 60.4616 166.844L60.4496 167.108ZM57.4016 164.372C56.7936 164.372 56.2816 164.568 55.8656 164.96C55.4576 165.344 55.2256 165.848 55.1696 166.472H59.6456C59.5896 165.848 59.3536 165.344 58.9376 164.96C58.5296 164.568 58.0176 164.372 57.4016 164.372ZM63.8878 170.06C63.3758 170.06 62.8838 169.988 62.4118 169.844C61.9478 169.692 61.5838 169.504 61.3198 169.28L61.7038 168.608C61.9678 168.816 62.2998 168.988 62.6998 169.124C63.0998 169.252 63.5158 169.316 63.9478 169.316C64.5238 169.316 64.9478 169.228 65.2198 169.052C65.4998 168.868 65.6398 168.612 65.6398 168.284C65.6398 168.052 65.5638 167.872 65.4118 167.744C65.2598 167.608 65.0678 167.508 64.8358 167.444C64.6038 167.372 64.2958 167.304 63.9118 167.24C63.3998 167.144 62.9878 167.048 62.6758 166.952C62.3638 166.848 62.0958 166.676 61.8718 166.436C61.6558 166.196 61.5478 165.864 61.5478 165.44C61.5478 164.912 61.7678 164.48 62.2078 164.144C62.6478 163.808 63.2598 163.64 64.0438 163.64C64.4518 163.64 64.8598 163.696 65.2678 163.808C65.6758 163.912 66.0118 164.052 66.2758 164.228L65.9038 164.912C65.3838 164.552 64.7638 164.372 64.0438 164.372C63.4998 164.372 63.0878 164.468 62.8078 164.66C62.5358 164.852 62.3998 165.104 62.3998 165.416C62.3998 165.656 62.4758 165.848 62.6278 165.992C62.7878 166.136 62.9838 166.244 63.2158 166.316C63.4478 166.38 63.7678 166.448 64.1758 166.52C64.6798 166.616 65.0838 166.712 65.3878 166.808C65.6918 166.904 65.9518 167.068 66.1678 167.3C66.3838 167.532 66.4918 167.852 66.4918 168.26C66.4918 168.812 66.2598 169.252 65.7958 169.58C65.3398 169.9 64.7038 170.06 63.8878 170.06ZM76.5115 163.688L73.3555 170.756C73.0995 171.348 72.8035 171.768 72.4675 172.016C72.1315 172.264 71.7275 172.388 71.2555 172.388C70.9515 172.388 70.6675 172.34 70.4035 172.244C70.1395 172.148 69.9115 172.004 69.7195 171.812L70.1155 171.176C70.4355 171.496 70.8195 171.656 71.2675 171.656C71.5555 171.656 71.7995 171.576 71.9995 171.416C72.2075 171.256 72.3995 170.984 72.5755 170.6L72.8515 169.988L70.0315 163.688H70.9195L73.2955 169.052L75.6715 163.688H76.5115ZM83.0601 163.64C83.8841 163.64 84.5161 163.848 84.9561 164.264C85.3961 164.672 85.6161 165.28 85.6161 166.088V170H84.8001V169.016C84.6081 169.344 84.3241 169.6 83.9481 169.784C83.5801 169.968 83.1401 170.06 82.6281 170.06C81.9241 170.06 81.3641 169.892 80.9481 169.556C80.5321 169.22 80.3241 168.776 80.3241 168.224C80.3241 167.688 80.5161 167.256 80.9001 166.928C81.2921 166.6 81.9121 166.436 82.7601 166.436H84.7641V166.052C84.7641 165.508 84.6121 165.096 84.3081 164.816C84.0041 164.528 83.5601 164.384 82.9761 164.384C82.5761 164.384 82.1921 164.452 81.8241 164.588C81.4561 164.716 81.1401 164.896 80.8761 165.128L80.4921 164.492C80.8121 164.22 81.1961 164.012 81.6441 163.868C82.0921 163.716 82.5641 163.64 83.0601 163.64ZM82.7601 169.388C83.2401 169.388 83.6521 169.28 83.9961 169.064C84.3401 168.84 84.5961 168.52 84.7641 168.104V167.072H82.7841C81.7041 167.072 81.1641 167.448 81.1641 168.2C81.1641 168.568 81.3041 168.86 81.5841 169.076C81.8641 169.284 82.2561 169.388 82.7601 169.388ZM83.9481 161.216H85.0881L83.1441 162.704H82.3041L83.9481 161.216ZM88.7462 164.924C88.9462 164.5 89.2422 164.18 89.6342 163.964C90.0342 163.748 90.5262 163.64 91.1102 163.64V164.468L90.9062 164.456C90.2422 164.456 89.7222 164.66 89.3462 165.068C88.9702 165.476 88.7822 166.048 88.7822 166.784V170H87.9302V163.688H88.7462V164.924ZM98.0903 167.108H92.8103C92.8583 167.764 93.1103 168.296 93.5663 168.704C94.0223 169.104 94.5983 169.304 95.2943 169.304C95.6863 169.304 96.0463 169.236 96.3743 169.1C96.7023 168.956 96.9863 168.748 97.2263 168.476L97.7063 169.028C97.4263 169.364 97.0743 169.62 96.6503 169.796C96.2343 169.972 95.7743 170.06 95.2703 170.06C94.6223 170.06 94.0463 169.924 93.5423 169.652C93.0463 169.372 92.6583 168.988 92.3783 168.5C92.0983 168.012 91.9583 167.46 91.9583 166.844C91.9583 166.228 92.0903 165.676 92.3543 165.188C92.6263 164.7 92.9943 164.32 93.4583 164.048C93.9303 163.776 94.4583 163.64 95.0423 163.64C95.6263 163.64 96.1503 163.776 96.6143 164.048C97.0783 164.32 97.4423 164.7 97.7063 165.188C97.9703 165.668 98.1023 166.22 98.1023 166.844L98.0903 167.108ZM95.0423 164.372C94.4343 164.372 93.9223 164.568 93.5063 164.96C93.0983 165.344 92.8663 165.848 92.8103 166.472H97.2863C97.2303 165.848 96.9943 165.344 96.5783 164.96C96.1703 164.568 95.6583 164.372 95.0423 164.372ZM101.869 163.64C102.693 163.64 103.325 163.848 103.765 164.264C104.205 164.672 104.425 165.28 104.425 166.088V170H103.609V169.016C103.417 169.344 103.133 169.6 102.757 169.784C102.389 169.968 101.949 170.06 101.437 170.06C100.733 170.06 100.173 169.892 99.7567 169.556C99.3407 169.22 99.1327 168.776 99.1327 168.224C99.1327 167.688 99.3247 167.256 99.7087 166.928C100.101 166.6 100.721 166.436 101.569 166.436H103.573V166.052C103.573 165.508 103.421 165.096 103.117 164.816C102.813 164.528 102.369 164.384 101.785 164.384C101.385 164.384 101.001 164.452 100.633 164.588C100.265 164.716 99.9487 164.896 99.6847 165.128L99.3007 164.492C99.6207 164.22 100.005 164.012 100.453 163.868C100.901 163.716 101.373 163.64 101.869 163.64ZM101.569 169.388C102.049 169.388 102.461 169.28 102.805 169.064C103.149 168.84 103.405 168.52 103.573 168.104V167.072H101.593C100.513 167.072 99.9727 167.448 99.9727 168.2C99.9727 168.568 100.113 168.86 100.393 169.076C100.673 169.284 101.065 169.388 101.569 169.388ZM108.431 170.06C107.919 170.06 107.427 169.988 106.955 169.844C106.491 169.692 106.127 169.504 105.863 169.28L106.247 168.608C106.511 168.816 106.843 168.988 107.243 169.124C107.643 169.252 108.059 169.316 108.491 169.316C109.067 169.316 109.491 169.228 109.763 169.052C110.043 168.868 110.183 168.612 110.183 168.284C110.183 168.052 110.107 167.872 109.955 167.744C109.803 167.608 109.611 167.508 109.379 167.444C109.147 167.372 108.839 167.304 108.455 167.24C107.943 167.144 107.531 167.048 107.219 166.952C106.907 166.848 106.639 166.676 106.415 166.436C106.199 166.196 106.091 165.864 106.091 165.44C106.091 164.912 106.311 164.48 106.751 164.144C107.191 163.808 107.803 163.64 108.587 163.64C108.995 163.64 109.403 163.696 109.811 163.808C110.219 163.912 110.555 164.052 110.819 164.228L110.447 164.912C109.927 164.552 109.307 164.372 108.587 164.372C108.043 164.372 107.631 164.468 107.351 164.66C107.079 164.852 106.943 165.104 106.943 165.416C106.943 165.656 107.019 165.848 107.171 165.992C107.331 166.136 107.527 166.244 107.759 166.316C107.991 166.38 108.311 166.448 108.719 166.52C109.223 166.616 109.627 166.712 109.931 166.808C110.235 166.904 110.495 167.068 110.711 167.3C110.927 167.532 111.035 167.852 111.035 168.26C111.035 168.812 110.803 169.252 110.339 169.58C109.883 169.9 109.247 170.06 108.431 170.06ZM121.511 161.096V170H120.695V168.752C120.439 169.176 120.099 169.5 119.675 169.724C119.259 169.948 118.787 170.06 118.259 170.06C117.667 170.06 117.131 169.924 116.651 169.652C116.171 169.38 115.795 169 115.523 168.512C115.251 168.024 115.115 167.468 115.115 166.844C115.115 166.22 115.251 165.664 115.523 165.176C115.795 164.688 116.171 164.312 116.651 164.048C117.131 163.776 117.667 163.64 118.259 163.64C118.771 163.64 119.231 163.748 119.639 163.964C120.055 164.172 120.395 164.48 120.659 164.888V161.096H121.511ZM118.331 169.304C118.771 169.304 119.167 169.204 119.519 169.004C119.879 168.796 120.159 168.504 120.359 168.128C120.567 167.752 120.671 167.324 120.671 166.844C120.671 166.364 120.567 165.936 120.359 165.56C120.159 165.184 119.879 164.896 119.519 164.696C119.167 164.488 118.771 164.384 118.331 164.384C117.883 164.384 117.479 164.488 117.119 164.696C116.767 164.896 116.487 165.184 116.279 165.56C116.079 165.936 115.979 166.364 115.979 166.844C115.979 167.324 116.079 167.752 116.279 168.128C116.487 168.504 116.767 168.796 117.119 169.004C117.479 169.204 117.883 169.304 118.331 169.304ZM129.379 167.108H124.099C124.147 167.764 124.399 168.296 124.855 168.704C125.311 169.104 125.887 169.304 126.583 169.304C126.975 169.304 127.335 169.236 127.663 169.1C127.991 168.956 128.275 168.748 128.515 168.476L128.995 169.028C128.715 169.364 128.363 169.62 127.939 169.796C127.523 169.972 127.063 170.06 126.559 170.06C125.911 170.06 125.335 169.924 124.831 169.652C124.335 169.372 123.947 168.988 123.667 168.5C123.387 168.012 123.247 167.46 123.247 166.844C123.247 166.228 123.379 165.676 123.643 165.188C123.915 164.7 124.283 164.32 124.747 164.048C125.219 163.776 125.747 163.64 126.331 163.64C126.915 163.64 127.439 163.776 127.903 164.048C128.367 164.32 128.731 164.7 128.995 165.188C129.259 165.668 129.391 166.22 129.391 166.844L129.379 167.108ZM126.331 164.372C125.723 164.372 125.211 164.568 124.795 164.96C124.387 165.344 124.155 165.848 124.099 166.472H128.575C128.519 165.848 128.283 165.344 127.867 164.96C127.459 164.568 126.947 164.372 126.331 164.372ZM137.59 169.616C137.43 169.76 137.23 169.872 136.99 169.952C136.758 170.024 136.514 170.06 136.258 170.06C135.666 170.06 135.21 169.9 134.89 169.58C134.57 169.26 134.41 168.808 134.41 168.224V164.408H133.282V163.688H134.41V162.308H135.262V163.688H137.182V164.408H135.262V168.176C135.262 168.552 135.354 168.84 135.538 169.04C135.73 169.232 136.002 169.328 136.354 169.328C136.53 169.328 136.698 169.3 136.858 169.244C137.026 169.188 137.17 169.108 137.29 169.004L137.59 169.616ZM144.829 163.688V170H144.013V168.848C143.789 169.232 143.481 169.532 143.089 169.748C142.697 169.956 142.249 170.06 141.745 170.06C140.921 170.06 140.269 169.832 139.789 169.376C139.317 168.912 139.081 168.236 139.081 167.348V163.688H139.933V167.264C139.933 167.928 140.097 168.432 140.425 168.776C140.753 169.12 141.221 169.292 141.829 169.292C142.493 169.292 143.017 169.092 143.401 168.692C143.785 168.284 143.977 167.72 143.977 167V163.688H144.829ZM152.936 170.06C152.328 170.06 151.78 169.924 151.292 169.652C150.804 169.372 150.42 168.988 150.14 168.5C149.86 168.012 149.72 167.46 149.72 166.844C149.72 166.228 149.86 165.676 150.14 165.188C150.42 164.7 150.804 164.32 151.292 164.048C151.78 163.776 152.328 163.64 152.936 163.64C153.544 163.64 154.092 163.776 154.58 164.048C155.068 164.32 155.448 164.7 155.72 165.188C156 165.676 156.14 166.228 156.14 166.844C156.14 167.46 156 168.012 155.72 168.5C155.448 168.988 155.068 169.372 154.58 169.652C154.092 169.924 153.544 170.06 152.936 170.06ZM152.936 169.304C153.384 169.304 153.784 169.204 154.136 169.004C154.496 168.796 154.776 168.504 154.976 168.128C155.176 167.752 155.276 167.324 155.276 166.844C155.276 166.364 155.176 165.936 154.976 165.56C154.776 165.184 154.496 164.896 154.136 164.696C153.784 164.488 153.384 164.384 152.936 164.384C152.488 164.384 152.084 164.488 151.724 164.696C151.372 164.896 151.092 165.184 150.884 165.56C150.684 165.936 150.584 166.364 150.584 166.844C150.584 167.324 150.684 167.752 150.884 168.128C151.092 168.504 151.372 168.796 151.724 169.004C152.084 169.204 152.488 169.304 152.936 169.304ZM158.695 164.924C158.895 164.5 159.191 164.18 159.583 163.964C159.983 163.748 160.475 163.64 161.059 163.64V164.468L160.855 164.456C160.191 164.456 159.671 164.66 159.295 165.068C158.919 165.476 158.731 166.048 158.731 166.784V170H157.879V163.688H158.695V164.924ZM168.387 163.688V169.232C168.387 170.304 168.123 171.096 167.595 171.608C167.075 172.128 166.287 172.388 165.231 172.388C164.647 172.388 164.091 172.3 163.563 172.124C163.043 171.956 162.619 171.72 162.291 171.416L162.723 170.768C163.027 171.04 163.395 171.252 163.827 171.404C164.267 171.556 164.727 171.632 165.207 171.632C166.007 171.632 166.595 171.444 166.971 171.068C167.347 170.7 167.535 170.124 167.535 169.34V168.536C167.271 168.936 166.923 169.24 166.491 169.448C166.067 169.656 165.595 169.76 165.075 169.76C164.483 169.76 163.943 169.632 163.455 169.376C162.975 169.112 162.595 168.748 162.315 168.284C162.043 167.812 161.907 167.28 161.907 166.688C161.907 166.096 162.043 165.568 162.315 165.104C162.595 164.64 162.975 164.28 163.455 164.024C163.935 163.768 164.475 163.64 165.075 163.64C165.611 163.64 166.095 163.748 166.527 163.964C166.959 164.18 167.307 164.492 167.571 164.9V163.688H168.387ZM165.159 169.004C165.615 169.004 166.027 168.908 166.395 168.716C166.763 168.516 167.047 168.24 167.247 167.888C167.455 167.536 167.559 167.136 167.559 166.688C167.559 166.24 167.455 165.844 167.247 165.5C167.047 165.148 166.763 164.876 166.395 164.684C166.035 164.484 165.623 164.384 165.159 164.384C164.703 164.384 164.291 164.48 163.923 164.672C163.563 164.864 163.279 165.136 163.071 165.488C162.871 165.84 162.771 166.24 162.771 166.688C162.771 167.136 162.871 167.536 163.071 167.888C163.279 168.24 163.563 168.516 163.923 168.716C164.291 168.908 164.703 169.004 165.159 169.004ZM172.978 163.64C173.802 163.64 174.434 163.848 174.874 164.264C175.314 164.672 175.534 165.28 175.534 166.088V170H174.718V169.016C174.526 169.344 174.242 169.6 173.866 169.784C173.498 169.968 173.058 170.06 172.546 170.06C171.842 170.06 171.282 169.892 170.866 169.556C170.45 169.22 170.242 168.776 170.242 168.224C170.242 167.688 170.434 167.256 170.818 166.928C171.21 166.6 171.83 166.436 172.678 166.436H174.682V166.052C174.682 165.508 174.53 165.096 174.226 164.816C173.922 164.528 173.478 164.384 172.894 164.384C172.494 164.384 172.11 164.452 171.742 164.588C171.374 164.716 171.058 164.896 170.794 165.128L170.41 164.492C170.73 164.22 171.114 164.012 171.562 163.868C172.01 163.716 172.482 163.64 172.978 163.64ZM172.678 169.388C173.158 169.388 173.57 169.28 173.914 169.064C174.258 168.84 174.514 168.52 174.682 168.104V167.072H172.702C171.622 167.072 171.082 167.448 171.082 168.2C171.082 168.568 171.222 168.86 171.502 169.076C171.782 169.284 172.174 169.388 172.678 169.388ZM181.064 163.64C181.856 163.64 182.484 163.872 182.948 164.336C183.42 164.792 183.656 165.46 183.656 166.34V170H182.804V166.424C182.804 165.768 182.64 165.268 182.312 164.924C181.984 164.58 181.516 164.408 180.908 164.408C180.228 164.408 179.688 164.612 179.288 165.02C178.896 165.42 178.7 165.976 178.7 166.688V170H177.848V163.688H178.664V164.852C178.896 164.468 179.216 164.172 179.624 163.964C180.04 163.748 180.52 163.64 181.064 163.64ZM185.969 163.688H186.821V170H185.969V163.688ZM186.401 162.308C186.225 162.308 186.077 162.248 185.957 162.128C185.837 162.008 185.777 161.864 185.777 161.696C185.777 161.536 185.837 161.396 185.957 161.276C186.077 161.156 186.225 161.096 186.401 161.096C186.577 161.096 186.725 161.156 186.845 161.276C186.965 161.388 187.025 161.524 187.025 161.684C187.025 161.86 186.965 162.008 186.845 162.128C186.725 162.248 186.577 162.308 186.401 162.308ZM193.644 169.292V170H188.508V169.436L192.48 164.408H188.58V163.688H193.572V164.252L189.6 169.292H193.644ZM197.529 163.64C198.353 163.64 198.985 163.848 199.425 164.264C199.865 164.672 200.085 165.28 200.085 166.088V170H199.269V169.016C199.077 169.344 198.793 169.6 198.417 169.784C198.049 169.968 197.609 170.06 197.097 170.06C196.393 170.06 195.833 169.892 195.417 169.556C195.001 169.22 194.793 168.776 194.793 168.224C194.793 167.688 194.985 167.256 195.369 166.928C195.761 166.6 196.381 166.436 197.229 166.436H199.233V166.052C199.233 165.508 199.081 165.096 198.777 164.816C198.473 164.528 198.029 164.384 197.445 164.384C197.045 164.384 196.661 164.452 196.293 164.588C195.925 164.716 195.609 164.896 195.345 165.128L194.961 164.492C195.281 164.22 195.665 164.012 196.113 163.868C196.561 163.716 197.033 163.64 197.529 163.64ZM197.229 169.388C197.709 169.388 198.121 169.28 198.465 169.064C198.809 168.84 199.065 168.52 199.233 168.104V167.072H197.253C196.173 167.072 195.633 167.448 195.633 168.2C195.633 168.568 195.773 168.86 196.053 169.076C196.333 169.284 196.725 169.388 197.229 169.388ZM205.038 170.06C204.414 170.06 203.854 169.924 203.358 169.652C202.87 169.38 202.486 169 202.206 168.512C201.926 168.016 201.786 167.46 201.786 166.844C201.786 166.228 201.926 165.676 202.206 165.188C202.486 164.7 202.87 164.32 203.358 164.048C203.854 163.776 204.414 163.64 205.038 163.64C205.582 163.64 206.066 163.748 206.49 163.964C206.922 164.172 207.262 164.48 207.51 164.888L206.874 165.32C206.666 165.008 206.402 164.776 206.082 164.624C205.762 164.464 205.414 164.384 205.038 164.384C204.582 164.384 204.17 164.488 203.802 164.696C203.442 164.896 203.158 165.184 202.95 165.56C202.75 165.936 202.65 166.364 202.65 166.844C202.65 167.332 202.75 167.764 202.95 168.14C203.158 168.508 203.442 168.796 203.802 169.004C204.17 169.204 204.582 169.304 205.038 169.304C205.414 169.304 205.762 169.228 206.082 169.076C206.402 168.924 206.666 168.692 206.874 168.38L207.51 168.812C207.262 169.22 206.922 169.532 206.49 169.748C206.058 169.956 205.574 170.06 205.038 170.06ZM209.184 163.688H210.036V170H209.184V163.688ZM209.616 162.308C209.44 162.308 209.292 162.248 209.172 162.128C209.052 162.008 208.992 161.864 208.992 161.696C208.992 161.536 209.052 161.396 209.172 161.276C209.292 161.156 209.44 161.096 209.616 161.096C209.792 161.096 209.94 161.156 210.06 161.276C210.18 161.388 210.24 161.524 210.24 161.684C210.24 161.86 210.18 162.008 210.06 162.128C209.94 162.248 209.792 162.308 209.616 162.308ZM214.987 170.06C214.379 170.06 213.831 169.924 213.343 169.652C212.855 169.372 212.471 168.988 212.191 168.5C211.911 168.012 211.771 167.46 211.771 166.844C211.771 166.228 211.911 165.676 212.191 165.188C212.471 164.7 212.855 164.32 213.343 164.048C213.831 163.776 214.379 163.64 214.987 163.64C215.595 163.64 216.143 163.776 216.631 164.048C217.119 164.32 217.499 164.7 217.771 165.188C218.051 165.676 218.191 166.228 218.191 166.844C218.191 167.46 218.051 168.012 217.771 168.5C217.499 168.988 217.119 169.372 216.631 169.652C216.143 169.924 215.595 170.06 214.987 170.06ZM214.987 169.304C215.435 169.304 215.835 169.204 216.187 169.004C216.547 168.796 216.827 168.504 217.027 168.128C217.227 167.752 217.327 167.324 217.327 166.844C217.327 166.364 217.227 165.936 217.027 165.56C216.827 165.184 216.547 164.896 216.187 164.696C215.835 164.488 215.435 164.384 214.987 164.384C214.539 164.384 214.135 164.488 213.775 164.696C213.423 164.896 213.143 165.184 212.935 165.56C212.735 165.936 212.635 166.364 212.635 166.844C212.635 167.324 212.735 167.752 212.935 168.128C213.143 168.504 213.423 168.796 213.775 169.004C214.135 169.204 214.539 169.304 214.987 169.304ZM215.839 161.216H216.979L215.035 162.704H214.195L215.839 161.216ZM223.146 163.64C223.938 163.64 224.566 163.872 225.03 164.336C225.502 164.792 225.738 165.46 225.738 166.34V170H224.886V166.424C224.886 165.768 224.722 165.268 224.394 164.924C224.066 164.58 223.598 164.408 222.99 164.408C222.31 164.408 221.77 164.612 221.37 165.02C220.978 165.42 220.782 165.976 220.782 166.688V170H219.93V163.688H220.746V164.852C220.978 164.468 221.298 164.172 221.706 163.964C222.122 163.748 222.602 163.64 223.146 163.64Z" fill="#3E3E3E"/>
<path d="M238.72 77.3569C240.402 77.3569 241.766 76.5531 241.766 75.5615C241.766 74.5699 240.402 73.7661 238.72 73.7661C237.038 73.7661 235.674 74.5699 235.674 75.5615C235.674 76.5531 237.038 77.3569 238.72 77.3569Z" fill="#153144"/>
<path d="M316 96H248.159C247.227 96 246.466 94.8493 246.466 93.4392C246.466 92.0292 247.227 90.8784 248.159 90.8784H250.323C251.073 90.8784 251.683 89.9546 251.683 88.8201C251.683 87.6856 251.073 86.7618 250.323 86.7618H242.589C241.785 86.7618 241.142 85.7893 241.142 84.5737C241.142 83.3582 241.785 82.3857 242.589 82.3857H244.217C245.385 82.3857 246.327 80.9595 246.327 79.1929C246.327 77.4263 245.385 76 244.217 76H239" stroke="#153144" stroke-miterlimit="10" stroke-linecap="round" stroke-linejoin="round"/>
<path d="M233.013 53.4076C236.075 50.0573 241.349 50.0573 244.411 53.4076C246.543 55.7481 247.023 59.1785 245.629 62.0159L238.72 75.9783L231.811 62.0159C230.4 59.1785 230.881 55.7481 233.013 53.4076Z" fill="#EF2C54"/>
<path d="M233.013 56.4214C236.075 53.071 241.349 53.071 244.411 56.4214C245.372 57.4794 245.998 58.7618 246.27 60.1083C246.751 57.7359 246.094 55.2351 244.411 53.3917C241.349 50.0413 236.075 50.0413 233.013 53.3917C231.33 55.2351 230.673 57.7359 231.153 60.1083C231.426 58.7618 232.051 57.4954 233.013 56.4214Z" fill="#EF2C54"/>
<path d="M233.013 53.4076C236.075 50.0573 241.349 50.0573 244.411 53.4076C246.543 55.7481 247.023 59.1785 245.629 62.0159L238.72 75.9783L231.811 62.0159C230.4 59.1785 230.881 55.7481 233.013 53.4076Z" stroke="#153144" stroke-miterlimit="10" stroke-linecap="round" stroke-linejoin="round"/>
<path d="M238.72 62.3045C240.782 62.3045 242.455 60.6322 242.455 58.5694C242.455 56.5066 240.782 54.8344 238.72 54.8344C236.657 54.8344 234.985 56.5066 234.985 58.5694C234.985 60.6322 236.657 62.3045 238.72 62.3045Z" fill="white"/>
<path d="M238.72 62.3045C240.782 62.3045 242.455 60.6322 242.455 58.5694C242.455 56.5066 240.782 54.8344 238.72 54.8344C236.657 54.8344 234.985 56.5066 234.985 58.5694C234.985 60.6322 236.657 62.3045 238.72 62.3045Z" stroke="#153144" stroke-miterlimit="10" stroke-linecap="round" stroke-linejoin="round"/>
<path opacity="0.34" d="M303 61H301V94H303V61Z" fill="#333333"/>
<path d="M301 48H277V94H301V48Z" fill="#9DD7CE"/>
<path opacity="0.69" d="M279 48H277V94H279V48Z" fill="#333333"/>
<path d="M272 22H264V16C264 14.9 264.9 14 266 14H270C271.1 14 272 14.9 272 16V22Z" fill="#C0BFBF"/>
<path opacity="0.69" d="M268 14H265.935C264.871 14 264 14.9 264 16V22H266.065V16C266.065 14.9 266.935 14 268 14Z" fill="#333333"/>
<path d="M272 22H264V16C264 14.9 264.9 14 266 14H270C271.1 14 272 14.9 272 16V22Z" stroke="#170E10" stroke-miterlimit="10" stroke-linecap="round" stroke-linejoin="round"/>
<path d="M268 15V7" stroke="#170E10" stroke-miterlimit="10" stroke-linecap="round" stroke-linejoin="round"/>
<path d="M277 94H316" stroke="#170E10" stroke-miterlimit="10" stroke-linecap="round" stroke-linejoin="round"/>
<path d="M273.313 94.0444H274.66" stroke="#170E10" stroke-miterlimit="10" stroke-linecap="round" stroke-linejoin="round"/>
<path d="M259.463 94.0444H270.636" stroke="#170E10" stroke-miterlimit="10" stroke-linecap="round" stroke-linejoin="round"/>
<path d="M277 33H259V94H277V33Z" fill="#C0BFBF"/>
<path opacity="0.69" d="M261 33H259V94H261V33Z" fill="#333333"/>
<path d="M277 33H259V94H277V33Z" stroke="#170E10" stroke-miterlimit="10" stroke-linecap="round" stroke-linejoin="round"/>
<path d="M262.416 80.7016H274.112" stroke="#170E10" stroke-miterlimit="10" stroke-linejoin="round"/>
<path d="M262.416 82.6252H274.112" stroke="#170E10" stroke-miterlimit="10" stroke-linejoin="round"/>
<path d="M262.416 75.2541H274.112" stroke="#170E10" stroke-miterlimit="10" stroke-linejoin="round"/>
<path d="M262.416 77.1777H274.112" stroke="#170E10" stroke-miterlimit="10" stroke-linejoin="round"/>
<path d="M262.416 69.8066H274.112" stroke="#170E10" stroke-miterlimit="10" stroke-linejoin="round"/>
<path d="M262.416 71.7302H274.112" stroke="#170E10" stroke-miterlimit="10" stroke-linejoin="round"/>
<path d="M262.416 64.3591H274.112" stroke="#170E10" stroke-miterlimit="10" stroke-linejoin="round"/>
<path d="M262.416 66.2827H274.112" stroke="#170E10" stroke-miterlimit="10" stroke-linejoin="round"/>
<path d="M262.416 58.9116H274.112" stroke="#170E10" stroke-miterlimit="10" stroke-linejoin="round"/>
<path d="M262.416 60.8352H274.112" stroke="#170E10" stroke-miterlimit="10" stroke-linejoin="round"/>
<path d="M262.416 53.4641H274.112" stroke="#170E10" stroke-miterlimit="10" stroke-linejoin="round"/>
<path d="M262.416 55.3877H274.112" stroke="#170E10" stroke-miterlimit="10" stroke-linejoin="round"/>
<path d="M262.416 48.0165H274.112" stroke="#170E10" stroke-miterlimit="10" stroke-linejoin="round"/>
<path d="M262.416 49.9402H274.112" stroke="#170E10" stroke-miterlimit="10" stroke-linejoin="round"/>
<path d="M262.416 42.569H274.112" stroke="#170E10" stroke-miterlimit="10" stroke-linejoin="round"/>
<path d="M262.416 44.4927H274.112" stroke="#170E10" stroke-miterlimit="10" stroke-linejoin="round"/>
<path d="M262.416 37.1215H274.112" stroke="#170E10" stroke-miterlimit="10" stroke-linejoin="round"/>
<path d="M262.416 39.0452H274.112" stroke="#170E10" stroke-miterlimit="10" stroke-linejoin="round"/>
<path d="M274 33H262V26.0125C262 22.6975 264.692 20 268 20C271.308 20 274 22.6975 274 26.0125V33Z" fill="#C0BFBF"/>
<path opacity="0.69" d="M269 20.0975C268.662 20.0325 268.308 20 267.954 20C264.671 20 262 22.6975 262 26.0125V33H264.092V26.0125C264.092 23.055 266.2 20.6013 269 20.0975Z" fill="#333333"/>
<path d="M274 33H262V26.0125C262 22.6975 264.692 20 268 20C271.308 20 274 22.6975 274 26.0125V33Z" stroke="#170E10" stroke-miterlimit="10" stroke-linecap="round" stroke-linejoin="round"/>
<path d="M301 48H277V94H301V48Z" stroke="#170E10" stroke-miterlimit="10" stroke-linecap="round" stroke-linejoin="round"/>
<path d="M302 45H277V48H302V45Z" fill="#BD2B3E"/>
<path d="M302 45H277V48H302V45Z" stroke="#170E10" stroke-miterlimit="10" stroke-linecap="round" stroke-linejoin="round"/>
<path d="M272 86H264V94H272V86Z" fill="white"/>
<path opacity="0.34" d="M272 86H264V88H272V86Z" fill="#333333"/>
<path opacity="0.34" d="M266 88H264V94H266V88Z" fill="#333333"/>
<path d="M272 86H264V94H272V86Z" stroke="#170E10" stroke-miterlimit="10" stroke-linecap="round" stroke-linejoin="round"/>
<path d="M297.024 85.0276V87.4309" stroke="#170E10" stroke-miterlimit="10" stroke-linejoin="round"/>
<path d="M293.819 85.0276V87.4309" stroke="#170E10" stroke-miterlimit="10" stroke-linejoin="round"/>
<path d="M290.615 85.0276V87.4309" stroke="#170E10" stroke-miterlimit="10" stroke-linejoin="round"/>
<path d="M287.41 85.0276V87.4309" stroke="#170E10" stroke-miterlimit="10" stroke-linejoin="round"/>
<path d="M284.206 85.0276V87.4309" stroke="#170E10" stroke-miterlimit="10" stroke-linejoin="round"/>
<path d="M281.002 85.0276V87.4309" stroke="#170E10" stroke-miterlimit="10" stroke-linejoin="round"/>
<path d="M297.024 78.6187V81.022" stroke="#170E10" stroke-miterlimit="10" stroke-linejoin="round"/>
<path d="M293.819 78.6187V81.022" stroke="#170E10" stroke-miterlimit="10" stroke-linejoin="round"/>
<path d="M290.615 78.6187V81.022" stroke="#170E10" stroke-miterlimit="10" stroke-linejoin="round"/>
<path d="M287.41 78.6187V81.022" stroke="#170E10" stroke-miterlimit="10" stroke-linejoin="round"/>
<path d="M284.206 78.6187V81.022" stroke="#170E10" stroke-miterlimit="10" stroke-linejoin="round"/>
<path d="M281.002 78.6187V81.022" stroke="#170E10" stroke-miterlimit="10" stroke-linejoin="round"/>
<path d="M297.024 72.2099V74.6132" stroke="#170E10" stroke-miterlimit="10" stroke-linejoin="round"/>
<path d="M293.819 72.2099V74.6132" stroke="#170E10" stroke-miterlimit="10" stroke-linejoin="round"/>
<path d="M290.615 72.2099V74.6132" stroke="#170E10" stroke-miterlimit="10" stroke-linejoin="round"/>
<path d="M287.41 72.2099V74.6132" stroke="#170E10" stroke-miterlimit="10" stroke-linejoin="round"/>
<path d="M284.206 72.2099V74.6132" stroke="#170E10" stroke-miterlimit="10" stroke-linejoin="round"/>
<path d="M281.002 72.2099V74.6132" stroke="#170E10" stroke-miterlimit="10" stroke-linejoin="round"/>
<path d="M297.024 65.8011V68.2044" stroke="#170E10" stroke-miterlimit="10" stroke-linejoin="round"/>
<path d="M293.819 65.8011V68.2044" stroke="#170E10" stroke-miterlimit="10" stroke-linejoin="round"/>
<path d="M290.615 65.8011V68.2044" stroke="#170E10" stroke-miterlimit="10" stroke-linejoin="round"/>
<path d="M287.41 65.8011V68.2044" stroke="#170E10" stroke-miterlimit="10" stroke-linejoin="round"/>
<path d="M284.206 65.8011V68.2044" stroke="#170E10" stroke-miterlimit="10" stroke-linejoin="round"/>
<path d="M281.002 65.8011V68.2044" stroke="#170E10" stroke-miterlimit="10" stroke-linejoin="round"/>
<path d="M297.024 59.3922V61.7955" stroke="#170E10" stroke-miterlimit="10" stroke-linejoin="round"/>
<path d="M293.819 59.3922V61.7955" stroke="#170E10" stroke-miterlimit="10" stroke-linejoin="round"/>
<path d="M290.615 59.3922V61.7955" stroke="#170E10" stroke-miterlimit="10" stroke-linejoin="round"/>
<path d="M287.41 59.3922V61.7955" stroke="#170E10" stroke-miterlimit="10" stroke-linejoin="round"/>
<path d="M284.206 59.3922V61.7955" stroke="#170E10" stroke-miterlimit="10" stroke-linejoin="round"/>
<path d="M281.002 59.3922V61.7955" stroke="#170E10" stroke-miterlimit="10" stroke-linejoin="round"/>
<path d="M297.024 52.9834V55.3867" stroke="#170E10" stroke-miterlimit="10" stroke-linejoin="round"/>
<path d="M293.819 52.9834V55.3867" stroke="#170E10" stroke-miterlimit="10" stroke-linejoin="round"/>
<path d="M290.615 52.9834V55.3867" stroke="#170E10" stroke-miterlimit="10" stroke-linejoin="round"/>
<path d="M287.41 52.9834V55.3867" stroke="#170E10" stroke-miterlimit="10" stroke-linejoin="round"/>
<path d="M284.206 52.9834V55.3867" stroke="#170E10" stroke-miterlimit="10" stroke-linejoin="round"/>
<path d="M281.002 52.9834V55.3867" stroke="#170E10" stroke-miterlimit="10" stroke-linejoin="round"/>
<path d="M294 85H284V94H294V85Z" fill="#FFC299"/>
<path opacity="0.69" d="M294 85H284V87H294V85Z" fill="#333333"/>
<path opacity="0.69" d="M286 87H284V94H286V87Z" fill="#333333"/>
<path d="M294 85H284V94H294V85Z" stroke="#170E10" stroke-miterlimit="10" stroke-linecap="round" stroke-linejoin="round"/>
<path d="M280.655 94.0445V65.9915" stroke="#170E10" stroke-miterlimit="10" stroke-linecap="round" stroke-linejoin="round"/>
<path d="M274.563 67.4182V65.9915" stroke="#170E10" stroke-miterlimit="10" stroke-linecap="round" stroke-linejoin="round"/>
<path d="M274.563 65.9914C274.563 64.3083 275.926 62.9457 277.609 62.9457C279.292 62.9457 280.655 64.3083 280.655 65.9914" stroke="#170E10" stroke-miterlimit="10" stroke-linecap="round" stroke-linejoin="round"/>
<path d="M277.369 70.528H271.758L274.564 67.2739L277.369 70.528Z" fill="white"/>
<path d="M277.369 70.528H271.758L274.564 67.2739L277.369 70.528Z" stroke="#170E10" stroke-miterlimit="10" stroke-linecap="round" stroke-linejoin="round"/>
<path d="M266.036 88.3858C269.665 88.3858 272.608 84.3021 272.608 79.2646C272.608 74.2271 269.665 70.1434 266.036 70.1434C262.406 70.1434 259.463 74.2271 259.463 79.2646C259.463 84.3021 262.406 88.3858 266.036 88.3858Z" fill="#FF6550"/>
<path opacity="0.53" d="M261.274 79.2646C261.274 74.728 263.663 70.9769 266.789 70.2716C266.436 70.1915 266.084 70.1434 265.731 70.1434C262.108 70.1434 259.158 74.2311 259.158 79.2646C259.158 84.2981 262.108 88.3858 265.731 88.3858C266.1 88.3858 266.452 88.3377 266.789 88.2576C263.647 87.5523 261.274 83.8012 261.274 79.2646Z" fill="#333333"/>
<path d="M266.036 88.3858C269.665 88.3858 272.608 84.3021 272.608 79.2646C272.608 74.2271 269.665 70.1434 266.036 70.1434C262.406 70.1434 259.463 74.2271 259.463 79.2646C259.463 84.3021 262.406 88.3858 266.036 88.3858Z" stroke="#170E10" stroke-miterlimit="10" stroke-linecap="round" stroke-linejoin="round"/>
<path d="M266.276 84.6186L268.167 82.7431" stroke="#170E10" stroke-miterlimit="10" stroke-linecap="round" stroke-linejoin="round"/>
<path d="M266.036 81.7652L264.032 79.8736" stroke="#170E10" stroke-miterlimit="10" stroke-linecap="round" stroke-linejoin="round"/>
<path d="M309.943 79.4256C310.542 84.9199 306.301 87.1331 304 86.9938C301.683 87.1331 297.459 84.9199 298.058 79.4256C299.129 74.1015 301.478 69.9846 304 70C306.506 69.9846 308.871 74.1015 309.943 79.4256Z" fill="#D44644"/>
<path opacity="0.53" d="M305.647 86.6843C303.289 86.8236 298.989 84.6104 299.599 79.1161C300.497 74.6897 302.326 71.0836 304.38 70.0157C304.283 70.0002 304.203 70.0002 304.107 70.0002C301.54 69.9692 299.133 74.0861 298.058 79.4256C297.449 84.9199 301.764 87.1331 304.107 86.9938C304.668 87.0248 305.326 86.9319 306 86.6843C305.872 86.6998 305.759 86.6998 305.647 86.6843Z" fill="#333333"/>
<path d="M309.943 79.4256C310.542 84.9199 306.301 87.1331 304 86.9938C301.683 87.1331 297.459 84.9199 298.058 79.4256C299.129 74.1015 301.478 69.9846 304 70C306.506 69.9846 308.871 74.1015 309.943 79.4256Z" stroke="#170E10" stroke-miterlimit="10" stroke-linecap="round" stroke-linejoin="round"/>
<path d="M304 83L306 81" stroke="#170E10" stroke-miterlimit="10" stroke-linecap="round" stroke-linejoin="round"/>
<path d="M304 80L302 78" stroke="#170E10" stroke-miterlimit="10" stroke-linecap="round" stroke-linejoin="round"/>
<path d="M304 76V94" stroke="#170E10" stroke-miterlimit="10" stroke-linecap="round" stroke-linejoin="round"/>
<path d="M266.276 77.5333V94.0445" stroke="#170E10" stroke-miterlimit="10" stroke-linecap="round" stroke-linejoin="round"/>
<path d="M266 27V33" stroke="#170E10" stroke-miterlimit="10" stroke-linejoin="round"/>
<path d="M270 27V33" stroke="#170E10" stroke-miterlimit="10" stroke-linejoin="round"/>
<path opacity="0.55" d="M265.987 74.5677C266.297 74.5677 266.548 74.3165 266.548 74.0066C266.548 73.6968 266.297 73.4456 265.987 73.4456C265.677 73.4456 265.426 73.6968 265.426 74.0066C265.426 74.3165 265.677 74.5677 265.987 74.5677Z" fill="white"/>
<path opacity="0.55" d="M269.45 80.8194C269.848 80.8194 270.171 80.4965 270.171 80.0981C270.171 79.6997 269.848 79.3767 269.45 79.3767C269.051 79.3767 268.729 79.6997 268.729 80.0981C268.729 80.4965 269.051 80.8194 269.45 80.8194Z" fill="white"/>
<path opacity="0.53" d="M268.889 77.0042C269.287 77.0042 269.61 76.6813 269.61 76.2829C269.61 75.8845 269.287 75.5615 268.889 75.5615C268.49 75.5615 268.167 75.8845 268.167 76.2829C268.167 76.6813 268.49 77.0042 268.889 77.0042Z" fill="#333333"/>
<path opacity="0.53" d="M264.032 77.7416C264.324 77.7416 264.561 77.5048 264.561 77.2127C264.561 76.9205 264.324 76.6837 264.032 76.6837C263.74 76.6837 263.503 76.9205 263.503 77.2127C263.503 77.5048 263.74 77.7416 264.032 77.7416Z" fill="#333333"/>
<path opacity="0.55" d="M303.5 83C303.776 83 304 82.7761 304 82.5C304 82.2239 303.776 82 303.5 82C303.224 82 303 82.2239 303 82.5C303 82.7761 303.224 83 303.5 83Z" fill="white"/>
<path opacity="0.55" d="M307.5 79C307.776 79 308 78.7761 308 78.5C308 78.2239 307.776 78 307.5 78C307.224 78 307 78.2239 307 78.5C307 78.7761 307.224 79 307.5 79Z" fill="white"/>
<path opacity="0.53" d="M306.5 76C306.776 76 307 75.7761 307 75.5C307 75.2239 306.776 75 306.5 75C306.224 75 306 75.2239 306 75.5C306 75.7761 306.224 76 306.5 76Z" fill="#333333"/>
<path opacity="0.53" d="M302.5 82C302.776 82 303 81.7761 303 81.5C303 81.2239 302.776 81 302.5 81C302.224 81 302 81.2239 302 81.5C302 81.7761 302.224 82 302.5 82Z" fill="#333333"/>
<path d="M302 94C302 92.3333 303.572 91 305.5 91C307.428 91 309 92.3478 309 94H302Z" fill="#E97E1C"/>
<path opacity="0.53" d="M307 91.1304C306.647 91.0435 306.257 91 305.848 91C303.71 91 302 92.3478 302 94H304.286C304.305 92.6522 305.439 91.5072 307 91.1304Z" fill="#333333"/>
<path d="M302 94C302 92.3333 303.572 91 305.5 91C307.428 91 309 92.3478 309 94H302Z" stroke="#170E10" stroke-miterlimit="10" stroke-linecap="round" stroke-linejoin="round"/>
<path d="M307 94C307 91.2315 309.008 89 311.5 89C313.992 89 316 91.2315 316 94H307Z" fill="#D44644"/>
<path opacity="0.53" d="M312 89.1007C311.733 89.0336 311.466 89 311.185 89C308.868 89 307 91.2315 307 94H308.615C308.629 91.5671 310.076 89.5369 312 89.1007Z" fill="#333333"/>
<path d="M307 94C307 91.2315 309.008 89 311.5 89C313.992 89 316 91.2315 316 94H307Z" stroke="#170E10" stroke-miterlimit="10" stroke-linecap="round" stroke-linejoin="round"/>
<defs>
<filter id="filter0_d" x="0" y="0" width="348" height="231" filterUnits="userSpaceOnUse" color-interpolation-filters="sRGB">
<feFlood flood-opacity="0" result="BackgroundImageFix"/>
<feColorMatrix in="SourceAlpha" type="matrix" values="0 0 0 0 0 0 0 0 0 0 0 0 0 0 0 0 0 0 127 0"/>
<feOffset dy="4"/>
<feGaussianBlur stdDeviation="2"/>
<feColorMatrix type="matrix" values="0 0 0 0 0 0 0 0 0 0 0 0 0 0 0 0 0 0 0.08 0"/>
<feBlend mode="normal" in2="BackgroundImageFix" result="effect1_dropShadow"/>
<feBlend mode="normal" in="SourceGraphic" in2="effect1_dropShadow" result="shape"/>
</filter>
</defs>
</svg>
