<svg width="1234" height="225" fill="none" xmlns="http://www.w3.org/2000/svg">
  <mask id="a" maskUnits="userSpaceOnUse" x="0" y="0" width="1234" height="225">
    <path fill="#C4C4C4" d="M0 .948h1234v224H0z"/>
  </mask>
  <g mask="url(#a)">
    <rect x="-2" y="24.948" width="1236" height="200" rx="7" fill="url(#Group_62__paint0_linear)"/>
    <path d="M870.2 46.666c-4.114 8.92-3.429 19.213 1.371 28.134l86.136 149.648h69.683L945.629 83.034l248.911-41.172c10.11-1.618 18.07-7.766 22.34-15.914H914.5l-21.671 3.562c-9.6 1.373-18.515 8.235-22.629 17.155z" fill="#F5F5F5" fill-opacity=".5"/>
  </g>
  <path d="M630.991 126.901a2.397 2.397 0 01-2.405 2.404c-1.307 0-2.404-1.097-2.404-2.404a2.398 2.398 0 012.404-2.405c1.36.052 2.405 1.098 2.405 2.405z" fill="#59BCAB"/>
  <path d="M616.04 126.273a6.068 6.068 0 01-6.064-6.064 6.068 6.068 0 016.064-6.064 6.068 6.068 0 016.064 6.064 6.068 6.068 0 01-6.064 6.064zm0-8.939a2.866 2.866 0 00-2.875 2.875c0 1.569 1.306 2.876 2.875 2.876a2.867 2.867 0 002.875-2.876 2.867 2.867 0 00-2.875-2.875z" fill="#FCC450"/>
  <path d="M844.179 21.091v168.231c0 2.823-2.3 5.123-5.123 5.123H731.468a5.131 5.131 0 01-5.123-5.123V21.092c0-2.823 2.3-5.176 5.123-5.176h107.535c2.876 0 5.176 2.3 5.176 5.175z" fill="#4FBECB"/>
  <path d="M714.478 199.255h141.568a2.398 2.398 0 002.405-2.404 2.399 2.399 0 00-2.405-2.405H714.478a2.398 2.398 0 00-2.405 2.405 2.398 2.398 0 002.405 2.404z" fill="#E2E2E1"/>
  <path d="M844.179 21.04v12.547H726.345V21.04c0-2.823 2.3-5.176 5.123-5.176h107.535c2.876.052 5.176 2.353 5.176 5.176z" fill="#4FBECB"/>
  <path d="M785.262 190.002a4.797 4.797 0 01-4.809-4.81 4.796 4.796 0 014.809-4.809 4.797 4.797 0 014.81 4.809c.052 2.666-2.144 4.81-4.81 4.81zM739.937 26.581a1.986 1.986 0 111.986-1.986c-.052 1.098-.941 1.986-1.986 1.986zm6.221 0a1.986 1.986 0 110-3.971 1.986 1.986 0 010 3.971z" fill="#E6F2EA"/>
  <path d="M842.349 33.585H728.174v141.621h114.175V33.586z" fill="#D2EBF7"/>
  <path d="M748.612 81.055V64.273h-37.797v16.782h37.797zm23.065 42.703v-16.781H733.88v16.781h37.797zm-11.507-21.327V85.65h-37.796v16.781h37.796z" fill="#A9DAE5"/>
  <path d="M835.816 39.545H733.874v19.081h101.942V39.545z" fill="#EDF6F4"/>
  <path d="M832.731 42.262h-13.54v13.54h13.54v-13.54z" fill="#D2E8F2"/>
  <path d="M769.788 43.098H740.46v2.614h29.328v-2.614zm0 4.652H740.46v2.613h29.328V47.75zm-9.567 4.654H740.46v2.613h19.761v-2.613z" fill="#ACD8C8"/>
  <path opacity=".5" d="M855.053 121.047H771.67v39.156h83.383v-39.156z" fill="#96CEB8"/>
  <path d="M812.708 134.587h-32.726v3.293h32.726v-3.293zm-7.789 5.856h-24.937v3.294h24.937v-3.294zm-8.103 5.906h-16.834v3.294h16.834v-3.294zm12.128 0h-10.038v3.294h10.038v-3.294zm-6.221 5.856h-22.741v3.294h22.741v-3.294z" fill="#E6F2EA"/>
  <path d="M763.986 130.039h-30.112v30.112h30.112v-30.112z" fill="#9FD2BA"/>
  <path d="M755.589 151.849a9.41 9.41 0 000-13.308 9.41 9.41 0 00-13.308 0 9.41 9.41 0 1013.308 13.308z" fill="#7CC39E"/>
  <path d="M756.092 145.2a7.127 7.127 0 01-2.927 5.75c-.523.366-1.098.732-1.726.941-.261.105-.575.21-.836.262-.157.052-.366.052-.523.104a7.696 7.696 0 01-1.098.105 7.335 7.335 0 01-2.143-.314c-2.928-.888-5.019-3.607-5.019-6.848 0-1.098.262-2.196.732-3.137.575-1.15 1.412-2.143 2.457-2.823l.784-.47a5.718 5.718 0 011.882-.628c.419-.104.889-.104 1.307-.104 3.032 0 5.646 1.882 6.64 4.548.261.836.47 1.673.47 2.614z" fill="#EFF4F4"/>
  <path d="M748.93 146.036a.826.826 0 01-.836-.836v-4.601c0-.47.366-.836.836-.836.471 0 .837.366.837.836v4.601c0 .47-.366.836-.837.836z" fill="#C1D6CF"/>
  <path d="M748.93 146.038c-.261 0-.523-.156-.68-.366-.261-.366-.104-.888.262-1.15l2.352-1.516c.366-.261.889-.104 1.15.262.262.366.105.888-.261 1.15l-2.353 1.516c-.156.052-.313.104-.47.104z" fill="#C1D6CF"/>
  <path d="M835.815 64.271h-59.492v59.492h59.492V64.271z" fill="#98D5E9"/>
  <path d="M806.069 96.683a7.586 7.586 0 01-7.58-7.58v-4.549a7.586 7.586 0 017.58-7.58 7.586 7.586 0 017.58 7.58v4.548a7.586 7.586 0 01-7.58 7.58z" fill="#F8FCFA"/>
  <path d="M806.069 92.815c-7.162 0-13.279 4.182-16.154 10.246-1.673 3.555.889 7.633 4.81 7.633h22.74c3.921 0 6.483-4.078 4.81-7.633-2.875-6.064-9.044-10.246-16.206-10.246z" fill="#F8FCFA"/>
  <path d="M835.804 167.026v-4.862H733.862v4.862h101.942z" fill="#FFE1AB"/>
  <path d="M843.448 62.338V44.616a2.32 2.32 0 012.3 2.3V60.09c0 1.255-1.046 2.248-2.3 2.248zm0 19.813V64.43a2.32 2.32 0 012.3 2.3v13.174c0 1.203-1.046 2.248-2.3 2.248z" fill="#4FBECB"/>
  <path opacity=".3" d="M794.411 33.585l-66.236 66.236V64.22l30.635-30.635h35.601zm24.78 0l-91.016 91.016v-17.775l73.242-73.24h17.774z" fill="#F6FBFD"/>
  <path opacity=".3" d="M751.805 135.527v15.266c0 .627-.418 1.202-.993 1.359v42.24h-19.291a5.131 5.131 0 01-5.123-5.123v-84.847h20.859a3.56 3.56 0 013.555 3.555v26.191c.575.209.993.732.993 1.359z" fill="#385F82"/>
  <path d="M737.116 97.364v116.789a3.56 3.56 0 01-3.555 3.555h-61.322a3.56 3.56 0 01-3.555-3.555V97.364a3.559 3.559 0 013.555-3.555h61.27c1.986 0 3.607 1.569 3.607 3.555z" fill="#5BB98E"/>
  <path d="M737.116 97.364v8.731h-68.432v-8.73a3.559 3.559 0 013.555-3.556h61.322c1.934 0 3.555 1.62 3.555 3.555z" fill="#5BB98E"/>
  <path d="M702.874 214.675c-1.83 0-3.346-1.516-3.346-3.346s1.516-3.346 3.346-3.346 3.346 1.516 3.346 3.346a3.336 3.336 0 01-3.346 3.346zm-12.39-113.495a1.383 1.383 0 01-1.359-1.359c0-.732.627-1.36 1.359-1.36s1.359.628 1.359 1.36c0 .784-.575 1.359-1.359 1.359zm19.29-.837h-13.54a.524.524 0 01-.523-.523c0-.314.21-.523.523-.523h13.54a.524.524 0 010 1.046z" fill="#E6F2EA"/>
  <path d="M735.81 106.095h-65.871v98.334h65.871v-98.334z" fill="#D2EBF7"/>
  <path d="M687.19 158.373h-11.971v3.764h11.971v-3.764zm30.479 0h-11.972v3.764h11.972v-3.764zm-15.266 0h-11.971v3.764h11.971v-3.764zm28.23 6.849h-48.2v13.226h48.2v-13.226z" fill="#EDF6F4"/>
  <path d="M728.49 167.102h-9.41v9.41h9.41v-9.41z" fill="#D5EAE4"/>
  <path d="M700.312 167.68h-20.389v1.83h20.389v-1.83zm0 3.24h-20.389v1.829h20.389v-1.829zm-6.692 3.24h-13.697v1.83h13.697v-1.83z" fill="#ACD8C8"/>
  <path d="M710.558 181.74h-35.235v16.52h35.235v-16.52z" fill="#EDF6F4"/>
  <path d="M697.907 184.25h-17.984v1.83h17.984v-1.83zm-4.287 3.189h-13.697v1.83h13.697v-1.83zm-4.443 3.241h-9.254v1.83h9.254v-1.83z" fill="#FFE1AB"/>
  <path d="M695.815 190.68h-5.489v1.83h5.489v-1.83z" fill="#ACD8C8"/>
  <path d="M692.418 193.922h-12.495v1.829h12.495v-1.829z" fill="#FFE1AB"/>
  <path opacity=".5" d="M717.72 112.211h-51.859v42.293h51.859v-42.293z" fill="#FFE1AB"/>
  <path d="M696.548 146.767c7.334 0 13.279-5.945 13.279-13.279 0-7.333-5.945-13.279-13.279-13.279-7.333 0-13.278 5.946-13.278 13.279 0 7.334 5.945 13.279 13.278 13.279z" fill="#FCC450"/>
  <path d="M706.585 133.49c0 3.345-1.621 6.273-4.078 8.103-.732.522-1.568.993-2.457 1.307-.366.156-.784.261-1.202.366-.262.052-.523.104-.732.156-.523.105-1.046.105-1.568.105a9.351 9.351 0 01-2.98-.471c-4.078-1.254-7.058-5.123-7.058-9.619 0-1.568.366-3.032.994-4.391.784-1.621 1.986-3.032 3.502-4.025a5.863 5.863 0 011.098-.628 9.668 9.668 0 012.614-.889 10.861 10.861 0 011.83-.156c4.286 0 7.946 2.666 9.357 6.43.471 1.202.68 2.457.68 3.712z" fill="#EFF4F4"/>
  <path d="M696.548 134.692a1.16 1.16 0 01-1.15-1.151v-6.43c0-.627.523-1.15 1.15-1.15.627 0 1.15.523 1.15 1.15v6.43a1.16 1.16 0 01-1.15 1.151z" fill="#C1D6CF"/>
  <path d="M696.548 134.69c-.366 0-.785-.209-.994-.523-.366-.523-.157-1.255.366-1.62l3.346-2.092c.523-.366 1.255-.156 1.621.366.366.523.156 1.255-.366 1.621l-3.346 2.091a1.385 1.385 0 01-.627.157z" fill="#C1D6CF"/>
  <path opacity=".3" d="M715.943 106.095l-46.004 45.953v-24.675l21.277-21.278h24.727zm17.2 0l-63.204 63.204V156.91l50.814-50.815h12.39z" fill="#F6FBFD"/>
  <g opacity=".7">
    <path opacity=".7" d="M739.625 181.74h-25.511v25.512h25.511V181.74z" fill="#9FD2BA"/>
    <path opacity=".7" d="M726.817 195.646a3.258 3.258 0 01-3.241-3.241v-1.934a3.258 3.258 0 013.241-3.242 3.258 3.258 0 013.242 3.242v1.934c.052 1.777-1.412 3.241-3.242 3.241z" fill="#F8FCFA"/>
    <path opacity=".7" d="M726.818 193.973c-3.085 0-5.699 1.778-6.953 4.392-.732 1.516.366 3.293 2.038 3.293h9.724c1.673 0 2.771-1.777 2.039-3.293-1.098-2.614-3.764-4.392-6.848-4.392z" fill="#F8FCFA"/>
  </g>
  <path d="M729.953 112.211h-7.58v49.926h7.58v-49.926z" fill="#9FD2BA"/>
  <path d="M736.593 141.696v-18.245c.836 0 1.516.679 1.516 1.516v15.265c0 .784-.68 1.464-1.516 1.464z" fill="#5BB98E"/>
  <path opacity=".3" d="M690.797 93.81l-6.273 18.401-14.429 42.293-1.411 4.182v-4.182h-2.771v-42.293h2.771V97.364a3.558 3.558 0 013.555-3.555h18.558z" fill="#385F82"/>
  <path d="M634.546 222.518h112.189a2.397 2.397 0 002.404-2.405 2.398 2.398 0 00-2.404-2.405H634.546a2.398 2.398 0 00-2.404 2.405c.052 1.36 1.097 2.405 2.404 2.405z" fill="#E2E2E1"/>
  <path opacity=".34" d="M638.408 217.542c20.661 0 37.409-3.276 37.409-7.318s-16.748-7.318-37.409-7.318c-20.66 0-37.408 3.276-37.408 7.318s16.748 7.318 37.408 7.318z" fill="#575FA8"/>
  <path d="M642.502 197.021l-.767 12.487h22.312s-9.109-6.09-13.152-8.034l-.461-4.401h-7.932v-.052z" fill="#F08789"/>
  <path d="M649.411 97.948l1.484 102.451h-8.802s-9.723-40.121-4.964-51.84l-8.495-50.611h20.777z" fill="#32388D"/>
  <path opacity=".2" d="M649.411 97.948h-20.726l8.495 50.611c-1.638 4.043-1.586 11.515-.768 19.549l14.278 17.451-1.279-87.611z" fill="#020203"/>
  <path d="M618.962 198.658l-3.428 12.487h24.359s-10.286-6.09-14.38-8.035l.767-4.401h-7.318v-.051z" fill="#F08789"/>
  <path d="M650.025 96.669l-8.648 51.379-14.585 52.351h-8.75s2.814-50.253 11.821-55.473L622.75 96.72h27.275v-.051z" fill="#32388D"/>
  <path opacity=".2" d="M649.462 100.2l.563-3.531h-27.276l.614 4.196 26.15 3.327-.051-3.992z" fill="#020203"/>
  <path d="M664.099 61.204s5.424-8.75 13.868-10.747l-3.326 3.992s1.586 4.145-.41 6.243c-1.996 2.098-5.22 2.252-5.22 2.252l-2.251 2.507-2.661-4.247z" fill="#F5ABAE"/>
  <path d="M642.656 54.04l7.42 15.148 14.534-9.825 3.633 5.578s-12.64 23.745-18.218 22.005c-5.578-1.74-10.388-14.278-10.388-14.278l3.019-18.628z" fill="#fff"/>
  <path opacity=".2" d="M650.025 69.188l-7.42-15.148-2.968 18.628s4.81 12.538 10.388 14.278c.154.05.256.05.41.05l6.703-22.67-7.113 4.862z" fill="#020203"/>
  <path d="M648.285 18.267s.87 7.727 1.74 9.62h-2.405s.205 7.421-1.331 8.342c-1.074.666-4.196 0-4.912.87-.717.87-1.791 7.062-1.791 7.062l-9.672-.819.972-8.648s-5.425-6.5-3.787-14.482c1.638-7.984 19.753-9.365 21.186-1.945z" fill="#F5ABAE"/>
  <path opacity=".2" d="M636.208 31.165l-7.625-.41c1.126 2.406 2.354 3.89 2.354 3.89l-.972 8.648 9.672.819s1.074-6.192 1.791-7.062c.256-.307.87-.46 1.586-.46-3.736-1.024-7.113-5.22-6.806-5.425z" fill="#020203"/>
  <path d="M648.593 20.828s-2.047 1.228-6.141-1.485c0 0-2.764 4.964-5.169 4.3 0 0-.102 3.53-.614 3.786-.512.256-1.535-3.02-2.559-3.224-1.023-.205-2.098.819-.972 3.89 1.075 3.07 3.07 3.07 3.07 3.07l-5.322 3.53s-4.196-1.33-5.015-4.81c0 0-5.322-5.168-2.098-8.853 0 0-3.531-2.968 4.708-6.601 0 0 1.945-7.165 5.783-3.89 0 0 7.113-5.322 8.853-.562 0 0 9.16-.768 9.723 4.196.563 4.964-1.638 6.14-1.638 6.14s.512 4.095-2.047 4.3l-.562-3.787z" fill="#212226"/>
  <path d="M623.209 53.376s-4.81-1.177-3.991-6.294c.819-5.169 7.574-7.471 21.442-4.248 1.638.359 2.917 3.071 1.842 5.425 0 0 4.452 10.951 5.834 19.907 1.382 8.955 2.098 18.32 3.633 22.67 1.485 4.35.256 9.211-3.889 9.211H622.8c-5.015 0-5.629-6.96-3.633-14.226 1.944-7.216 4.861-27.225 4.042-32.445z" fill="#444496"/>
  <path d="M634.468 50.561c7.881 1.689 2.406 17.348.819 21.8-1.586 4.504-3.326 8.495-.819 11.975 2.508 3.48 6.909 7.37 6.909 7.37l-2.968 6.243s-16.427-2.099-20.368-6.96c-3.889-4.862-1.688-15.71 1.689-23.182 3.378-7.471 8.853-18.474 14.738-17.246z" fill="#fff"/>
  <path d="M637.948 99.02c-.204-.102-.256-.306-.204-.511l3.991-8.7c.103-.204.307-.255.512-.204.205.102.256.307.205.511l-3.992 8.7c-.102.205-.307.256-.512.205z" fill="#A77071"/>
  <defs>
    <linearGradient id="Group_62__paint0_linear" x1="691.5" y1="-106.552" x2="570.5" y2="289.448" gradientUnits="userSpaceOnUse">
      <stop stop-color="#4630CC"/>
      <stop offset="1" stop-color="#2F4DB8" stop-opacity=".39"/>
    </linearGradient>
  </defs>
</svg>
